%FSLAX45Y45*%
G04 Gerber Fmt 4.5, Leading zero omitted, Abs format (unit mm)*
G04 Created by KiCad (PCBNEW 5.1.7) date 2020-11-01 11:13:00*
%MOMM*%
%LPD*%
G01*
G04 APERTURE LIST*
%TA.AperFunction,Profile*%
%ADD10C,0.381000*%
%TD*%
%ADD11C,0.200000*%
%ADD12C,0.300000*%
G04 APERTURE END LIST*
D10*
X9012100Y-3225800D02*
X9352100Y-3225800D01*
X9012100Y-3225800D02*
X7787640Y-3225800D01*
X9504680Y-3225800D02*
X9352100Y-3225800D01*
X20274280Y-3225800D02*
X14340840Y-3225800D01*
X14340840Y-3225800D02*
X13190220Y-3225800D01*
X13190220Y-3225800D02*
X9504680Y-3225800D01*
X7787640Y-3225800D02*
X6581140Y-3225800D01*
X6581140Y-3225800D02*
X6261100Y-3543300D01*
X12715240Y-15290800D02*
X19639280Y-15290800D01*
X19639280Y-15290800D02*
X20591780Y-14338300D01*
X20591780Y-14338300D02*
X20591780Y-3543300D01*
X20591780Y-3543300D02*
X20274280Y-3225800D01*
X6261100Y-3543300D02*
X6261100Y-12166600D01*
X6261100Y-12166600D02*
X5770880Y-12166600D01*
X5770880Y-12166600D02*
X2461768Y-13709650D01*
X2461768Y-13709650D02*
X2308098Y-14131544D01*
X2308098Y-14131544D02*
X4476496Y-18781776D01*
X4476496Y-18781776D02*
X4898390Y-18935192D01*
X4898390Y-18935192D02*
X12715240Y-15290800D01*
D11*
X9117600Y-3389800D02*
X9237600Y-3509800D01*
X9237600Y-3389800D02*
X9117600Y-3509800D01*
X9117600Y-4089800D02*
X9237600Y-4209800D01*
X9237600Y-4089800D02*
X9117600Y-4209800D01*
X10626090Y-14002766D02*
G75*
G03*
X10626090Y-14002766I-85090J0D01*
G01*
X11642090Y-14002766D02*
G75*
G03*
X11642090Y-14002766I-85090J0D01*
G01*
X18722340Y-8605266D02*
G75*
G03*
X18722340Y-8605266I-85090J0D01*
G01*
X19738340Y-8605266D02*
G75*
G03*
X19738340Y-8605266I-85090J0D01*
G01*
X16341090Y-6700520D02*
G75*
G03*
X16341090Y-6700520I-85090J0D01*
G01*
X17357090Y-6700520D02*
G75*
G03*
X17357090Y-6700520I-85090J0D01*
G01*
X5626198Y-15463072D02*
G75*
G03*
X5626198Y-15463072I-85090J0D01*
G01*
X6547006Y-15033692D02*
G75*
G03*
X6547006Y-15033692I-85090J0D01*
G01*
X10626090Y-10192766D02*
G75*
G03*
X10626090Y-10192766I-85090J0D01*
G01*
X11642090Y-10192766D02*
G75*
G03*
X11642090Y-10192766I-85090J0D01*
G01*
X14436090Y-6382766D02*
G75*
G03*
X14436090Y-6382766I-85090J0D01*
G01*
X15452090Y-6382766D02*
G75*
G03*
X15452090Y-6382766I-85090J0D01*
G01*
X14436090Y-12097766D02*
G75*
G03*
X14436090Y-12097766I-85090J0D01*
G01*
X15452090Y-12097766D02*
G75*
G03*
X15452090Y-12097766I-85090J0D01*
G01*
X16341090Y-10510266D02*
G75*
G03*
X16341090Y-10510266I-85090J0D01*
G01*
X17357090Y-10510266D02*
G75*
G03*
X17357090Y-10510266I-85090J0D01*
G01*
X12531090Y-10033000D02*
G75*
G03*
X12531090Y-10033000I-85090J0D01*
G01*
X13547090Y-10033000D02*
G75*
G03*
X13547090Y-10033000I-85090J0D01*
G01*
X10626090Y-8287766D02*
G75*
G03*
X10626090Y-8287766I-85090J0D01*
G01*
X11642090Y-8287766D02*
G75*
G03*
X11642090Y-8287766I-85090J0D01*
G01*
X8721090Y-10319766D02*
G75*
G03*
X8721090Y-10319766I-85090J0D01*
G01*
X9737090Y-10319766D02*
G75*
G03*
X9737090Y-10319766I-85090J0D01*
G01*
X10626090Y-12097766D02*
G75*
G03*
X10626090Y-12097766I-85090J0D01*
G01*
X11642090Y-12097766D02*
G75*
G03*
X11642090Y-12097766I-85090J0D01*
G01*
X12531090Y-13843000D02*
G75*
G03*
X12531090Y-13843000I-85090J0D01*
G01*
X13547090Y-13843000D02*
G75*
G03*
X13547090Y-13843000I-85090J0D01*
G01*
X8152286Y-16364490D02*
G75*
G03*
X8152286Y-16364490I-85090J0D01*
G01*
X9073094Y-15935110D02*
G75*
G03*
X9073094Y-15935110I-85090J0D01*
G01*
X14436090Y-10192766D02*
G75*
G03*
X14436090Y-10192766I-85090J0D01*
G01*
X15452090Y-10192766D02*
G75*
G03*
X15452090Y-10192766I-85090J0D01*
G01*
X18722340Y-10510266D02*
G75*
G03*
X18722340Y-10510266I-85090J0D01*
G01*
X19738340Y-10510266D02*
G75*
G03*
X19738340Y-10510266I-85090J0D01*
G01*
X7352636Y-14657892D02*
G75*
G03*
X7352636Y-14657892I-85090J0D01*
G01*
X8273444Y-14228512D02*
G75*
G03*
X8273444Y-14228512I-85090J0D01*
G01*
X8721090Y-12224766D02*
G75*
G03*
X8721090Y-12224766I-85090J0D01*
G01*
X9737090Y-12224766D02*
G75*
G03*
X9737090Y-12224766I-85090J0D01*
G01*
X7324090Y-11240516D02*
G75*
G03*
X7324090Y-11240516I-85090J0D01*
G01*
X7324090Y-12256516D02*
G75*
G03*
X7324090Y-12256516I-85090J0D01*
G01*
X12531090Y-8128000D02*
G75*
G03*
X12531090Y-8128000I-85090J0D01*
G01*
X13547090Y-8128000D02*
G75*
G03*
X13547090Y-8128000I-85090J0D01*
G01*
X18722340Y-6700520D02*
G75*
G03*
X18722340Y-6700520I-85090J0D01*
G01*
X19738340Y-6700520D02*
G75*
G03*
X19738340Y-6700520I-85090J0D01*
G01*
X18722340Y-12415266D02*
G75*
G03*
X18722340Y-12415266I-85090J0D01*
G01*
X19738340Y-12415266D02*
G75*
G03*
X19738340Y-12415266I-85090J0D01*
G01*
X14436090Y-8287766D02*
G75*
G03*
X14436090Y-8287766I-85090J0D01*
G01*
X15452090Y-8287766D02*
G75*
G03*
X15452090Y-8287766I-85090J0D01*
G01*
X16341090Y-8605266D02*
G75*
G03*
X16341090Y-8605266I-85090J0D01*
G01*
X17357090Y-8605266D02*
G75*
G03*
X17357090Y-8605266I-85090J0D01*
G01*
X8721090Y-6510020D02*
G75*
G03*
X8721090Y-6510020I-85090J0D01*
G01*
X9737090Y-6510020D02*
G75*
G03*
X9737090Y-6510020I-85090J0D01*
G01*
X3899506Y-16267998D02*
G75*
G03*
X3899506Y-16267998I-85090J0D01*
G01*
X4820314Y-15838618D02*
G75*
G03*
X4820314Y-15838618I-85090J0D01*
G01*
X12531090Y-6223000D02*
G75*
G03*
X12531090Y-6223000I-85090J0D01*
G01*
X13547090Y-6223000D02*
G75*
G03*
X13547090Y-6223000I-85090J0D01*
G01*
X10626090Y-6382766D02*
G75*
G03*
X10626090Y-6382766I-85090J0D01*
G01*
X11642090Y-6382766D02*
G75*
G03*
X11642090Y-6382766I-85090J0D01*
G01*
X3094580Y-14541560D02*
G75*
G03*
X3094580Y-14541560I-85090J0D01*
G01*
X4015388Y-14112180D02*
G75*
G03*
X4015388Y-14112180I-85090J0D01*
G01*
X6352286Y-17164490D02*
G75*
G03*
X6352286Y-17164490I-85090J0D01*
G01*
X7273094Y-16735110D02*
G75*
G03*
X7273094Y-16735110I-85090J0D01*
G01*
X12531090Y-11938000D02*
G75*
G03*
X12531090Y-11938000I-85090J0D01*
G01*
X13547090Y-11938000D02*
G75*
G03*
X13547090Y-11938000I-85090J0D01*
G01*
X16341090Y-12415266D02*
G75*
G03*
X16341090Y-12415266I-85090J0D01*
G01*
X17357090Y-12415266D02*
G75*
G03*
X17357090Y-12415266I-85090J0D01*
G01*
X14436090Y-14002766D02*
G75*
G03*
X14436090Y-14002766I-85090J0D01*
G01*
X15452090Y-14002766D02*
G75*
G03*
X15452090Y-14002766I-85090J0D01*
G01*
X4821018Y-13736634D02*
G75*
G03*
X4821018Y-13736634I-85090J0D01*
G01*
X5741826Y-13307254D02*
G75*
G03*
X5741826Y-13307254I-85090J0D01*
G01*
X16341090Y-14320266D02*
G75*
G03*
X16341090Y-14320266I-85090J0D01*
G01*
X17357090Y-14320266D02*
G75*
G03*
X17357090Y-14320266I-85090J0D01*
G01*
X6816090Y-6510020D02*
G75*
G03*
X6816090Y-6510020I-85090J0D01*
G01*
X7832090Y-6510020D02*
G75*
G03*
X7832090Y-6510020I-85090J0D01*
G01*
X7324090Y-8383016D02*
G75*
G03*
X7324090Y-8383016I-85090J0D01*
G01*
X7324090Y-9399016D02*
G75*
G03*
X7324090Y-9399016I-85090J0D01*
G01*
X8721090Y-8414766D02*
G75*
G03*
X8721090Y-8414766I-85090J0D01*
G01*
X9737090Y-8414766D02*
G75*
G03*
X9737090Y-8414766I-85090J0D01*
G01*
X18246090Y-14320266D02*
G75*
G03*
X18246090Y-14320266I-85090J0D01*
G01*
X19262090Y-14320266D02*
G75*
G03*
X19262090Y-14320266I-85090J0D01*
G01*
X4704686Y-17994690D02*
G75*
G03*
X4704686Y-17994690I-85090J0D01*
G01*
X5625494Y-17565310D02*
G75*
G03*
X5625494Y-17565310I-85090J0D01*
G01*
X16764000Y-8405876D02*
X16764000Y-8804656D01*
X16564610Y-8605266D02*
X16963390Y-8605266D01*
X9144000Y-6310630D02*
X9144000Y-6709410D01*
X8944610Y-6510020D02*
X9343390Y-6510020D01*
X4274820Y-15853918D02*
X4274820Y-16252698D01*
X4075430Y-16053308D02*
X4474210Y-16053308D01*
X12954000Y-6023610D02*
X12954000Y-6422390D01*
X12754610Y-6223000D02*
X13153390Y-6223000D01*
X11049000Y-6183376D02*
X11049000Y-6582156D01*
X10849610Y-6382766D02*
X11248390Y-6382766D01*
X3469894Y-14127480D02*
X3469894Y-14526260D01*
X3270504Y-14326870D02*
X3669284Y-14326870D01*
X6727600Y-16750410D02*
X6727600Y-17149190D01*
X6528210Y-16949800D02*
X6926990Y-16949800D01*
X12954000Y-11738610D02*
X12954000Y-12137390D01*
X12754610Y-11938000D02*
X13153390Y-11938000D01*
X16764000Y-12215876D02*
X16764000Y-12614656D01*
X16564610Y-12415266D02*
X16963390Y-12415266D01*
X14859000Y-13803376D02*
X14859000Y-14202156D01*
X14659610Y-14002766D02*
X15058390Y-14002766D01*
X5196332Y-13322554D02*
X5196332Y-13721334D01*
X4996942Y-13521944D02*
X5395722Y-13521944D01*
X16764000Y-14120876D02*
X16764000Y-14519656D01*
X16564610Y-14320266D02*
X16963390Y-14320266D01*
X7239000Y-6310630D02*
X7239000Y-6709410D01*
X7039610Y-6510020D02*
X7438390Y-6510020D01*
X7239000Y-8691626D02*
X7239000Y-9090406D01*
X7039610Y-8891016D02*
X7438390Y-8891016D01*
X9144000Y-8215376D02*
X9144000Y-8614156D01*
X8944610Y-8414766D02*
X9343390Y-8414766D01*
X18669000Y-14120876D02*
X18669000Y-14519656D01*
X18469610Y-14320266D02*
X18868390Y-14320266D01*
X5080000Y-17580610D02*
X5080000Y-17979390D01*
X4880610Y-17780000D02*
X5279390Y-17780000D01*
X11049000Y-13803376D02*
X11049000Y-14202156D01*
X10849610Y-14002766D02*
X11248390Y-14002766D01*
X19145250Y-8405876D02*
X19145250Y-8804656D01*
X18945860Y-8605266D02*
X19344640Y-8605266D01*
X16764000Y-6501130D02*
X16764000Y-6899910D01*
X16564610Y-6700520D02*
X16963390Y-6700520D01*
X6001512Y-15048992D02*
X6001512Y-15447772D01*
X5802122Y-15248382D02*
X6200902Y-15248382D01*
X11049000Y-9993376D02*
X11049000Y-10392156D01*
X10849610Y-10192766D02*
X11248390Y-10192766D01*
X14859000Y-6183376D02*
X14859000Y-6582156D01*
X14659610Y-6382766D02*
X15058390Y-6382766D01*
X14859000Y-11898376D02*
X14859000Y-12297156D01*
X14659610Y-12097766D02*
X15058390Y-12097766D01*
X16764000Y-10310876D02*
X16764000Y-10709656D01*
X16564610Y-10510266D02*
X16963390Y-10510266D01*
X12954000Y-9833610D02*
X12954000Y-10232390D01*
X12754610Y-10033000D02*
X13153390Y-10033000D01*
X11049000Y-8088376D02*
X11049000Y-8487156D01*
X10849610Y-8287766D02*
X11248390Y-8287766D01*
X9144000Y-10120376D02*
X9144000Y-10519156D01*
X8944610Y-10319766D02*
X9343390Y-10319766D01*
X11049000Y-11898376D02*
X11049000Y-12297156D01*
X10849610Y-12097766D02*
X11248390Y-12097766D01*
X12954000Y-13643610D02*
X12954000Y-14042390D01*
X12754610Y-13843000D02*
X13153390Y-13843000D01*
X8527600Y-15950410D02*
X8527600Y-16349190D01*
X8328210Y-16149800D02*
X8726990Y-16149800D01*
X14859000Y-9993376D02*
X14859000Y-10392156D01*
X14659610Y-10192766D02*
X15058390Y-10192766D01*
X19145250Y-10310876D02*
X19145250Y-10709656D01*
X18945860Y-10510266D02*
X19344640Y-10510266D01*
X7727950Y-14243812D02*
X7727950Y-14642592D01*
X7528560Y-14443202D02*
X7927340Y-14443202D01*
X9144000Y-12025376D02*
X9144000Y-12424156D01*
X8944610Y-12224766D02*
X9343390Y-12224766D01*
X7239000Y-11549126D02*
X7239000Y-11947906D01*
X7039610Y-11748516D02*
X7438390Y-11748516D01*
X12954000Y-7928610D02*
X12954000Y-8327390D01*
X12754610Y-8128000D02*
X13153390Y-8128000D01*
X19145250Y-6501130D02*
X19145250Y-6899910D01*
X18945860Y-6700520D02*
X19344640Y-6700520D01*
X19145250Y-12215876D02*
X19145250Y-12614656D01*
X18945860Y-12415266D02*
X19344640Y-12415266D01*
X14859000Y-8088376D02*
X14859000Y-8487156D01*
X14659610Y-8287766D02*
X15058390Y-8287766D01*
D12*
X2575476Y-19419956D02*
X2575476Y-19119956D01*
X2646905Y-19119956D01*
X2689762Y-19134242D01*
X2718334Y-19162814D01*
X2732619Y-19191385D01*
X2746905Y-19248528D01*
X2746905Y-19291385D01*
X2732619Y-19348528D01*
X2718334Y-19377099D01*
X2689762Y-19405671D01*
X2646905Y-19419956D01*
X2575476Y-19419956D01*
X2875476Y-19419956D02*
X2875476Y-19219956D01*
X2875476Y-19277099D02*
X2889762Y-19248528D01*
X2904048Y-19234242D01*
X2932619Y-19219956D01*
X2961191Y-19219956D01*
X3061191Y-19419956D02*
X3061191Y-19219956D01*
X3061191Y-19119956D02*
X3046905Y-19134242D01*
X3061191Y-19148528D01*
X3075476Y-19134242D01*
X3061191Y-19119956D01*
X3061191Y-19148528D01*
X3246905Y-19419956D02*
X3218334Y-19405671D01*
X3204048Y-19377099D01*
X3204048Y-19119956D01*
X3404048Y-19419956D02*
X3375476Y-19405671D01*
X3361191Y-19377099D01*
X3361191Y-19119956D01*
X3746905Y-19419956D02*
X3746905Y-19119956D01*
X3846905Y-19334242D01*
X3946905Y-19119956D01*
X3946905Y-19419956D01*
X4218334Y-19419956D02*
X4218334Y-19262814D01*
X4204048Y-19234242D01*
X4175476Y-19219956D01*
X4118334Y-19219956D01*
X4089762Y-19234242D01*
X4218334Y-19405671D02*
X4189762Y-19419956D01*
X4118334Y-19419956D01*
X4089762Y-19405671D01*
X4075476Y-19377099D01*
X4075476Y-19348528D01*
X4089762Y-19319956D01*
X4118334Y-19305671D01*
X4189762Y-19305671D01*
X4218334Y-19291385D01*
X4361191Y-19219956D02*
X4361191Y-19519956D01*
X4361191Y-19234242D02*
X4389762Y-19219956D01*
X4446905Y-19219956D01*
X4475476Y-19234242D01*
X4489762Y-19248528D01*
X4504048Y-19277099D01*
X4504048Y-19362814D01*
X4489762Y-19391385D01*
X4475476Y-19405671D01*
X4446905Y-19419956D01*
X4389762Y-19419956D01*
X4361191Y-19405671D01*
X4632619Y-19391385D02*
X4646905Y-19405671D01*
X4632619Y-19419956D01*
X4618334Y-19405671D01*
X4632619Y-19391385D01*
X4632619Y-19419956D01*
X4632619Y-19234242D02*
X4646905Y-19248528D01*
X4632619Y-19262814D01*
X4618334Y-19248528D01*
X4632619Y-19234242D01*
X4632619Y-19262814D01*
X2169048Y-19854242D02*
X2289048Y-19974242D01*
X2289048Y-19854242D02*
X2169048Y-19974242D01*
X2732619Y-20049956D02*
X2561191Y-20049956D01*
X2646905Y-20049956D02*
X2646905Y-19749956D01*
X2618334Y-19792814D01*
X2589762Y-19821385D01*
X2561191Y-19835671D01*
X2861191Y-20021385D02*
X2875476Y-20035671D01*
X2861191Y-20049956D01*
X2846905Y-20035671D01*
X2861191Y-20021385D01*
X2861191Y-20049956D01*
X2989762Y-19778528D02*
X3004048Y-19764242D01*
X3032619Y-19749956D01*
X3104048Y-19749956D01*
X3132619Y-19764242D01*
X3146905Y-19778528D01*
X3161191Y-19807099D01*
X3161191Y-19835671D01*
X3146905Y-19878528D01*
X2975476Y-20049956D01*
X3161191Y-20049956D01*
X3346905Y-19749956D02*
X3375476Y-19749956D01*
X3404048Y-19764242D01*
X3418334Y-19778528D01*
X3432619Y-19807099D01*
X3446905Y-19864242D01*
X3446905Y-19935671D01*
X3432619Y-19992814D01*
X3418334Y-20021385D01*
X3404048Y-20035671D01*
X3375476Y-20049956D01*
X3346905Y-20049956D01*
X3318334Y-20035671D01*
X3304048Y-20021385D01*
X3289762Y-19992814D01*
X3275476Y-19935671D01*
X3275476Y-19864242D01*
X3289762Y-19807099D01*
X3304048Y-19778528D01*
X3318334Y-19764242D01*
X3346905Y-19749956D01*
X3575476Y-20049956D02*
X3575476Y-19849956D01*
X3575476Y-19878528D02*
X3589762Y-19864242D01*
X3618334Y-19849956D01*
X3661191Y-19849956D01*
X3689762Y-19864242D01*
X3704048Y-19892814D01*
X3704048Y-20049956D01*
X3704048Y-19892814D02*
X3718334Y-19864242D01*
X3746905Y-19849956D01*
X3789762Y-19849956D01*
X3818334Y-19864242D01*
X3832619Y-19892814D01*
X3832619Y-20049956D01*
X3975476Y-20049956D02*
X3975476Y-19849956D01*
X3975476Y-19878528D02*
X3989762Y-19864242D01*
X4018334Y-19849956D01*
X4061191Y-19849956D01*
X4089762Y-19864242D01*
X4104048Y-19892814D01*
X4104048Y-20049956D01*
X4104048Y-19892814D02*
X4118334Y-19864242D01*
X4146905Y-19849956D01*
X4189762Y-19849956D01*
X4218334Y-19864242D01*
X4232619Y-19892814D01*
X4232619Y-20049956D01*
X4818334Y-19735671D02*
X4561191Y-20121385D01*
X5204048Y-19749956D02*
X5232619Y-19749956D01*
X5261191Y-19764242D01*
X5275476Y-19778528D01*
X5289762Y-19807099D01*
X5304048Y-19864242D01*
X5304048Y-19935671D01*
X5289762Y-19992814D01*
X5275476Y-20021385D01*
X5261191Y-20035671D01*
X5232619Y-20049956D01*
X5204048Y-20049956D01*
X5175476Y-20035671D01*
X5161191Y-20021385D01*
X5146905Y-19992814D01*
X5132619Y-19935671D01*
X5132619Y-19864242D01*
X5146905Y-19807099D01*
X5161191Y-19778528D01*
X5175476Y-19764242D01*
X5204048Y-19749956D01*
X5432619Y-20021385D02*
X5446905Y-20035671D01*
X5432619Y-20049956D01*
X5418334Y-20035671D01*
X5432619Y-20021385D01*
X5432619Y-20049956D01*
X5632619Y-19749956D02*
X5661191Y-19749956D01*
X5689762Y-19764242D01*
X5704048Y-19778528D01*
X5718334Y-19807099D01*
X5732619Y-19864242D01*
X5732619Y-19935671D01*
X5718334Y-19992814D01*
X5704048Y-20021385D01*
X5689762Y-20035671D01*
X5661191Y-20049956D01*
X5632619Y-20049956D01*
X5604048Y-20035671D01*
X5589762Y-20021385D01*
X5575476Y-19992814D01*
X5561191Y-19935671D01*
X5561191Y-19864242D01*
X5575476Y-19807099D01*
X5589762Y-19778528D01*
X5604048Y-19764242D01*
X5632619Y-19749956D01*
X5989762Y-19849956D02*
X5989762Y-20049956D01*
X5918334Y-19735671D02*
X5846905Y-19949956D01*
X6032619Y-19949956D01*
X6118334Y-19749956D02*
X6318334Y-19749956D01*
X6189762Y-20049956D01*
X6418334Y-19749956D02*
X6418334Y-19807099D01*
X6532619Y-19749956D02*
X6532619Y-19807099D01*
X6975476Y-20164242D02*
X6961191Y-20149956D01*
X6932619Y-20107099D01*
X6918334Y-20078528D01*
X6904048Y-20035671D01*
X6889762Y-19964242D01*
X6889762Y-19907099D01*
X6904048Y-19835671D01*
X6918334Y-19792814D01*
X6932619Y-19764242D01*
X6961191Y-19721385D01*
X6975476Y-19707099D01*
X7075476Y-19778528D02*
X7089762Y-19764242D01*
X7118334Y-19749956D01*
X7189762Y-19749956D01*
X7218334Y-19764242D01*
X7232619Y-19778528D01*
X7246905Y-19807099D01*
X7246905Y-19835671D01*
X7232619Y-19878528D01*
X7061191Y-20049956D01*
X7246905Y-20049956D01*
X7604048Y-20049956D02*
X7604048Y-19749956D01*
X7732619Y-20049956D02*
X7732619Y-19892814D01*
X7718334Y-19864242D01*
X7689762Y-19849956D01*
X7646905Y-19849956D01*
X7618334Y-19864242D01*
X7604048Y-19878528D01*
X7918334Y-20049956D02*
X7889762Y-20035671D01*
X7875476Y-20021385D01*
X7861191Y-19992814D01*
X7861191Y-19907099D01*
X7875476Y-19878528D01*
X7889762Y-19864242D01*
X7918334Y-19849956D01*
X7961191Y-19849956D01*
X7989762Y-19864242D01*
X8004048Y-19878528D01*
X8018334Y-19907099D01*
X8018334Y-19992814D01*
X8004048Y-20021385D01*
X7989762Y-20035671D01*
X7961191Y-20049956D01*
X7918334Y-20049956D01*
X8189762Y-20049956D02*
X8161191Y-20035671D01*
X8146905Y-20007099D01*
X8146905Y-19749956D01*
X8418334Y-20035671D02*
X8389762Y-20049956D01*
X8332619Y-20049956D01*
X8304048Y-20035671D01*
X8289762Y-20007099D01*
X8289762Y-19892814D01*
X8304048Y-19864242D01*
X8332619Y-19849956D01*
X8389762Y-19849956D01*
X8418334Y-19864242D01*
X8432619Y-19892814D01*
X8432619Y-19921385D01*
X8289762Y-19949956D01*
X8546905Y-20035671D02*
X8575476Y-20049956D01*
X8632619Y-20049956D01*
X8661191Y-20035671D01*
X8675476Y-20007099D01*
X8675476Y-19992814D01*
X8661191Y-19964242D01*
X8632619Y-19949956D01*
X8589762Y-19949956D01*
X8561191Y-19935671D01*
X8546905Y-19907099D01*
X8546905Y-19892814D01*
X8561191Y-19864242D01*
X8589762Y-19849956D01*
X8632619Y-19849956D01*
X8661191Y-19864242D01*
X8775476Y-20164242D02*
X8789762Y-20149956D01*
X8818334Y-20107099D01*
X8832619Y-20078528D01*
X8846905Y-20035671D01*
X8861191Y-19964242D01*
X8861191Y-19907099D01*
X8846905Y-19835671D01*
X8832619Y-19792814D01*
X8818334Y-19764242D01*
X8789762Y-19721385D01*
X8775476Y-19707099D01*
X9318334Y-20164242D02*
X9304048Y-20149956D01*
X9275476Y-20107099D01*
X9261191Y-20078528D01*
X9246905Y-20035671D01*
X9232619Y-19964242D01*
X9232619Y-19907099D01*
X9246905Y-19835671D01*
X9261191Y-19792814D01*
X9275476Y-19764242D01*
X9304048Y-19721385D01*
X9318334Y-19707099D01*
X9432619Y-19849956D02*
X9432619Y-20049956D01*
X9432619Y-19878528D02*
X9446905Y-19864242D01*
X9475476Y-19849956D01*
X9518334Y-19849956D01*
X9546905Y-19864242D01*
X9561191Y-19892814D01*
X9561191Y-20049956D01*
X9746905Y-20049956D02*
X9718334Y-20035671D01*
X9704048Y-20021385D01*
X9689762Y-19992814D01*
X9689762Y-19907099D01*
X9704048Y-19878528D01*
X9718334Y-19864242D01*
X9746905Y-19849956D01*
X9789762Y-19849956D01*
X9818334Y-19864242D01*
X9832619Y-19878528D01*
X9846905Y-19907099D01*
X9846905Y-19992814D01*
X9832619Y-20021385D01*
X9818334Y-20035671D01*
X9789762Y-20049956D01*
X9746905Y-20049956D01*
X9932619Y-19849956D02*
X10046905Y-19849956D01*
X9975476Y-19749956D02*
X9975476Y-20007099D01*
X9989762Y-20035671D01*
X10018334Y-20049956D01*
X10046905Y-20049956D01*
X10375476Y-19849956D02*
X10375476Y-20149956D01*
X10375476Y-19864242D02*
X10404048Y-19849956D01*
X10461191Y-19849956D01*
X10489762Y-19864242D01*
X10504048Y-19878528D01*
X10518334Y-19907099D01*
X10518334Y-19992814D01*
X10504048Y-20021385D01*
X10489762Y-20035671D01*
X10461191Y-20049956D01*
X10404048Y-20049956D01*
X10375476Y-20035671D01*
X10689762Y-20049956D02*
X10661191Y-20035671D01*
X10646905Y-20007099D01*
X10646905Y-19749956D01*
X10932619Y-20049956D02*
X10932619Y-19892814D01*
X10918334Y-19864242D01*
X10889762Y-19849956D01*
X10832619Y-19849956D01*
X10804048Y-19864242D01*
X10932619Y-20035671D02*
X10904048Y-20049956D01*
X10832619Y-20049956D01*
X10804048Y-20035671D01*
X10789762Y-20007099D01*
X10789762Y-19978528D01*
X10804048Y-19949956D01*
X10832619Y-19935671D01*
X10904048Y-19935671D01*
X10932619Y-19921385D01*
X11032619Y-19849956D02*
X11146905Y-19849956D01*
X11075476Y-19749956D02*
X11075476Y-20007099D01*
X11089762Y-20035671D01*
X11118334Y-20049956D01*
X11146905Y-20049956D01*
X11361191Y-20035671D02*
X11332619Y-20049956D01*
X11275476Y-20049956D01*
X11246905Y-20035671D01*
X11232619Y-20007099D01*
X11232619Y-19892814D01*
X11246905Y-19864242D01*
X11275476Y-19849956D01*
X11332619Y-19849956D01*
X11361191Y-19864242D01*
X11375476Y-19892814D01*
X11375476Y-19921385D01*
X11232619Y-19949956D01*
X11632619Y-20049956D02*
X11632619Y-19749956D01*
X11632619Y-20035671D02*
X11604048Y-20049956D01*
X11546905Y-20049956D01*
X11518334Y-20035671D01*
X11504048Y-20021385D01*
X11489762Y-19992814D01*
X11489762Y-19907099D01*
X11504048Y-19878528D01*
X11518334Y-19864242D01*
X11546905Y-19849956D01*
X11604048Y-19849956D01*
X11632619Y-19864242D01*
X11746905Y-20164242D02*
X11761191Y-20149956D01*
X11789762Y-20107099D01*
X11804048Y-20078528D01*
X11818334Y-20035671D01*
X11832619Y-19964242D01*
X11832619Y-19907099D01*
X11818334Y-19835671D01*
X11804048Y-19792814D01*
X11789762Y-19764242D01*
X11761191Y-19721385D01*
X11746905Y-19707099D01*
X2289048Y-20310242D02*
G75*
G03*
X2289048Y-20310242I-85090J0D01*
G01*
X2732619Y-20445956D02*
X2561191Y-20445956D01*
X2646905Y-20445956D02*
X2646905Y-20145956D01*
X2618334Y-20188814D01*
X2589762Y-20217385D01*
X2561191Y-20231671D01*
X2861191Y-20417385D02*
X2875476Y-20431671D01*
X2861191Y-20445956D01*
X2846905Y-20431671D01*
X2861191Y-20417385D01*
X2861191Y-20445956D01*
X2975476Y-20145956D02*
X3175476Y-20145956D01*
X3046905Y-20445956D01*
X3346905Y-20145956D02*
X3375476Y-20145956D01*
X3404048Y-20160242D01*
X3418334Y-20174528D01*
X3432619Y-20203099D01*
X3446905Y-20260242D01*
X3446905Y-20331671D01*
X3432619Y-20388814D01*
X3418334Y-20417385D01*
X3404048Y-20431671D01*
X3375476Y-20445956D01*
X3346905Y-20445956D01*
X3318334Y-20431671D01*
X3304048Y-20417385D01*
X3289762Y-20388814D01*
X3275476Y-20331671D01*
X3275476Y-20260242D01*
X3289762Y-20203099D01*
X3304048Y-20174528D01*
X3318334Y-20160242D01*
X3346905Y-20145956D01*
X3575476Y-20445956D02*
X3575476Y-20245956D01*
X3575476Y-20274528D02*
X3589762Y-20260242D01*
X3618334Y-20245956D01*
X3661191Y-20245956D01*
X3689762Y-20260242D01*
X3704048Y-20288814D01*
X3704048Y-20445956D01*
X3704048Y-20288814D02*
X3718334Y-20260242D01*
X3746905Y-20245956D01*
X3789762Y-20245956D01*
X3818334Y-20260242D01*
X3832619Y-20288814D01*
X3832619Y-20445956D01*
X3975476Y-20445956D02*
X3975476Y-20245956D01*
X3975476Y-20274528D02*
X3989762Y-20260242D01*
X4018334Y-20245956D01*
X4061191Y-20245956D01*
X4089762Y-20260242D01*
X4104048Y-20288814D01*
X4104048Y-20445956D01*
X4104048Y-20288814D02*
X4118334Y-20260242D01*
X4146905Y-20245956D01*
X4189762Y-20245956D01*
X4218334Y-20260242D01*
X4232619Y-20288814D01*
X4232619Y-20445956D01*
X4818334Y-20131671D02*
X4561191Y-20517385D01*
X5204048Y-20145956D02*
X5232619Y-20145956D01*
X5261191Y-20160242D01*
X5275476Y-20174528D01*
X5289762Y-20203099D01*
X5304048Y-20260242D01*
X5304048Y-20331671D01*
X5289762Y-20388814D01*
X5275476Y-20417385D01*
X5261191Y-20431671D01*
X5232619Y-20445956D01*
X5204048Y-20445956D01*
X5175476Y-20431671D01*
X5161191Y-20417385D01*
X5146905Y-20388814D01*
X5132619Y-20331671D01*
X5132619Y-20260242D01*
X5146905Y-20203099D01*
X5161191Y-20174528D01*
X5175476Y-20160242D01*
X5204048Y-20145956D01*
X5432619Y-20417385D02*
X5446905Y-20431671D01*
X5432619Y-20445956D01*
X5418334Y-20431671D01*
X5432619Y-20417385D01*
X5432619Y-20445956D01*
X5632619Y-20145956D02*
X5661191Y-20145956D01*
X5689762Y-20160242D01*
X5704048Y-20174528D01*
X5718334Y-20203099D01*
X5732619Y-20260242D01*
X5732619Y-20331671D01*
X5718334Y-20388814D01*
X5704048Y-20417385D01*
X5689762Y-20431671D01*
X5661191Y-20445956D01*
X5632619Y-20445956D01*
X5604048Y-20431671D01*
X5589762Y-20417385D01*
X5575476Y-20388814D01*
X5561191Y-20331671D01*
X5561191Y-20260242D01*
X5575476Y-20203099D01*
X5589762Y-20174528D01*
X5604048Y-20160242D01*
X5632619Y-20145956D01*
X5989762Y-20145956D02*
X5932619Y-20145956D01*
X5904048Y-20160242D01*
X5889762Y-20174528D01*
X5861191Y-20217385D01*
X5846905Y-20274528D01*
X5846905Y-20388814D01*
X5861191Y-20417385D01*
X5875476Y-20431671D01*
X5904048Y-20445956D01*
X5961191Y-20445956D01*
X5989762Y-20431671D01*
X6004048Y-20417385D01*
X6018334Y-20388814D01*
X6018334Y-20317385D01*
X6004048Y-20288814D01*
X5989762Y-20274528D01*
X5961191Y-20260242D01*
X5904048Y-20260242D01*
X5875476Y-20274528D01*
X5861191Y-20288814D01*
X5846905Y-20317385D01*
X6118334Y-20145956D02*
X6318334Y-20145956D01*
X6189762Y-20445956D01*
X6418334Y-20145956D02*
X6418334Y-20203099D01*
X6532619Y-20145956D02*
X6532619Y-20203099D01*
X6975476Y-20560242D02*
X6961191Y-20545956D01*
X6932619Y-20503099D01*
X6918334Y-20474528D01*
X6904048Y-20431671D01*
X6889762Y-20360242D01*
X6889762Y-20303099D01*
X6904048Y-20231671D01*
X6918334Y-20188814D01*
X6932619Y-20160242D01*
X6961191Y-20117385D01*
X6975476Y-20103099D01*
X7132619Y-20274528D02*
X7104048Y-20260242D01*
X7089762Y-20245956D01*
X7075476Y-20217385D01*
X7075476Y-20203099D01*
X7089762Y-20174528D01*
X7104048Y-20160242D01*
X7132619Y-20145956D01*
X7189762Y-20145956D01*
X7218334Y-20160242D01*
X7232619Y-20174528D01*
X7246905Y-20203099D01*
X7246905Y-20217385D01*
X7232619Y-20245956D01*
X7218334Y-20260242D01*
X7189762Y-20274528D01*
X7132619Y-20274528D01*
X7104048Y-20288814D01*
X7089762Y-20303099D01*
X7075476Y-20331671D01*
X7075476Y-20388814D01*
X7089762Y-20417385D01*
X7104048Y-20431671D01*
X7132619Y-20445956D01*
X7189762Y-20445956D01*
X7218334Y-20431671D01*
X7232619Y-20417385D01*
X7246905Y-20388814D01*
X7246905Y-20331671D01*
X7232619Y-20303099D01*
X7218334Y-20288814D01*
X7189762Y-20274528D01*
X7432619Y-20145956D02*
X7461191Y-20145956D01*
X7489762Y-20160242D01*
X7504048Y-20174528D01*
X7518334Y-20203099D01*
X7532619Y-20260242D01*
X7532619Y-20331671D01*
X7518334Y-20388814D01*
X7504048Y-20417385D01*
X7489762Y-20431671D01*
X7461191Y-20445956D01*
X7432619Y-20445956D01*
X7404048Y-20431671D01*
X7389762Y-20417385D01*
X7375476Y-20388814D01*
X7361191Y-20331671D01*
X7361191Y-20260242D01*
X7375476Y-20203099D01*
X7389762Y-20174528D01*
X7404048Y-20160242D01*
X7432619Y-20145956D01*
X7889762Y-20445956D02*
X7889762Y-20145956D01*
X8018334Y-20445956D02*
X8018334Y-20288814D01*
X8004048Y-20260242D01*
X7975476Y-20245956D01*
X7932619Y-20245956D01*
X7904048Y-20260242D01*
X7889762Y-20274528D01*
X8204048Y-20445956D02*
X8175476Y-20431671D01*
X8161191Y-20417385D01*
X8146905Y-20388814D01*
X8146905Y-20303099D01*
X8161191Y-20274528D01*
X8175476Y-20260242D01*
X8204048Y-20245956D01*
X8246905Y-20245956D01*
X8275476Y-20260242D01*
X8289762Y-20274528D01*
X8304048Y-20303099D01*
X8304048Y-20388814D01*
X8289762Y-20417385D01*
X8275476Y-20431671D01*
X8246905Y-20445956D01*
X8204048Y-20445956D01*
X8475476Y-20445956D02*
X8446905Y-20431671D01*
X8432619Y-20403099D01*
X8432619Y-20145956D01*
X8704048Y-20431671D02*
X8675476Y-20445956D01*
X8618334Y-20445956D01*
X8589762Y-20431671D01*
X8575476Y-20403099D01*
X8575476Y-20288814D01*
X8589762Y-20260242D01*
X8618334Y-20245956D01*
X8675476Y-20245956D01*
X8704048Y-20260242D01*
X8718334Y-20288814D01*
X8718334Y-20317385D01*
X8575476Y-20345956D01*
X8832619Y-20431671D02*
X8861191Y-20445956D01*
X8918334Y-20445956D01*
X8946905Y-20431671D01*
X8961191Y-20403099D01*
X8961191Y-20388814D01*
X8946905Y-20360242D01*
X8918334Y-20345956D01*
X8875476Y-20345956D01*
X8846905Y-20331671D01*
X8832619Y-20303099D01*
X8832619Y-20288814D01*
X8846905Y-20260242D01*
X8875476Y-20245956D01*
X8918334Y-20245956D01*
X8946905Y-20260242D01*
X9061191Y-20560242D02*
X9075476Y-20545956D01*
X9104048Y-20503099D01*
X9118334Y-20474528D01*
X9132619Y-20431671D01*
X9146905Y-20360242D01*
X9146905Y-20303099D01*
X9132619Y-20231671D01*
X9118334Y-20188814D01*
X9104048Y-20160242D01*
X9075476Y-20117385D01*
X9061191Y-20103099D01*
X9604048Y-20560242D02*
X9589762Y-20545956D01*
X9561191Y-20503099D01*
X9546905Y-20474528D01*
X9532619Y-20431671D01*
X9518334Y-20360242D01*
X9518334Y-20303099D01*
X9532619Y-20231671D01*
X9546905Y-20188814D01*
X9561191Y-20160242D01*
X9589762Y-20117385D01*
X9604048Y-20103099D01*
X9718334Y-20245956D02*
X9718334Y-20445956D01*
X9718334Y-20274528D02*
X9732619Y-20260242D01*
X9761191Y-20245956D01*
X9804048Y-20245956D01*
X9832619Y-20260242D01*
X9846905Y-20288814D01*
X9846905Y-20445956D01*
X10032619Y-20445956D02*
X10004048Y-20431671D01*
X9989762Y-20417385D01*
X9975476Y-20388814D01*
X9975476Y-20303099D01*
X9989762Y-20274528D01*
X10004048Y-20260242D01*
X10032619Y-20245956D01*
X10075476Y-20245956D01*
X10104048Y-20260242D01*
X10118334Y-20274528D01*
X10132619Y-20303099D01*
X10132619Y-20388814D01*
X10118334Y-20417385D01*
X10104048Y-20431671D01*
X10075476Y-20445956D01*
X10032619Y-20445956D01*
X10218334Y-20245956D02*
X10332619Y-20245956D01*
X10261191Y-20145956D02*
X10261191Y-20403099D01*
X10275476Y-20431671D01*
X10304048Y-20445956D01*
X10332619Y-20445956D01*
X10661191Y-20245956D02*
X10661191Y-20545956D01*
X10661191Y-20260242D02*
X10689762Y-20245956D01*
X10746905Y-20245956D01*
X10775476Y-20260242D01*
X10789762Y-20274528D01*
X10804048Y-20303099D01*
X10804048Y-20388814D01*
X10789762Y-20417385D01*
X10775476Y-20431671D01*
X10746905Y-20445956D01*
X10689762Y-20445956D01*
X10661191Y-20431671D01*
X10975476Y-20445956D02*
X10946905Y-20431671D01*
X10932619Y-20403099D01*
X10932619Y-20145956D01*
X11218334Y-20445956D02*
X11218334Y-20288814D01*
X11204048Y-20260242D01*
X11175476Y-20245956D01*
X11118334Y-20245956D01*
X11089762Y-20260242D01*
X11218334Y-20431671D02*
X11189762Y-20445956D01*
X11118334Y-20445956D01*
X11089762Y-20431671D01*
X11075476Y-20403099D01*
X11075476Y-20374528D01*
X11089762Y-20345956D01*
X11118334Y-20331671D01*
X11189762Y-20331671D01*
X11218334Y-20317385D01*
X11318334Y-20245956D02*
X11432619Y-20245956D01*
X11361191Y-20145956D02*
X11361191Y-20403099D01*
X11375476Y-20431671D01*
X11404048Y-20445956D01*
X11432619Y-20445956D01*
X11646905Y-20431671D02*
X11618334Y-20445956D01*
X11561191Y-20445956D01*
X11532619Y-20431671D01*
X11518334Y-20403099D01*
X11518334Y-20288814D01*
X11532619Y-20260242D01*
X11561191Y-20245956D01*
X11618334Y-20245956D01*
X11646905Y-20260242D01*
X11661191Y-20288814D01*
X11661191Y-20317385D01*
X11518334Y-20345956D01*
X11918334Y-20445956D02*
X11918334Y-20145956D01*
X11918334Y-20431671D02*
X11889762Y-20445956D01*
X11832619Y-20445956D01*
X11804048Y-20431671D01*
X11789762Y-20417385D01*
X11775476Y-20388814D01*
X11775476Y-20303099D01*
X11789762Y-20274528D01*
X11804048Y-20260242D01*
X11832619Y-20245956D01*
X11889762Y-20245956D01*
X11918334Y-20260242D01*
X12032619Y-20560242D02*
X12046905Y-20545956D01*
X12075476Y-20503099D01*
X12089762Y-20474528D01*
X12104048Y-20431671D01*
X12118334Y-20360242D01*
X12118334Y-20303099D01*
X12104048Y-20231671D01*
X12089762Y-20188814D01*
X12075476Y-20160242D01*
X12046905Y-20117385D01*
X12032619Y-20103099D01*
X2089658Y-20506852D02*
X2089658Y-20905632D01*
X1890268Y-20706242D02*
X2289048Y-20706242D01*
X2546905Y-20541956D02*
X2732619Y-20541956D01*
X2632619Y-20656242D01*
X2675476Y-20656242D01*
X2704048Y-20670528D01*
X2718334Y-20684814D01*
X2732619Y-20713385D01*
X2732619Y-20784814D01*
X2718334Y-20813385D01*
X2704048Y-20827671D01*
X2675476Y-20841956D01*
X2589762Y-20841956D01*
X2561191Y-20827671D01*
X2546905Y-20813385D01*
X2861191Y-20813385D02*
X2875476Y-20827671D01*
X2861191Y-20841956D01*
X2846905Y-20827671D01*
X2861191Y-20813385D01*
X2861191Y-20841956D01*
X3018334Y-20841956D02*
X3075476Y-20841956D01*
X3104048Y-20827671D01*
X3118334Y-20813385D01*
X3146905Y-20770528D01*
X3161191Y-20713385D01*
X3161191Y-20599099D01*
X3146905Y-20570528D01*
X3132619Y-20556242D01*
X3104048Y-20541956D01*
X3046905Y-20541956D01*
X3018334Y-20556242D01*
X3004048Y-20570528D01*
X2989762Y-20599099D01*
X2989762Y-20670528D01*
X3004048Y-20699099D01*
X3018334Y-20713385D01*
X3046905Y-20727671D01*
X3104048Y-20727671D01*
X3132619Y-20713385D01*
X3146905Y-20699099D01*
X3161191Y-20670528D01*
X3304048Y-20841956D02*
X3361191Y-20841956D01*
X3389762Y-20827671D01*
X3404048Y-20813385D01*
X3432619Y-20770528D01*
X3446905Y-20713385D01*
X3446905Y-20599099D01*
X3432619Y-20570528D01*
X3418334Y-20556242D01*
X3389762Y-20541956D01*
X3332619Y-20541956D01*
X3304048Y-20556242D01*
X3289762Y-20570528D01*
X3275476Y-20599099D01*
X3275476Y-20670528D01*
X3289762Y-20699099D01*
X3304048Y-20713385D01*
X3332619Y-20727671D01*
X3389762Y-20727671D01*
X3418334Y-20713385D01*
X3432619Y-20699099D01*
X3446905Y-20670528D01*
X3575476Y-20841956D02*
X3575476Y-20641956D01*
X3575476Y-20670528D02*
X3589762Y-20656242D01*
X3618334Y-20641956D01*
X3661191Y-20641956D01*
X3689762Y-20656242D01*
X3704048Y-20684814D01*
X3704048Y-20841956D01*
X3704048Y-20684814D02*
X3718334Y-20656242D01*
X3746905Y-20641956D01*
X3789762Y-20641956D01*
X3818334Y-20656242D01*
X3832619Y-20684814D01*
X3832619Y-20841956D01*
X3975476Y-20841956D02*
X3975476Y-20641956D01*
X3975476Y-20670528D02*
X3989762Y-20656242D01*
X4018334Y-20641956D01*
X4061191Y-20641956D01*
X4089762Y-20656242D01*
X4104048Y-20684814D01*
X4104048Y-20841956D01*
X4104048Y-20684814D02*
X4118334Y-20656242D01*
X4146905Y-20641956D01*
X4189762Y-20641956D01*
X4218334Y-20656242D01*
X4232619Y-20684814D01*
X4232619Y-20841956D01*
X4818334Y-20527671D02*
X4561191Y-20913385D01*
X5204048Y-20541956D02*
X5232619Y-20541956D01*
X5261191Y-20556242D01*
X5275476Y-20570528D01*
X5289762Y-20599099D01*
X5304048Y-20656242D01*
X5304048Y-20727671D01*
X5289762Y-20784814D01*
X5275476Y-20813385D01*
X5261191Y-20827671D01*
X5232619Y-20841956D01*
X5204048Y-20841956D01*
X5175476Y-20827671D01*
X5161191Y-20813385D01*
X5146905Y-20784814D01*
X5132619Y-20727671D01*
X5132619Y-20656242D01*
X5146905Y-20599099D01*
X5161191Y-20570528D01*
X5175476Y-20556242D01*
X5204048Y-20541956D01*
X5432619Y-20813385D02*
X5446905Y-20827671D01*
X5432619Y-20841956D01*
X5418334Y-20827671D01*
X5432619Y-20813385D01*
X5432619Y-20841956D01*
X5732619Y-20841956D02*
X5561191Y-20841956D01*
X5646905Y-20841956D02*
X5646905Y-20541956D01*
X5618334Y-20584814D01*
X5589762Y-20613385D01*
X5561191Y-20627671D01*
X6004048Y-20541956D02*
X5861191Y-20541956D01*
X5846905Y-20684814D01*
X5861191Y-20670528D01*
X5889762Y-20656242D01*
X5961191Y-20656242D01*
X5989762Y-20670528D01*
X6004048Y-20684814D01*
X6018334Y-20713385D01*
X6018334Y-20784814D01*
X6004048Y-20813385D01*
X5989762Y-20827671D01*
X5961191Y-20841956D01*
X5889762Y-20841956D01*
X5861191Y-20827671D01*
X5846905Y-20813385D01*
X6118334Y-20541956D02*
X6318334Y-20541956D01*
X6189762Y-20841956D01*
X6418334Y-20541956D02*
X6418334Y-20599099D01*
X6532619Y-20541956D02*
X6532619Y-20599099D01*
X6975476Y-20956242D02*
X6961191Y-20941956D01*
X6932619Y-20899099D01*
X6918334Y-20870528D01*
X6904048Y-20827671D01*
X6889762Y-20756242D01*
X6889762Y-20699099D01*
X6904048Y-20627671D01*
X6918334Y-20584814D01*
X6932619Y-20556242D01*
X6961191Y-20513385D01*
X6975476Y-20499099D01*
X7218334Y-20641956D02*
X7218334Y-20841956D01*
X7146905Y-20527671D02*
X7075476Y-20741956D01*
X7261191Y-20741956D01*
X7432619Y-20541956D02*
X7461191Y-20541956D01*
X7489762Y-20556242D01*
X7504048Y-20570528D01*
X7518334Y-20599099D01*
X7532619Y-20656242D01*
X7532619Y-20727671D01*
X7518334Y-20784814D01*
X7504048Y-20813385D01*
X7489762Y-20827671D01*
X7461191Y-20841956D01*
X7432619Y-20841956D01*
X7404048Y-20827671D01*
X7389762Y-20813385D01*
X7375476Y-20784814D01*
X7361191Y-20727671D01*
X7361191Y-20656242D01*
X7375476Y-20599099D01*
X7389762Y-20570528D01*
X7404048Y-20556242D01*
X7432619Y-20541956D01*
X7889762Y-20841956D02*
X7889762Y-20541956D01*
X8018334Y-20841956D02*
X8018334Y-20684814D01*
X8004048Y-20656242D01*
X7975476Y-20641956D01*
X7932619Y-20641956D01*
X7904048Y-20656242D01*
X7889762Y-20670528D01*
X8204048Y-20841956D02*
X8175476Y-20827671D01*
X8161191Y-20813385D01*
X8146905Y-20784814D01*
X8146905Y-20699099D01*
X8161191Y-20670528D01*
X8175476Y-20656242D01*
X8204048Y-20641956D01*
X8246905Y-20641956D01*
X8275476Y-20656242D01*
X8289762Y-20670528D01*
X8304048Y-20699099D01*
X8304048Y-20784814D01*
X8289762Y-20813385D01*
X8275476Y-20827671D01*
X8246905Y-20841956D01*
X8204048Y-20841956D01*
X8475476Y-20841956D02*
X8446905Y-20827671D01*
X8432619Y-20799099D01*
X8432619Y-20541956D01*
X8704048Y-20827671D02*
X8675476Y-20841956D01*
X8618334Y-20841956D01*
X8589762Y-20827671D01*
X8575476Y-20799099D01*
X8575476Y-20684814D01*
X8589762Y-20656242D01*
X8618334Y-20641956D01*
X8675476Y-20641956D01*
X8704048Y-20656242D01*
X8718334Y-20684814D01*
X8718334Y-20713385D01*
X8575476Y-20741956D01*
X8832619Y-20827671D02*
X8861191Y-20841956D01*
X8918334Y-20841956D01*
X8946905Y-20827671D01*
X8961191Y-20799099D01*
X8961191Y-20784814D01*
X8946905Y-20756242D01*
X8918334Y-20741956D01*
X8875476Y-20741956D01*
X8846905Y-20727671D01*
X8832619Y-20699099D01*
X8832619Y-20684814D01*
X8846905Y-20656242D01*
X8875476Y-20641956D01*
X8918334Y-20641956D01*
X8946905Y-20656242D01*
X9061191Y-20956242D02*
X9075476Y-20941956D01*
X9104048Y-20899099D01*
X9118334Y-20870528D01*
X9132619Y-20827671D01*
X9146905Y-20756242D01*
X9146905Y-20699099D01*
X9132619Y-20627671D01*
X9118334Y-20584814D01*
X9104048Y-20556242D01*
X9075476Y-20513385D01*
X9061191Y-20499099D01*
X9604048Y-20956242D02*
X9589762Y-20941956D01*
X9561191Y-20899099D01*
X9546905Y-20870528D01*
X9532619Y-20827671D01*
X9518334Y-20756242D01*
X9518334Y-20699099D01*
X9532619Y-20627671D01*
X9546905Y-20584814D01*
X9561191Y-20556242D01*
X9589762Y-20513385D01*
X9604048Y-20499099D01*
X9718334Y-20641956D02*
X9718334Y-20841956D01*
X9718334Y-20670528D02*
X9732619Y-20656242D01*
X9761191Y-20641956D01*
X9804048Y-20641956D01*
X9832619Y-20656242D01*
X9846905Y-20684814D01*
X9846905Y-20841956D01*
X10032619Y-20841956D02*
X10004048Y-20827671D01*
X9989762Y-20813385D01*
X9975476Y-20784814D01*
X9975476Y-20699099D01*
X9989762Y-20670528D01*
X10004048Y-20656242D01*
X10032619Y-20641956D01*
X10075476Y-20641956D01*
X10104048Y-20656242D01*
X10118334Y-20670528D01*
X10132619Y-20699099D01*
X10132619Y-20784814D01*
X10118334Y-20813385D01*
X10104048Y-20827671D01*
X10075476Y-20841956D01*
X10032619Y-20841956D01*
X10218334Y-20641956D02*
X10332619Y-20641956D01*
X10261191Y-20541956D02*
X10261191Y-20799099D01*
X10275476Y-20827671D01*
X10304048Y-20841956D01*
X10332619Y-20841956D01*
X10661191Y-20641956D02*
X10661191Y-20941956D01*
X10661191Y-20656242D02*
X10689762Y-20641956D01*
X10746905Y-20641956D01*
X10775476Y-20656242D01*
X10789762Y-20670528D01*
X10804048Y-20699099D01*
X10804048Y-20784814D01*
X10789762Y-20813385D01*
X10775476Y-20827671D01*
X10746905Y-20841956D01*
X10689762Y-20841956D01*
X10661191Y-20827671D01*
X10975476Y-20841956D02*
X10946905Y-20827671D01*
X10932619Y-20799099D01*
X10932619Y-20541956D01*
X11218334Y-20841956D02*
X11218334Y-20684814D01*
X11204048Y-20656242D01*
X11175476Y-20641956D01*
X11118334Y-20641956D01*
X11089762Y-20656242D01*
X11218334Y-20827671D02*
X11189762Y-20841956D01*
X11118334Y-20841956D01*
X11089762Y-20827671D01*
X11075476Y-20799099D01*
X11075476Y-20770528D01*
X11089762Y-20741956D01*
X11118334Y-20727671D01*
X11189762Y-20727671D01*
X11218334Y-20713385D01*
X11318334Y-20641956D02*
X11432619Y-20641956D01*
X11361191Y-20541956D02*
X11361191Y-20799099D01*
X11375476Y-20827671D01*
X11404048Y-20841956D01*
X11432619Y-20841956D01*
X11646905Y-20827671D02*
X11618334Y-20841956D01*
X11561191Y-20841956D01*
X11532619Y-20827671D01*
X11518334Y-20799099D01*
X11518334Y-20684814D01*
X11532619Y-20656242D01*
X11561191Y-20641956D01*
X11618334Y-20641956D01*
X11646905Y-20656242D01*
X11661191Y-20684814D01*
X11661191Y-20713385D01*
X11518334Y-20741956D01*
X11918334Y-20841956D02*
X11918334Y-20541956D01*
X11918334Y-20827671D02*
X11889762Y-20841956D01*
X11832619Y-20841956D01*
X11804048Y-20827671D01*
X11789762Y-20813385D01*
X11775476Y-20784814D01*
X11775476Y-20699099D01*
X11789762Y-20670528D01*
X11804048Y-20656242D01*
X11832619Y-20641956D01*
X11889762Y-20641956D01*
X11918334Y-20656242D01*
X12032619Y-20956242D02*
X12046905Y-20941956D01*
X12075476Y-20899099D01*
X12089762Y-20870528D01*
X12104048Y-20827671D01*
X12118334Y-20756242D01*
X12118334Y-20699099D01*
X12104048Y-20627671D01*
X12089762Y-20584814D01*
X12075476Y-20556242D01*
X12046905Y-20513385D01*
X12032619Y-20499099D01*
M02*
