M48
; DRILL file {KiCad 5.1.7} date Sun Nov  1 11:12:59 2020
; FORMAT={-:-/ absolute / inch / decimal}
; #@! TF.CreationDate,2020-11-01T11:12:59-08:00
; #@! TF.GenerationSoftware,Kicad,Pcbnew,5.1.7
; #@! TF.FileFunction,Plated,1,2,PTH
FMAT,2
INCH
T1C0.0200
T2C0.0315
T3C0.0590
%
G90
G05
T1
X1.8219Y-5.807
X2.0187Y-6.2007
X2.6093Y-5.807
X2.8061Y-3.0511
X3.003Y-1.6731
X3.003Y-4.0354
X3.003Y-5.0196
X3.003Y-6.5944
X3.3967Y-1.87
X3.7904Y-5.6102
X3.876Y-1.8828
X4.2825Y-1.6731
X4.3809Y-2.0669
X4.3809Y-2.8543
X4.3809Y-3.6417
X4.6762Y-1.7716
X4.7746Y-5.807
X4.815Y-5.07
X4.865Y-1.8306
X4.915Y-1.92
X4.9723Y-1.93
X5.015Y-2.02
X5.0612Y-1.7162
X5.065Y-1.97
X5.215Y-1.445
X5.215Y-1.52
X5.2668Y-1.9684
X5.4833Y-2.1062
X5.4833Y-3.681
X5.4833Y-5.0983
X5.4833Y-5.2558
X5.5227Y-2.2637
X5.5227Y-2.7755
X5.5227Y-3.0117
X5.5227Y-3.8385
X5.5227Y-4.3503
X5.5227Y-4.4684
X5.7589Y-5.807
X5.9557Y-1.4763
X5.9557Y-2.0669
X6.1526Y-2.8543
X6.1526Y-3.6417
X6.1526Y-5.0196
X6.7431Y-2.2637
X6.94Y-1.6731
X7.1369Y-2.6574
X7.1369Y-3.4448
X7.5306Y-1.6731
X7.5306Y-4.4291
X7.5306Y-5.2165
T3
X4.2Y-5.4129
X4.45Y-5.3129
X7.3875Y-3.2879
X7.6375Y-3.1879
X6.45Y-2.538
X6.7Y-2.438
X2.1846Y-5.9761
X2.3689Y-5.7798
X4.2Y-3.9129
X4.45Y-3.8129
X5.7Y-2.4129
X5.95Y-2.3129
X5.7Y-4.6629
X5.95Y-4.5629
X6.45Y-4.0379
X6.7Y-3.9379
X4.95Y-3.85
X5.2Y-3.75
X4.2Y-3.1629
X4.45Y-3.0629
X3.45Y-3.9629
X3.7Y-3.8629
X4.2Y-4.6629
X4.45Y-4.5629
X4.95Y-5.35
X5.2Y-5.25
X3.1791Y-6.331
X3.3634Y-6.1347
X5.7Y-3.9129
X5.95Y-3.8129
X7.3875Y-4.0379
X7.6375Y-3.9379
X2.8643Y-5.6591
X3.0486Y-5.4628
X3.45Y-4.7129
X3.7Y-4.6129
X2.65Y-4.5254
X2.75Y-4.7754
X4.95Y-3.1
X5.2Y-3.0
X7.3875Y-2.538
X7.6375Y-2.438
X7.3875Y-4.7879
X7.6375Y-4.6879
X5.7Y-3.1629
X5.95Y-3.0629
X6.45Y-3.2879
X6.7Y-3.1879
X3.45Y-2.463
X3.7Y-2.363
X1.5048Y-6.293
X1.6891Y-6.0967
X4.95Y-2.35
X5.2Y-2.25
X4.2Y-2.4129
X4.45Y-2.3129
X1.1879Y-5.6133
X1.3722Y-5.417
X2.4705Y-6.6459
X2.6548Y-6.4496
X4.95Y-4.6
X5.2Y-4.5
X6.45Y-4.7879
X6.7Y-4.6879
X5.7Y-5.4129
X5.95Y-5.3129
X1.8676Y-5.2964
X2.0519Y-5.1001
X6.45Y-5.5379
X6.7Y-5.4379
X2.7Y-2.463
X2.95Y-2.363
X2.65Y-3.4004
X2.75Y-3.6504
X3.45Y-3.2129
X3.7Y-3.1129
X7.2Y-5.5379
X7.45Y-5.4379
X1.8218Y-6.9728
X2.0061Y-6.7765
T2
G00X3.4833Y-1.4035
M15
G01X3.4833Y-1.431
M16
G05
G00X3.501Y-1.7184
M15
G01X3.501Y-1.746
M16
G05
G00X3.5994Y-1.7637
M15
G01X3.627Y-1.7637
M16
G05
G00X3.7254Y-1.7184
M15
G01X3.7254Y-1.746
M16
G05
G00X3.7431Y-1.4035
M15
G01X3.7431Y-1.431
M16
G05
T0
M30
