%TF.GenerationSoftware,KiCad,Pcbnew,5.1.7*%
%TF.CreationDate,2020-11-01T11:12:36-08:00*%
%TF.ProjectId,ErgoDOX_right,4572676f-444f-4585-9f72-696768742e6b,2.0.1*%
%TF.SameCoordinates,Original*%
%TF.FileFunction,Legend,Bot*%
%TF.FilePolarity,Positive*%
%FSLAX46Y46*%
G04 Gerber Fmt 4.6, Leading zero omitted, Abs format (unit mm)*
G04 Created by KiCad (PCBNEW 5.1.7) date 2020-11-01 11:12:36*
%MOMM*%
%LPD*%
G01*
G04 APERTURE LIST*
%TA.AperFunction,Profile*%
%ADD10C,0.381000*%
%TD*%
%ADD11C,2.032000*%
G04 APERTURE END LIST*
D10*
X90121000Y-32258000D02*
X93521000Y-32258000D01*
X90121000Y-32258000D02*
X77876400Y-32258000D01*
X95046800Y-32258000D02*
X93521000Y-32258000D01*
X202742800Y-32258000D02*
X143408400Y-32258000D01*
X143408400Y-32258000D02*
X131902200Y-32258000D01*
X131902200Y-32258000D02*
X95046800Y-32258000D01*
X77876400Y-32258000D02*
X65811400Y-32258000D01*
X65811400Y-32258000D02*
X62611000Y-35433000D01*
D11*
X202239428Y-46917428D02*
X198175428Y-46917428D01*
X196433714Y-51174952D02*
X202239428Y-51174952D01*
X202239428Y-43046952D01*
X196433714Y-43046952D01*
X191208571Y-51174952D02*
X191208571Y-45756285D01*
X191208571Y-47304476D02*
X190628000Y-46530380D01*
X190047428Y-46143333D01*
X188886285Y-45756285D01*
X187725142Y-45756285D01*
X178436000Y-45756285D02*
X178436000Y-52336095D01*
X179016571Y-53110190D01*
X179597142Y-53497238D01*
X180758285Y-53884285D01*
X182500000Y-53884285D01*
X183661142Y-53497238D01*
X178436000Y-50787904D02*
X179597142Y-51174952D01*
X181919428Y-51174952D01*
X183080571Y-50787904D01*
X183661142Y-50400857D01*
X184241714Y-49626761D01*
X184241714Y-47304476D01*
X183661142Y-46530380D01*
X183080571Y-46143333D01*
X181919428Y-45756285D01*
X179597142Y-45756285D01*
X178436000Y-46143333D01*
X170888571Y-51174952D02*
X172049714Y-50787904D01*
X172630285Y-50400857D01*
X173210857Y-49626761D01*
X173210857Y-47304476D01*
X172630285Y-46530380D01*
X172049714Y-46143333D01*
X170888571Y-45756285D01*
X169146857Y-45756285D01*
X167985714Y-46143333D01*
X167405142Y-46530380D01*
X166824571Y-47304476D01*
X166824571Y-49626761D01*
X167405142Y-50400857D01*
X167985714Y-50787904D01*
X169146857Y-51174952D01*
X170888571Y-51174952D01*
X161599428Y-51174952D02*
X161599428Y-43046952D01*
X158696571Y-43046952D01*
X156954857Y-43434000D01*
X155793714Y-44208095D01*
X155213142Y-44982190D01*
X154632571Y-46530380D01*
X154632571Y-47691523D01*
X155213142Y-49239714D01*
X155793714Y-50013809D01*
X156954857Y-50787904D01*
X158696571Y-51174952D01*
X161599428Y-51174952D01*
X147665714Y-51174952D02*
X148826857Y-50787904D01*
X149407428Y-50400857D01*
X149988000Y-49626761D01*
X149988000Y-47304476D01*
X149407428Y-46530380D01*
X148826857Y-46143333D01*
X147665714Y-45756285D01*
X145924000Y-45756285D01*
X144762857Y-46143333D01*
X144182285Y-46530380D01*
X143601714Y-47304476D01*
X143601714Y-49626761D01*
X144182285Y-50400857D01*
X144762857Y-50787904D01*
X145924000Y-51174952D01*
X147665714Y-51174952D01*
X139537714Y-51174952D02*
X133151428Y-45756285D01*
X139537714Y-45756285D02*
X133151428Y-51174952D01*
D10*
X127152400Y-152908000D02*
X196392800Y-152908000D01*
X196392800Y-152908000D02*
X205917800Y-143383000D01*
X205917800Y-143383000D02*
X205917800Y-35433000D01*
X205917800Y-35433000D02*
X202742800Y-32258000D01*
X62611000Y-35433000D02*
X62611000Y-121666000D01*
X62611000Y-121666000D02*
X57708800Y-121666000D01*
X57708800Y-121666000D02*
X24617680Y-137096500D01*
X24617680Y-137096500D02*
X23080980Y-141315440D01*
X23080980Y-141315440D02*
X44764960Y-187817760D01*
X44764960Y-187817760D02*
X48983900Y-189351920D01*
X48983900Y-189351920D02*
X127152400Y-152908000D01*
M02*
