%TF.GenerationSoftware,KiCad,Pcbnew,5.1.7*%
%TF.CreationDate,2020-10-12T11:43:00-07:00*%
%TF.ProjectId,ErgoDOX_right,4572676f-444f-4585-9f72-696768742e6b,2.0.0*%
%TF.SameCoordinates,Original*%
%TF.FileFunction,Soldermask,Top*%
%TF.FilePolarity,Negative*%
%FSLAX46Y46*%
G04 Gerber Fmt 4.6, Leading zero omitted, Abs format (unit mm)*
G04 Created by KiCad (PCBNEW 5.1.7) date 2020-10-12 11:43:00*
%MOMM*%
%LPD*%
G01*
G04 APERTURE LIST*
%TA.AperFunction,Profile*%
%ADD10C,0.381000*%
%TD*%
%ADD11C,2.286000*%
%ADD12C,3.987800*%
%ADD13C,1.701800*%
%ADD14R,0.800000X0.750000*%
%ADD15R,0.900000X1.200000*%
%ADD16O,2.000000X1.300000*%
%ADD17O,1.300000X2.000000*%
%ADD18C,1.200000*%
%ADD19R,1.200000X0.900000*%
%ADD20C,0.150000*%
%ADD21R,0.450000X1.750000*%
%ADD22R,0.500000X0.900000*%
%ADD23R,0.800000X0.800000*%
G04 APERTURE END LIST*
D10*
X90121000Y-32258000D02*
X93521000Y-32258000D01*
X90121000Y-32258000D02*
X77876400Y-32258000D01*
X95046800Y-32258000D02*
X93521000Y-32258000D01*
X202742800Y-32258000D02*
X143408400Y-32258000D01*
X143408400Y-32258000D02*
X131902200Y-32258000D01*
X131902200Y-32258000D02*
X95046800Y-32258000D01*
X77876400Y-32258000D02*
X65811400Y-32258000D01*
X65811400Y-32258000D02*
X62611000Y-35433000D01*
X127152400Y-152908000D02*
X196392800Y-152908000D01*
X196392800Y-152908000D02*
X205917800Y-143383000D01*
X205917800Y-143383000D02*
X205917800Y-35433000D01*
X205917800Y-35433000D02*
X202742800Y-32258000D01*
X62611000Y-35433000D02*
X62611000Y-121666000D01*
X62611000Y-121666000D02*
X57708800Y-121666000D01*
X57708800Y-121666000D02*
X24617680Y-137096500D01*
X24617680Y-137096500D02*
X23080980Y-141315440D01*
X23080980Y-141315440D02*
X44764960Y-187817760D01*
X44764960Y-187817760D02*
X48983900Y-189351920D01*
X48983900Y-189351920D02*
X127152400Y-152908000D01*
D11*
%TO.C,SW5:13*%
X193992500Y-61925200D03*
X187642500Y-64465200D03*
D12*
X191452500Y-67005200D03*
D13*
X186372500Y-67005200D03*
X196532500Y-67005200D03*
%TD*%
D14*
%TO.C,C6*%
X126216000Y-35918000D03*
X124716000Y-35918000D03*
%TD*%
%TO.C,C5*%
X102776000Y-44498000D03*
X101276000Y-44498000D03*
%TD*%
%TO.C,C4*%
X128776000Y-45498000D03*
X127276000Y-45498000D03*
%TD*%
D15*
%TO.C,D5:9*%
X103626000Y-54998000D03*
X106926000Y-54998000D03*
%TD*%
D11*
%TO.C,SX1:7*%
X60170241Y-146806326D03*
X55488637Y-151791974D03*
D12*
X60015120Y-152483820D03*
D13*
X55411076Y-154630721D03*
X64619164Y-150336919D03*
%TD*%
D11*
%TO.C,SW3:13*%
X193992500Y-100022660D03*
X187642500Y-102562660D03*
D12*
X191452500Y-105102660D03*
D13*
X186372500Y-105102660D03*
X196532500Y-105102660D03*
%TD*%
D11*
%TO.C,SW2:9*%
X113030000Y-115897660D03*
X106680000Y-118437660D03*
D12*
X110490000Y-120977660D03*
D13*
X105410000Y-120977660D03*
X115570000Y-120977660D03*
%TD*%
D11*
%TO.C,SW2:10*%
X132080000Y-114300000D03*
X125730000Y-116840000D03*
D12*
X129540000Y-119380000D03*
D13*
X124460000Y-119380000D03*
X134620000Y-119380000D03*
%TD*%
D11*
%TO.C,SW3:9*%
X113030000Y-96847660D03*
X106680000Y-99387660D03*
D12*
X110490000Y-101927660D03*
D13*
X105410000Y-101927660D03*
X115570000Y-101927660D03*
%TD*%
D11*
%TO.C,SW2:11*%
X151130000Y-115897660D03*
X144780000Y-118437660D03*
D12*
X148590000Y-120977660D03*
D13*
X143510000Y-120977660D03*
X153670000Y-120977660D03*
%TD*%
D11*
%TO.C,SW3:10*%
X132080000Y-95250000D03*
X125730000Y-97790000D03*
D12*
X129540000Y-100330000D03*
D13*
X124460000Y-100330000D03*
X134620000Y-100330000D03*
%TD*%
D11*
%TO.C,SW3:11*%
X151130000Y-96847660D03*
X144780000Y-99387660D03*
D12*
X148590000Y-101927660D03*
D13*
X143510000Y-101927660D03*
X153670000Y-101927660D03*
%TD*%
D11*
%TO.C,SW1:11*%
X151130000Y-134947660D03*
X144780000Y-137487660D03*
D12*
X148590000Y-140027660D03*
D13*
X143510000Y-140027660D03*
X153670000Y-140027660D03*
%TD*%
D11*
%TO.C,SW1:10*%
X132080000Y-133350000D03*
X125730000Y-135890000D03*
D12*
X129540000Y-138430000D03*
D13*
X124460000Y-138430000D03*
X134620000Y-138430000D03*
%TD*%
D11*
%TO.C,SW1:9*%
X113030000Y-134947660D03*
X106680000Y-137487660D03*
D12*
X110490000Y-140027660D03*
D13*
X105410000Y-140027660D03*
X115570000Y-140027660D03*
%TD*%
D11*
%TO.C,SX1:8*%
X77434621Y-138754526D03*
X72753017Y-143740174D03*
D12*
X77279500Y-144432020D03*
D13*
X72675456Y-146578921D03*
X81883544Y-142285119D03*
%TD*%
D11*
%TO.C,SW5:12*%
X170180000Y-61925200D03*
X163830000Y-64465200D03*
D12*
X167640000Y-67005200D03*
D13*
X162560000Y-67005200D03*
X172720000Y-67005200D03*
%TD*%
D11*
%TO.C,SW5:11*%
X151130000Y-58747660D03*
X144780000Y-61287660D03*
D12*
X148590000Y-63827660D03*
D13*
X143510000Y-63827660D03*
X153670000Y-63827660D03*
%TD*%
D11*
%TO.C,SW5:10*%
X132080000Y-57150000D03*
X125730000Y-59690000D03*
D12*
X129540000Y-62230000D03*
D13*
X124460000Y-62230000D03*
X134620000Y-62230000D03*
%TD*%
D11*
%TO.C,SW5:9*%
X113030000Y-58747660D03*
X106680000Y-61287660D03*
D12*
X110490000Y-63827660D03*
D13*
X105410000Y-63827660D03*
X115570000Y-63827660D03*
%TD*%
D11*
%TO.C,SW5:8*%
X93980000Y-60020200D03*
X87630000Y-62560200D03*
D12*
X91440000Y-65100200D03*
D13*
X86360000Y-65100200D03*
X96520000Y-65100200D03*
%TD*%
D11*
%TO.C,SW5:7*%
X74930000Y-60020200D03*
X68580000Y-62560200D03*
D12*
X72390000Y-65100200D03*
D13*
X67310000Y-65100200D03*
X77470000Y-65100200D03*
%TD*%
D11*
%TO.C,SW4:13*%
X193992500Y-80972660D03*
X187642500Y-83512660D03*
D12*
X191452500Y-86052660D03*
D13*
X186372500Y-86052660D03*
X196532500Y-86052660D03*
%TD*%
D11*
%TO.C,SW4:12*%
X170180000Y-80972660D03*
X163830000Y-83512660D03*
D12*
X167640000Y-86052660D03*
D13*
X162560000Y-86052660D03*
X172720000Y-86052660D03*
%TD*%
D11*
%TO.C,SW4:11*%
X151130000Y-77797660D03*
X144780000Y-80337660D03*
D12*
X148590000Y-82877660D03*
D13*
X143510000Y-82877660D03*
X153670000Y-82877660D03*
%TD*%
D11*
%TO.C,SW4:10*%
X132080000Y-76200000D03*
X125730000Y-78740000D03*
D12*
X129540000Y-81280000D03*
D13*
X124460000Y-81280000D03*
X134620000Y-81280000D03*
%TD*%
D11*
%TO.C,SW4:9*%
X113030000Y-77797660D03*
X106680000Y-80337660D03*
D12*
X110490000Y-82877660D03*
D13*
X105410000Y-82877660D03*
X115570000Y-82877660D03*
%TD*%
D11*
%TO.C,SW4:8*%
X93980000Y-79067660D03*
X87630000Y-81607660D03*
D12*
X91440000Y-84147660D03*
D13*
X86360000Y-84147660D03*
X96520000Y-84147660D03*
%TD*%
D11*
%TO.C,SW4:7*%
X67310000Y-86370160D03*
X69850000Y-92720160D03*
D12*
X72390000Y-88910160D03*
D13*
X72390000Y-93990160D03*
X72390000Y-83830160D03*
%TD*%
D11*
%TO.C,SW3:12*%
X170180000Y-100022660D03*
X163830000Y-102562660D03*
D12*
X167640000Y-105102660D03*
D13*
X162560000Y-105102660D03*
X172720000Y-105102660D03*
%TD*%
D11*
%TO.C,SW3:8*%
X93980000Y-98117660D03*
X87630000Y-100657660D03*
D12*
X91440000Y-103197660D03*
D13*
X86360000Y-103197660D03*
X96520000Y-103197660D03*
%TD*%
D11*
%TO.C,SW2:13*%
X193992500Y-119072660D03*
X187642500Y-121612660D03*
D12*
X191452500Y-124152660D03*
D13*
X186372500Y-124152660D03*
X196532500Y-124152660D03*
%TD*%
D11*
%TO.C,SW2:12*%
X170180000Y-119072660D03*
X163830000Y-121612660D03*
D12*
X167640000Y-124152660D03*
D13*
X162560000Y-124152660D03*
X172720000Y-124152660D03*
%TD*%
D11*
%TO.C,SW2:8*%
X93980000Y-117167660D03*
X87630000Y-119707660D03*
D12*
X91440000Y-122247660D03*
D13*
X86360000Y-122247660D03*
X96520000Y-122247660D03*
%TD*%
D11*
%TO.C,SW2:7*%
X67310000Y-114945160D03*
X69850000Y-121295160D03*
D12*
X72390000Y-117485160D03*
D13*
X72390000Y-122565160D03*
X72390000Y-112405160D03*
%TD*%
D11*
%TO.C,SW1:13*%
X189230000Y-138122660D03*
X182880000Y-140662660D03*
D12*
X186690000Y-143202660D03*
D13*
X181610000Y-143202660D03*
X191770000Y-143202660D03*
%TD*%
D11*
%TO.C,SW1:12*%
X170180000Y-138122660D03*
X163830000Y-140662660D03*
D12*
X167640000Y-143202660D03*
D13*
X162560000Y-143202660D03*
X172720000Y-143202660D03*
%TD*%
D11*
%TO.C,SW0:12*%
X50955121Y-172122506D03*
X46273517Y-177108154D03*
D12*
X50800000Y-177800000D03*
D13*
X46195956Y-179946901D03*
X55404044Y-175653099D03*
%TD*%
D11*
%TO.C,SW0:11*%
X67431121Y-163820506D03*
X62749517Y-168806154D03*
D12*
X67276000Y-169498000D03*
D13*
X62671956Y-171644901D03*
X71880044Y-167351099D03*
%TD*%
D11*
%TO.C,SW0:10*%
X85431121Y-155820506D03*
X80749517Y-160806154D03*
D12*
X85276000Y-161498000D03*
D13*
X80671956Y-163644901D03*
X89880044Y-159351099D03*
%TD*%
D11*
%TO.C,SW0:9*%
X42903321Y-154855586D03*
X38221717Y-159841234D03*
D12*
X42748200Y-160533080D03*
D13*
X38144156Y-162679981D03*
X47352244Y-158386179D03*
%TD*%
D11*
%TO.C,SW0:8*%
X52118441Y-129541946D03*
X47436837Y-134527594D03*
D12*
X51963320Y-135219440D03*
D13*
X47359276Y-137366341D03*
X56567364Y-133072539D03*
%TD*%
D11*
%TO.C,SW0:7*%
X34854061Y-137591206D03*
X30172457Y-142576854D03*
D12*
X34698940Y-143268700D03*
D13*
X30094896Y-145415601D03*
X39302984Y-141121799D03*
%TD*%
D16*
%TO.C,J1*%
X91776000Y-44798000D03*
D17*
X94626000Y-43998000D03*
X88926000Y-43998000D03*
X88476000Y-35998000D03*
D18*
X91776000Y-41498000D03*
X91776000Y-34498000D03*
D17*
X95076000Y-35998000D03*
%TD*%
D15*
%TO.C,D5:13*%
X184626000Y-58498000D03*
X187926000Y-58498000D03*
%TD*%
%TO.C,D5:12*%
X175926000Y-75498000D03*
X172626000Y-75498000D03*
%TD*%
%TO.C,D5:11*%
X141626000Y-54498000D03*
X144926000Y-54498000D03*
%TD*%
%TO.C,D5:10*%
X131926000Y-53498000D03*
X128626000Y-53498000D03*
%TD*%
%TO.C,D5:8*%
X84626000Y-58148000D03*
X87926000Y-58148000D03*
%TD*%
%TO.C,D5:7*%
X65626000Y-56498000D03*
X68926000Y-56498000D03*
%TD*%
%TO.C,D4:13*%
X183626000Y-77498000D03*
X186926000Y-77498000D03*
%TD*%
%TO.C,D4:12*%
X175926000Y-94498000D03*
X172626000Y-94498000D03*
%TD*%
%TO.C,D4:11*%
X141626000Y-73498000D03*
X144926000Y-73498000D03*
%TD*%
%TO.C,D4:10*%
X130926000Y-70498000D03*
X127626000Y-70498000D03*
%TD*%
%TO.C,D4:9*%
X103626000Y-73498000D03*
X106926000Y-73498000D03*
%TD*%
%TO.C,D4:8*%
X84626000Y-74498000D03*
X87926000Y-74498000D03*
%TD*%
%TO.C,D4:7*%
X66626000Y-98498000D03*
X69926000Y-98498000D03*
%TD*%
%TO.C,D3:13*%
X183976000Y-96498000D03*
X187276000Y-96498000D03*
%TD*%
%TO.C,D3:12*%
X175926000Y-114498000D03*
X172626000Y-114498000D03*
%TD*%
%TO.C,D3:11*%
X141626000Y-93498000D03*
X144926000Y-93498000D03*
%TD*%
%TO.C,D3:10*%
X130926000Y-89498000D03*
X127626000Y-89498000D03*
%TD*%
%TO.C,D3:9*%
X103626000Y-92498000D03*
X106926000Y-92498000D03*
%TD*%
%TO.C,D3:8*%
X84626000Y-93498000D03*
X87926000Y-93498000D03*
%TD*%
%TO.C,D2:13*%
X182626000Y-115498000D03*
X185926000Y-115498000D03*
%TD*%
%TO.C,D2:12*%
X177276000Y-132498000D03*
X173976000Y-132498000D03*
%TD*%
%TO.C,D2:11*%
X141626000Y-111498000D03*
X144926000Y-111498000D03*
%TD*%
%TO.C,D2:10*%
X130926000Y-108498000D03*
X127626000Y-108498000D03*
%TD*%
%TO.C,D2:9*%
X103626000Y-111498000D03*
X106926000Y-111498000D03*
%TD*%
%TO.C,D2:8*%
X83626000Y-112498000D03*
X86926000Y-112498000D03*
%TD*%
%TO.C,D2:7*%
X66626000Y-106498000D03*
X69926000Y-106498000D03*
%TD*%
%TO.C,D1:13*%
X179626000Y-133498000D03*
X182926000Y-133498000D03*
%TD*%
D19*
%TO.C,D1:12*%
X177276000Y-137848000D03*
X177276000Y-141148000D03*
%TD*%
D15*
%TO.C,D1:11*%
X141626000Y-130498000D03*
X144926000Y-130498000D03*
%TD*%
%TO.C,D1:10*%
X130926000Y-128498000D03*
X127626000Y-128498000D03*
%TD*%
%TO.C,D1:9*%
X103626000Y-131498000D03*
X106926000Y-131498000D03*
%TD*%
D20*
%TO.C,D1:8*%
G36*
X75425676Y-136094477D02*
G01*
X75932817Y-137182046D01*
X75117140Y-137562403D01*
X74609999Y-136474834D01*
X75425676Y-136094477D01*
G37*
G36*
X72434860Y-137489117D02*
G01*
X72942001Y-138576686D01*
X72126324Y-138957043D01*
X71619183Y-137869474D01*
X72434860Y-137489117D01*
G37*
%TD*%
%TO.C,D1:7*%
G36*
X50121732Y-148231963D02*
G01*
X49614591Y-147144394D01*
X50430268Y-146764037D01*
X50937409Y-147851606D01*
X50121732Y-148231963D01*
G37*
G36*
X53112548Y-146837323D02*
G01*
X52605407Y-145749754D01*
X53421084Y-145369397D01*
X53928225Y-146456966D01*
X53112548Y-146837323D01*
G37*
%TD*%
D15*
%TO.C,D0:12*%
X102926000Y-158498000D03*
X99626000Y-158498000D03*
%TD*%
%TO.C,D0:11*%
X102926000Y-154498000D03*
X99626000Y-154498000D03*
%TD*%
%TO.C,D0:10*%
X102926000Y-150498000D03*
X99626000Y-150498000D03*
%TD*%
%TO.C,D0:9*%
X48926000Y-167498000D03*
X45626000Y-167498000D03*
%TD*%
D20*
%TO.C,D0:8*%
G36*
X72925676Y-132066717D02*
G01*
X73432817Y-133154286D01*
X72617140Y-133534643D01*
X72109999Y-132447074D01*
X72925676Y-132066717D01*
G37*
G36*
X69934860Y-133461357D02*
G01*
X70442001Y-134548926D01*
X69626324Y-134929283D01*
X69119183Y-133841714D01*
X69934860Y-133461357D01*
G37*
%TD*%
%TO.C,D0:7*%
G36*
X39925676Y-150066717D02*
G01*
X40432817Y-151154286D01*
X39617140Y-151534643D01*
X39109999Y-150447074D01*
X39925676Y-150066717D01*
G37*
G36*
X36934860Y-151461357D02*
G01*
X37442001Y-152548926D01*
X36626324Y-152929283D01*
X36119183Y-151841714D01*
X36934860Y-151461357D01*
G37*
%TD*%
D21*
%TO.C,U2*%
X118276000Y-45698000D03*
X118926000Y-45698000D03*
X119576000Y-45698000D03*
X120226000Y-45698000D03*
X120876000Y-45698000D03*
X121526000Y-45698000D03*
X122176000Y-45698000D03*
X122826000Y-45698000D03*
X123476000Y-45698000D03*
X124126000Y-45698000D03*
X124776000Y-45698000D03*
X125426000Y-45698000D03*
X125426000Y-38498000D03*
X124776000Y-38498000D03*
X124126000Y-38498000D03*
X123476000Y-38498000D03*
X122826000Y-38498000D03*
X122176000Y-38498000D03*
X121526000Y-38498000D03*
X120876000Y-38498000D03*
X120226000Y-38498000D03*
X119576000Y-38498000D03*
X118926000Y-38498000D03*
X118276000Y-38498000D03*
%TD*%
D22*
%TO.C,R7*%
X84276000Y-44498000D03*
X85776000Y-44498000D03*
%TD*%
%TO.C,R6*%
X97526000Y-44498000D03*
X99026000Y-44498000D03*
%TD*%
%TO.C,R3*%
X133526000Y-37498000D03*
X135026000Y-37498000D03*
%TD*%
%TO.C,R4*%
X133526000Y-35498000D03*
X135026000Y-35498000D03*
%TD*%
D23*
%TO.C,LED_B1*%
X137476000Y-35498000D03*
X139076000Y-35498000D03*
%TD*%
%TO.C,LED_A1*%
X137476000Y-37498000D03*
X139076000Y-37498000D03*
%TD*%
M02*
