M48
; DRILL file {KiCad 5.1.7} date Sun Nov  1 11:12:59 2020
; FORMAT={-:-/ absolute / inch / decimal}
; #@! TF.CreationDate,2020-11-01T11:12:59-08:00
; #@! TF.GenerationSoftware,Kicad,Pcbnew,5.1.7
; #@! TF.FileFunction,NonPlated,1,2,NPTH
FMAT,2
INCH
T1C0.0472
T2C0.0670
T3C0.1570
%
G90
G05
T1
X3.6132Y-1.3582
X3.6132Y-1.6338
T2
X4.15Y-5.5129
X4.55Y-5.5129
X7.3375Y-3.3879
X7.7375Y-3.3879
X6.4Y-2.638
X6.8Y-2.638
X2.1815Y-6.0878
X2.5441Y-5.9188
X4.15Y-4.0129
X4.55Y-4.0129
X5.65Y-2.5129
X6.05Y-2.5129
X5.65Y-4.7629
X6.05Y-4.7629
X6.4Y-4.1379
X6.8Y-4.1379
X4.9Y-3.95
X5.3Y-3.95
X4.15Y-3.2629
X4.55Y-3.2629
X3.4Y-4.0629
X3.8Y-4.0629
X4.15Y-4.7629
X4.55Y-4.7629
X4.9Y-5.45
X5.3Y-5.45
X3.1761Y-6.4427
X3.5386Y-6.2737
X5.65Y-4.0129
X6.05Y-4.0129
X7.3375Y-4.1379
X7.7375Y-4.1379
X2.8612Y-5.7708
X3.2238Y-5.6018
X3.4Y-4.8129
X3.8Y-4.8129
X2.85Y-4.4254
X2.85Y-4.8254
X4.9Y-3.2
X5.3Y-3.2
X7.3375Y-2.638
X7.7375Y-2.638
X7.3375Y-4.8879
X7.7375Y-4.8879
X5.65Y-3.2629
X6.05Y-3.2629
X6.4Y-3.3879
X6.8Y-3.3879
X3.4Y-2.563
X3.8Y-2.563
X1.5017Y-6.4047
X1.8643Y-6.2357
X4.9Y-2.45
X5.3Y-2.45
X4.15Y-2.5129
X4.55Y-2.5129
X1.1848Y-5.725
X1.5474Y-5.556
X2.4674Y-6.7577
X2.8299Y-6.5886
X4.9Y-4.7
X5.3Y-4.7
X6.4Y-4.8879
X6.8Y-4.8879
X5.65Y-5.5129
X6.05Y-5.5129
X1.8645Y-5.4081
X2.2271Y-5.2391
X6.4Y-5.6379
X6.8Y-5.6379
X2.65Y-2.563
X3.05Y-2.563
X2.85Y-3.3004
X2.85Y-3.7004
X3.4Y-3.3129
X3.8Y-3.3129
X7.15Y-5.6379
X7.55Y-5.6379
X1.8187Y-7.0845
X2.1813Y-6.9155
T3
X6.6Y-3.3879
X3.6Y-2.563
X1.683Y-6.3202
X5.1Y-2.45
X4.35Y-2.5129
X1.3661Y-5.6405
X2.6487Y-6.6731
X5.1Y-4.7
X6.6Y-4.8879
X5.85Y-5.5129
X2.0458Y-5.3236
X6.6Y-5.6379
X2.85Y-2.563
X2.85Y-3.5004
X3.6Y-3.3129
X7.35Y-5.6379
X2.0Y-7.0
X4.35Y-5.5129
X7.5375Y-3.3879
X6.6Y-2.638
X2.3628Y-6.0033
X4.35Y-4.0129
X5.85Y-2.5129
X5.85Y-4.7629
X6.6Y-4.1379
X5.1Y-3.95
X4.35Y-3.2629
X3.6Y-4.0629
X4.35Y-4.7629
X5.1Y-5.45
X3.3573Y-6.3582
X5.85Y-4.0129
X7.5375Y-4.1379
X3.0425Y-5.6863
X3.6Y-4.8129
X2.85Y-4.6254
X5.1Y-3.2
X7.5375Y-2.638
X7.5375Y-4.8879
X5.85Y-3.2629
T0
M30
