%FSLAX45Y45*%
G04 Gerber Fmt 4.5, Leading zero omitted, Abs format (unit mm)*
G04 Created by KiCad (PCBNEW 5.1.7) date 2020-11-01 11:13:00*
%MOMM*%
%LPD*%
G01*
G04 APERTURE LIST*
%TA.AperFunction,Profile*%
%ADD10C,0.381000*%
%TD*%
%ADD11C,0.200000*%
%ADD12C,0.300000*%
G04 APERTURE END LIST*
D10*
X9012100Y-3225800D02*
X9352100Y-3225800D01*
X9012100Y-3225800D02*
X7787640Y-3225800D01*
X9504680Y-3225800D02*
X9352100Y-3225800D01*
X20274280Y-3225800D02*
X14340840Y-3225800D01*
X14340840Y-3225800D02*
X13190220Y-3225800D01*
X13190220Y-3225800D02*
X9504680Y-3225800D01*
X7787640Y-3225800D02*
X6581140Y-3225800D01*
X6581140Y-3225800D02*
X6261100Y-3543300D01*
X12715240Y-15290800D02*
X19639280Y-15290800D01*
X19639280Y-15290800D02*
X20591780Y-14338300D01*
X20591780Y-14338300D02*
X20591780Y-3543300D01*
X20591780Y-3543300D02*
X20274280Y-3225800D01*
X6261100Y-3543300D02*
X6261100Y-12166600D01*
X6261100Y-12166600D02*
X5770880Y-12166600D01*
X5770880Y-12166600D02*
X2461768Y-13709650D01*
X2461768Y-13709650D02*
X2308098Y-14131544D01*
X2308098Y-14131544D02*
X4476496Y-18781776D01*
X4476496Y-18781776D02*
X4898390Y-18935192D01*
X4898390Y-18935192D02*
X12715240Y-15290800D01*
D11*
X4602200Y-14724400D02*
X4653000Y-14775200D01*
X4653000Y-14724400D02*
X4602200Y-14775200D01*
X5102200Y-15724400D02*
X5153000Y-15775200D01*
X5153000Y-15724400D02*
X5102200Y-15775200D01*
X6602200Y-14724400D02*
X6653000Y-14775200D01*
X6653000Y-14724400D02*
X6602200Y-14775200D01*
X7102200Y-7724400D02*
X7153000Y-7775200D01*
X7153000Y-7724400D02*
X7102200Y-7775200D01*
X7602200Y-4224400D02*
X7653000Y-4275200D01*
X7653000Y-4224400D02*
X7602200Y-4275200D01*
X7602200Y-10224400D02*
X7653000Y-10275200D01*
X7653000Y-10224400D02*
X7602200Y-10275200D01*
X7602200Y-12724400D02*
X7653000Y-12775200D01*
X7653000Y-12724400D02*
X7602200Y-12775200D01*
X7602200Y-16724400D02*
X7653000Y-16775200D01*
X7653000Y-16724400D02*
X7602200Y-16775200D01*
X8602200Y-4724400D02*
X8653000Y-4775200D01*
X8653000Y-4724400D02*
X8602200Y-4775200D01*
X9602200Y-14224400D02*
X9653000Y-14275200D01*
X9653000Y-14224400D02*
X9602200Y-14275200D01*
X9819700Y-4756900D02*
X9870500Y-4807700D01*
X9870500Y-4756900D02*
X9819700Y-4807700D01*
X10852200Y-4224400D02*
X10903000Y-4275200D01*
X10903000Y-4224400D02*
X10852200Y-4275200D01*
X11102200Y-5224400D02*
X11153000Y-5275200D01*
X11153000Y-5224400D02*
X11102200Y-5275200D01*
X11102200Y-7224400D02*
X11153000Y-7275200D01*
X11153000Y-7224400D02*
X11102200Y-7275200D01*
X11102200Y-9224400D02*
X11153000Y-9275200D01*
X11153000Y-9224400D02*
X11102200Y-9275200D01*
X11852200Y-4474400D02*
X11903000Y-4525200D01*
X11903000Y-4474400D02*
X11852200Y-4525200D01*
X12102200Y-14724400D02*
X12153000Y-14775200D01*
X12153000Y-14724400D02*
X12102200Y-14775200D01*
X12204700Y-12852400D02*
X12255500Y-12903200D01*
X12255500Y-12852400D02*
X12204700Y-12903200D01*
X12331700Y-4624400D02*
X12382500Y-4675200D01*
X12382500Y-4624400D02*
X12331700Y-4675200D01*
X12458700Y-4851400D02*
X12509500Y-4902200D01*
X12509500Y-4851400D02*
X12458700Y-4902200D01*
X12604200Y-4876900D02*
X12655000Y-4927700D01*
X12655000Y-4876900D02*
X12604200Y-4927700D01*
X12712700Y-5105400D02*
X12763500Y-5156200D01*
X12763500Y-5105400D02*
X12712700Y-5156200D01*
X12830082Y-4333782D02*
X12880882Y-4384582D01*
X12880882Y-4333782D02*
X12830082Y-4384582D01*
X12839700Y-4978400D02*
X12890500Y-5029200D01*
X12890500Y-4978400D02*
X12839700Y-5029200D01*
X13220700Y-3644900D02*
X13271500Y-3695700D01*
X13271500Y-3644900D02*
X13220700Y-3695700D01*
X13220700Y-3835400D02*
X13271500Y-3886200D01*
X13271500Y-3835400D02*
X13220700Y-3886200D01*
X13352200Y-4974400D02*
X13403000Y-5025200D01*
X13403000Y-4974400D02*
X13352200Y-5025200D01*
X13902200Y-5324400D02*
X13953000Y-5375200D01*
X13953000Y-5324400D02*
X13902200Y-5375200D01*
X13902200Y-9324400D02*
X13953000Y-9375200D01*
X13953000Y-9324400D02*
X13902200Y-9375200D01*
X13902200Y-12924400D02*
X13953000Y-12975200D01*
X13953000Y-12924400D02*
X13902200Y-12975200D01*
X13902200Y-13324400D02*
X13953000Y-13375200D01*
X13953000Y-13324400D02*
X13902200Y-13375200D01*
X14002200Y-5724400D02*
X14053000Y-5775200D01*
X14053000Y-5724400D02*
X14002200Y-5775200D01*
X14002200Y-7024400D02*
X14053000Y-7075200D01*
X14053000Y-7024400D02*
X14002200Y-7075200D01*
X14002200Y-7624400D02*
X14053000Y-7675200D01*
X14053000Y-7624400D02*
X14002200Y-7675200D01*
X14002200Y-9724400D02*
X14053000Y-9775200D01*
X14053000Y-9724400D02*
X14002200Y-9775200D01*
X14002200Y-11024400D02*
X14053000Y-11075200D01*
X14053000Y-11024400D02*
X14002200Y-11075200D01*
X14002200Y-11324400D02*
X14053000Y-11375200D01*
X14053000Y-11324400D02*
X14002200Y-11375200D01*
X14602200Y-14724400D02*
X14653000Y-14775200D01*
X14653000Y-14724400D02*
X14602200Y-14775200D01*
X15102200Y-3724400D02*
X15153000Y-3775200D01*
X15153000Y-3724400D02*
X15102200Y-3775200D01*
X15102200Y-5224400D02*
X15153000Y-5275200D01*
X15153000Y-5224400D02*
X15102200Y-5275200D01*
X15602200Y-7224400D02*
X15653000Y-7275200D01*
X15653000Y-7224400D02*
X15602200Y-7275200D01*
X15602200Y-9224400D02*
X15653000Y-9275200D01*
X15653000Y-9224400D02*
X15602200Y-9275200D01*
X15602200Y-12724400D02*
X15653000Y-12775200D01*
X15653000Y-12724400D02*
X15602200Y-12775200D01*
X17102200Y-5724400D02*
X17153000Y-5775200D01*
X17153000Y-5724400D02*
X17102200Y-5775200D01*
X17602200Y-4224400D02*
X17653000Y-4275200D01*
X17653000Y-4224400D02*
X17602200Y-4275200D01*
X18102200Y-6724400D02*
X18153000Y-6775200D01*
X18153000Y-6724400D02*
X18102200Y-6775200D01*
X18102200Y-8724400D02*
X18153000Y-8775200D01*
X18153000Y-8724400D02*
X18102200Y-8775200D01*
X19102200Y-4224400D02*
X19153000Y-4275200D01*
X19153000Y-4224400D02*
X19102200Y-4275200D01*
X19102200Y-11224400D02*
X19153000Y-11275200D01*
X19153000Y-11224400D02*
X19102200Y-11275200D01*
X19102200Y-13224400D02*
X19153000Y-13275200D01*
X19153000Y-13224400D02*
X19102200Y-13275200D01*
X8887600Y-3599800D02*
G75*
G03*
X8887600Y-3599800I-40000J0D01*
G01*
X8817600Y-3564800D02*
X8817600Y-3634800D01*
X8877600Y-3564800D02*
X8877600Y-3634800D01*
X8817600Y-3634800D02*
G75*
G03*
X8877600Y-3634800I30000J0D01*
G01*
X8877600Y-3564800D02*
G75*
G03*
X8817600Y-3564800I-30000J0D01*
G01*
X8932600Y-4399800D02*
G75*
G03*
X8932600Y-4399800I-40000J0D01*
G01*
X8862600Y-4364800D02*
X8862600Y-4434800D01*
X8922600Y-4364800D02*
X8922600Y-4434800D01*
X8862600Y-4434800D02*
G75*
G03*
X8922600Y-4434800I30000J0D01*
G01*
X8922600Y-4364800D02*
G75*
G03*
X8862600Y-4364800I-30000J0D01*
G01*
X9217600Y-4479800D02*
G75*
G03*
X9217600Y-4479800I-40000J0D01*
G01*
X9142600Y-4509800D02*
X9212600Y-4509800D01*
X9142600Y-4449800D02*
X9212600Y-4449800D01*
X9212600Y-4509800D02*
G75*
G03*
X9212600Y-4449800I0J30000D01*
G01*
X9142600Y-4449800D02*
G75*
G03*
X9142600Y-4509800I0J-30000D01*
G01*
X9502600Y-4399800D02*
G75*
G03*
X9502600Y-4399800I-40000J0D01*
G01*
X9432600Y-4364800D02*
X9432600Y-4434800D01*
X9492600Y-4364800D02*
X9492600Y-4434800D01*
X9432600Y-4434800D02*
G75*
G03*
X9492600Y-4434800I30000J0D01*
G01*
X9492600Y-4364800D02*
G75*
G03*
X9432600Y-4364800I-30000J0D01*
G01*
X9547600Y-3599800D02*
G75*
G03*
X9547600Y-3599800I-40000J0D01*
G01*
X9477600Y-3564800D02*
X9477600Y-3634800D01*
X9537600Y-3564800D02*
X9537600Y-3634800D01*
X9477600Y-3634800D02*
G75*
G03*
X9537600Y-3634800I30000J0D01*
G01*
X9537600Y-3564800D02*
G75*
G03*
X9477600Y-3564800I-30000J0D01*
G01*
X10668000Y-13673836D02*
X10668000Y-13823696D01*
X10593070Y-13748766D02*
X10742930Y-13748766D01*
X11303000Y-13419836D02*
X11303000Y-13569696D01*
X11228070Y-13494766D02*
X11377930Y-13494766D01*
X18764250Y-8276336D02*
X18764250Y-8426196D01*
X18689320Y-8351266D02*
X18839180Y-8351266D01*
X19399250Y-8022336D02*
X19399250Y-8172196D01*
X19324320Y-8097266D02*
X19474180Y-8097266D01*
X16383000Y-6371590D02*
X16383000Y-6521450D01*
X16308070Y-6446520D02*
X16457930Y-6446520D01*
X17018000Y-6117590D02*
X17018000Y-6267450D01*
X16943070Y-6192520D02*
X17092930Y-6192520D01*
X5548864Y-15104267D02*
X5548864Y-15254127D01*
X5473934Y-15179197D02*
X5623794Y-15179197D01*
X6017024Y-14605703D02*
X6017024Y-14755563D01*
X5942094Y-14680633D02*
X6091954Y-14680633D01*
X10668000Y-9863836D02*
X10668000Y-10013696D01*
X10593070Y-9938766D02*
X10742930Y-9938766D01*
X11303000Y-9609836D02*
X11303000Y-9759696D01*
X11228070Y-9684766D02*
X11377930Y-9684766D01*
X14478000Y-6053836D02*
X14478000Y-6203696D01*
X14403070Y-6128766D02*
X14552930Y-6128766D01*
X15113000Y-5799836D02*
X15113000Y-5949696D01*
X15038070Y-5874766D02*
X15187930Y-5874766D01*
X14478000Y-11768836D02*
X14478000Y-11918696D01*
X14403070Y-11843766D02*
X14552930Y-11843766D01*
X15113000Y-11514836D02*
X15113000Y-11664696D01*
X15038070Y-11589766D02*
X15187930Y-11589766D01*
X16383000Y-10181336D02*
X16383000Y-10331196D01*
X16308070Y-10256266D02*
X16457930Y-10256266D01*
X17018000Y-9927336D02*
X17018000Y-10077196D01*
X16943070Y-10002266D02*
X17092930Y-10002266D01*
X12573000Y-9704070D02*
X12573000Y-9853930D01*
X12498070Y-9779000D02*
X12647930Y-9779000D01*
X13208000Y-9450070D02*
X13208000Y-9599930D01*
X13133070Y-9525000D02*
X13282930Y-9525000D01*
X10668000Y-7958836D02*
X10668000Y-8108696D01*
X10593070Y-8033766D02*
X10742930Y-8033766D01*
X11303000Y-7704836D02*
X11303000Y-7854696D01*
X11228070Y-7779766D02*
X11377930Y-7779766D01*
X8763000Y-9990836D02*
X8763000Y-10140696D01*
X8688070Y-10065766D02*
X8837930Y-10065766D01*
X9398000Y-9736836D02*
X9398000Y-9886696D01*
X9323070Y-9811766D02*
X9472930Y-9811766D01*
X10668000Y-11768836D02*
X10668000Y-11918696D01*
X10593070Y-11843766D02*
X10742930Y-11843766D01*
X11303000Y-11514836D02*
X11303000Y-11664696D01*
X11228070Y-11589766D02*
X11377930Y-11589766D01*
X12573000Y-13514070D02*
X12573000Y-13663930D01*
X12498070Y-13589000D02*
X12647930Y-13589000D01*
X13208000Y-13260070D02*
X13208000Y-13409930D01*
X13133070Y-13335000D02*
X13282930Y-13335000D01*
X8074952Y-16005685D02*
X8074952Y-16155545D01*
X8000022Y-16080615D02*
X8149882Y-16080615D01*
X8543112Y-15507121D02*
X8543112Y-15656981D01*
X8468182Y-15582051D02*
X8618042Y-15582051D01*
X14478000Y-9863836D02*
X14478000Y-10013696D01*
X14403070Y-9938766D02*
X14552930Y-9938766D01*
X15113000Y-9609836D02*
X15113000Y-9759696D01*
X15038070Y-9684766D02*
X15187930Y-9684766D01*
X18764250Y-10181336D02*
X18764250Y-10331196D01*
X18689320Y-10256266D02*
X18839180Y-10256266D01*
X19399250Y-9927336D02*
X19399250Y-10077196D01*
X19324320Y-10002266D02*
X19474180Y-10002266D01*
X7275302Y-14299087D02*
X7275302Y-14448947D01*
X7200372Y-14374017D02*
X7350232Y-14374017D01*
X7743462Y-13800523D02*
X7743462Y-13950383D01*
X7668532Y-13875453D02*
X7818392Y-13875453D01*
X8763000Y-11895836D02*
X8763000Y-12045696D01*
X8688070Y-11970766D02*
X8837930Y-11970766D01*
X9398000Y-11641836D02*
X9398000Y-11791696D01*
X9323070Y-11716766D02*
X9472930Y-11716766D01*
X6731000Y-11419586D02*
X6731000Y-11569446D01*
X6656070Y-11494516D02*
X6805930Y-11494516D01*
X6985000Y-12054586D02*
X6985000Y-12204446D01*
X6910070Y-12129516D02*
X7059930Y-12129516D01*
X12573000Y-7799070D02*
X12573000Y-7948930D01*
X12498070Y-7874000D02*
X12647930Y-7874000D01*
X13208000Y-7545070D02*
X13208000Y-7694930D01*
X13133070Y-7620000D02*
X13282930Y-7620000D01*
X18764250Y-6371590D02*
X18764250Y-6521450D01*
X18689320Y-6446520D02*
X18839180Y-6446520D01*
X19399250Y-6117590D02*
X19399250Y-6267450D01*
X19324320Y-6192520D02*
X19474180Y-6192520D01*
X18764250Y-12086336D02*
X18764250Y-12236196D01*
X18689320Y-12161266D02*
X18839180Y-12161266D01*
X19399250Y-11832336D02*
X19399250Y-11982196D01*
X19324320Y-11907266D02*
X19474180Y-11907266D01*
X14478000Y-7958836D02*
X14478000Y-8108696D01*
X14403070Y-8033766D02*
X14552930Y-8033766D01*
X15113000Y-7704836D02*
X15113000Y-7854696D01*
X15038070Y-7779766D02*
X15187930Y-7779766D01*
X16383000Y-8276336D02*
X16383000Y-8426196D01*
X16308070Y-8351266D02*
X16457930Y-8351266D01*
X17018000Y-8022336D02*
X17018000Y-8172196D01*
X16943070Y-8097266D02*
X17092930Y-8097266D01*
X8763000Y-6181090D02*
X8763000Y-6330950D01*
X8688070Y-6256020D02*
X8837930Y-6256020D01*
X9398000Y-5927090D02*
X9398000Y-6076950D01*
X9323070Y-6002020D02*
X9472930Y-6002020D01*
X3822172Y-15909193D02*
X3822172Y-16059053D01*
X3747242Y-15984123D02*
X3897102Y-15984123D01*
X4290332Y-15410629D02*
X4290332Y-15560489D01*
X4215402Y-15485559D02*
X4365262Y-15485559D01*
X12573000Y-5894070D02*
X12573000Y-6043930D01*
X12498070Y-5969000D02*
X12647930Y-5969000D01*
X13208000Y-5640070D02*
X13208000Y-5789930D01*
X13133070Y-5715000D02*
X13282930Y-5715000D01*
X10668000Y-6053836D02*
X10668000Y-6203696D01*
X10593070Y-6128766D02*
X10742930Y-6128766D01*
X11303000Y-5799836D02*
X11303000Y-5949696D01*
X11228070Y-5874766D02*
X11377930Y-5874766D01*
X3017246Y-14182755D02*
X3017246Y-14332615D01*
X2942316Y-14257685D02*
X3092176Y-14257685D01*
X3485406Y-13684191D02*
X3485406Y-13834051D01*
X3410476Y-13759121D02*
X3560336Y-13759121D01*
X6274952Y-16805685D02*
X6274952Y-16955545D01*
X6200022Y-16880615D02*
X6349882Y-16880615D01*
X6743112Y-16307121D02*
X6743112Y-16456981D01*
X6668182Y-16382051D02*
X6818042Y-16382051D01*
X12573000Y-11609070D02*
X12573000Y-11758930D01*
X12498070Y-11684000D02*
X12647930Y-11684000D01*
X13208000Y-11355070D02*
X13208000Y-11504930D01*
X13133070Y-11430000D02*
X13282930Y-11430000D01*
X16383000Y-12086336D02*
X16383000Y-12236196D01*
X16308070Y-12161266D02*
X16457930Y-12161266D01*
X17018000Y-11832336D02*
X17018000Y-11982196D01*
X16943070Y-11907266D02*
X17092930Y-11907266D01*
X14478000Y-13673836D02*
X14478000Y-13823696D01*
X14403070Y-13748766D02*
X14552930Y-13748766D01*
X15113000Y-13419836D02*
X15113000Y-13569696D01*
X15038070Y-13494766D02*
X15187930Y-13494766D01*
X4743684Y-13377829D02*
X4743684Y-13527689D01*
X4668754Y-13452759D02*
X4818614Y-13452759D01*
X5211844Y-12879265D02*
X5211844Y-13029125D01*
X5136914Y-12954195D02*
X5286774Y-12954195D01*
X16383000Y-13991336D02*
X16383000Y-14141196D01*
X16308070Y-14066266D02*
X16457930Y-14066266D01*
X17018000Y-13737336D02*
X17018000Y-13887196D01*
X16943070Y-13812266D02*
X17092930Y-13812266D01*
X6858000Y-6181090D02*
X6858000Y-6330950D01*
X6783070Y-6256020D02*
X6932930Y-6256020D01*
X7493000Y-5927090D02*
X7493000Y-6076950D01*
X7418070Y-6002020D02*
X7567930Y-6002020D01*
X6731000Y-8562086D02*
X6731000Y-8711946D01*
X6656070Y-8637016D02*
X6805930Y-8637016D01*
X6985000Y-9197086D02*
X6985000Y-9346946D01*
X6910070Y-9272016D02*
X7059930Y-9272016D01*
X8763000Y-8085836D02*
X8763000Y-8235696D01*
X8688070Y-8160766D02*
X8837930Y-8160766D01*
X9398000Y-7831836D02*
X9398000Y-7981696D01*
X9323070Y-7906766D02*
X9472930Y-7906766D01*
X18288000Y-13991336D02*
X18288000Y-14141196D01*
X18213070Y-14066266D02*
X18362930Y-14066266D01*
X18923000Y-13737336D02*
X18923000Y-13887196D01*
X18848070Y-13812266D02*
X18997930Y-13812266D01*
X4627352Y-17635885D02*
X4627352Y-17785745D01*
X4552422Y-17710815D02*
X4702282Y-17710815D01*
X5095512Y-17137321D02*
X5095512Y-17287181D01*
X5020582Y-17212251D02*
X5170442Y-17212251D01*
D12*
X2575476Y-19419956D02*
X2575476Y-19119956D01*
X2646905Y-19119956D01*
X2689762Y-19134242D01*
X2718334Y-19162814D01*
X2732619Y-19191385D01*
X2746905Y-19248528D01*
X2746905Y-19291385D01*
X2732619Y-19348528D01*
X2718334Y-19377099D01*
X2689762Y-19405671D01*
X2646905Y-19419956D01*
X2575476Y-19419956D01*
X2875476Y-19419956D02*
X2875476Y-19219956D01*
X2875476Y-19277099D02*
X2889762Y-19248528D01*
X2904048Y-19234242D01*
X2932619Y-19219956D01*
X2961191Y-19219956D01*
X3061191Y-19419956D02*
X3061191Y-19219956D01*
X3061191Y-19119956D02*
X3046905Y-19134242D01*
X3061191Y-19148528D01*
X3075476Y-19134242D01*
X3061191Y-19119956D01*
X3061191Y-19148528D01*
X3246905Y-19419956D02*
X3218334Y-19405671D01*
X3204048Y-19377099D01*
X3204048Y-19119956D01*
X3404048Y-19419956D02*
X3375476Y-19405671D01*
X3361191Y-19377099D01*
X3361191Y-19119956D01*
X3746905Y-19419956D02*
X3746905Y-19119956D01*
X3846905Y-19334242D01*
X3946905Y-19119956D01*
X3946905Y-19419956D01*
X4218334Y-19419956D02*
X4218334Y-19262814D01*
X4204048Y-19234242D01*
X4175476Y-19219956D01*
X4118334Y-19219956D01*
X4089762Y-19234242D01*
X4218334Y-19405671D02*
X4189762Y-19419956D01*
X4118334Y-19419956D01*
X4089762Y-19405671D01*
X4075476Y-19377099D01*
X4075476Y-19348528D01*
X4089762Y-19319956D01*
X4118334Y-19305671D01*
X4189762Y-19305671D01*
X4218334Y-19291385D01*
X4361191Y-19219956D02*
X4361191Y-19519956D01*
X4361191Y-19234242D02*
X4389762Y-19219956D01*
X4446905Y-19219956D01*
X4475476Y-19234242D01*
X4489762Y-19248528D01*
X4504048Y-19277099D01*
X4504048Y-19362814D01*
X4489762Y-19391385D01*
X4475476Y-19405671D01*
X4446905Y-19419956D01*
X4389762Y-19419956D01*
X4361191Y-19405671D01*
X4632619Y-19391385D02*
X4646905Y-19405671D01*
X4632619Y-19419956D01*
X4618334Y-19405671D01*
X4632619Y-19391385D01*
X4632619Y-19419956D01*
X4632619Y-19234242D02*
X4646905Y-19248528D01*
X4632619Y-19262814D01*
X4618334Y-19248528D01*
X4632619Y-19234242D01*
X4632619Y-19262814D01*
X2238248Y-19888842D02*
X2289048Y-19939642D01*
X2289048Y-19888842D02*
X2238248Y-19939642D01*
X2632619Y-19749956D02*
X2661191Y-19749956D01*
X2689762Y-19764242D01*
X2704048Y-19778528D01*
X2718334Y-19807099D01*
X2732619Y-19864242D01*
X2732619Y-19935671D01*
X2718334Y-19992814D01*
X2704048Y-20021385D01*
X2689762Y-20035671D01*
X2661191Y-20049956D01*
X2632619Y-20049956D01*
X2604048Y-20035671D01*
X2589762Y-20021385D01*
X2575476Y-19992814D01*
X2561191Y-19935671D01*
X2561191Y-19864242D01*
X2575476Y-19807099D01*
X2589762Y-19778528D01*
X2604048Y-19764242D01*
X2632619Y-19749956D01*
X2861191Y-20021385D02*
X2875476Y-20035671D01*
X2861191Y-20049956D01*
X2846905Y-20035671D01*
X2861191Y-20021385D01*
X2861191Y-20049956D01*
X3146905Y-19749956D02*
X3004048Y-19749956D01*
X2989762Y-19892814D01*
X3004048Y-19878528D01*
X3032619Y-19864242D01*
X3104048Y-19864242D01*
X3132619Y-19878528D01*
X3146905Y-19892814D01*
X3161191Y-19921385D01*
X3161191Y-19992814D01*
X3146905Y-20021385D01*
X3132619Y-20035671D01*
X3104048Y-20049956D01*
X3032619Y-20049956D01*
X3004048Y-20035671D01*
X2989762Y-20021385D01*
X3446905Y-20049956D02*
X3275476Y-20049956D01*
X3361191Y-20049956D02*
X3361191Y-19749956D01*
X3332619Y-19792814D01*
X3304048Y-19821385D01*
X3275476Y-19835671D01*
X3575476Y-20049956D02*
X3575476Y-19849956D01*
X3575476Y-19878528D02*
X3589762Y-19864242D01*
X3618334Y-19849956D01*
X3661191Y-19849956D01*
X3689762Y-19864242D01*
X3704048Y-19892814D01*
X3704048Y-20049956D01*
X3704048Y-19892814D02*
X3718334Y-19864242D01*
X3746905Y-19849956D01*
X3789762Y-19849956D01*
X3818334Y-19864242D01*
X3832619Y-19892814D01*
X3832619Y-20049956D01*
X3975476Y-20049956D02*
X3975476Y-19849956D01*
X3975476Y-19878528D02*
X3989762Y-19864242D01*
X4018334Y-19849956D01*
X4061191Y-19849956D01*
X4089762Y-19864242D01*
X4104048Y-19892814D01*
X4104048Y-20049956D01*
X4104048Y-19892814D02*
X4118334Y-19864242D01*
X4146905Y-19849956D01*
X4189762Y-19849956D01*
X4218334Y-19864242D01*
X4232619Y-19892814D01*
X4232619Y-20049956D01*
X4818334Y-19735671D02*
X4561191Y-20121385D01*
X5204048Y-19749956D02*
X5232619Y-19749956D01*
X5261191Y-19764242D01*
X5275476Y-19778528D01*
X5289762Y-19807099D01*
X5304048Y-19864242D01*
X5304048Y-19935671D01*
X5289762Y-19992814D01*
X5275476Y-20021385D01*
X5261191Y-20035671D01*
X5232619Y-20049956D01*
X5204048Y-20049956D01*
X5175476Y-20035671D01*
X5161191Y-20021385D01*
X5146905Y-19992814D01*
X5132619Y-19935671D01*
X5132619Y-19864242D01*
X5146905Y-19807099D01*
X5161191Y-19778528D01*
X5175476Y-19764242D01*
X5204048Y-19749956D01*
X5432619Y-20021385D02*
X5446905Y-20035671D01*
X5432619Y-20049956D01*
X5418334Y-20035671D01*
X5432619Y-20021385D01*
X5432619Y-20049956D01*
X5632619Y-19749956D02*
X5661191Y-19749956D01*
X5689762Y-19764242D01*
X5704048Y-19778528D01*
X5718334Y-19807099D01*
X5732619Y-19864242D01*
X5732619Y-19935671D01*
X5718334Y-19992814D01*
X5704048Y-20021385D01*
X5689762Y-20035671D01*
X5661191Y-20049956D01*
X5632619Y-20049956D01*
X5604048Y-20035671D01*
X5589762Y-20021385D01*
X5575476Y-19992814D01*
X5561191Y-19935671D01*
X5561191Y-19864242D01*
X5575476Y-19807099D01*
X5589762Y-19778528D01*
X5604048Y-19764242D01*
X5632619Y-19749956D01*
X5846905Y-19778528D02*
X5861191Y-19764242D01*
X5889762Y-19749956D01*
X5961191Y-19749956D01*
X5989762Y-19764242D01*
X6004048Y-19778528D01*
X6018334Y-19807099D01*
X6018334Y-19835671D01*
X6004048Y-19878528D01*
X5832619Y-20049956D01*
X6018334Y-20049956D01*
X6204048Y-19749956D02*
X6232619Y-19749956D01*
X6261191Y-19764242D01*
X6275476Y-19778528D01*
X6289762Y-19807099D01*
X6304048Y-19864242D01*
X6304048Y-19935671D01*
X6289762Y-19992814D01*
X6275476Y-20021385D01*
X6261191Y-20035671D01*
X6232619Y-20049956D01*
X6204048Y-20049956D01*
X6175476Y-20035671D01*
X6161191Y-20021385D01*
X6146905Y-19992814D01*
X6132619Y-19935671D01*
X6132619Y-19864242D01*
X6146905Y-19807099D01*
X6161191Y-19778528D01*
X6175476Y-19764242D01*
X6204048Y-19749956D01*
X6418334Y-19749956D02*
X6418334Y-19807099D01*
X6532619Y-19749956D02*
X6532619Y-19807099D01*
X6975476Y-20164242D02*
X6961191Y-20149956D01*
X6932619Y-20107099D01*
X6918334Y-20078528D01*
X6904048Y-20035671D01*
X6889762Y-19964242D01*
X6889762Y-19907099D01*
X6904048Y-19835671D01*
X6918334Y-19792814D01*
X6932619Y-19764242D01*
X6961191Y-19721385D01*
X6975476Y-19707099D01*
X7232619Y-19749956D02*
X7089762Y-19749956D01*
X7075476Y-19892814D01*
X7089762Y-19878528D01*
X7118334Y-19864242D01*
X7189762Y-19864242D01*
X7218334Y-19878528D01*
X7232619Y-19892814D01*
X7246905Y-19921385D01*
X7246905Y-19992814D01*
X7232619Y-20021385D01*
X7218334Y-20035671D01*
X7189762Y-20049956D01*
X7118334Y-20049956D01*
X7089762Y-20035671D01*
X7075476Y-20021385D01*
X7432619Y-19749956D02*
X7461191Y-19749956D01*
X7489762Y-19764242D01*
X7504048Y-19778528D01*
X7518334Y-19807099D01*
X7532619Y-19864242D01*
X7532619Y-19935671D01*
X7518334Y-19992814D01*
X7504048Y-20021385D01*
X7489762Y-20035671D01*
X7461191Y-20049956D01*
X7432619Y-20049956D01*
X7404048Y-20035671D01*
X7389762Y-20021385D01*
X7375476Y-19992814D01*
X7361191Y-19935671D01*
X7361191Y-19864242D01*
X7375476Y-19807099D01*
X7389762Y-19778528D01*
X7404048Y-19764242D01*
X7432619Y-19749956D01*
X7889762Y-20049956D02*
X7889762Y-19749956D01*
X8018334Y-20049956D02*
X8018334Y-19892814D01*
X8004048Y-19864242D01*
X7975476Y-19849956D01*
X7932619Y-19849956D01*
X7904048Y-19864242D01*
X7889762Y-19878528D01*
X8204048Y-20049956D02*
X8175476Y-20035671D01*
X8161191Y-20021385D01*
X8146905Y-19992814D01*
X8146905Y-19907099D01*
X8161191Y-19878528D01*
X8175476Y-19864242D01*
X8204048Y-19849956D01*
X8246905Y-19849956D01*
X8275476Y-19864242D01*
X8289762Y-19878528D01*
X8304048Y-19907099D01*
X8304048Y-19992814D01*
X8289762Y-20021385D01*
X8275476Y-20035671D01*
X8246905Y-20049956D01*
X8204048Y-20049956D01*
X8475476Y-20049956D02*
X8446905Y-20035671D01*
X8432619Y-20007099D01*
X8432619Y-19749956D01*
X8704048Y-20035671D02*
X8675476Y-20049956D01*
X8618334Y-20049956D01*
X8589762Y-20035671D01*
X8575476Y-20007099D01*
X8575476Y-19892814D01*
X8589762Y-19864242D01*
X8618334Y-19849956D01*
X8675476Y-19849956D01*
X8704048Y-19864242D01*
X8718334Y-19892814D01*
X8718334Y-19921385D01*
X8575476Y-19949956D01*
X8832619Y-20035671D02*
X8861191Y-20049956D01*
X8918334Y-20049956D01*
X8946905Y-20035671D01*
X8961191Y-20007099D01*
X8961191Y-19992814D01*
X8946905Y-19964242D01*
X8918334Y-19949956D01*
X8875476Y-19949956D01*
X8846905Y-19935671D01*
X8832619Y-19907099D01*
X8832619Y-19892814D01*
X8846905Y-19864242D01*
X8875476Y-19849956D01*
X8918334Y-19849956D01*
X8946905Y-19864242D01*
X9061191Y-20164242D02*
X9075476Y-20149956D01*
X9104048Y-20107099D01*
X9118334Y-20078528D01*
X9132619Y-20035671D01*
X9146905Y-19964242D01*
X9146905Y-19907099D01*
X9132619Y-19835671D01*
X9118334Y-19792814D01*
X9104048Y-19764242D01*
X9075476Y-19721385D01*
X9061191Y-19707099D01*
X2289048Y-20310242D02*
G75*
G03*
X2289048Y-20310242I-40000J0D01*
G01*
X2632619Y-20145956D02*
X2661191Y-20145956D01*
X2689762Y-20160242D01*
X2704048Y-20174528D01*
X2718334Y-20203099D01*
X2732619Y-20260242D01*
X2732619Y-20331671D01*
X2718334Y-20388814D01*
X2704048Y-20417385D01*
X2689762Y-20431671D01*
X2661191Y-20445956D01*
X2632619Y-20445956D01*
X2604048Y-20431671D01*
X2589762Y-20417385D01*
X2575476Y-20388814D01*
X2561191Y-20331671D01*
X2561191Y-20260242D01*
X2575476Y-20203099D01*
X2589762Y-20174528D01*
X2604048Y-20160242D01*
X2632619Y-20145956D01*
X2861191Y-20417385D02*
X2875476Y-20431671D01*
X2861191Y-20445956D01*
X2846905Y-20431671D01*
X2861191Y-20417385D01*
X2861191Y-20445956D01*
X3046905Y-20274528D02*
X3018334Y-20260242D01*
X3004048Y-20245956D01*
X2989762Y-20217385D01*
X2989762Y-20203099D01*
X3004048Y-20174528D01*
X3018334Y-20160242D01*
X3046905Y-20145956D01*
X3104048Y-20145956D01*
X3132619Y-20160242D01*
X3146905Y-20174528D01*
X3161191Y-20203099D01*
X3161191Y-20217385D01*
X3146905Y-20245956D01*
X3132619Y-20260242D01*
X3104048Y-20274528D01*
X3046905Y-20274528D01*
X3018334Y-20288814D01*
X3004048Y-20303099D01*
X2989762Y-20331671D01*
X2989762Y-20388814D01*
X3004048Y-20417385D01*
X3018334Y-20431671D01*
X3046905Y-20445956D01*
X3104048Y-20445956D01*
X3132619Y-20431671D01*
X3146905Y-20417385D01*
X3161191Y-20388814D01*
X3161191Y-20331671D01*
X3146905Y-20303099D01*
X3132619Y-20288814D01*
X3104048Y-20274528D01*
X3346905Y-20145956D02*
X3375476Y-20145956D01*
X3404048Y-20160242D01*
X3418334Y-20174528D01*
X3432619Y-20203099D01*
X3446905Y-20260242D01*
X3446905Y-20331671D01*
X3432619Y-20388814D01*
X3418334Y-20417385D01*
X3404048Y-20431671D01*
X3375476Y-20445956D01*
X3346905Y-20445956D01*
X3318334Y-20431671D01*
X3304048Y-20417385D01*
X3289762Y-20388814D01*
X3275476Y-20331671D01*
X3275476Y-20260242D01*
X3289762Y-20203099D01*
X3304048Y-20174528D01*
X3318334Y-20160242D01*
X3346905Y-20145956D01*
X3575476Y-20445956D02*
X3575476Y-20245956D01*
X3575476Y-20274528D02*
X3589762Y-20260242D01*
X3618334Y-20245956D01*
X3661191Y-20245956D01*
X3689762Y-20260242D01*
X3704048Y-20288814D01*
X3704048Y-20445956D01*
X3704048Y-20288814D02*
X3718334Y-20260242D01*
X3746905Y-20245956D01*
X3789762Y-20245956D01*
X3818334Y-20260242D01*
X3832619Y-20288814D01*
X3832619Y-20445956D01*
X3975476Y-20445956D02*
X3975476Y-20245956D01*
X3975476Y-20274528D02*
X3989762Y-20260242D01*
X4018334Y-20245956D01*
X4061191Y-20245956D01*
X4089762Y-20260242D01*
X4104048Y-20288814D01*
X4104048Y-20445956D01*
X4104048Y-20288814D02*
X4118334Y-20260242D01*
X4146905Y-20245956D01*
X4189762Y-20245956D01*
X4218334Y-20260242D01*
X4232619Y-20288814D01*
X4232619Y-20445956D01*
X4818334Y-20131671D02*
X4561191Y-20517385D01*
X5204048Y-20145956D02*
X5232619Y-20145956D01*
X5261191Y-20160242D01*
X5275476Y-20174528D01*
X5289762Y-20203099D01*
X5304048Y-20260242D01*
X5304048Y-20331671D01*
X5289762Y-20388814D01*
X5275476Y-20417385D01*
X5261191Y-20431671D01*
X5232619Y-20445956D01*
X5204048Y-20445956D01*
X5175476Y-20431671D01*
X5161191Y-20417385D01*
X5146905Y-20388814D01*
X5132619Y-20331671D01*
X5132619Y-20260242D01*
X5146905Y-20203099D01*
X5161191Y-20174528D01*
X5175476Y-20160242D01*
X5204048Y-20145956D01*
X5432619Y-20417385D02*
X5446905Y-20431671D01*
X5432619Y-20445956D01*
X5418334Y-20431671D01*
X5432619Y-20417385D01*
X5432619Y-20445956D01*
X5632619Y-20145956D02*
X5661191Y-20145956D01*
X5689762Y-20160242D01*
X5704048Y-20174528D01*
X5718334Y-20203099D01*
X5732619Y-20260242D01*
X5732619Y-20331671D01*
X5718334Y-20388814D01*
X5704048Y-20417385D01*
X5689762Y-20431671D01*
X5661191Y-20445956D01*
X5632619Y-20445956D01*
X5604048Y-20431671D01*
X5589762Y-20417385D01*
X5575476Y-20388814D01*
X5561191Y-20331671D01*
X5561191Y-20260242D01*
X5575476Y-20203099D01*
X5589762Y-20174528D01*
X5604048Y-20160242D01*
X5632619Y-20145956D01*
X5832619Y-20145956D02*
X6018334Y-20145956D01*
X5918334Y-20260242D01*
X5961191Y-20260242D01*
X5989762Y-20274528D01*
X6004048Y-20288814D01*
X6018334Y-20317385D01*
X6018334Y-20388814D01*
X6004048Y-20417385D01*
X5989762Y-20431671D01*
X5961191Y-20445956D01*
X5875476Y-20445956D01*
X5846905Y-20431671D01*
X5832619Y-20417385D01*
X6304048Y-20445956D02*
X6132619Y-20445956D01*
X6218334Y-20445956D02*
X6218334Y-20145956D01*
X6189762Y-20188814D01*
X6161191Y-20217385D01*
X6132619Y-20231671D01*
X6418334Y-20145956D02*
X6418334Y-20203099D01*
X6532619Y-20145956D02*
X6532619Y-20203099D01*
X6975476Y-20560242D02*
X6961191Y-20545956D01*
X6932619Y-20503099D01*
X6918334Y-20474528D01*
X6904048Y-20431671D01*
X6889762Y-20360242D01*
X6889762Y-20303099D01*
X6904048Y-20231671D01*
X6918334Y-20188814D01*
X6932619Y-20160242D01*
X6961191Y-20117385D01*
X6975476Y-20103099D01*
X7146905Y-20145956D02*
X7175476Y-20145956D01*
X7204048Y-20160242D01*
X7218334Y-20174528D01*
X7232619Y-20203099D01*
X7246905Y-20260242D01*
X7246905Y-20331671D01*
X7232619Y-20388814D01*
X7218334Y-20417385D01*
X7204048Y-20431671D01*
X7175476Y-20445956D01*
X7146905Y-20445956D01*
X7118334Y-20431671D01*
X7104048Y-20417385D01*
X7089762Y-20388814D01*
X7075476Y-20331671D01*
X7075476Y-20260242D01*
X7089762Y-20203099D01*
X7104048Y-20174528D01*
X7118334Y-20160242D01*
X7146905Y-20145956D01*
X7604048Y-20445956D02*
X7604048Y-20145956D01*
X7732619Y-20445956D02*
X7732619Y-20288814D01*
X7718334Y-20260242D01*
X7689762Y-20245956D01*
X7646905Y-20245956D01*
X7618334Y-20260242D01*
X7604048Y-20274528D01*
X7918334Y-20445956D02*
X7889762Y-20431671D01*
X7875476Y-20417385D01*
X7861191Y-20388814D01*
X7861191Y-20303099D01*
X7875476Y-20274528D01*
X7889762Y-20260242D01*
X7918334Y-20245956D01*
X7961191Y-20245956D01*
X7989762Y-20260242D01*
X8004048Y-20274528D01*
X8018334Y-20303099D01*
X8018334Y-20388814D01*
X8004048Y-20417385D01*
X7989762Y-20431671D01*
X7961191Y-20445956D01*
X7918334Y-20445956D01*
X8189762Y-20445956D02*
X8161191Y-20431671D01*
X8146905Y-20403099D01*
X8146905Y-20145956D01*
X8418334Y-20431671D02*
X8389762Y-20445956D01*
X8332619Y-20445956D01*
X8304048Y-20431671D01*
X8289762Y-20403099D01*
X8289762Y-20288814D01*
X8304048Y-20260242D01*
X8332619Y-20245956D01*
X8389762Y-20245956D01*
X8418334Y-20260242D01*
X8432619Y-20288814D01*
X8432619Y-20317385D01*
X8289762Y-20345956D01*
X8546905Y-20431671D02*
X8575476Y-20445956D01*
X8632619Y-20445956D01*
X8661191Y-20431671D01*
X8675476Y-20403099D01*
X8675476Y-20388814D01*
X8661191Y-20360242D01*
X8632619Y-20345956D01*
X8589762Y-20345956D01*
X8561191Y-20331671D01*
X8546905Y-20303099D01*
X8546905Y-20288814D01*
X8561191Y-20260242D01*
X8589762Y-20245956D01*
X8632619Y-20245956D01*
X8661191Y-20260242D01*
X9032619Y-20331671D02*
X9261191Y-20331671D01*
X9146905Y-20445956D02*
X9146905Y-20217385D01*
X9775476Y-20145956D02*
X9632619Y-20145956D01*
X9618334Y-20288814D01*
X9632619Y-20274528D01*
X9661191Y-20260242D01*
X9732619Y-20260242D01*
X9761191Y-20274528D01*
X9775476Y-20288814D01*
X9789762Y-20317385D01*
X9789762Y-20388814D01*
X9775476Y-20417385D01*
X9761191Y-20431671D01*
X9732619Y-20445956D01*
X9661191Y-20445956D01*
X9632619Y-20431671D01*
X9618334Y-20417385D01*
X10132619Y-20431671D02*
X10161191Y-20445956D01*
X10218334Y-20445956D01*
X10246905Y-20431671D01*
X10261191Y-20403099D01*
X10261191Y-20388814D01*
X10246905Y-20360242D01*
X10218334Y-20345956D01*
X10175476Y-20345956D01*
X10146905Y-20331671D01*
X10132619Y-20303099D01*
X10132619Y-20288814D01*
X10146905Y-20260242D01*
X10175476Y-20245956D01*
X10218334Y-20245956D01*
X10246905Y-20260242D01*
X10432619Y-20445956D02*
X10404048Y-20431671D01*
X10389762Y-20403099D01*
X10389762Y-20145956D01*
X10589762Y-20445956D02*
X10561191Y-20431671D01*
X10546905Y-20417385D01*
X10532619Y-20388814D01*
X10532619Y-20303099D01*
X10546905Y-20274528D01*
X10561191Y-20260242D01*
X10589762Y-20245956D01*
X10632619Y-20245956D01*
X10661191Y-20260242D01*
X10675476Y-20274528D01*
X10689762Y-20303099D01*
X10689762Y-20388814D01*
X10675476Y-20417385D01*
X10661191Y-20431671D01*
X10632619Y-20445956D01*
X10589762Y-20445956D01*
X10775476Y-20245956D02*
X10889762Y-20245956D01*
X10818334Y-20145956D02*
X10818334Y-20403099D01*
X10832619Y-20431671D01*
X10861191Y-20445956D01*
X10889762Y-20445956D01*
X10975476Y-20431671D02*
X11004048Y-20445956D01*
X11061191Y-20445956D01*
X11089762Y-20431671D01*
X11104048Y-20403099D01*
X11104048Y-20388814D01*
X11089762Y-20360242D01*
X11061191Y-20345956D01*
X11018334Y-20345956D01*
X10989762Y-20331671D01*
X10975476Y-20303099D01*
X10975476Y-20288814D01*
X10989762Y-20260242D01*
X11018334Y-20245956D01*
X11061191Y-20245956D01*
X11089762Y-20260242D01*
X11204048Y-20560242D02*
X11218334Y-20545956D01*
X11246905Y-20503099D01*
X11261191Y-20474528D01*
X11275476Y-20431671D01*
X11289762Y-20360242D01*
X11289762Y-20303099D01*
X11275476Y-20231671D01*
X11261191Y-20188814D01*
X11246905Y-20160242D01*
X11218334Y-20117385D01*
X11204048Y-20103099D01*
X2214118Y-20631312D02*
X2214118Y-20781172D01*
X2139188Y-20706242D02*
X2289048Y-20706242D01*
X2732619Y-20841956D02*
X2561191Y-20841956D01*
X2646905Y-20841956D02*
X2646905Y-20541956D01*
X2618334Y-20584814D01*
X2589762Y-20613385D01*
X2561191Y-20627671D01*
X2861191Y-20813385D02*
X2875476Y-20827671D01*
X2861191Y-20841956D01*
X2846905Y-20827671D01*
X2861191Y-20813385D01*
X2861191Y-20841956D01*
X3146905Y-20541956D02*
X3004048Y-20541956D01*
X2989762Y-20684814D01*
X3004048Y-20670528D01*
X3032619Y-20656242D01*
X3104048Y-20656242D01*
X3132619Y-20670528D01*
X3146905Y-20684814D01*
X3161191Y-20713385D01*
X3161191Y-20784814D01*
X3146905Y-20813385D01*
X3132619Y-20827671D01*
X3104048Y-20841956D01*
X3032619Y-20841956D01*
X3004048Y-20827671D01*
X2989762Y-20813385D01*
X3346905Y-20541956D02*
X3375476Y-20541956D01*
X3404048Y-20556242D01*
X3418334Y-20570528D01*
X3432619Y-20599099D01*
X3446905Y-20656242D01*
X3446905Y-20727671D01*
X3432619Y-20784814D01*
X3418334Y-20813385D01*
X3404048Y-20827671D01*
X3375476Y-20841956D01*
X3346905Y-20841956D01*
X3318334Y-20827671D01*
X3304048Y-20813385D01*
X3289762Y-20784814D01*
X3275476Y-20727671D01*
X3275476Y-20656242D01*
X3289762Y-20599099D01*
X3304048Y-20570528D01*
X3318334Y-20556242D01*
X3346905Y-20541956D01*
X3575476Y-20841956D02*
X3575476Y-20641956D01*
X3575476Y-20670528D02*
X3589762Y-20656242D01*
X3618334Y-20641956D01*
X3661191Y-20641956D01*
X3689762Y-20656242D01*
X3704048Y-20684814D01*
X3704048Y-20841956D01*
X3704048Y-20684814D02*
X3718334Y-20656242D01*
X3746905Y-20641956D01*
X3789762Y-20641956D01*
X3818334Y-20656242D01*
X3832619Y-20684814D01*
X3832619Y-20841956D01*
X3975476Y-20841956D02*
X3975476Y-20641956D01*
X3975476Y-20670528D02*
X3989762Y-20656242D01*
X4018334Y-20641956D01*
X4061191Y-20641956D01*
X4089762Y-20656242D01*
X4104048Y-20684814D01*
X4104048Y-20841956D01*
X4104048Y-20684814D02*
X4118334Y-20656242D01*
X4146905Y-20641956D01*
X4189762Y-20641956D01*
X4218334Y-20656242D01*
X4232619Y-20684814D01*
X4232619Y-20841956D01*
X4818334Y-20527671D02*
X4561191Y-20913385D01*
X5204048Y-20541956D02*
X5232619Y-20541956D01*
X5261191Y-20556242D01*
X5275476Y-20570528D01*
X5289762Y-20599099D01*
X5304048Y-20656242D01*
X5304048Y-20727671D01*
X5289762Y-20784814D01*
X5275476Y-20813385D01*
X5261191Y-20827671D01*
X5232619Y-20841956D01*
X5204048Y-20841956D01*
X5175476Y-20827671D01*
X5161191Y-20813385D01*
X5146905Y-20784814D01*
X5132619Y-20727671D01*
X5132619Y-20656242D01*
X5146905Y-20599099D01*
X5161191Y-20570528D01*
X5175476Y-20556242D01*
X5204048Y-20541956D01*
X5432619Y-20813385D02*
X5446905Y-20827671D01*
X5432619Y-20841956D01*
X5418334Y-20827671D01*
X5432619Y-20813385D01*
X5432619Y-20841956D01*
X5632619Y-20541956D02*
X5661191Y-20541956D01*
X5689762Y-20556242D01*
X5704048Y-20570528D01*
X5718334Y-20599099D01*
X5732619Y-20656242D01*
X5732619Y-20727671D01*
X5718334Y-20784814D01*
X5704048Y-20813385D01*
X5689762Y-20827671D01*
X5661191Y-20841956D01*
X5632619Y-20841956D01*
X5604048Y-20827671D01*
X5589762Y-20813385D01*
X5575476Y-20784814D01*
X5561191Y-20727671D01*
X5561191Y-20656242D01*
X5575476Y-20599099D01*
X5589762Y-20570528D01*
X5604048Y-20556242D01*
X5632619Y-20541956D01*
X6004048Y-20541956D02*
X5861191Y-20541956D01*
X5846905Y-20684814D01*
X5861191Y-20670528D01*
X5889762Y-20656242D01*
X5961191Y-20656242D01*
X5989762Y-20670528D01*
X6004048Y-20684814D01*
X6018334Y-20713385D01*
X6018334Y-20784814D01*
X6004048Y-20813385D01*
X5989762Y-20827671D01*
X5961191Y-20841956D01*
X5889762Y-20841956D01*
X5861191Y-20827671D01*
X5846905Y-20813385D01*
X6161191Y-20841956D02*
X6218334Y-20841956D01*
X6246905Y-20827671D01*
X6261191Y-20813385D01*
X6289762Y-20770528D01*
X6304048Y-20713385D01*
X6304048Y-20599099D01*
X6289762Y-20570528D01*
X6275476Y-20556242D01*
X6246905Y-20541956D01*
X6189762Y-20541956D01*
X6161191Y-20556242D01*
X6146905Y-20570528D01*
X6132619Y-20599099D01*
X6132619Y-20670528D01*
X6146905Y-20699099D01*
X6161191Y-20713385D01*
X6189762Y-20727671D01*
X6246905Y-20727671D01*
X6275476Y-20713385D01*
X6289762Y-20699099D01*
X6304048Y-20670528D01*
X6418334Y-20541956D02*
X6418334Y-20599099D01*
X6532619Y-20541956D02*
X6532619Y-20599099D01*
X6975476Y-20956242D02*
X6961191Y-20941956D01*
X6932619Y-20899099D01*
X6918334Y-20870528D01*
X6904048Y-20827671D01*
X6889762Y-20756242D01*
X6889762Y-20699099D01*
X6904048Y-20627671D01*
X6918334Y-20584814D01*
X6932619Y-20556242D01*
X6961191Y-20513385D01*
X6975476Y-20499099D01*
X7132619Y-20670528D02*
X7104048Y-20656242D01*
X7089762Y-20641956D01*
X7075476Y-20613385D01*
X7075476Y-20599099D01*
X7089762Y-20570528D01*
X7104048Y-20556242D01*
X7132619Y-20541956D01*
X7189762Y-20541956D01*
X7218334Y-20556242D01*
X7232619Y-20570528D01*
X7246905Y-20599099D01*
X7246905Y-20613385D01*
X7232619Y-20641956D01*
X7218334Y-20656242D01*
X7189762Y-20670528D01*
X7132619Y-20670528D01*
X7104048Y-20684814D01*
X7089762Y-20699099D01*
X7075476Y-20727671D01*
X7075476Y-20784814D01*
X7089762Y-20813385D01*
X7104048Y-20827671D01*
X7132619Y-20841956D01*
X7189762Y-20841956D01*
X7218334Y-20827671D01*
X7232619Y-20813385D01*
X7246905Y-20784814D01*
X7246905Y-20727671D01*
X7232619Y-20699099D01*
X7218334Y-20684814D01*
X7189762Y-20670528D01*
X7432619Y-20541956D02*
X7461191Y-20541956D01*
X7489762Y-20556242D01*
X7504048Y-20570528D01*
X7518334Y-20599099D01*
X7532619Y-20656242D01*
X7532619Y-20727671D01*
X7518334Y-20784814D01*
X7504048Y-20813385D01*
X7489762Y-20827671D01*
X7461191Y-20841956D01*
X7432619Y-20841956D01*
X7404048Y-20827671D01*
X7389762Y-20813385D01*
X7375476Y-20784814D01*
X7361191Y-20727671D01*
X7361191Y-20656242D01*
X7375476Y-20599099D01*
X7389762Y-20570528D01*
X7404048Y-20556242D01*
X7432619Y-20541956D01*
X7889762Y-20841956D02*
X7889762Y-20541956D01*
X8018334Y-20841956D02*
X8018334Y-20684814D01*
X8004048Y-20656242D01*
X7975476Y-20641956D01*
X7932619Y-20641956D01*
X7904048Y-20656242D01*
X7889762Y-20670528D01*
X8204048Y-20841956D02*
X8175476Y-20827671D01*
X8161191Y-20813385D01*
X8146905Y-20784814D01*
X8146905Y-20699099D01*
X8161191Y-20670528D01*
X8175476Y-20656242D01*
X8204048Y-20641956D01*
X8246905Y-20641956D01*
X8275476Y-20656242D01*
X8289762Y-20670528D01*
X8304048Y-20699099D01*
X8304048Y-20784814D01*
X8289762Y-20813385D01*
X8275476Y-20827671D01*
X8246905Y-20841956D01*
X8204048Y-20841956D01*
X8475476Y-20841956D02*
X8446905Y-20827671D01*
X8432619Y-20799099D01*
X8432619Y-20541956D01*
X8704048Y-20827671D02*
X8675476Y-20841956D01*
X8618334Y-20841956D01*
X8589762Y-20827671D01*
X8575476Y-20799099D01*
X8575476Y-20684814D01*
X8589762Y-20656242D01*
X8618334Y-20641956D01*
X8675476Y-20641956D01*
X8704048Y-20656242D01*
X8718334Y-20684814D01*
X8718334Y-20713385D01*
X8575476Y-20741956D01*
X8832619Y-20827671D02*
X8861191Y-20841956D01*
X8918334Y-20841956D01*
X8946905Y-20827671D01*
X8961191Y-20799099D01*
X8961191Y-20784814D01*
X8946905Y-20756242D01*
X8918334Y-20741956D01*
X8875476Y-20741956D01*
X8846905Y-20727671D01*
X8832619Y-20699099D01*
X8832619Y-20684814D01*
X8846905Y-20656242D01*
X8875476Y-20641956D01*
X8918334Y-20641956D01*
X8946905Y-20656242D01*
X9061191Y-20956242D02*
X9075476Y-20941956D01*
X9104048Y-20899099D01*
X9118334Y-20870528D01*
X9132619Y-20827671D01*
X9146905Y-20756242D01*
X9146905Y-20699099D01*
X9132619Y-20627671D01*
X9118334Y-20584814D01*
X9104048Y-20556242D01*
X9075476Y-20513385D01*
X9061191Y-20499099D01*
M02*
