%TF.GenerationSoftware,KiCad,Pcbnew,5.1.7*%
%TF.CreationDate,2020-11-01T11:12:36-08:00*%
%TF.ProjectId,ErgoDOX_right,4572676f-444f-4585-9f72-696768742e6b,2.0.1*%
%TF.SameCoordinates,Original*%
%TF.FileFunction,Other,Comment*%
%FSLAX46Y46*%
G04 Gerber Fmt 4.6, Leading zero omitted, Abs format (unit mm)*
G04 Created by KiCad (PCBNEW 5.1.7) date 2020-11-01 11:12:36*
%MOMM*%
%LPD*%
G01*
G04 APERTURE LIST*
%TA.AperFunction,Profile*%
%ADD10C,0.381000*%
%TD*%
%ADD11C,0.381000*%
G04 APERTURE END LIST*
D10*
X90121000Y-32258000D02*
X93521000Y-32258000D01*
X90121000Y-32258000D02*
X77876400Y-32258000D01*
X95046800Y-32258000D02*
X93521000Y-32258000D01*
X202742800Y-32258000D02*
X143408400Y-32258000D01*
X143408400Y-32258000D02*
X131902200Y-32258000D01*
X131902200Y-32258000D02*
X95046800Y-32258000D01*
X77876400Y-32258000D02*
X65811400Y-32258000D01*
X65811400Y-32258000D02*
X62611000Y-35433000D01*
X127152400Y-152908000D02*
X196392800Y-152908000D01*
X196392800Y-152908000D02*
X205917800Y-143383000D01*
X205917800Y-143383000D02*
X205917800Y-35433000D01*
X205917800Y-35433000D02*
X202742800Y-32258000D01*
X62611000Y-35433000D02*
X62611000Y-121666000D01*
X62611000Y-121666000D02*
X57708800Y-121666000D01*
X57708800Y-121666000D02*
X24617680Y-137096500D01*
X24617680Y-137096500D02*
X23080980Y-141315440D01*
X23080980Y-141315440D02*
X44764960Y-187817760D01*
X44764960Y-187817760D02*
X48983900Y-189351920D01*
X48983900Y-189351920D02*
X127152400Y-152908000D01*
D11*
%TO.C,SW5:13*%
X185102500Y-60655200D02*
X197802500Y-60655200D01*
X197802500Y-60655200D02*
X197802500Y-73355200D01*
X197802500Y-73355200D02*
X185102500Y-73355200D01*
X185102500Y-73355200D02*
X185102500Y-60655200D01*
%TO.C,SX1:7*%
X51576440Y-149412392D02*
X63086548Y-144045140D01*
X63086548Y-144045140D02*
X68453800Y-155555248D01*
X68453800Y-155555248D02*
X56943692Y-160922500D01*
X56943692Y-160922500D02*
X51576440Y-149412392D01*
%TO.C,SW3:13*%
X185102500Y-98752660D02*
X197802500Y-98752660D01*
X197802500Y-98752660D02*
X197802500Y-111452660D01*
X197802500Y-111452660D02*
X185102500Y-111452660D01*
X185102500Y-111452660D02*
X185102500Y-98752660D01*
%TO.C,SW2:9*%
X104140000Y-114627660D02*
X116840000Y-114627660D01*
X116840000Y-114627660D02*
X116840000Y-127327660D01*
X116840000Y-127327660D02*
X104140000Y-127327660D01*
X104140000Y-127327660D02*
X104140000Y-114627660D01*
%TO.C,SW2:10*%
X123190000Y-113030000D02*
X135890000Y-113030000D01*
X135890000Y-113030000D02*
X135890000Y-125730000D01*
X135890000Y-125730000D02*
X123190000Y-125730000D01*
X123190000Y-125730000D02*
X123190000Y-113030000D01*
%TO.C,SW3:9*%
X104140000Y-95577660D02*
X116840000Y-95577660D01*
X116840000Y-95577660D02*
X116840000Y-108277660D01*
X116840000Y-108277660D02*
X104140000Y-108277660D01*
X104140000Y-108277660D02*
X104140000Y-95577660D01*
%TO.C,SW2:11*%
X142240000Y-114627660D02*
X154940000Y-114627660D01*
X154940000Y-114627660D02*
X154940000Y-127327660D01*
X154940000Y-127327660D02*
X142240000Y-127327660D01*
X142240000Y-127327660D02*
X142240000Y-114627660D01*
%TO.C,SW3:10*%
X123190000Y-93980000D02*
X135890000Y-93980000D01*
X135890000Y-93980000D02*
X135890000Y-106680000D01*
X135890000Y-106680000D02*
X123190000Y-106680000D01*
X123190000Y-106680000D02*
X123190000Y-93980000D01*
%TO.C,SW3:11*%
X142240000Y-95577660D02*
X154940000Y-95577660D01*
X154940000Y-95577660D02*
X154940000Y-108277660D01*
X154940000Y-108277660D02*
X142240000Y-108277660D01*
X142240000Y-108277660D02*
X142240000Y-95577660D01*
%TO.C,SW1:11*%
X142240000Y-133677660D02*
X154940000Y-133677660D01*
X154940000Y-133677660D02*
X154940000Y-146377660D01*
X154940000Y-146377660D02*
X142240000Y-146377660D01*
X142240000Y-146377660D02*
X142240000Y-133677660D01*
%TO.C,SW1:10*%
X123190000Y-132080000D02*
X135890000Y-132080000D01*
X135890000Y-132080000D02*
X135890000Y-144780000D01*
X135890000Y-144780000D02*
X123190000Y-144780000D01*
X123190000Y-144780000D02*
X123190000Y-132080000D01*
%TO.C,SW1:9*%
X104140000Y-133677660D02*
X116840000Y-133677660D01*
X116840000Y-133677660D02*
X116840000Y-146377660D01*
X116840000Y-146377660D02*
X104140000Y-146377660D01*
X104140000Y-146377660D02*
X104140000Y-133677660D01*
%TO.C,SX1:8*%
X68840820Y-141360592D02*
X80350928Y-135993340D01*
X80350928Y-135993340D02*
X85718180Y-147503448D01*
X85718180Y-147503448D02*
X74208072Y-152870700D01*
X74208072Y-152870700D02*
X68840820Y-141360592D01*
%TO.C,SW5:12*%
X161290000Y-60655200D02*
X173990000Y-60655200D01*
X173990000Y-60655200D02*
X173990000Y-73355200D01*
X173990000Y-73355200D02*
X161290000Y-73355200D01*
X161290000Y-73355200D02*
X161290000Y-60655200D01*
%TO.C,SW5:11*%
X142240000Y-57477660D02*
X154940000Y-57477660D01*
X154940000Y-57477660D02*
X154940000Y-70177660D01*
X154940000Y-70177660D02*
X142240000Y-70177660D01*
X142240000Y-70177660D02*
X142240000Y-57477660D01*
%TO.C,SW5:10*%
X123190000Y-55880000D02*
X135890000Y-55880000D01*
X135890000Y-55880000D02*
X135890000Y-68580000D01*
X135890000Y-68580000D02*
X123190000Y-68580000D01*
X123190000Y-68580000D02*
X123190000Y-55880000D01*
%TO.C,SW5:9*%
X104140000Y-57477660D02*
X116840000Y-57477660D01*
X116840000Y-57477660D02*
X116840000Y-70177660D01*
X116840000Y-70177660D02*
X104140000Y-70177660D01*
X104140000Y-70177660D02*
X104140000Y-57477660D01*
%TO.C,SW5:8*%
X85090000Y-58750200D02*
X97790000Y-58750200D01*
X97790000Y-58750200D02*
X97790000Y-71450200D01*
X97790000Y-71450200D02*
X85090000Y-71450200D01*
X85090000Y-71450200D02*
X85090000Y-58750200D01*
%TO.C,SW5:7*%
X66040000Y-58750200D02*
X78740000Y-58750200D01*
X78740000Y-58750200D02*
X78740000Y-71450200D01*
X78740000Y-71450200D02*
X66040000Y-71450200D01*
X66040000Y-71450200D02*
X66040000Y-58750200D01*
%TO.C,SW4:13*%
X185102500Y-79702660D02*
X197802500Y-79702660D01*
X197802500Y-79702660D02*
X197802500Y-92402660D01*
X197802500Y-92402660D02*
X185102500Y-92402660D01*
X185102500Y-92402660D02*
X185102500Y-79702660D01*
%TO.C,SW4:12*%
X161290000Y-79702660D02*
X173990000Y-79702660D01*
X173990000Y-79702660D02*
X173990000Y-92402660D01*
X173990000Y-92402660D02*
X161290000Y-92402660D01*
X161290000Y-92402660D02*
X161290000Y-79702660D01*
%TO.C,SW4:11*%
X142240000Y-76527660D02*
X154940000Y-76527660D01*
X154940000Y-76527660D02*
X154940000Y-89227660D01*
X154940000Y-89227660D02*
X142240000Y-89227660D01*
X142240000Y-89227660D02*
X142240000Y-76527660D01*
%TO.C,SW4:10*%
X123190000Y-74930000D02*
X135890000Y-74930000D01*
X135890000Y-74930000D02*
X135890000Y-87630000D01*
X135890000Y-87630000D02*
X123190000Y-87630000D01*
X123190000Y-87630000D02*
X123190000Y-74930000D01*
%TO.C,SW4:9*%
X104140000Y-76527660D02*
X116840000Y-76527660D01*
X116840000Y-76527660D02*
X116840000Y-89227660D01*
X116840000Y-89227660D02*
X104140000Y-89227660D01*
X104140000Y-89227660D02*
X104140000Y-76527660D01*
%TO.C,SW4:8*%
X85090000Y-77797660D02*
X97790000Y-77797660D01*
X97790000Y-77797660D02*
X97790000Y-90497660D01*
X97790000Y-90497660D02*
X85090000Y-90497660D01*
X85090000Y-90497660D02*
X85090000Y-77797660D01*
%TO.C,SW4:7*%
X66040000Y-95260160D02*
X66040000Y-82560160D01*
X66040000Y-82560160D02*
X78740000Y-82560160D01*
X78740000Y-82560160D02*
X78740000Y-95260160D01*
X78740000Y-95260160D02*
X66040000Y-95260160D01*
%TO.C,SW3:12*%
X161290000Y-98752660D02*
X173990000Y-98752660D01*
X173990000Y-98752660D02*
X173990000Y-111452660D01*
X173990000Y-111452660D02*
X161290000Y-111452660D01*
X161290000Y-111452660D02*
X161290000Y-98752660D01*
%TO.C,SW3:8*%
X85090000Y-96847660D02*
X97790000Y-96847660D01*
X97790000Y-96847660D02*
X97790000Y-109547660D01*
X97790000Y-109547660D02*
X85090000Y-109547660D01*
X85090000Y-109547660D02*
X85090000Y-96847660D01*
%TO.C,SW2:13*%
X185102500Y-117802660D02*
X197802500Y-117802660D01*
X197802500Y-117802660D02*
X197802500Y-130502660D01*
X197802500Y-130502660D02*
X185102500Y-130502660D01*
X185102500Y-130502660D02*
X185102500Y-117802660D01*
%TO.C,SW2:12*%
X161290000Y-117802660D02*
X173990000Y-117802660D01*
X173990000Y-117802660D02*
X173990000Y-130502660D01*
X173990000Y-130502660D02*
X161290000Y-130502660D01*
X161290000Y-130502660D02*
X161290000Y-117802660D01*
%TO.C,SW2:8*%
X85090000Y-115897660D02*
X97790000Y-115897660D01*
X97790000Y-115897660D02*
X97790000Y-128597660D01*
X97790000Y-128597660D02*
X85090000Y-128597660D01*
X85090000Y-128597660D02*
X85090000Y-115897660D01*
%TO.C,SW2:7*%
X66040000Y-123835160D02*
X66040000Y-111135160D01*
X66040000Y-111135160D02*
X78740000Y-111135160D01*
X78740000Y-111135160D02*
X78740000Y-123835160D01*
X78740000Y-123835160D02*
X66040000Y-123835160D01*
%TO.C,SW1:13*%
X180340000Y-136852660D02*
X193040000Y-136852660D01*
X193040000Y-136852660D02*
X193040000Y-149552660D01*
X193040000Y-149552660D02*
X180340000Y-149552660D01*
X180340000Y-149552660D02*
X180340000Y-136852660D01*
%TO.C,SW1:12*%
X161290000Y-136852660D02*
X173990000Y-136852660D01*
X173990000Y-136852660D02*
X173990000Y-149552660D01*
X173990000Y-149552660D02*
X161290000Y-149552660D01*
X161290000Y-149552660D02*
X161290000Y-136852660D01*
%TO.C,SW0:12*%
X42361320Y-174728572D02*
X53871428Y-169361320D01*
X53871428Y-169361320D02*
X59238680Y-180871428D01*
X59238680Y-180871428D02*
X47728572Y-186238680D01*
X47728572Y-186238680D02*
X42361320Y-174728572D01*
%TO.C,SW0:11*%
X58837320Y-166426572D02*
X70347428Y-161059320D01*
X70347428Y-161059320D02*
X75714680Y-172569428D01*
X75714680Y-172569428D02*
X64204572Y-177936680D01*
X64204572Y-177936680D02*
X58837320Y-166426572D01*
%TO.C,SW0:10*%
X76837320Y-158426572D02*
X88347428Y-153059320D01*
X88347428Y-153059320D02*
X93714680Y-164569428D01*
X93714680Y-164569428D02*
X82204572Y-169936680D01*
X82204572Y-169936680D02*
X76837320Y-158426572D01*
%TO.C,SW0:9*%
X34309520Y-157461652D02*
X45819628Y-152094400D01*
X45819628Y-152094400D02*
X51186880Y-163604508D01*
X51186880Y-163604508D02*
X39676772Y-168971760D01*
X39676772Y-168971760D02*
X34309520Y-157461652D01*
%TO.C,SW0:8*%
X43524640Y-132148012D02*
X55034748Y-126780760D01*
X55034748Y-126780760D02*
X60402000Y-138290868D01*
X60402000Y-138290868D02*
X48891892Y-143658120D01*
X48891892Y-143658120D02*
X43524640Y-132148012D01*
%TO.C,SW0:7*%
X26260260Y-140197272D02*
X37770368Y-134830020D01*
X37770368Y-134830020D02*
X43137620Y-146340128D01*
X43137620Y-146340128D02*
X31627512Y-151707380D01*
X31627512Y-151707380D02*
X26260260Y-140197272D01*
%TD*%
M02*
