%TF.GenerationSoftware,KiCad,Pcbnew,5.1.7*%
%TF.CreationDate,2020-10-12T11:43:00-07:00*%
%TF.ProjectId,ErgoDOX_right,4572676f-444f-4585-9f72-696768742e6b,2.0.0*%
%TF.SameCoordinates,Original*%
%TF.FileFunction,Paste,Top*%
%TF.FilePolarity,Positive*%
%FSLAX46Y46*%
G04 Gerber Fmt 4.6, Leading zero omitted, Abs format (unit mm)*
G04 Created by KiCad (PCBNEW 5.1.7) date 2020-10-12 11:43:00*
%MOMM*%
%LPD*%
G01*
G04 APERTURE LIST*
%TA.AperFunction,Profile*%
%ADD10C,0.381000*%
%TD*%
%ADD11R,0.800000X0.750000*%
%ADD12R,0.900000X1.200000*%
%ADD13R,1.200000X0.900000*%
%ADD14C,0.150000*%
%ADD15R,0.450000X1.750000*%
%ADD16R,0.500000X0.900000*%
%ADD17R,0.800000X0.800000*%
G04 APERTURE END LIST*
D10*
X90121000Y-32258000D02*
X93521000Y-32258000D01*
X90121000Y-32258000D02*
X77876400Y-32258000D01*
X95046800Y-32258000D02*
X93521000Y-32258000D01*
X202742800Y-32258000D02*
X143408400Y-32258000D01*
X143408400Y-32258000D02*
X131902200Y-32258000D01*
X131902200Y-32258000D02*
X95046800Y-32258000D01*
X77876400Y-32258000D02*
X65811400Y-32258000D01*
X65811400Y-32258000D02*
X62611000Y-35433000D01*
X127152400Y-152908000D02*
X196392800Y-152908000D01*
X196392800Y-152908000D02*
X205917800Y-143383000D01*
X205917800Y-143383000D02*
X205917800Y-35433000D01*
X205917800Y-35433000D02*
X202742800Y-32258000D01*
X62611000Y-35433000D02*
X62611000Y-121666000D01*
X62611000Y-121666000D02*
X57708800Y-121666000D01*
X57708800Y-121666000D02*
X24617680Y-137096500D01*
X24617680Y-137096500D02*
X23080980Y-141315440D01*
X23080980Y-141315440D02*
X44764960Y-187817760D01*
X44764960Y-187817760D02*
X48983900Y-189351920D01*
X48983900Y-189351920D02*
X127152400Y-152908000D01*
D11*
%TO.C,C6*%
X126216000Y-35918000D03*
X124716000Y-35918000D03*
%TD*%
%TO.C,C5*%
X102776000Y-44498000D03*
X101276000Y-44498000D03*
%TD*%
%TO.C,C4*%
X128776000Y-45498000D03*
X127276000Y-45498000D03*
%TD*%
D12*
%TO.C,D5:9*%
X103626000Y-54998000D03*
X106926000Y-54998000D03*
%TD*%
%TO.C,D5:13*%
X184626000Y-58498000D03*
X187926000Y-58498000D03*
%TD*%
%TO.C,D5:12*%
X175926000Y-75498000D03*
X172626000Y-75498000D03*
%TD*%
%TO.C,D5:11*%
X141626000Y-54498000D03*
X144926000Y-54498000D03*
%TD*%
%TO.C,D5:10*%
X131926000Y-53498000D03*
X128626000Y-53498000D03*
%TD*%
%TO.C,D5:8*%
X84626000Y-58148000D03*
X87926000Y-58148000D03*
%TD*%
%TO.C,D5:7*%
X65626000Y-56498000D03*
X68926000Y-56498000D03*
%TD*%
%TO.C,D4:13*%
X183626000Y-77498000D03*
X186926000Y-77498000D03*
%TD*%
%TO.C,D4:12*%
X175926000Y-94498000D03*
X172626000Y-94498000D03*
%TD*%
%TO.C,D4:11*%
X141626000Y-73498000D03*
X144926000Y-73498000D03*
%TD*%
%TO.C,D4:10*%
X130926000Y-70498000D03*
X127626000Y-70498000D03*
%TD*%
%TO.C,D4:9*%
X103626000Y-73498000D03*
X106926000Y-73498000D03*
%TD*%
%TO.C,D4:8*%
X84626000Y-74498000D03*
X87926000Y-74498000D03*
%TD*%
%TO.C,D4:7*%
X66626000Y-98498000D03*
X69926000Y-98498000D03*
%TD*%
%TO.C,D3:13*%
X183976000Y-96498000D03*
X187276000Y-96498000D03*
%TD*%
%TO.C,D3:12*%
X175926000Y-114498000D03*
X172626000Y-114498000D03*
%TD*%
%TO.C,D3:11*%
X141626000Y-93498000D03*
X144926000Y-93498000D03*
%TD*%
%TO.C,D3:10*%
X130926000Y-89498000D03*
X127626000Y-89498000D03*
%TD*%
%TO.C,D3:9*%
X103626000Y-92498000D03*
X106926000Y-92498000D03*
%TD*%
%TO.C,D3:8*%
X84626000Y-93498000D03*
X87926000Y-93498000D03*
%TD*%
%TO.C,D2:13*%
X182626000Y-115498000D03*
X185926000Y-115498000D03*
%TD*%
%TO.C,D2:12*%
X177276000Y-132498000D03*
X173976000Y-132498000D03*
%TD*%
%TO.C,D2:11*%
X141626000Y-111498000D03*
X144926000Y-111498000D03*
%TD*%
%TO.C,D2:10*%
X130926000Y-108498000D03*
X127626000Y-108498000D03*
%TD*%
%TO.C,D2:9*%
X103626000Y-111498000D03*
X106926000Y-111498000D03*
%TD*%
%TO.C,D2:8*%
X83626000Y-112498000D03*
X86926000Y-112498000D03*
%TD*%
%TO.C,D2:7*%
X66626000Y-106498000D03*
X69926000Y-106498000D03*
%TD*%
%TO.C,D1:13*%
X179626000Y-133498000D03*
X182926000Y-133498000D03*
%TD*%
D13*
%TO.C,D1:12*%
X177276000Y-137848000D03*
X177276000Y-141148000D03*
%TD*%
D12*
%TO.C,D1:11*%
X141626000Y-130498000D03*
X144926000Y-130498000D03*
%TD*%
%TO.C,D1:10*%
X130926000Y-128498000D03*
X127626000Y-128498000D03*
%TD*%
%TO.C,D1:9*%
X103626000Y-131498000D03*
X106926000Y-131498000D03*
%TD*%
D14*
%TO.C,D1:8*%
G36*
X75425676Y-136094477D02*
G01*
X75932817Y-137182046D01*
X75117140Y-137562403D01*
X74609999Y-136474834D01*
X75425676Y-136094477D01*
G37*
G36*
X72434860Y-137489117D02*
G01*
X72942001Y-138576686D01*
X72126324Y-138957043D01*
X71619183Y-137869474D01*
X72434860Y-137489117D01*
G37*
%TD*%
%TO.C,D1:7*%
G36*
X50121732Y-148231963D02*
G01*
X49614591Y-147144394D01*
X50430268Y-146764037D01*
X50937409Y-147851606D01*
X50121732Y-148231963D01*
G37*
G36*
X53112548Y-146837323D02*
G01*
X52605407Y-145749754D01*
X53421084Y-145369397D01*
X53928225Y-146456966D01*
X53112548Y-146837323D01*
G37*
%TD*%
D12*
%TO.C,D0:12*%
X102926000Y-158498000D03*
X99626000Y-158498000D03*
%TD*%
%TO.C,D0:11*%
X102926000Y-154498000D03*
X99626000Y-154498000D03*
%TD*%
%TO.C,D0:10*%
X102926000Y-150498000D03*
X99626000Y-150498000D03*
%TD*%
%TO.C,D0:9*%
X48926000Y-167498000D03*
X45626000Y-167498000D03*
%TD*%
D14*
%TO.C,D0:8*%
G36*
X72925676Y-132066717D02*
G01*
X73432817Y-133154286D01*
X72617140Y-133534643D01*
X72109999Y-132447074D01*
X72925676Y-132066717D01*
G37*
G36*
X69934860Y-133461357D02*
G01*
X70442001Y-134548926D01*
X69626324Y-134929283D01*
X69119183Y-133841714D01*
X69934860Y-133461357D01*
G37*
%TD*%
%TO.C,D0:7*%
G36*
X39925676Y-150066717D02*
G01*
X40432817Y-151154286D01*
X39617140Y-151534643D01*
X39109999Y-150447074D01*
X39925676Y-150066717D01*
G37*
G36*
X36934860Y-151461357D02*
G01*
X37442001Y-152548926D01*
X36626324Y-152929283D01*
X36119183Y-151841714D01*
X36934860Y-151461357D01*
G37*
%TD*%
D15*
%TO.C,U2*%
X118276000Y-45698000D03*
X118926000Y-45698000D03*
X119576000Y-45698000D03*
X120226000Y-45698000D03*
X120876000Y-45698000D03*
X121526000Y-45698000D03*
X122176000Y-45698000D03*
X122826000Y-45698000D03*
X123476000Y-45698000D03*
X124126000Y-45698000D03*
X124776000Y-45698000D03*
X125426000Y-45698000D03*
X125426000Y-38498000D03*
X124776000Y-38498000D03*
X124126000Y-38498000D03*
X123476000Y-38498000D03*
X122826000Y-38498000D03*
X122176000Y-38498000D03*
X121526000Y-38498000D03*
X120876000Y-38498000D03*
X120226000Y-38498000D03*
X119576000Y-38498000D03*
X118926000Y-38498000D03*
X118276000Y-38498000D03*
%TD*%
D16*
%TO.C,R7*%
X84276000Y-44498000D03*
X85776000Y-44498000D03*
%TD*%
%TO.C,R6*%
X97526000Y-44498000D03*
X99026000Y-44498000D03*
%TD*%
%TO.C,R3*%
X133526000Y-37498000D03*
X135026000Y-37498000D03*
%TD*%
%TO.C,R4*%
X133526000Y-35498000D03*
X135026000Y-35498000D03*
%TD*%
D17*
%TO.C,LED_B1*%
X137476000Y-35498000D03*
X139076000Y-35498000D03*
%TD*%
%TO.C,LED_A1*%
X137476000Y-37498000D03*
X139076000Y-37498000D03*
%TD*%
M02*
