%TF.GenerationSoftware,KiCad,Pcbnew,5.1.7*%
%TF.CreationDate,2020-10-12T11:43:00-07:00*%
%TF.ProjectId,ErgoDOX_right,4572676f-444f-4585-9f72-696768742e6b,2.0.0*%
%TF.SameCoordinates,Original*%
%TF.FileFunction,Soldermask,Bot*%
%TF.FilePolarity,Negative*%
%FSLAX46Y46*%
G04 Gerber Fmt 4.6, Leading zero omitted, Abs format (unit mm)*
G04 Created by KiCad (PCBNEW 5.1.7) date 2020-10-12 11:43:00*
%MOMM*%
%LPD*%
G01*
G04 APERTURE LIST*
%TA.AperFunction,Profile*%
%ADD10C,0.381000*%
%TD*%
%ADD11C,2.286000*%
%ADD12C,3.987800*%
%ADD13C,1.701800*%
%ADD14O,2.000000X1.300000*%
%ADD15O,1.300000X2.000000*%
%ADD16C,1.200000*%
G04 APERTURE END LIST*
D10*
X90121000Y-32258000D02*
X93521000Y-32258000D01*
X90121000Y-32258000D02*
X77876400Y-32258000D01*
X95046800Y-32258000D02*
X93521000Y-32258000D01*
X202742800Y-32258000D02*
X143408400Y-32258000D01*
X143408400Y-32258000D02*
X131902200Y-32258000D01*
X131902200Y-32258000D02*
X95046800Y-32258000D01*
X77876400Y-32258000D02*
X65811400Y-32258000D01*
X65811400Y-32258000D02*
X62611000Y-35433000D01*
X127152400Y-152908000D02*
X196392800Y-152908000D01*
X196392800Y-152908000D02*
X205917800Y-143383000D01*
X205917800Y-143383000D02*
X205917800Y-35433000D01*
X205917800Y-35433000D02*
X202742800Y-32258000D01*
X62611000Y-35433000D02*
X62611000Y-121666000D01*
X62611000Y-121666000D02*
X57708800Y-121666000D01*
X57708800Y-121666000D02*
X24617680Y-137096500D01*
X24617680Y-137096500D02*
X23080980Y-141315440D01*
X23080980Y-141315440D02*
X44764960Y-187817760D01*
X44764960Y-187817760D02*
X48983900Y-189351920D01*
X48983900Y-189351920D02*
X127152400Y-152908000D01*
D11*
%TO.C,SW5:13*%
X193992500Y-61925200D03*
X187642500Y-64465200D03*
D12*
X191452500Y-67005200D03*
D13*
X186372500Y-67005200D03*
X196532500Y-67005200D03*
%TD*%
D11*
%TO.C,SX1:7*%
X60170241Y-146806326D03*
X55488637Y-151791974D03*
D12*
X60015120Y-152483820D03*
D13*
X55411076Y-154630721D03*
X64619164Y-150336919D03*
%TD*%
D11*
%TO.C,SW3:13*%
X193992500Y-100022660D03*
X187642500Y-102562660D03*
D12*
X191452500Y-105102660D03*
D13*
X186372500Y-105102660D03*
X196532500Y-105102660D03*
%TD*%
D11*
%TO.C,SW2:9*%
X113030000Y-115897660D03*
X106680000Y-118437660D03*
D12*
X110490000Y-120977660D03*
D13*
X105410000Y-120977660D03*
X115570000Y-120977660D03*
%TD*%
D11*
%TO.C,SW2:10*%
X132080000Y-114300000D03*
X125730000Y-116840000D03*
D12*
X129540000Y-119380000D03*
D13*
X124460000Y-119380000D03*
X134620000Y-119380000D03*
%TD*%
D11*
%TO.C,SW3:9*%
X113030000Y-96847660D03*
X106680000Y-99387660D03*
D12*
X110490000Y-101927660D03*
D13*
X105410000Y-101927660D03*
X115570000Y-101927660D03*
%TD*%
D11*
%TO.C,SW2:11*%
X151130000Y-115897660D03*
X144780000Y-118437660D03*
D12*
X148590000Y-120977660D03*
D13*
X143510000Y-120977660D03*
X153670000Y-120977660D03*
%TD*%
D11*
%TO.C,SW3:10*%
X132080000Y-95250000D03*
X125730000Y-97790000D03*
D12*
X129540000Y-100330000D03*
D13*
X124460000Y-100330000D03*
X134620000Y-100330000D03*
%TD*%
D11*
%TO.C,SW3:11*%
X151130000Y-96847660D03*
X144780000Y-99387660D03*
D12*
X148590000Y-101927660D03*
D13*
X143510000Y-101927660D03*
X153670000Y-101927660D03*
%TD*%
D11*
%TO.C,SW1:11*%
X151130000Y-134947660D03*
X144780000Y-137487660D03*
D12*
X148590000Y-140027660D03*
D13*
X143510000Y-140027660D03*
X153670000Y-140027660D03*
%TD*%
D11*
%TO.C,SW1:10*%
X132080000Y-133350000D03*
X125730000Y-135890000D03*
D12*
X129540000Y-138430000D03*
D13*
X124460000Y-138430000D03*
X134620000Y-138430000D03*
%TD*%
D11*
%TO.C,SW1:9*%
X113030000Y-134947660D03*
X106680000Y-137487660D03*
D12*
X110490000Y-140027660D03*
D13*
X105410000Y-140027660D03*
X115570000Y-140027660D03*
%TD*%
D11*
%TO.C,SX1:8*%
X77434621Y-138754526D03*
X72753017Y-143740174D03*
D12*
X77279500Y-144432020D03*
D13*
X72675456Y-146578921D03*
X81883544Y-142285119D03*
%TD*%
D11*
%TO.C,SW5:12*%
X170180000Y-61925200D03*
X163830000Y-64465200D03*
D12*
X167640000Y-67005200D03*
D13*
X162560000Y-67005200D03*
X172720000Y-67005200D03*
%TD*%
D11*
%TO.C,SW5:11*%
X151130000Y-58747660D03*
X144780000Y-61287660D03*
D12*
X148590000Y-63827660D03*
D13*
X143510000Y-63827660D03*
X153670000Y-63827660D03*
%TD*%
D11*
%TO.C,SW5:10*%
X132080000Y-57150000D03*
X125730000Y-59690000D03*
D12*
X129540000Y-62230000D03*
D13*
X124460000Y-62230000D03*
X134620000Y-62230000D03*
%TD*%
D11*
%TO.C,SW5:9*%
X113030000Y-58747660D03*
X106680000Y-61287660D03*
D12*
X110490000Y-63827660D03*
D13*
X105410000Y-63827660D03*
X115570000Y-63827660D03*
%TD*%
D11*
%TO.C,SW5:8*%
X93980000Y-60020200D03*
X87630000Y-62560200D03*
D12*
X91440000Y-65100200D03*
D13*
X86360000Y-65100200D03*
X96520000Y-65100200D03*
%TD*%
D11*
%TO.C,SW5:7*%
X74930000Y-60020200D03*
X68580000Y-62560200D03*
D12*
X72390000Y-65100200D03*
D13*
X67310000Y-65100200D03*
X77470000Y-65100200D03*
%TD*%
D11*
%TO.C,SW4:13*%
X193992500Y-80972660D03*
X187642500Y-83512660D03*
D12*
X191452500Y-86052660D03*
D13*
X186372500Y-86052660D03*
X196532500Y-86052660D03*
%TD*%
D11*
%TO.C,SW4:12*%
X170180000Y-80972660D03*
X163830000Y-83512660D03*
D12*
X167640000Y-86052660D03*
D13*
X162560000Y-86052660D03*
X172720000Y-86052660D03*
%TD*%
D11*
%TO.C,SW4:11*%
X151130000Y-77797660D03*
X144780000Y-80337660D03*
D12*
X148590000Y-82877660D03*
D13*
X143510000Y-82877660D03*
X153670000Y-82877660D03*
%TD*%
D11*
%TO.C,SW4:10*%
X132080000Y-76200000D03*
X125730000Y-78740000D03*
D12*
X129540000Y-81280000D03*
D13*
X124460000Y-81280000D03*
X134620000Y-81280000D03*
%TD*%
D11*
%TO.C,SW4:9*%
X113030000Y-77797660D03*
X106680000Y-80337660D03*
D12*
X110490000Y-82877660D03*
D13*
X105410000Y-82877660D03*
X115570000Y-82877660D03*
%TD*%
D11*
%TO.C,SW4:8*%
X93980000Y-79067660D03*
X87630000Y-81607660D03*
D12*
X91440000Y-84147660D03*
D13*
X86360000Y-84147660D03*
X96520000Y-84147660D03*
%TD*%
D11*
%TO.C,SW4:7*%
X67310000Y-86370160D03*
X69850000Y-92720160D03*
D12*
X72390000Y-88910160D03*
D13*
X72390000Y-93990160D03*
X72390000Y-83830160D03*
%TD*%
D11*
%TO.C,SW3:12*%
X170180000Y-100022660D03*
X163830000Y-102562660D03*
D12*
X167640000Y-105102660D03*
D13*
X162560000Y-105102660D03*
X172720000Y-105102660D03*
%TD*%
D11*
%TO.C,SW3:8*%
X93980000Y-98117660D03*
X87630000Y-100657660D03*
D12*
X91440000Y-103197660D03*
D13*
X86360000Y-103197660D03*
X96520000Y-103197660D03*
%TD*%
D11*
%TO.C,SW2:13*%
X193992500Y-119072660D03*
X187642500Y-121612660D03*
D12*
X191452500Y-124152660D03*
D13*
X186372500Y-124152660D03*
X196532500Y-124152660D03*
%TD*%
D11*
%TO.C,SW2:12*%
X170180000Y-119072660D03*
X163830000Y-121612660D03*
D12*
X167640000Y-124152660D03*
D13*
X162560000Y-124152660D03*
X172720000Y-124152660D03*
%TD*%
D11*
%TO.C,SW2:8*%
X93980000Y-117167660D03*
X87630000Y-119707660D03*
D12*
X91440000Y-122247660D03*
D13*
X86360000Y-122247660D03*
X96520000Y-122247660D03*
%TD*%
D11*
%TO.C,SW2:7*%
X67310000Y-114945160D03*
X69850000Y-121295160D03*
D12*
X72390000Y-117485160D03*
D13*
X72390000Y-122565160D03*
X72390000Y-112405160D03*
%TD*%
D11*
%TO.C,SW1:13*%
X189230000Y-138122660D03*
X182880000Y-140662660D03*
D12*
X186690000Y-143202660D03*
D13*
X181610000Y-143202660D03*
X191770000Y-143202660D03*
%TD*%
D11*
%TO.C,SW1:12*%
X170180000Y-138122660D03*
X163830000Y-140662660D03*
D12*
X167640000Y-143202660D03*
D13*
X162560000Y-143202660D03*
X172720000Y-143202660D03*
%TD*%
D11*
%TO.C,SW0:12*%
X50955121Y-172122506D03*
X46273517Y-177108154D03*
D12*
X50800000Y-177800000D03*
D13*
X46195956Y-179946901D03*
X55404044Y-175653099D03*
%TD*%
D11*
%TO.C,SW0:11*%
X67431121Y-163820506D03*
X62749517Y-168806154D03*
D12*
X67276000Y-169498000D03*
D13*
X62671956Y-171644901D03*
X71880044Y-167351099D03*
%TD*%
D11*
%TO.C,SW0:10*%
X85431121Y-155820506D03*
X80749517Y-160806154D03*
D12*
X85276000Y-161498000D03*
D13*
X80671956Y-163644901D03*
X89880044Y-159351099D03*
%TD*%
D11*
%TO.C,SW0:9*%
X42903321Y-154855586D03*
X38221717Y-159841234D03*
D12*
X42748200Y-160533080D03*
D13*
X38144156Y-162679981D03*
X47352244Y-158386179D03*
%TD*%
D11*
%TO.C,SW0:8*%
X52118441Y-129541946D03*
X47436837Y-134527594D03*
D12*
X51963320Y-135219440D03*
D13*
X47359276Y-137366341D03*
X56567364Y-133072539D03*
%TD*%
D11*
%TO.C,SW0:7*%
X34854061Y-137591206D03*
X30172457Y-142576854D03*
D12*
X34698940Y-143268700D03*
D13*
X30094896Y-145415601D03*
X39302984Y-141121799D03*
%TD*%
D14*
%TO.C,J1*%
X91776000Y-44798000D03*
D15*
X94626000Y-43998000D03*
X88926000Y-43998000D03*
X88476000Y-35998000D03*
D16*
X91776000Y-41498000D03*
X91776000Y-34498000D03*
D15*
X95076000Y-35998000D03*
%TD*%
M02*
