%TF.GenerationSoftware,KiCad,Pcbnew,5.1.7*%
%TF.CreationDate,2020-10-12T11:44:49-07:00*%
%TF.ProjectId,ErgoDOX_left,4572676f-444f-4585-9f6c-6566742e6b69,2.0.0*%
%TF.SameCoordinates,Original*%
%TF.FileFunction,Glue,Top*%
%TF.FilePolarity,Positive*%
%FSLAX46Y46*%
G04 Gerber Fmt 4.6, Leading zero omitted, Abs format (unit mm)*
G04 Created by KiCad (PCBNEW 5.1.7) date 2020-10-12 11:44:49*
%MOMM*%
%LPD*%
G01*
G04 APERTURE LIST*
%TA.AperFunction,Profile*%
%ADD10C,0.381000*%
%TD*%
G04 APERTURE END LIST*
D10*
X164846000Y-93218000D02*
X164941000Y-109166000D01*
X164846000Y-74168000D02*
X164846000Y-88138000D01*
X164846000Y-56388000D02*
X164846000Y-69088000D01*
X168656000Y-56388000D02*
X164846000Y-56388000D01*
X187706000Y-104013000D02*
X188341000Y-117983000D01*
X168656000Y-104013000D02*
X187706000Y-104013000D01*
X168656000Y-93218000D02*
X168656000Y-104013000D01*
X164846000Y-93218000D02*
X168656000Y-93218000D01*
X187706000Y-88138000D02*
X164846000Y-88138000D01*
X187706000Y-84963000D02*
X187706000Y-88138000D01*
X168656000Y-84963000D02*
X187706000Y-84963000D01*
X168656000Y-74168000D02*
X168656000Y-84963000D01*
X164846000Y-74168000D02*
X168656000Y-74168000D01*
X186436000Y-69088000D02*
X164846000Y-69088000D01*
X186436000Y-66548000D02*
X186436000Y-69088000D01*
X168656000Y-66548000D02*
X186436000Y-66548000D01*
X168656000Y-56388000D02*
X168656000Y-66548000D01*
X164846000Y-51308000D02*
X164941000Y-22933000D01*
X168656000Y-51308000D02*
X164846000Y-51308000D01*
X169843200Y-109166000D02*
X188341000Y-117983000D01*
X191516000Y-119253000D02*
X202934320Y-124596500D01*
X191516000Y-51308000D02*
X191516000Y-119253000D01*
X168656000Y-51308000D02*
X191516000Y-51308000D01*
X21634200Y-22933000D02*
X21634200Y-130883000D01*
X137431000Y-19758000D02*
X134031000Y-19758000D01*
X137431000Y-19758000D02*
X149675600Y-19758000D01*
X132505200Y-19758000D02*
X134031000Y-19758000D01*
X24809200Y-19758000D02*
X84143600Y-19758000D01*
X84143600Y-17980000D02*
X95649800Y-17980000D01*
X84143600Y-19758000D02*
X84143600Y-17980000D01*
X95649800Y-17980000D02*
X95649800Y-19758000D01*
X95649800Y-19758000D02*
X132505200Y-19758000D01*
X149675600Y-19758000D02*
X161740600Y-19758000D01*
X161740600Y-19758000D02*
X164941000Y-22933000D01*
X100399600Y-140408000D02*
X31159200Y-140408000D01*
X31159200Y-140408000D02*
X21634200Y-130883000D01*
X21634200Y-22933000D02*
X24809200Y-19758000D01*
X164941000Y-109166000D02*
X169843200Y-109166000D01*
X202934320Y-124596500D02*
X204471020Y-128815440D01*
X204471020Y-128815440D02*
X182787040Y-175317760D01*
X182787040Y-175317760D02*
X178568100Y-176851920D01*
X178568100Y-176851920D02*
X100399600Y-140408000D01*
M02*
