M48
; DRILL file {KiCad 5.1.7} date Thu Oct 15 21:30:42 2020
; FORMAT={-:-/ absolute / inch / decimal}
; #@! TF.CreationDate,2020-10-15T21:30:42-07:00
; #@! TF.GenerationSoftware,Kicad,Pcbnew,5.1.7
; #@! TF.FileFunction,NonPlated,1,2,NPTH
FMAT,2
INCH
T1C0.0256
T2C0.0354
T3C0.0472
T4C0.0670
T5C0.1570
%
G90
G05
T1
X6.9857Y-3.7007
X7.2093Y-3.7007
T2
X7.0104Y-2.218
X7.1836Y-2.218
T3
X5.3455Y-0.8661
X5.3455Y-1.1417
T4
X3.6587Y-2.7079
X4.0587Y-2.7079
X5.1587Y-2.8208
X5.5587Y-2.8208
X6.1288Y-6.0965
X6.4913Y-6.2655
X4.4087Y-2.7708
X4.8087Y-2.7708
X4.4087Y-5.0196
X4.8087Y-5.0196
X1.4087Y-5.1458
X1.8087Y-5.1458
X3.6587Y-1.9579
X4.0587Y-1.9579
X1.2212Y-2.8958
X1.6212Y-2.8958
X7.4114Y-5.0639
X7.7739Y-5.2329
X4.4087Y-4.2708
X4.8087Y-4.2708
X6.1087Y-2.8083
X6.1087Y-3.2083
X5.4202Y-5.7815
X5.7827Y-5.9506
X2.1587Y-4.3958
X2.5587Y-4.3958
X2.9087Y-2.0208
X3.3087Y-2.0208
X2.1587Y-2.1459
X2.5587Y-2.1459
X2.1587Y-5.1458
X2.5587Y-5.1458
X5.735Y-5.1097
X6.0975Y-5.2787
X2.1587Y-2.8958
X2.5587Y-2.8958
X6.4147Y-5.4267
X6.7772Y-5.5957
X4.4087Y-3.5208
X4.8087Y-3.5208
X5.1587Y-2.0709
X5.5587Y-2.0709
X2.1587Y-3.6458
X2.5587Y-3.6458
X5.9087Y-2.0709
X6.3087Y-2.0709
X5.1587Y-4.3208
X5.5587Y-4.3208
X2.9087Y-4.2708
X3.3087Y-4.2708
X2.9087Y-3.5208
X3.3087Y-3.5208
X4.4087Y-2.0208
X4.8087Y-2.0208
X7.0945Y-5.7436
X7.457Y-5.9126
X3.6587Y-3.4579
X4.0587Y-3.4579
X3.6587Y-4.2079
X4.0587Y-4.2079
X6.7775Y-6.4234
X7.14Y-6.5924
X5.1587Y-3.5708
X5.5587Y-3.5708
X2.9087Y-2.7708
X3.3087Y-2.7708
X2.9087Y-5.0196
X3.3087Y-5.0196
X6.1087Y-3.9333
X6.1087Y-4.3333
X1.2212Y-4.3958
X1.6212Y-4.3958
X6.7317Y-4.747
X7.0942Y-4.916
X3.6587Y-4.9579
X4.0587Y-4.9579
X1.2212Y-3.6458
X1.6212Y-3.6458
X1.2212Y-2.1459
X1.6212Y-2.1459
T5
X5.3587Y-2.0709
X2.3587Y-3.6458
X6.1087Y-2.0709
X5.3587Y-4.3208
X3.1087Y-4.2708
X3.1087Y-3.5208
X4.6087Y-2.0208
X7.2757Y-5.8281
X3.8587Y-3.4579
X3.8587Y-4.2079
X6.9587Y-6.5079
X5.3587Y-3.5708
X3.1087Y-2.7708
X3.1087Y-5.0196
X6.1087Y-4.1333
X1.4212Y-4.3958
X6.9129Y-4.8315
X3.8587Y-4.9579
X1.4212Y-3.6458
X1.4212Y-2.1459
X3.8587Y-2.7079
X5.3587Y-2.8208
X6.3101Y-6.181
X4.6087Y-2.7708
X4.6087Y-5.0196
X1.6087Y-5.1458
X3.8587Y-1.9579
X1.4212Y-2.8958
X7.5926Y-5.1484
X4.6087Y-4.2708
X6.1087Y-3.0083
X5.6014Y-5.8661
X2.3587Y-4.3958
X3.1087Y-2.0208
X2.3587Y-2.1459
X2.3587Y-5.1458
X5.9162Y-5.1942
X2.3587Y-2.8958
X6.5959Y-5.5112
X4.6087Y-3.5208
T0
M30
