%TF.GenerationSoftware,KiCad,Pcbnew,5.1.7*%
%TF.CreationDate,2020-10-15T21:30:19-07:00*%
%TF.ProjectId,ErgoDOX_left,4572676f-444f-4585-9f6c-6566742e6b69,2.0.0*%
%TF.SameCoordinates,Original*%
%TF.FileFunction,Soldermask,Top*%
%TF.FilePolarity,Negative*%
%FSLAX46Y46*%
G04 Gerber Fmt 4.6, Leading zero omitted, Abs format (unit mm)*
G04 Created by KiCad (PCBNEW 5.1.7) date 2020-10-15 21:30:19*
%MOMM*%
%LPD*%
G01*
G04 APERTURE LIST*
%TA.AperFunction,Profile*%
%ADD10C,0.381000*%
%TD*%
%ADD11O,0.900000X1.600000*%
%ADD12O,0.914400X1.600000*%
%ADD13R,1.905000X1.905000*%
%ADD14R,1.600000X1.400000*%
%ADD15R,0.406400X1.346200*%
%ADD16C,0.650000*%
%ADD17R,0.300000X1.150000*%
%ADD18R,0.600000X1.150000*%
%ADD19R,2.000000X2.000000*%
%ADD20C,1.524000*%
%ADD21R,2.000000X2.500000*%
%ADD22C,0.900000*%
%ADD23R,0.500000X2.500000*%
%ADD24C,2.286000*%
%ADD25C,3.987800*%
%ADD26C,1.701800*%
%ADD27R,0.900000X0.500000*%
%ADD28R,0.500000X0.900000*%
%ADD29R,1.400000X1.200000*%
%ADD30R,0.800000X0.750000*%
%ADD31R,0.750000X0.800000*%
%ADD32R,0.900000X1.200000*%
%ADD33R,0.700000X0.250000*%
%ADD34R,0.250000X0.700000*%
%ADD35R,1.287500X1.287500*%
%ADD36C,2.000000*%
%ADD37O,2.000000X1.300000*%
%ADD38O,1.300000X2.000000*%
%ADD39C,1.200000*%
%ADD40R,1.200000X0.900000*%
%ADD41C,0.150000*%
%ADD42R,0.800000X0.800000*%
G04 APERTURE END LIST*
D10*
X164846000Y-93218000D02*
X164941000Y-109166000D01*
X164846000Y-74168000D02*
X164846000Y-88138000D01*
X164846000Y-56388000D02*
X164846000Y-69088000D01*
X168656000Y-56388000D02*
X164846000Y-56388000D01*
X187706000Y-104013000D02*
X188341000Y-117983000D01*
X168656000Y-104013000D02*
X187706000Y-104013000D01*
X168656000Y-93218000D02*
X168656000Y-104013000D01*
X164846000Y-93218000D02*
X168656000Y-93218000D01*
X187706000Y-88138000D02*
X164846000Y-88138000D01*
X187706000Y-84963000D02*
X187706000Y-88138000D01*
X168656000Y-84963000D02*
X187706000Y-84963000D01*
X168656000Y-74168000D02*
X168656000Y-84963000D01*
X164846000Y-74168000D02*
X168656000Y-74168000D01*
X186436000Y-69088000D02*
X164846000Y-69088000D01*
X186436000Y-66548000D02*
X186436000Y-69088000D01*
X168656000Y-66548000D02*
X186436000Y-66548000D01*
X168656000Y-56388000D02*
X168656000Y-66548000D01*
X164846000Y-51308000D02*
X164941000Y-22933000D01*
X168656000Y-51308000D02*
X164846000Y-51308000D01*
X169843200Y-109166000D02*
X188341000Y-117983000D01*
X191516000Y-119253000D02*
X202934320Y-124596500D01*
X191516000Y-51308000D02*
X191516000Y-119253000D01*
X168656000Y-51308000D02*
X191516000Y-51308000D01*
X21634200Y-22933000D02*
X21634200Y-130883000D01*
X137431000Y-19758000D02*
X134031000Y-19758000D01*
X137431000Y-19758000D02*
X149675600Y-19758000D01*
X132505200Y-19758000D02*
X134031000Y-19758000D01*
X24809200Y-19758000D02*
X84143600Y-19758000D01*
X84143600Y-17980000D02*
X95649800Y-17980000D01*
X84143600Y-19758000D02*
X84143600Y-17980000D01*
X95649800Y-17980000D02*
X95649800Y-19758000D01*
X95649800Y-19758000D02*
X132505200Y-19758000D01*
X149675600Y-19758000D02*
X161740600Y-19758000D01*
X161740600Y-19758000D02*
X164941000Y-22933000D01*
X100399600Y-140408000D02*
X31159200Y-140408000D01*
X31159200Y-140408000D02*
X21634200Y-130883000D01*
X21634200Y-22933000D02*
X24809200Y-19758000D01*
X164941000Y-109166000D02*
X169843200Y-109166000D01*
X202934320Y-124596500D02*
X204471020Y-128815440D01*
X204471020Y-128815440D02*
X182787040Y-175317760D01*
X182787040Y-175317760D02*
X178568100Y-176851920D01*
X178568100Y-176851920D02*
X100399600Y-140408000D01*
D11*
%TO.C,J103*%
X176176000Y-70498000D03*
D12*
X182776000Y-70498000D03*
D13*
X178276000Y-70481698D03*
X180676000Y-70481698D03*
D14*
X176276000Y-72931699D03*
X182676000Y-72931699D03*
D15*
X178176000Y-73156699D03*
X178826001Y-73156699D03*
X179476000Y-73156699D03*
X180125999Y-73156699D03*
X180776000Y-73156699D03*
%TD*%
D16*
%TO.C,J101*%
X177436000Y-93998000D03*
X183116000Y-93998000D03*
D17*
X182026000Y-95073000D03*
X178526000Y-95073000D03*
D18*
X177076000Y-95073000D03*
X177876000Y-95073000D03*
X183476000Y-95073000D03*
X182676000Y-95073000D03*
D17*
X181526000Y-95073000D03*
X181026000Y-95073000D03*
X180526000Y-95073000D03*
X179026000Y-95073000D03*
X179526000Y-95073000D03*
X180026000Y-95073000D03*
D19*
X175166000Y-90568000D03*
X185386000Y-90568000D03*
X185386000Y-94498000D03*
X175166000Y-94498000D03*
%TD*%
D20*
%TO.C,J203*%
X188896000Y-72418000D03*
X171116000Y-72418000D03*
X181276000Y-82578000D03*
X178736000Y-82578000D03*
%TD*%
%TO.C,J202*%
X188896000Y-53688000D03*
X171116000Y-53688000D03*
X181276000Y-63848000D03*
X178736000Y-63848000D03*
%TD*%
%TO.C,J201*%
X188896000Y-91148000D03*
X171116000Y-91148000D03*
X181276000Y-101308000D03*
X178736000Y-101308000D03*
%TD*%
%TO.C,J2*%
X99056000Y-21878000D03*
X81276000Y-21878000D03*
X91436000Y-32038000D03*
X88896000Y-32038000D03*
%TD*%
D21*
%TO.C,J102*%
X175803500Y-53368000D03*
X184723500Y-53368000D03*
D22*
X178063500Y-56338000D03*
X182463500Y-56338000D03*
D21*
X175803500Y-58848000D03*
X184723500Y-58848000D03*
D23*
X178663500Y-58848000D03*
X179463500Y-58848000D03*
X180263500Y-58848000D03*
X181063500Y-58848000D03*
X181863500Y-58848000D03*
%TD*%
D24*
%TO.C,SW1:9*%
X114522000Y-132578000D03*
X120872000Y-130038000D03*
D25*
X117062000Y-127498000D03*
D26*
X122142000Y-127498000D03*
X111982000Y-127498000D03*
%TD*%
D24*
%TO.C,SW5:13*%
X33559500Y-59585200D03*
X39909500Y-57045200D03*
D25*
X36099500Y-54505200D03*
D26*
X41179500Y-54505200D03*
X31019500Y-54505200D03*
%TD*%
D27*
%TO.C,R8*%
X61526000Y-29248000D03*
X61526000Y-27748000D03*
%TD*%
D28*
%TO.C,R2*%
X89026000Y-28998000D03*
X90526000Y-28998000D03*
%TD*%
%TO.C,R1*%
X88026000Y-26998000D03*
X89526000Y-26998000D03*
%TD*%
D29*
%TO.C,Y1*%
X56776000Y-39798000D03*
X54576000Y-39798000D03*
X54576000Y-41498000D03*
X56776000Y-41498000D03*
%TD*%
D28*
%TO.C,R5*%
X71926000Y-31198000D03*
X73426000Y-31198000D03*
%TD*%
D30*
%TO.C,C6*%
X49776000Y-30248000D03*
X51276000Y-30248000D03*
%TD*%
%TO.C,C5*%
X63776000Y-36998000D03*
X62276000Y-36998000D03*
%TD*%
D31*
%TO.C,C4*%
X58776000Y-25998000D03*
X58776000Y-27498000D03*
%TD*%
D30*
%TO.C,C3*%
X49276000Y-33248000D03*
X50776000Y-33248000D03*
%TD*%
D31*
%TO.C,C2*%
X58776000Y-41248000D03*
X58776000Y-39748000D03*
%TD*%
%TO.C,C1*%
X52276000Y-39998000D03*
X52276000Y-41498000D03*
%TD*%
D32*
%TO.C,D5:9*%
X123926000Y-60498000D03*
X120626000Y-60498000D03*
%TD*%
D24*
%TO.C,SX1:7*%
X163087957Y-143514413D03*
X169916462Y-143896017D03*
D25*
X167536880Y-139983820D03*
D26*
X172140924Y-142130721D03*
X162932836Y-137836919D03*
%TD*%
D24*
%TO.C,SW3:13*%
X33559500Y-97682660D03*
X39909500Y-95142660D03*
D25*
X36099500Y-92602660D03*
D26*
X41179500Y-92602660D03*
X31019500Y-92602660D03*
%TD*%
D24*
%TO.C,SW2:9*%
X114522000Y-113557660D03*
X120872000Y-111017660D03*
D25*
X117062000Y-108477660D03*
D26*
X122142000Y-108477660D03*
X111982000Y-108477660D03*
%TD*%
D24*
%TO.C,SW2:10*%
X95472000Y-111960000D03*
X101822000Y-109420000D03*
D25*
X98012000Y-106880000D03*
D26*
X103092000Y-106880000D03*
X92932000Y-106880000D03*
%TD*%
D24*
%TO.C,SW3:9*%
X114522000Y-94507660D03*
X120872000Y-91967660D03*
D25*
X117062000Y-89427660D03*
D26*
X122142000Y-89427660D03*
X111982000Y-89427660D03*
%TD*%
D24*
%TO.C,SW2:11*%
X76422000Y-113557660D03*
X82772000Y-111017660D03*
D25*
X78962000Y-108477660D03*
D26*
X84042000Y-108477660D03*
X73882000Y-108477660D03*
%TD*%
D24*
%TO.C,SW3:10*%
X95472000Y-92910000D03*
X101822000Y-90370000D03*
D25*
X98012000Y-87830000D03*
D26*
X103092000Y-87830000D03*
X92932000Y-87830000D03*
%TD*%
D24*
%TO.C,SW3:11*%
X76422000Y-94507660D03*
X82772000Y-91967660D03*
D25*
X78962000Y-89427660D03*
D26*
X84042000Y-89427660D03*
X73882000Y-89427660D03*
%TD*%
D24*
%TO.C,SW1:11*%
X76422000Y-132578000D03*
X82772000Y-130038000D03*
D25*
X78962000Y-127498000D03*
D26*
X84042000Y-127498000D03*
X73882000Y-127498000D03*
%TD*%
D24*
%TO.C,SW1:10*%
X95472000Y-131010000D03*
X101822000Y-128470000D03*
D25*
X98012000Y-125930000D03*
D26*
X103092000Y-125930000D03*
X92932000Y-125930000D03*
%TD*%
D33*
%TO.C,U1*%
X52732250Y-31066750D03*
X52732250Y-31566750D03*
X52732250Y-32066750D03*
X52732250Y-32566750D03*
X52732250Y-33066750D03*
X52732250Y-33566750D03*
X52732250Y-34066750D03*
X52732250Y-34566750D03*
X52732250Y-35066750D03*
X52732250Y-35566750D03*
X52732250Y-36066750D03*
D34*
X53632250Y-36966750D03*
X54132250Y-36966750D03*
X54632250Y-36966750D03*
X55132250Y-36966750D03*
X55632250Y-36966750D03*
X56132250Y-36966750D03*
X56632250Y-36966750D03*
X57132250Y-36966750D03*
X57632250Y-36966750D03*
X58132250Y-36966750D03*
X58632250Y-36966750D03*
D33*
X59532250Y-36066750D03*
X59532250Y-35566750D03*
X59532250Y-35066750D03*
X59532250Y-34566750D03*
X59532250Y-34066750D03*
X59532250Y-33566750D03*
X59532250Y-33066750D03*
X59532250Y-32566750D03*
X59532250Y-32066750D03*
X59532250Y-31566750D03*
X59532250Y-31066750D03*
D34*
X58632250Y-30166750D03*
X58132250Y-30166750D03*
X57632250Y-30166750D03*
X57132250Y-30166750D03*
X56632250Y-30166750D03*
X56132250Y-30166750D03*
X55632250Y-30166750D03*
X55132250Y-30166750D03*
X54632250Y-30166750D03*
X54132250Y-30166750D03*
X53632250Y-30166750D03*
D35*
X58063500Y-35498000D03*
X58063500Y-34210500D03*
X58063500Y-32923000D03*
X58063500Y-31635500D03*
X56776000Y-35498000D03*
X56776000Y-34210500D03*
X56776000Y-32923000D03*
X56776000Y-31635500D03*
X55488500Y-35498000D03*
X55488500Y-34210500D03*
X55488500Y-32923000D03*
X55488500Y-31635500D03*
X54201000Y-35498000D03*
X54201000Y-34210500D03*
X54201000Y-32923000D03*
X54201000Y-31635500D03*
%TD*%
D24*
%TO.C,SX1:8*%
X145823577Y-135462613D03*
X152652082Y-135844217D03*
D25*
X150272500Y-131932020D03*
D26*
X154876544Y-134078921D03*
X145668456Y-129785119D03*
%TD*%
D24*
%TO.C,SW5:12*%
X57372000Y-59585200D03*
X63722000Y-57045200D03*
D25*
X59912000Y-54505200D03*
D26*
X64992000Y-54505200D03*
X54832000Y-54505200D03*
%TD*%
D24*
%TO.C,SW5:11*%
X76422000Y-56407660D03*
X82772000Y-53867660D03*
D25*
X78962000Y-51327660D03*
D26*
X84042000Y-51327660D03*
X73882000Y-51327660D03*
%TD*%
D24*
%TO.C,SW5:10*%
X95472000Y-54810000D03*
X101822000Y-52270000D03*
D25*
X98012000Y-49730000D03*
D26*
X103092000Y-49730000D03*
X92932000Y-49730000D03*
%TD*%
D24*
%TO.C,SW5:9*%
X114522000Y-56407660D03*
X120872000Y-53867660D03*
D25*
X117062000Y-51327660D03*
D26*
X122142000Y-51327660D03*
X111982000Y-51327660D03*
%TD*%
D24*
%TO.C,SW5:8*%
X133572000Y-57680200D03*
X139922000Y-55140200D03*
D25*
X136112000Y-52600200D03*
D26*
X141192000Y-52600200D03*
X131032000Y-52600200D03*
%TD*%
D24*
%TO.C,SW5:7*%
X152622000Y-57680200D03*
X158972000Y-55140200D03*
D25*
X155162000Y-52600200D03*
D26*
X160242000Y-52600200D03*
X150082000Y-52600200D03*
%TD*%
D24*
%TO.C,SW4:13*%
X33559500Y-78632660D03*
X39909500Y-76092660D03*
D25*
X36099500Y-73552660D03*
D26*
X41179500Y-73552660D03*
X31019500Y-73552660D03*
%TD*%
D24*
%TO.C,SW4:12*%
X57372000Y-78632660D03*
X63722000Y-76092660D03*
D25*
X59912000Y-73552660D03*
D26*
X64992000Y-73552660D03*
X54832000Y-73552660D03*
%TD*%
D24*
%TO.C,SW4:11*%
X76422000Y-75457660D03*
X82772000Y-72917660D03*
D25*
X78962000Y-70377660D03*
D26*
X84042000Y-70377660D03*
X73882000Y-70377660D03*
%TD*%
D24*
%TO.C,SW4:10*%
X95472000Y-73860000D03*
X101822000Y-71320000D03*
D25*
X98012000Y-68780000D03*
D26*
X103092000Y-68780000D03*
X92932000Y-68780000D03*
%TD*%
D24*
%TO.C,SW4:9*%
X114522000Y-75457660D03*
X120872000Y-72917660D03*
D25*
X117062000Y-70377660D03*
D26*
X122142000Y-70377660D03*
X111982000Y-70377660D03*
%TD*%
D24*
%TO.C,SW4:8*%
X133572000Y-76727660D03*
X139922000Y-74187660D03*
D25*
X136112000Y-71647660D03*
D26*
X141192000Y-71647660D03*
X131032000Y-71647660D03*
%TD*%
D24*
%TO.C,SW4:7*%
X160242000Y-78950160D03*
X157702000Y-72600160D03*
D25*
X155162000Y-76410160D03*
D26*
X155162000Y-71330160D03*
X155162000Y-81490160D03*
%TD*%
D24*
%TO.C,SW3:12*%
X57372000Y-97682660D03*
X63722000Y-95142660D03*
D25*
X59912000Y-92602660D03*
D26*
X64992000Y-92602660D03*
X54832000Y-92602660D03*
%TD*%
D24*
%TO.C,SW3:8*%
X133572000Y-95777660D03*
X139922000Y-93237660D03*
D25*
X136112000Y-90697660D03*
D26*
X141192000Y-90697660D03*
X131032000Y-90697660D03*
%TD*%
D24*
%TO.C,SW2:13*%
X33559500Y-116732660D03*
X39909500Y-114192660D03*
D25*
X36099500Y-111652660D03*
D26*
X41179500Y-111652660D03*
X31019500Y-111652660D03*
%TD*%
D24*
%TO.C,SW2:12*%
X57372000Y-116732660D03*
X63722000Y-114192660D03*
D25*
X59912000Y-111652660D03*
D26*
X64992000Y-111652660D03*
X54832000Y-111652660D03*
%TD*%
D24*
%TO.C,SW2:8*%
X133572000Y-114827660D03*
X139922000Y-112287660D03*
D25*
X136112000Y-109747660D03*
D26*
X141192000Y-109747660D03*
X131032000Y-109747660D03*
%TD*%
D24*
%TO.C,SW2:7*%
X160242000Y-107525160D03*
X157702000Y-101175160D03*
D25*
X155162000Y-104985160D03*
D26*
X155162000Y-99905160D03*
X155162000Y-110065160D03*
%TD*%
D24*
%TO.C,SW1:13*%
X38322000Y-135782660D03*
X44672000Y-133242660D03*
D25*
X40862000Y-130702660D03*
D26*
X45942000Y-130702660D03*
X35782000Y-130702660D03*
%TD*%
D24*
%TO.C,SW1:12*%
X57372000Y-135782660D03*
X63722000Y-133242660D03*
D25*
X59912000Y-130702660D03*
D26*
X64992000Y-130702660D03*
X54832000Y-130702660D03*
%TD*%
D24*
%TO.C,SW0:12*%
X172303077Y-168830593D03*
X179131582Y-169212197D03*
D25*
X176752000Y-165300000D03*
D26*
X181356044Y-167446901D03*
X172147956Y-163153099D03*
%TD*%
D24*
%TO.C,SW0:11*%
X155827077Y-160528593D03*
X162655582Y-160910197D03*
D25*
X160276000Y-156998000D03*
D26*
X164880044Y-159144901D03*
X155671956Y-154851099D03*
%TD*%
D24*
%TO.C,SW0:10*%
X137827077Y-152528593D03*
X144655582Y-152910197D03*
D25*
X142276000Y-148998000D03*
D26*
X146880044Y-151144901D03*
X137671956Y-146851099D03*
%TD*%
D24*
%TO.C,SW0:9*%
X180354877Y-151563673D03*
X187183382Y-151945277D03*
D25*
X184803800Y-148033080D03*
D26*
X189407844Y-150179981D03*
X180199756Y-145886179D03*
%TD*%
D24*
%TO.C,SW0:8*%
X171139757Y-126250033D03*
X177968262Y-126631637D03*
D25*
X175588680Y-122719440D03*
D26*
X180192724Y-124866341D03*
X170984636Y-120572539D03*
%TD*%
D24*
%TO.C,SW0:7*%
X188404137Y-134299293D03*
X195232642Y-134680897D03*
D25*
X192853060Y-130768700D03*
D26*
X197457104Y-132915601D03*
X188249016Y-128621799D03*
%TD*%
D36*
%TO.C,SW1*%
X36276000Y-42998000D03*
X36276000Y-38498000D03*
X42776000Y-42998000D03*
X42776000Y-38498000D03*
%TD*%
D28*
%TO.C,R10*%
X63526000Y-32998000D03*
X62026000Y-32998000D03*
%TD*%
%TO.C,R9*%
X63526000Y-34998000D03*
X62026000Y-34998000D03*
%TD*%
D37*
%TO.C,J1*%
X135776000Y-32298000D03*
D38*
X138626000Y-31498000D03*
X132926000Y-31498000D03*
X132476000Y-23498000D03*
D39*
X135776000Y-28998000D03*
X135776000Y-21998000D03*
D38*
X139076000Y-23498000D03*
%TD*%
D32*
%TO.C,D5:13*%
X43926000Y-63498000D03*
X40626000Y-63498000D03*
%TD*%
%TO.C,D5:12*%
X67926000Y-63498000D03*
X64626000Y-63498000D03*
%TD*%
%TO.C,D5:11*%
X85926000Y-60498000D03*
X82626000Y-60498000D03*
%TD*%
%TO.C,D5:10*%
X104926000Y-58498000D03*
X101626000Y-58498000D03*
%TD*%
%TO.C,D5:8*%
X143926000Y-61498000D03*
X140626000Y-61498000D03*
%TD*%
%TO.C,D5:7*%
X160926000Y-61498000D03*
X157626000Y-61498000D03*
%TD*%
%TO.C,D4:13*%
X43576000Y-82498000D03*
X40276000Y-82498000D03*
%TD*%
%TO.C,D4:12*%
X67926000Y-82498000D03*
X64626000Y-82498000D03*
%TD*%
%TO.C,D4:11*%
X85926000Y-79498000D03*
X82626000Y-79498000D03*
%TD*%
%TO.C,D4:10*%
X105576000Y-77498000D03*
X102276000Y-77498000D03*
%TD*%
%TO.C,D4:9*%
X123926000Y-79498000D03*
X120626000Y-79498000D03*
%TD*%
%TO.C,D4:8*%
X143926000Y-80498000D03*
X140626000Y-80498000D03*
%TD*%
%TO.C,D4:7*%
X160926000Y-65498000D03*
X157626000Y-65498000D03*
%TD*%
%TO.C,D3:13*%
X43576000Y-101498000D03*
X40276000Y-101498000D03*
%TD*%
%TO.C,D3:12*%
X67926000Y-101998000D03*
X64626000Y-101998000D03*
%TD*%
%TO.C,D3:11*%
X85926000Y-97498000D03*
X82626000Y-97498000D03*
%TD*%
%TO.C,D3:10*%
X104926000Y-96498000D03*
X101626000Y-96498000D03*
%TD*%
%TO.C,D3:9*%
X124276000Y-98498000D03*
X120976000Y-98498000D03*
%TD*%
%TO.C,D3:8*%
X140926000Y-100498000D03*
X137626000Y-100498000D03*
%TD*%
%TO.C,D2:13*%
X41926000Y-120498000D03*
X38626000Y-120498000D03*
%TD*%
%TO.C,D2:12*%
X63926000Y-121498000D03*
X60626000Y-121498000D03*
%TD*%
%TO.C,D2:11*%
X83276000Y-117498000D03*
X79976000Y-117498000D03*
%TD*%
%TO.C,D2:10*%
X103576000Y-116498000D03*
X100276000Y-116498000D03*
%TD*%
%TO.C,D2:9*%
X121926000Y-117498000D03*
X118626000Y-117498000D03*
%TD*%
D40*
%TO.C,D2:8*%
X145276000Y-100848000D03*
X145276000Y-104148000D03*
%TD*%
D32*
%TO.C,D2:7*%
X160926000Y-93498000D03*
X157626000Y-93498000D03*
%TD*%
D40*
%TO.C,D1:13*%
X50276000Y-129198000D03*
X50276000Y-132498000D03*
%TD*%
%TO.C,D1:12*%
X68276000Y-130848000D03*
X68276000Y-134148000D03*
%TD*%
%TO.C,D1:11*%
X88276000Y-128348000D03*
X88276000Y-131648000D03*
%TD*%
%TO.C,D1:10*%
X107276000Y-126698000D03*
X107276000Y-129998000D03*
%TD*%
%TO.C,D1:9*%
X126276000Y-125848000D03*
X126276000Y-129148000D03*
%TD*%
D41*
%TO.C,D1:8*%
G36*
X161922394Y-126836591D02*
G01*
X163009963Y-127343732D01*
X162629606Y-128159409D01*
X161542037Y-127652268D01*
X161922394Y-126836591D01*
G37*
G36*
X160527754Y-129827407D02*
G01*
X161615323Y-130334548D01*
X161234966Y-131150225D01*
X160147397Y-130643084D01*
X160527754Y-129827407D01*
G37*
%TD*%
%TO.C,D1:7*%
G36*
X178619714Y-135341183D02*
G01*
X179707283Y-135848324D01*
X179326926Y-136664001D01*
X178239357Y-136156860D01*
X178619714Y-135341183D01*
G37*
G36*
X177225074Y-138331999D02*
G01*
X178312643Y-138839140D01*
X177932286Y-139654817D01*
X176844717Y-139147676D01*
X177225074Y-138331999D01*
G37*
%TD*%
D40*
%TO.C,D0:12*%
X121276000Y-137848000D03*
X121276000Y-141148000D03*
%TD*%
%TO.C,D0:11*%
X126276000Y-137848000D03*
X126276000Y-141148000D03*
%TD*%
%TO.C,D0:10*%
X131276000Y-137848000D03*
X131276000Y-141148000D03*
%TD*%
D41*
%TO.C,D0:9*%
G36*
X176119183Y-155154286D02*
G01*
X176626324Y-154066717D01*
X177442001Y-154447074D01*
X176934860Y-155534643D01*
X176119183Y-155154286D01*
G37*
G36*
X179109999Y-156548926D02*
G01*
X179617140Y-155461357D01*
X180432817Y-155841714D01*
X179925676Y-156929283D01*
X179109999Y-156548926D01*
G37*
%TD*%
%TO.C,D0:8*%
G36*
X163932286Y-125654817D02*
G01*
X162844717Y-125147676D01*
X163225074Y-124331999D01*
X164312643Y-124839140D01*
X163932286Y-125654817D01*
G37*
G36*
X165326926Y-122664001D02*
G01*
X164239357Y-122156860D01*
X164619714Y-121341183D01*
X165707283Y-121848324D01*
X165326926Y-122664001D01*
G37*
%TD*%
%TO.C,D0:7*%
G36*
X186623775Y-139456966D02*
G01*
X187130916Y-138369397D01*
X187946593Y-138749754D01*
X187439452Y-139837323D01*
X186623775Y-139456966D01*
G37*
G36*
X189614591Y-140851606D02*
G01*
X190121732Y-139764037D01*
X190937409Y-140144394D01*
X190430268Y-141231963D01*
X189614591Y-140851606D01*
G37*
%TD*%
D28*
%TO.C,R3*%
X72176000Y-36698000D03*
X73676000Y-36698000D03*
%TD*%
%TO.C,R4*%
X72176000Y-34198000D03*
X73676000Y-34198000D03*
%TD*%
D42*
%TO.C,LED_C1*%
X75676000Y-31198000D03*
X77276000Y-31198000D03*
%TD*%
%TO.C,LED_B1*%
X75876000Y-34198000D03*
X77476000Y-34198000D03*
%TD*%
%TO.C,LED_A1*%
X75876000Y-36698000D03*
X77476000Y-36698000D03*
%TD*%
M02*
