%TF.GenerationSoftware,KiCad,Pcbnew,5.1.7*%
%TF.CreationDate,2020-10-12T11:44:49-07:00*%
%TF.ProjectId,ErgoDOX_left,4572676f-444f-4585-9f6c-6566742e6b69,2.0.0*%
%TF.SameCoordinates,Original*%
%TF.FileFunction,Other,User*%
%FSLAX46Y46*%
G04 Gerber Fmt 4.6, Leading zero omitted, Abs format (unit mm)*
G04 Created by KiCad (PCBNEW 5.1.7) date 2020-10-12 11:44:49*
%MOMM*%
%LPD*%
G01*
G04 APERTURE LIST*
%TA.AperFunction,Profile*%
%ADD10C,0.381000*%
%TD*%
%ADD11C,0.152400*%
%ADD12C,0.050000*%
G04 APERTURE END LIST*
D10*
X164846000Y-93218000D02*
X164941000Y-109166000D01*
X164846000Y-74168000D02*
X164846000Y-88138000D01*
X164846000Y-56388000D02*
X164846000Y-69088000D01*
X168656000Y-56388000D02*
X164846000Y-56388000D01*
X187706000Y-104013000D02*
X188341000Y-117983000D01*
X168656000Y-104013000D02*
X187706000Y-104013000D01*
X168656000Y-93218000D02*
X168656000Y-104013000D01*
X164846000Y-93218000D02*
X168656000Y-93218000D01*
X187706000Y-88138000D02*
X164846000Y-88138000D01*
X187706000Y-84963000D02*
X187706000Y-88138000D01*
X168656000Y-84963000D02*
X187706000Y-84963000D01*
X168656000Y-74168000D02*
X168656000Y-84963000D01*
X164846000Y-74168000D02*
X168656000Y-74168000D01*
X186436000Y-69088000D02*
X164846000Y-69088000D01*
X186436000Y-66548000D02*
X186436000Y-69088000D01*
X168656000Y-66548000D02*
X186436000Y-66548000D01*
X168656000Y-56388000D02*
X168656000Y-66548000D01*
X164846000Y-51308000D02*
X164941000Y-22933000D01*
X168656000Y-51308000D02*
X164846000Y-51308000D01*
X169843200Y-109166000D02*
X188341000Y-117983000D01*
X191516000Y-119253000D02*
X202934320Y-124596500D01*
X191516000Y-51308000D02*
X191516000Y-119253000D01*
X168656000Y-51308000D02*
X191516000Y-51308000D01*
X21634200Y-22933000D02*
X21634200Y-130883000D01*
X137431000Y-19758000D02*
X134031000Y-19758000D01*
X137431000Y-19758000D02*
X149675600Y-19758000D01*
X132505200Y-19758000D02*
X134031000Y-19758000D01*
X24809200Y-19758000D02*
X84143600Y-19758000D01*
X84143600Y-17980000D02*
X95649800Y-17980000D01*
X84143600Y-19758000D02*
X84143600Y-17980000D01*
X95649800Y-17980000D02*
X95649800Y-19758000D01*
X95649800Y-19758000D02*
X132505200Y-19758000D01*
X149675600Y-19758000D02*
X161740600Y-19758000D01*
X161740600Y-19758000D02*
X164941000Y-22933000D01*
X100399600Y-140408000D02*
X31159200Y-140408000D01*
X31159200Y-140408000D02*
X21634200Y-130883000D01*
X21634200Y-22933000D02*
X24809200Y-19758000D01*
X164941000Y-109166000D02*
X169843200Y-109166000D01*
X202934320Y-124596500D02*
X204471020Y-128815440D01*
X204471020Y-128815440D02*
X182787040Y-175317760D01*
X182787040Y-175317760D02*
X178568100Y-176851920D01*
X178568100Y-176851920D02*
X100399600Y-140408000D01*
D11*
%TO.C,J103*%
X183730101Y-74083799D02*
X183730101Y-67310300D01*
X183730101Y-67310300D02*
X175221899Y-67310300D01*
X175221899Y-67310300D02*
X175221899Y-74083799D01*
X175221899Y-74083799D02*
X183730101Y-74083799D01*
D12*
%TO.C,J102*%
X184373500Y-57248000D02*
X184373500Y-54998000D01*
X184373500Y-54998000D02*
X185973500Y-54998000D01*
X185973500Y-54998000D02*
X185973500Y-51868000D01*
X185973500Y-51868000D02*
X184373500Y-51868000D01*
X184373500Y-51868000D02*
X184373500Y-50148000D01*
X184373500Y-50148000D02*
X176153500Y-50148000D01*
X176153500Y-50148000D02*
X176153500Y-51748000D01*
X176153500Y-51748000D02*
X174553500Y-51748000D01*
X174553500Y-51748000D02*
X174553500Y-54998000D01*
X174553500Y-54998000D02*
X176153500Y-54998000D01*
X176153500Y-54998000D02*
X176153500Y-57248000D01*
X176153500Y-57248000D02*
X174553500Y-57248000D01*
X174553500Y-57248000D02*
X174553500Y-60348000D01*
X174553500Y-60348000D02*
X177053500Y-60348000D01*
X177053500Y-60348000D02*
X177053500Y-59848000D01*
X177053500Y-59848000D02*
X178163500Y-59848000D01*
X178163500Y-59848000D02*
X178163500Y-60348000D01*
X178163500Y-60348000D02*
X182363500Y-60348000D01*
X182363500Y-60348000D02*
X182363500Y-59848000D01*
X182363500Y-59848000D02*
X183473500Y-59848000D01*
X183473500Y-59848000D02*
X183473500Y-60348000D01*
X183473500Y-60348000D02*
X185973500Y-60348000D01*
X185973500Y-60348000D02*
X185973500Y-57248000D01*
X185973500Y-57248000D02*
X184373500Y-57248000D01*
%TO.C,R8*%
X60826000Y-29748000D02*
X60826000Y-27248000D01*
X60826000Y-29748000D02*
X62226000Y-29748000D01*
X62226000Y-27248000D02*
X60826000Y-27248000D01*
X62226000Y-27248000D02*
X62226000Y-29748000D01*
%TO.C,R2*%
X88526000Y-28298000D02*
X91026000Y-28298000D01*
X88526000Y-28298000D02*
X88526000Y-29698000D01*
X91026000Y-29698000D02*
X91026000Y-28298000D01*
X91026000Y-29698000D02*
X88526000Y-29698000D01*
%TO.C,R1*%
X87526000Y-26298000D02*
X90026000Y-26298000D01*
X87526000Y-26298000D02*
X87526000Y-27698000D01*
X90026000Y-27698000D02*
X90026000Y-26298000D01*
X90026000Y-27698000D02*
X87526000Y-27698000D01*
%TO.C,Y1*%
X57776000Y-42348000D02*
X57776000Y-38948000D01*
X57776000Y-38948000D02*
X53576000Y-38948000D01*
X53576000Y-38948000D02*
X53576000Y-42348000D01*
X53576000Y-42348000D02*
X57776000Y-42348000D01*
%TO.C,R5*%
X71426000Y-30498000D02*
X73926000Y-30498000D01*
X71426000Y-30498000D02*
X71426000Y-31898000D01*
X73926000Y-31898000D02*
X73926000Y-30498000D01*
X73926000Y-31898000D02*
X71426000Y-31898000D01*
%TO.C,C6*%
X49126000Y-29598000D02*
X51926000Y-29598000D01*
X49126000Y-29598000D02*
X49126000Y-30898000D01*
X51926000Y-30898000D02*
X51926000Y-29598000D01*
X51926000Y-30898000D02*
X49126000Y-30898000D01*
%TO.C,C5*%
X64426000Y-37648000D02*
X61626000Y-37648000D01*
X64426000Y-37648000D02*
X64426000Y-36348000D01*
X61626000Y-36348000D02*
X61626000Y-37648000D01*
X61626000Y-36348000D02*
X64426000Y-36348000D01*
%TO.C,C4*%
X59426000Y-25348000D02*
X59426000Y-28148000D01*
X59426000Y-25348000D02*
X58126000Y-25348000D01*
X58126000Y-28148000D02*
X59426000Y-28148000D01*
X58126000Y-28148000D02*
X58126000Y-25348000D01*
%TO.C,C3*%
X48626000Y-32598000D02*
X51426000Y-32598000D01*
X48626000Y-32598000D02*
X48626000Y-33898000D01*
X51426000Y-33898000D02*
X51426000Y-32598000D01*
X51426000Y-33898000D02*
X48626000Y-33898000D01*
%TO.C,C2*%
X58126000Y-41898000D02*
X58126000Y-39098000D01*
X58126000Y-41898000D02*
X59426000Y-41898000D01*
X59426000Y-39098000D02*
X58126000Y-39098000D01*
X59426000Y-39098000D02*
X59426000Y-41898000D01*
%TO.C,C1*%
X52926000Y-39348000D02*
X52926000Y-42148000D01*
X52926000Y-39348000D02*
X51626000Y-39348000D01*
X51626000Y-42148000D02*
X52926000Y-42148000D01*
X51626000Y-42148000D02*
X51626000Y-39348000D01*
%TO.C,D5:9*%
X124626000Y-61648000D02*
X119926000Y-61648000D01*
X119926000Y-61648000D02*
X119926000Y-59348000D01*
X119926000Y-59348000D02*
X124626000Y-59348000D01*
X124626000Y-61648000D02*
X124626000Y-59348000D01*
%TO.C,U1*%
X52132250Y-29566750D02*
X52132250Y-37566750D01*
X60132250Y-29566750D02*
X60132250Y-37566750D01*
X52132250Y-29566750D02*
X60132250Y-29566750D01*
X52132250Y-37566750D02*
X60132250Y-37566750D01*
%TO.C,SW1*%
X44026000Y-44498000D02*
X44276000Y-44498000D01*
X44276000Y-44498000D02*
X44276000Y-44248000D01*
X44026000Y-36998000D02*
X44276000Y-36998000D01*
X44276000Y-36998000D02*
X44276000Y-37248000D01*
X34776000Y-37248000D02*
X34776000Y-36998000D01*
X34776000Y-36998000D02*
X35026000Y-36998000D01*
X34776000Y-44248000D02*
X34776000Y-44498000D01*
X34776000Y-44498000D02*
X35026000Y-44498000D01*
X35026000Y-36998000D02*
X44026000Y-36998000D01*
X34776000Y-44248000D02*
X34776000Y-37248000D01*
X44026000Y-44498000D02*
X35026000Y-44498000D01*
X44276000Y-37248000D02*
X44276000Y-44248000D01*
%TO.C,R10*%
X64026000Y-33698000D02*
X61526000Y-33698000D01*
X64026000Y-33698000D02*
X64026000Y-32298000D01*
X61526000Y-32298000D02*
X61526000Y-33698000D01*
X61526000Y-32298000D02*
X64026000Y-32298000D01*
%TO.C,R9*%
X64026000Y-35698000D02*
X61526000Y-35698000D01*
X64026000Y-35698000D02*
X64026000Y-34298000D01*
X61526000Y-34298000D02*
X61526000Y-35698000D01*
X61526000Y-34298000D02*
X64026000Y-34298000D01*
%TO.C,D5:13*%
X44626000Y-64648000D02*
X39926000Y-64648000D01*
X39926000Y-64648000D02*
X39926000Y-62348000D01*
X39926000Y-62348000D02*
X44626000Y-62348000D01*
X44626000Y-64648000D02*
X44626000Y-62348000D01*
%TO.C,D5:12*%
X68626000Y-64648000D02*
X63926000Y-64648000D01*
X63926000Y-64648000D02*
X63926000Y-62348000D01*
X63926000Y-62348000D02*
X68626000Y-62348000D01*
X68626000Y-64648000D02*
X68626000Y-62348000D01*
%TO.C,D5:11*%
X86626000Y-61648000D02*
X81926000Y-61648000D01*
X81926000Y-61648000D02*
X81926000Y-59348000D01*
X81926000Y-59348000D02*
X86626000Y-59348000D01*
X86626000Y-61648000D02*
X86626000Y-59348000D01*
%TO.C,D5:10*%
X105626000Y-59648000D02*
X100926000Y-59648000D01*
X100926000Y-59648000D02*
X100926000Y-57348000D01*
X100926000Y-57348000D02*
X105626000Y-57348000D01*
X105626000Y-59648000D02*
X105626000Y-57348000D01*
%TO.C,D5:8*%
X144626000Y-62648000D02*
X139926000Y-62648000D01*
X139926000Y-62648000D02*
X139926000Y-60348000D01*
X139926000Y-60348000D02*
X144626000Y-60348000D01*
X144626000Y-62648000D02*
X144626000Y-60348000D01*
%TO.C,D5:7*%
X161626000Y-62648000D02*
X156926000Y-62648000D01*
X156926000Y-62648000D02*
X156926000Y-60348000D01*
X156926000Y-60348000D02*
X161626000Y-60348000D01*
X161626000Y-62648000D02*
X161626000Y-60348000D01*
%TO.C,D4:13*%
X44276000Y-83648000D02*
X39576000Y-83648000D01*
X39576000Y-83648000D02*
X39576000Y-81348000D01*
X39576000Y-81348000D02*
X44276000Y-81348000D01*
X44276000Y-83648000D02*
X44276000Y-81348000D01*
%TO.C,D4:12*%
X68626000Y-83648000D02*
X63926000Y-83648000D01*
X63926000Y-83648000D02*
X63926000Y-81348000D01*
X63926000Y-81348000D02*
X68626000Y-81348000D01*
X68626000Y-83648000D02*
X68626000Y-81348000D01*
%TO.C,D4:11*%
X86626000Y-80648000D02*
X81926000Y-80648000D01*
X81926000Y-80648000D02*
X81926000Y-78348000D01*
X81926000Y-78348000D02*
X86626000Y-78348000D01*
X86626000Y-80648000D02*
X86626000Y-78348000D01*
%TO.C,D4:10*%
X106276000Y-78648000D02*
X101576000Y-78648000D01*
X101576000Y-78648000D02*
X101576000Y-76348000D01*
X101576000Y-76348000D02*
X106276000Y-76348000D01*
X106276000Y-78648000D02*
X106276000Y-76348000D01*
%TO.C,D4:9*%
X124626000Y-80648000D02*
X119926000Y-80648000D01*
X119926000Y-80648000D02*
X119926000Y-78348000D01*
X119926000Y-78348000D02*
X124626000Y-78348000D01*
X124626000Y-80648000D02*
X124626000Y-78348000D01*
%TO.C,D4:8*%
X144626000Y-81648000D02*
X139926000Y-81648000D01*
X139926000Y-81648000D02*
X139926000Y-79348000D01*
X139926000Y-79348000D02*
X144626000Y-79348000D01*
X144626000Y-81648000D02*
X144626000Y-79348000D01*
%TO.C,D4:7*%
X161626000Y-66648000D02*
X156926000Y-66648000D01*
X156926000Y-66648000D02*
X156926000Y-64348000D01*
X156926000Y-64348000D02*
X161626000Y-64348000D01*
X161626000Y-66648000D02*
X161626000Y-64348000D01*
%TO.C,D3:13*%
X44276000Y-102648000D02*
X39576000Y-102648000D01*
X39576000Y-102648000D02*
X39576000Y-100348000D01*
X39576000Y-100348000D02*
X44276000Y-100348000D01*
X44276000Y-102648000D02*
X44276000Y-100348000D01*
%TO.C,D3:12*%
X68626000Y-103148000D02*
X63926000Y-103148000D01*
X63926000Y-103148000D02*
X63926000Y-100848000D01*
X63926000Y-100848000D02*
X68626000Y-100848000D01*
X68626000Y-103148000D02*
X68626000Y-100848000D01*
%TO.C,D3:11*%
X86626000Y-98648000D02*
X81926000Y-98648000D01*
X81926000Y-98648000D02*
X81926000Y-96348000D01*
X81926000Y-96348000D02*
X86626000Y-96348000D01*
X86626000Y-98648000D02*
X86626000Y-96348000D01*
%TO.C,D3:10*%
X105626000Y-97648000D02*
X100926000Y-97648000D01*
X100926000Y-97648000D02*
X100926000Y-95348000D01*
X100926000Y-95348000D02*
X105626000Y-95348000D01*
X105626000Y-97648000D02*
X105626000Y-95348000D01*
%TO.C,D3:9*%
X124976000Y-99648000D02*
X120276000Y-99648000D01*
X120276000Y-99648000D02*
X120276000Y-97348000D01*
X120276000Y-97348000D02*
X124976000Y-97348000D01*
X124976000Y-99648000D02*
X124976000Y-97348000D01*
%TO.C,D3:8*%
X141626000Y-101648000D02*
X136926000Y-101648000D01*
X136926000Y-101648000D02*
X136926000Y-99348000D01*
X136926000Y-99348000D02*
X141626000Y-99348000D01*
X141626000Y-101648000D02*
X141626000Y-99348000D01*
%TO.C,D2:13*%
X42626000Y-121648000D02*
X37926000Y-121648000D01*
X37926000Y-121648000D02*
X37926000Y-119348000D01*
X37926000Y-119348000D02*
X42626000Y-119348000D01*
X42626000Y-121648000D02*
X42626000Y-119348000D01*
%TO.C,D2:12*%
X64626000Y-122648000D02*
X59926000Y-122648000D01*
X59926000Y-122648000D02*
X59926000Y-120348000D01*
X59926000Y-120348000D02*
X64626000Y-120348000D01*
X64626000Y-122648000D02*
X64626000Y-120348000D01*
%TO.C,D2:11*%
X83976000Y-118648000D02*
X79276000Y-118648000D01*
X79276000Y-118648000D02*
X79276000Y-116348000D01*
X79276000Y-116348000D02*
X83976000Y-116348000D01*
X83976000Y-118648000D02*
X83976000Y-116348000D01*
%TO.C,D2:10*%
X104276000Y-117648000D02*
X99576000Y-117648000D01*
X99576000Y-117648000D02*
X99576000Y-115348000D01*
X99576000Y-115348000D02*
X104276000Y-115348000D01*
X104276000Y-117648000D02*
X104276000Y-115348000D01*
%TO.C,D2:9*%
X122626000Y-118648000D02*
X117926000Y-118648000D01*
X117926000Y-118648000D02*
X117926000Y-116348000D01*
X117926000Y-116348000D02*
X122626000Y-116348000D01*
X122626000Y-118648000D02*
X122626000Y-116348000D01*
%TO.C,D2:8*%
X146426000Y-100148000D02*
X146426000Y-104848000D01*
X146426000Y-104848000D02*
X144126000Y-104848000D01*
X144126000Y-104848000D02*
X144126000Y-100148000D01*
X146426000Y-100148000D02*
X144126000Y-100148000D01*
%TO.C,D2:7*%
X161626000Y-94648000D02*
X156926000Y-94648000D01*
X156926000Y-94648000D02*
X156926000Y-92348000D01*
X156926000Y-92348000D02*
X161626000Y-92348000D01*
X161626000Y-94648000D02*
X161626000Y-92348000D01*
%TO.C,D1:13*%
X51426000Y-128498000D02*
X51426000Y-133198000D01*
X51426000Y-133198000D02*
X49126000Y-133198000D01*
X49126000Y-133198000D02*
X49126000Y-128498000D01*
X51426000Y-128498000D02*
X49126000Y-128498000D01*
%TO.C,D1:12*%
X69426000Y-130148000D02*
X69426000Y-134848000D01*
X69426000Y-134848000D02*
X67126000Y-134848000D01*
X67126000Y-134848000D02*
X67126000Y-130148000D01*
X69426000Y-130148000D02*
X67126000Y-130148000D01*
%TO.C,D1:11*%
X89426000Y-127648000D02*
X89426000Y-132348000D01*
X89426000Y-132348000D02*
X87126000Y-132348000D01*
X87126000Y-132348000D02*
X87126000Y-127648000D01*
X89426000Y-127648000D02*
X87126000Y-127648000D01*
%TO.C,D1:10*%
X108426000Y-125998000D02*
X108426000Y-130698000D01*
X108426000Y-130698000D02*
X106126000Y-130698000D01*
X106126000Y-130698000D02*
X106126000Y-125998000D01*
X108426000Y-125998000D02*
X106126000Y-125998000D01*
%TO.C,D1:9*%
X127426000Y-125148000D02*
X127426000Y-129848000D01*
X127426000Y-129848000D02*
X125126000Y-129848000D01*
X125126000Y-129848000D02*
X125126000Y-125148000D01*
X127426000Y-125148000D02*
X125126000Y-125148000D01*
%TO.C,D1:8*%
X163614087Y-127349596D02*
X161627781Y-131609242D01*
X161627781Y-131609242D02*
X159543273Y-130637220D01*
X159543273Y-130637220D02*
X161529579Y-126377574D01*
X163614087Y-127349596D02*
X161529579Y-126377574D01*
%TO.C,D1:7*%
X180311407Y-135854188D02*
X178325101Y-140113834D01*
X178325101Y-140113834D02*
X176240593Y-139141812D01*
X176240593Y-139141812D02*
X178226899Y-134882166D01*
X180311407Y-135854188D02*
X178226899Y-134882166D01*
%TO.C,D0:12*%
X122426000Y-137148000D02*
X122426000Y-141848000D01*
X122426000Y-141848000D02*
X120126000Y-141848000D01*
X120126000Y-141848000D02*
X120126000Y-137148000D01*
X122426000Y-137148000D02*
X120126000Y-137148000D01*
%TO.C,D0:11*%
X127426000Y-137148000D02*
X127426000Y-141848000D01*
X127426000Y-141848000D02*
X125126000Y-141848000D01*
X125126000Y-141848000D02*
X125126000Y-137148000D01*
X127426000Y-137148000D02*
X125126000Y-137148000D01*
%TO.C,D0:10*%
X132426000Y-137148000D02*
X132426000Y-141848000D01*
X132426000Y-141848000D02*
X130126000Y-141848000D01*
X130126000Y-141848000D02*
X130126000Y-137148000D01*
X132426000Y-137148000D02*
X130126000Y-137148000D01*
%TO.C,D0:9*%
X176632188Y-153462593D02*
X180891834Y-155448899D01*
X180891834Y-155448899D02*
X179919812Y-157533407D01*
X179919812Y-157533407D02*
X175660166Y-155547101D01*
X176632188Y-153462593D02*
X175660166Y-155547101D01*
%TO.C,D0:8*%
X162240593Y-125141812D02*
X164226899Y-120882166D01*
X164226899Y-120882166D02*
X166311407Y-121854188D01*
X166311407Y-121854188D02*
X164325101Y-126113834D01*
X162240593Y-125141812D02*
X164325101Y-126113834D01*
%TO.C,D0:7*%
X187136780Y-137765273D02*
X191396426Y-139751579D01*
X191396426Y-139751579D02*
X190424404Y-141836087D01*
X190424404Y-141836087D02*
X186164758Y-139849781D01*
X187136780Y-137765273D02*
X186164758Y-139849781D01*
%TO.C,R3*%
X74176000Y-37398000D02*
X71676000Y-37398000D01*
X74176000Y-37398000D02*
X74176000Y-35998000D01*
X71676000Y-35998000D02*
X71676000Y-37398000D01*
X71676000Y-35998000D02*
X74176000Y-35998000D01*
%TO.C,R4*%
X74176000Y-34898000D02*
X71676000Y-34898000D01*
X74176000Y-34898000D02*
X74176000Y-33498000D01*
X71676000Y-33498000D02*
X71676000Y-34898000D01*
X71676000Y-33498000D02*
X74176000Y-33498000D01*
%TO.C,LED_C1*%
X77926000Y-31848000D02*
X75026000Y-31848000D01*
X77926000Y-30548000D02*
X77926000Y-31848000D01*
X75026000Y-30548000D02*
X77926000Y-30548000D01*
X75026000Y-31848000D02*
X75026000Y-30548000D01*
%TO.C,LED_B1*%
X78126000Y-34848000D02*
X75226000Y-34848000D01*
X78126000Y-33548000D02*
X78126000Y-34848000D01*
X75226000Y-33548000D02*
X78126000Y-33548000D01*
X75226000Y-34848000D02*
X75226000Y-33548000D01*
%TO.C,LED_A1*%
X78126000Y-37348000D02*
X75226000Y-37348000D01*
X78126000Y-36048000D02*
X78126000Y-37348000D01*
X75226000Y-36048000D02*
X78126000Y-36048000D01*
X75226000Y-37348000D02*
X75226000Y-36048000D01*
%TD*%
M02*
