%TF.GenerationSoftware,KiCad,Pcbnew,5.1.7*%
%TF.CreationDate,2020-10-15T21:30:19-07:00*%
%TF.ProjectId,ErgoDOX_left,4572676f-444f-4585-9f6c-6566742e6b69,2.0.0*%
%TF.SameCoordinates,Original*%
%TF.FileFunction,Legend,Bot*%
%TF.FilePolarity,Positive*%
%FSLAX46Y46*%
G04 Gerber Fmt 4.6, Leading zero omitted, Abs format (unit mm)*
G04 Created by KiCad (PCBNEW 5.1.7) date 2020-10-15 21:30:19*
%MOMM*%
%LPD*%
G01*
G04 APERTURE LIST*
%TA.AperFunction,Profile*%
%ADD10C,0.381000*%
%TD*%
%ADD11C,2.032000*%
G04 APERTURE END LIST*
D10*
X164846000Y-93218000D02*
X164941000Y-109166000D01*
X164846000Y-74168000D02*
X164846000Y-88138000D01*
X164846000Y-56388000D02*
X164846000Y-69088000D01*
X168656000Y-56388000D02*
X164846000Y-56388000D01*
X187706000Y-104013000D02*
X188341000Y-117983000D01*
X168656000Y-104013000D02*
X187706000Y-104013000D01*
X168656000Y-93218000D02*
X168656000Y-104013000D01*
X164846000Y-93218000D02*
X168656000Y-93218000D01*
X187706000Y-88138000D02*
X164846000Y-88138000D01*
X187706000Y-84963000D02*
X187706000Y-88138000D01*
X168656000Y-84963000D02*
X187706000Y-84963000D01*
X168656000Y-74168000D02*
X168656000Y-84963000D01*
X164846000Y-74168000D02*
X168656000Y-74168000D01*
X186436000Y-69088000D02*
X164846000Y-69088000D01*
X186436000Y-66548000D02*
X186436000Y-69088000D01*
X168656000Y-66548000D02*
X186436000Y-66548000D01*
X168656000Y-56388000D02*
X168656000Y-66548000D01*
X164846000Y-51308000D02*
X164941000Y-22933000D01*
X168656000Y-51308000D02*
X164846000Y-51308000D01*
X169843200Y-109166000D02*
X188341000Y-117983000D01*
X191516000Y-119253000D02*
X202934320Y-124596500D01*
X191516000Y-51308000D02*
X191516000Y-119253000D01*
X168656000Y-51308000D02*
X191516000Y-51308000D01*
X21634200Y-22933000D02*
X21634200Y-130883000D01*
X137431000Y-19758000D02*
X134031000Y-19758000D01*
X137431000Y-19758000D02*
X149675600Y-19758000D01*
X132505200Y-19758000D02*
X134031000Y-19758000D01*
X24809200Y-19758000D02*
X84143600Y-19758000D01*
X84143600Y-17980000D02*
X95649800Y-17980000D01*
X84143600Y-19758000D02*
X84143600Y-17980000D01*
X95649800Y-17980000D02*
X95649800Y-19758000D01*
X95649800Y-19758000D02*
X132505200Y-19758000D01*
X149675600Y-19758000D02*
X161740600Y-19758000D01*
X161740600Y-19758000D02*
X164941000Y-22933000D01*
D11*
X161739428Y-36917428D02*
X157675428Y-36917428D01*
X155933714Y-41174952D02*
X161739428Y-41174952D01*
X161739428Y-33046952D01*
X155933714Y-33046952D01*
X150708571Y-41174952D02*
X150708571Y-35756285D01*
X150708571Y-37304476D02*
X150128000Y-36530380D01*
X149547428Y-36143333D01*
X148386285Y-35756285D01*
X147225142Y-35756285D01*
X137936000Y-35756285D02*
X137936000Y-42336095D01*
X138516571Y-43110190D01*
X139097142Y-43497238D01*
X140258285Y-43884285D01*
X142000000Y-43884285D01*
X143161142Y-43497238D01*
X137936000Y-40787904D02*
X139097142Y-41174952D01*
X141419428Y-41174952D01*
X142580571Y-40787904D01*
X143161142Y-40400857D01*
X143741714Y-39626761D01*
X143741714Y-37304476D01*
X143161142Y-36530380D01*
X142580571Y-36143333D01*
X141419428Y-35756285D01*
X139097142Y-35756285D01*
X137936000Y-36143333D01*
X130388571Y-41174952D02*
X131549714Y-40787904D01*
X132130285Y-40400857D01*
X132710857Y-39626761D01*
X132710857Y-37304476D01*
X132130285Y-36530380D01*
X131549714Y-36143333D01*
X130388571Y-35756285D01*
X128646857Y-35756285D01*
X127485714Y-36143333D01*
X126905142Y-36530380D01*
X126324571Y-37304476D01*
X126324571Y-39626761D01*
X126905142Y-40400857D01*
X127485714Y-40787904D01*
X128646857Y-41174952D01*
X130388571Y-41174952D01*
X121099428Y-41174952D02*
X121099428Y-33046952D01*
X118196571Y-33046952D01*
X116454857Y-33434000D01*
X115293714Y-34208095D01*
X114713142Y-34982190D01*
X114132571Y-36530380D01*
X114132571Y-37691523D01*
X114713142Y-39239714D01*
X115293714Y-40013809D01*
X116454857Y-40787904D01*
X118196571Y-41174952D01*
X121099428Y-41174952D01*
X107165714Y-41174952D02*
X108326857Y-40787904D01*
X108907428Y-40400857D01*
X109488000Y-39626761D01*
X109488000Y-37304476D01*
X108907428Y-36530380D01*
X108326857Y-36143333D01*
X107165714Y-35756285D01*
X105424000Y-35756285D01*
X104262857Y-36143333D01*
X103682285Y-36530380D01*
X103101714Y-37304476D01*
X103101714Y-39626761D01*
X103682285Y-40400857D01*
X104262857Y-40787904D01*
X105424000Y-41174952D01*
X107165714Y-41174952D01*
X99037714Y-41174952D02*
X92651428Y-35756285D01*
X99037714Y-35756285D02*
X92651428Y-41174952D01*
D10*
X100399600Y-140408000D02*
X31159200Y-140408000D01*
X31159200Y-140408000D02*
X21634200Y-130883000D01*
X21634200Y-22933000D02*
X24809200Y-19758000D01*
X164941000Y-109166000D02*
X169843200Y-109166000D01*
X202934320Y-124596500D02*
X204471020Y-128815440D01*
X204471020Y-128815440D02*
X182787040Y-175317760D01*
X182787040Y-175317760D02*
X178568100Y-176851920D01*
X178568100Y-176851920D02*
X100399600Y-140408000D01*
M02*
