%TF.GenerationSoftware,KiCad,Pcbnew,5.1.7*%
%TF.CreationDate,2020-10-12T11:44:49-07:00*%
%TF.ProjectId,ErgoDOX_left,4572676f-444f-4585-9f6c-6566742e6b69,2.0.0*%
%TF.SameCoordinates,Original*%
%TF.FileFunction,Other,Comment*%
%FSLAX46Y46*%
G04 Gerber Fmt 4.6, Leading zero omitted, Abs format (unit mm)*
G04 Created by KiCad (PCBNEW 5.1.7) date 2020-10-12 11:44:49*
%MOMM*%
%LPD*%
G01*
G04 APERTURE LIST*
%TA.AperFunction,Profile*%
%ADD10C,0.381000*%
%TD*%
%ADD11C,0.381000*%
%ADD12C,0.002000*%
G04 APERTURE END LIST*
D10*
X164846000Y-93218000D02*
X164941000Y-109166000D01*
X164846000Y-74168000D02*
X164846000Y-88138000D01*
X164846000Y-56388000D02*
X164846000Y-69088000D01*
X168656000Y-56388000D02*
X164846000Y-56388000D01*
X187706000Y-104013000D02*
X188341000Y-117983000D01*
X168656000Y-104013000D02*
X187706000Y-104013000D01*
X168656000Y-93218000D02*
X168656000Y-104013000D01*
X164846000Y-93218000D02*
X168656000Y-93218000D01*
X187706000Y-88138000D02*
X164846000Y-88138000D01*
X187706000Y-84963000D02*
X187706000Y-88138000D01*
X168656000Y-84963000D02*
X187706000Y-84963000D01*
X168656000Y-74168000D02*
X168656000Y-84963000D01*
X164846000Y-74168000D02*
X168656000Y-74168000D01*
X186436000Y-69088000D02*
X164846000Y-69088000D01*
X186436000Y-66548000D02*
X186436000Y-69088000D01*
X168656000Y-66548000D02*
X186436000Y-66548000D01*
X168656000Y-56388000D02*
X168656000Y-66548000D01*
X164846000Y-51308000D02*
X164941000Y-22933000D01*
X168656000Y-51308000D02*
X164846000Y-51308000D01*
X169843200Y-109166000D02*
X188341000Y-117983000D01*
X191516000Y-119253000D02*
X202934320Y-124596500D01*
X191516000Y-51308000D02*
X191516000Y-119253000D01*
X168656000Y-51308000D02*
X191516000Y-51308000D01*
X21634200Y-22933000D02*
X21634200Y-130883000D01*
X137431000Y-19758000D02*
X134031000Y-19758000D01*
X137431000Y-19758000D02*
X149675600Y-19758000D01*
X132505200Y-19758000D02*
X134031000Y-19758000D01*
X24809200Y-19758000D02*
X84143600Y-19758000D01*
X84143600Y-17980000D02*
X95649800Y-17980000D01*
X84143600Y-19758000D02*
X84143600Y-17980000D01*
X95649800Y-17980000D02*
X95649800Y-19758000D01*
X95649800Y-19758000D02*
X132505200Y-19758000D01*
X149675600Y-19758000D02*
X161740600Y-19758000D01*
X161740600Y-19758000D02*
X164941000Y-22933000D01*
X100399600Y-140408000D02*
X31159200Y-140408000D01*
X31159200Y-140408000D02*
X21634200Y-130883000D01*
X21634200Y-22933000D02*
X24809200Y-19758000D01*
X164941000Y-109166000D02*
X169843200Y-109166000D01*
X202934320Y-124596500D02*
X204471020Y-128815440D01*
X204471020Y-128815440D02*
X182787040Y-175317760D01*
X182787040Y-175317760D02*
X178568100Y-176851920D01*
X178568100Y-176851920D02*
X100399600Y-140408000D01*
D11*
%TO.C,SW1:9*%
X123412000Y-133848000D02*
X110712000Y-133848000D01*
X110712000Y-133848000D02*
X110712000Y-121148000D01*
X110712000Y-121148000D02*
X123412000Y-121148000D01*
X123412000Y-121148000D02*
X123412000Y-133848000D01*
%TO.C,SW5:13*%
X42449500Y-60855200D02*
X29749500Y-60855200D01*
X29749500Y-60855200D02*
X29749500Y-48155200D01*
X29749500Y-48155200D02*
X42449500Y-48155200D01*
X42449500Y-48155200D02*
X42449500Y-60855200D01*
%TO.C,SX1:7*%
X170608308Y-148422500D02*
X159098200Y-143055248D01*
X159098200Y-143055248D02*
X164465452Y-131545140D01*
X164465452Y-131545140D02*
X175975560Y-136912392D01*
X175975560Y-136912392D02*
X170608308Y-148422500D01*
%TO.C,SW3:13*%
X42449500Y-98952660D02*
X29749500Y-98952660D01*
X29749500Y-98952660D02*
X29749500Y-86252660D01*
X29749500Y-86252660D02*
X42449500Y-86252660D01*
X42449500Y-86252660D02*
X42449500Y-98952660D01*
%TO.C,SW2:9*%
X123412000Y-114827660D02*
X110712000Y-114827660D01*
X110712000Y-114827660D02*
X110712000Y-102127660D01*
X110712000Y-102127660D02*
X123412000Y-102127660D01*
X123412000Y-102127660D02*
X123412000Y-114827660D01*
%TO.C,SW2:10*%
X104362000Y-113230000D02*
X91662000Y-113230000D01*
X91662000Y-113230000D02*
X91662000Y-100530000D01*
X91662000Y-100530000D02*
X104362000Y-100530000D01*
X104362000Y-100530000D02*
X104362000Y-113230000D01*
%TO.C,SW3:9*%
X123412000Y-95777660D02*
X110712000Y-95777660D01*
X110712000Y-95777660D02*
X110712000Y-83077660D01*
X110712000Y-83077660D02*
X123412000Y-83077660D01*
X123412000Y-83077660D02*
X123412000Y-95777660D01*
%TO.C,SW2:11*%
X85312000Y-114827660D02*
X72612000Y-114827660D01*
X72612000Y-114827660D02*
X72612000Y-102127660D01*
X72612000Y-102127660D02*
X85312000Y-102127660D01*
X85312000Y-102127660D02*
X85312000Y-114827660D01*
%TO.C,SW3:10*%
X104362000Y-94180000D02*
X91662000Y-94180000D01*
X91662000Y-94180000D02*
X91662000Y-81480000D01*
X91662000Y-81480000D02*
X104362000Y-81480000D01*
X104362000Y-81480000D02*
X104362000Y-94180000D01*
%TO.C,SW3:11*%
X85312000Y-95777660D02*
X72612000Y-95777660D01*
X72612000Y-95777660D02*
X72612000Y-83077660D01*
X72612000Y-83077660D02*
X85312000Y-83077660D01*
X85312000Y-83077660D02*
X85312000Y-95777660D01*
%TO.C,SW1:11*%
X85312000Y-133848000D02*
X72612000Y-133848000D01*
X72612000Y-133848000D02*
X72612000Y-121148000D01*
X72612000Y-121148000D02*
X85312000Y-121148000D01*
X85312000Y-121148000D02*
X85312000Y-133848000D01*
%TO.C,SW1:10*%
X104362000Y-132280000D02*
X91662000Y-132280000D01*
X91662000Y-132280000D02*
X91662000Y-119580000D01*
X91662000Y-119580000D02*
X104362000Y-119580000D01*
X104362000Y-119580000D02*
X104362000Y-132280000D01*
%TO.C,SX1:8*%
X153343928Y-140370700D02*
X141833820Y-135003448D01*
X141833820Y-135003448D02*
X147201072Y-123493340D01*
X147201072Y-123493340D02*
X158711180Y-128860592D01*
X158711180Y-128860592D02*
X153343928Y-140370700D01*
%TO.C,SW5:12*%
X66262000Y-60855200D02*
X53562000Y-60855200D01*
X53562000Y-60855200D02*
X53562000Y-48155200D01*
X53562000Y-48155200D02*
X66262000Y-48155200D01*
X66262000Y-48155200D02*
X66262000Y-60855200D01*
%TO.C,SW5:11*%
X85312000Y-57677660D02*
X72612000Y-57677660D01*
X72612000Y-57677660D02*
X72612000Y-44977660D01*
X72612000Y-44977660D02*
X85312000Y-44977660D01*
X85312000Y-44977660D02*
X85312000Y-57677660D01*
%TO.C,SW5:10*%
X104362000Y-56080000D02*
X91662000Y-56080000D01*
X91662000Y-56080000D02*
X91662000Y-43380000D01*
X91662000Y-43380000D02*
X104362000Y-43380000D01*
X104362000Y-43380000D02*
X104362000Y-56080000D01*
%TO.C,SW5:9*%
X123412000Y-57677660D02*
X110712000Y-57677660D01*
X110712000Y-57677660D02*
X110712000Y-44977660D01*
X110712000Y-44977660D02*
X123412000Y-44977660D01*
X123412000Y-44977660D02*
X123412000Y-57677660D01*
%TO.C,SW5:8*%
X142462000Y-58950200D02*
X129762000Y-58950200D01*
X129762000Y-58950200D02*
X129762000Y-46250200D01*
X129762000Y-46250200D02*
X142462000Y-46250200D01*
X142462000Y-46250200D02*
X142462000Y-58950200D01*
%TO.C,SW5:7*%
X161512000Y-58950200D02*
X148812000Y-58950200D01*
X148812000Y-58950200D02*
X148812000Y-46250200D01*
X148812000Y-46250200D02*
X161512000Y-46250200D01*
X161512000Y-46250200D02*
X161512000Y-58950200D01*
%TO.C,SW4:13*%
X42449500Y-79902660D02*
X29749500Y-79902660D01*
X29749500Y-79902660D02*
X29749500Y-67202660D01*
X29749500Y-67202660D02*
X42449500Y-67202660D01*
X42449500Y-67202660D02*
X42449500Y-79902660D01*
%TO.C,SW4:12*%
X66262000Y-79902660D02*
X53562000Y-79902660D01*
X53562000Y-79902660D02*
X53562000Y-67202660D01*
X53562000Y-67202660D02*
X66262000Y-67202660D01*
X66262000Y-67202660D02*
X66262000Y-79902660D01*
%TO.C,SW4:11*%
X85312000Y-76727660D02*
X72612000Y-76727660D01*
X72612000Y-76727660D02*
X72612000Y-64027660D01*
X72612000Y-64027660D02*
X85312000Y-64027660D01*
X85312000Y-64027660D02*
X85312000Y-76727660D01*
%TO.C,SW4:10*%
X104362000Y-75130000D02*
X91662000Y-75130000D01*
X91662000Y-75130000D02*
X91662000Y-62430000D01*
X91662000Y-62430000D02*
X104362000Y-62430000D01*
X104362000Y-62430000D02*
X104362000Y-75130000D01*
%TO.C,SW4:9*%
X123412000Y-76727660D02*
X110712000Y-76727660D01*
X110712000Y-76727660D02*
X110712000Y-64027660D01*
X110712000Y-64027660D02*
X123412000Y-64027660D01*
X123412000Y-64027660D02*
X123412000Y-76727660D01*
%TO.C,SW4:8*%
X142462000Y-77997660D02*
X129762000Y-77997660D01*
X129762000Y-77997660D02*
X129762000Y-65297660D01*
X129762000Y-65297660D02*
X142462000Y-65297660D01*
X142462000Y-65297660D02*
X142462000Y-77997660D01*
%TO.C,SW4:7*%
X161512000Y-70060160D02*
X161512000Y-82760160D01*
X161512000Y-82760160D02*
X148812000Y-82760160D01*
X148812000Y-82760160D02*
X148812000Y-70060160D01*
X148812000Y-70060160D02*
X161512000Y-70060160D01*
%TO.C,SW3:12*%
X66262000Y-98952660D02*
X53562000Y-98952660D01*
X53562000Y-98952660D02*
X53562000Y-86252660D01*
X53562000Y-86252660D02*
X66262000Y-86252660D01*
X66262000Y-86252660D02*
X66262000Y-98952660D01*
%TO.C,SW3:8*%
X142462000Y-97047660D02*
X129762000Y-97047660D01*
X129762000Y-97047660D02*
X129762000Y-84347660D01*
X129762000Y-84347660D02*
X142462000Y-84347660D01*
X142462000Y-84347660D02*
X142462000Y-97047660D01*
%TO.C,SW2:13*%
X42449500Y-118002660D02*
X29749500Y-118002660D01*
X29749500Y-118002660D02*
X29749500Y-105302660D01*
X29749500Y-105302660D02*
X42449500Y-105302660D01*
X42449500Y-105302660D02*
X42449500Y-118002660D01*
%TO.C,SW2:12*%
X66262000Y-118002660D02*
X53562000Y-118002660D01*
X53562000Y-118002660D02*
X53562000Y-105302660D01*
X53562000Y-105302660D02*
X66262000Y-105302660D01*
X66262000Y-105302660D02*
X66262000Y-118002660D01*
%TO.C,SW2:8*%
X142462000Y-116097660D02*
X129762000Y-116097660D01*
X129762000Y-116097660D02*
X129762000Y-103397660D01*
X129762000Y-103397660D02*
X142462000Y-103397660D01*
X142462000Y-103397660D02*
X142462000Y-116097660D01*
%TO.C,SW2:7*%
X161512000Y-98635160D02*
X161512000Y-111335160D01*
X161512000Y-111335160D02*
X148812000Y-111335160D01*
X148812000Y-111335160D02*
X148812000Y-98635160D01*
X148812000Y-98635160D02*
X161512000Y-98635160D01*
%TO.C,SW1:13*%
X47212000Y-137052660D02*
X34512000Y-137052660D01*
X34512000Y-137052660D02*
X34512000Y-124352660D01*
X34512000Y-124352660D02*
X47212000Y-124352660D01*
X47212000Y-124352660D02*
X47212000Y-137052660D01*
%TO.C,SW1:12*%
X66262000Y-137052660D02*
X53562000Y-137052660D01*
X53562000Y-137052660D02*
X53562000Y-124352660D01*
X53562000Y-124352660D02*
X66262000Y-124352660D01*
X66262000Y-124352660D02*
X66262000Y-137052660D01*
%TO.C,SW0:12*%
X179823428Y-173738680D02*
X168313320Y-168371428D01*
X168313320Y-168371428D02*
X173680572Y-156861320D01*
X173680572Y-156861320D02*
X185190680Y-162228572D01*
X185190680Y-162228572D02*
X179823428Y-173738680D01*
%TO.C,SW0:11*%
X163347428Y-165436680D02*
X151837320Y-160069428D01*
X151837320Y-160069428D02*
X157204572Y-148559320D01*
X157204572Y-148559320D02*
X168714680Y-153926572D01*
X168714680Y-153926572D02*
X163347428Y-165436680D01*
%TO.C,SW0:10*%
X145347428Y-157436680D02*
X133837320Y-152069428D01*
X133837320Y-152069428D02*
X139204572Y-140559320D01*
X139204572Y-140559320D02*
X150714680Y-145926572D01*
X150714680Y-145926572D02*
X145347428Y-157436680D01*
%TO.C,SW0:9*%
X187875228Y-156471760D02*
X176365120Y-151104508D01*
X176365120Y-151104508D02*
X181732372Y-139594400D01*
X181732372Y-139594400D02*
X193242480Y-144961652D01*
X193242480Y-144961652D02*
X187875228Y-156471760D01*
%TO.C,SW0:8*%
X178660108Y-131158120D02*
X167150000Y-125790868D01*
X167150000Y-125790868D02*
X172517252Y-114280760D01*
X172517252Y-114280760D02*
X184027360Y-119648012D01*
X184027360Y-119648012D02*
X178660108Y-131158120D01*
%TO.C,SW0:7*%
X195924488Y-139207380D02*
X184414380Y-133840128D01*
X184414380Y-133840128D02*
X189781632Y-122330020D01*
X189781632Y-122330020D02*
X201291740Y-127697272D01*
X201291740Y-127697272D02*
X195924488Y-139207380D01*
%TD*%
%TO.C,J103*%
D12*
X176830166Y-70543357D02*
X176824119Y-70549404D01*
X176805976Y-70555452D01*
X176793880Y-70555452D01*
X176775738Y-70549404D01*
X176763642Y-70537309D01*
X176757595Y-70525214D01*
X176751547Y-70501023D01*
X176751547Y-70482880D01*
X176757595Y-70458690D01*
X176763642Y-70446595D01*
X176775738Y-70434500D01*
X176793880Y-70428452D01*
X176805976Y-70428452D01*
X176824119Y-70434500D01*
X176830166Y-70440547D01*
X176902738Y-70555452D02*
X176890642Y-70549404D01*
X176884595Y-70543357D01*
X176878547Y-70531261D01*
X176878547Y-70494976D01*
X176884595Y-70482880D01*
X176890642Y-70476833D01*
X176902738Y-70470785D01*
X176920880Y-70470785D01*
X176932976Y-70476833D01*
X176939023Y-70482880D01*
X176945071Y-70494976D01*
X176945071Y-70531261D01*
X176939023Y-70543357D01*
X176932976Y-70549404D01*
X176920880Y-70555452D01*
X176902738Y-70555452D01*
X176999500Y-70470785D02*
X176999500Y-70597785D01*
X176999500Y-70476833D02*
X177011595Y-70470785D01*
X177035785Y-70470785D01*
X177047880Y-70476833D01*
X177053928Y-70482880D01*
X177059976Y-70494976D01*
X177059976Y-70531261D01*
X177053928Y-70543357D01*
X177047880Y-70549404D01*
X177035785Y-70555452D01*
X177011595Y-70555452D01*
X176999500Y-70549404D01*
X177102309Y-70470785D02*
X177132547Y-70555452D01*
X177162785Y-70470785D02*
X177132547Y-70555452D01*
X177120452Y-70585690D01*
X177114404Y-70591738D01*
X177102309Y-70597785D01*
X177211166Y-70555452D02*
X177211166Y-70470785D01*
X177211166Y-70494976D02*
X177217214Y-70482880D01*
X177223261Y-70476833D01*
X177235357Y-70470785D01*
X177247452Y-70470785D01*
X177289785Y-70555452D02*
X177289785Y-70470785D01*
X177289785Y-70428452D02*
X177283738Y-70434500D01*
X177289785Y-70440547D01*
X177295833Y-70434500D01*
X177289785Y-70428452D01*
X177289785Y-70440547D01*
X177404690Y-70470785D02*
X177404690Y-70573595D01*
X177398642Y-70585690D01*
X177392595Y-70591738D01*
X177380500Y-70597785D01*
X177362357Y-70597785D01*
X177350261Y-70591738D01*
X177404690Y-70549404D02*
X177392595Y-70555452D01*
X177368404Y-70555452D01*
X177356309Y-70549404D01*
X177350261Y-70543357D01*
X177344214Y-70531261D01*
X177344214Y-70494976D01*
X177350261Y-70482880D01*
X177356309Y-70476833D01*
X177368404Y-70470785D01*
X177392595Y-70470785D01*
X177404690Y-70476833D01*
X177465166Y-70555452D02*
X177465166Y-70428452D01*
X177519595Y-70555452D02*
X177519595Y-70488928D01*
X177513547Y-70476833D01*
X177501452Y-70470785D01*
X177483309Y-70470785D01*
X177471214Y-70476833D01*
X177465166Y-70482880D01*
X177561928Y-70470785D02*
X177610309Y-70470785D01*
X177580071Y-70428452D02*
X177580071Y-70537309D01*
X177586119Y-70549404D01*
X177598214Y-70555452D01*
X177610309Y-70555452D01*
X177743357Y-70440547D02*
X177749404Y-70434500D01*
X177761500Y-70428452D01*
X177791738Y-70428452D01*
X177803833Y-70434500D01*
X177809880Y-70440547D01*
X177815928Y-70452642D01*
X177815928Y-70464738D01*
X177809880Y-70482880D01*
X177737309Y-70555452D01*
X177815928Y-70555452D01*
X177894547Y-70428452D02*
X177906642Y-70428452D01*
X177918738Y-70434500D01*
X177924785Y-70440547D01*
X177930833Y-70452642D01*
X177936880Y-70476833D01*
X177936880Y-70507071D01*
X177930833Y-70531261D01*
X177924785Y-70543357D01*
X177918738Y-70549404D01*
X177906642Y-70555452D01*
X177894547Y-70555452D01*
X177882452Y-70549404D01*
X177876404Y-70543357D01*
X177870357Y-70531261D01*
X177864309Y-70507071D01*
X177864309Y-70476833D01*
X177870357Y-70452642D01*
X177876404Y-70440547D01*
X177882452Y-70434500D01*
X177894547Y-70428452D01*
X178057833Y-70555452D02*
X177985261Y-70555452D01*
X178021547Y-70555452D02*
X178021547Y-70428452D01*
X178009452Y-70446595D01*
X177997357Y-70458690D01*
X177985261Y-70464738D01*
X178166690Y-70428452D02*
X178142500Y-70428452D01*
X178130404Y-70434500D01*
X178124357Y-70440547D01*
X178112261Y-70458690D01*
X178106214Y-70482880D01*
X178106214Y-70531261D01*
X178112261Y-70543357D01*
X178118309Y-70549404D01*
X178130404Y-70555452D01*
X178154595Y-70555452D01*
X178166690Y-70549404D01*
X178172738Y-70543357D01*
X178178785Y-70531261D01*
X178178785Y-70501023D01*
X178172738Y-70488928D01*
X178166690Y-70482880D01*
X178154595Y-70476833D01*
X178130404Y-70476833D01*
X178118309Y-70482880D01*
X178112261Y-70488928D01*
X178106214Y-70501023D01*
X178323928Y-70519166D02*
X178384404Y-70519166D01*
X178311833Y-70555452D02*
X178354166Y-70428452D01*
X178396500Y-70555452D01*
X178493261Y-70549404D02*
X178481166Y-70555452D01*
X178456976Y-70555452D01*
X178444880Y-70549404D01*
X178438833Y-70543357D01*
X178432785Y-70531261D01*
X178432785Y-70494976D01*
X178438833Y-70482880D01*
X178444880Y-70476833D01*
X178456976Y-70470785D01*
X178481166Y-70470785D01*
X178493261Y-70476833D01*
X178602119Y-70549404D02*
X178590023Y-70555452D01*
X178565833Y-70555452D01*
X178553738Y-70549404D01*
X178547690Y-70543357D01*
X178541642Y-70531261D01*
X178541642Y-70494976D01*
X178547690Y-70482880D01*
X178553738Y-70476833D01*
X178565833Y-70470785D01*
X178590023Y-70470785D01*
X178602119Y-70476833D01*
X178704928Y-70549404D02*
X178692833Y-70555452D01*
X178668642Y-70555452D01*
X178656547Y-70549404D01*
X178650500Y-70537309D01*
X178650500Y-70488928D01*
X178656547Y-70476833D01*
X178668642Y-70470785D01*
X178692833Y-70470785D01*
X178704928Y-70476833D01*
X178710976Y-70488928D01*
X178710976Y-70501023D01*
X178650500Y-70513119D01*
X178783547Y-70555452D02*
X178771452Y-70549404D01*
X178765404Y-70537309D01*
X178765404Y-70428452D01*
X178880309Y-70549404D02*
X178868214Y-70555452D01*
X178844023Y-70555452D01*
X178831928Y-70549404D01*
X178825880Y-70537309D01*
X178825880Y-70488928D01*
X178831928Y-70476833D01*
X178844023Y-70470785D01*
X178868214Y-70470785D01*
X178880309Y-70476833D01*
X178886357Y-70488928D01*
X178886357Y-70501023D01*
X178825880Y-70513119D01*
X178940785Y-70555452D02*
X178940785Y-70470785D01*
X178940785Y-70494976D02*
X178946833Y-70482880D01*
X178952880Y-70476833D01*
X178964976Y-70470785D01*
X178977071Y-70470785D01*
X179073833Y-70555452D02*
X179073833Y-70488928D01*
X179067785Y-70476833D01*
X179055690Y-70470785D01*
X179031500Y-70470785D01*
X179019404Y-70476833D01*
X179073833Y-70549404D02*
X179061738Y-70555452D01*
X179031500Y-70555452D01*
X179019404Y-70549404D01*
X179013357Y-70537309D01*
X179013357Y-70525214D01*
X179019404Y-70513119D01*
X179031500Y-70507071D01*
X179061738Y-70507071D01*
X179073833Y-70501023D01*
X179116166Y-70470785D02*
X179164547Y-70470785D01*
X179134309Y-70428452D02*
X179134309Y-70537309D01*
X179140357Y-70549404D01*
X179152452Y-70555452D01*
X179164547Y-70555452D01*
X179255261Y-70549404D02*
X179243166Y-70555452D01*
X179218976Y-70555452D01*
X179206880Y-70549404D01*
X179200833Y-70537309D01*
X179200833Y-70488928D01*
X179206880Y-70476833D01*
X179218976Y-70470785D01*
X179243166Y-70470785D01*
X179255261Y-70476833D01*
X179261309Y-70488928D01*
X179261309Y-70501023D01*
X179200833Y-70513119D01*
X179370166Y-70555452D02*
X179370166Y-70428452D01*
X179370166Y-70549404D02*
X179358071Y-70555452D01*
X179333880Y-70555452D01*
X179321785Y-70549404D01*
X179315738Y-70543357D01*
X179309690Y-70531261D01*
X179309690Y-70494976D01*
X179315738Y-70482880D01*
X179321785Y-70476833D01*
X179333880Y-70470785D01*
X179358071Y-70470785D01*
X179370166Y-70476833D01*
X179527404Y-70555452D02*
X179527404Y-70428452D01*
X179557642Y-70428452D01*
X179575785Y-70434500D01*
X179587880Y-70446595D01*
X179593928Y-70458690D01*
X179599976Y-70482880D01*
X179599976Y-70501023D01*
X179593928Y-70525214D01*
X179587880Y-70537309D01*
X179575785Y-70549404D01*
X179557642Y-70555452D01*
X179527404Y-70555452D01*
X179702785Y-70549404D02*
X179690690Y-70555452D01*
X179666500Y-70555452D01*
X179654404Y-70549404D01*
X179648357Y-70537309D01*
X179648357Y-70488928D01*
X179654404Y-70476833D01*
X179666500Y-70470785D01*
X179690690Y-70470785D01*
X179702785Y-70476833D01*
X179708833Y-70488928D01*
X179708833Y-70501023D01*
X179648357Y-70513119D01*
X179757214Y-70549404D02*
X179769309Y-70555452D01*
X179793500Y-70555452D01*
X179805595Y-70549404D01*
X179811642Y-70537309D01*
X179811642Y-70531261D01*
X179805595Y-70519166D01*
X179793500Y-70513119D01*
X179775357Y-70513119D01*
X179763261Y-70507071D01*
X179757214Y-70494976D01*
X179757214Y-70488928D01*
X179763261Y-70476833D01*
X179775357Y-70470785D01*
X179793500Y-70470785D01*
X179805595Y-70476833D01*
X179866071Y-70555452D02*
X179866071Y-70470785D01*
X179866071Y-70428452D02*
X179860023Y-70434500D01*
X179866071Y-70440547D01*
X179872119Y-70434500D01*
X179866071Y-70428452D01*
X179866071Y-70440547D01*
X179980976Y-70470785D02*
X179980976Y-70573595D01*
X179974928Y-70585690D01*
X179968880Y-70591738D01*
X179956785Y-70597785D01*
X179938642Y-70597785D01*
X179926547Y-70591738D01*
X179980976Y-70549404D02*
X179968880Y-70555452D01*
X179944690Y-70555452D01*
X179932595Y-70549404D01*
X179926547Y-70543357D01*
X179920500Y-70531261D01*
X179920500Y-70494976D01*
X179926547Y-70482880D01*
X179932595Y-70476833D01*
X179944690Y-70470785D01*
X179968880Y-70470785D01*
X179980976Y-70476833D01*
X180041452Y-70470785D02*
X180041452Y-70555452D01*
X180041452Y-70482880D02*
X180047500Y-70476833D01*
X180059595Y-70470785D01*
X180077738Y-70470785D01*
X180089833Y-70476833D01*
X180095880Y-70488928D01*
X180095880Y-70555452D01*
X180150309Y-70549404D02*
X180162404Y-70555452D01*
X180186595Y-70555452D01*
X180198690Y-70549404D01*
X180204738Y-70537309D01*
X180204738Y-70531261D01*
X180198690Y-70519166D01*
X180186595Y-70513119D01*
X180168452Y-70513119D01*
X180156357Y-70507071D01*
X180150309Y-70494976D01*
X180150309Y-70488928D01*
X180156357Y-70476833D01*
X180168452Y-70470785D01*
X180186595Y-70470785D01*
X180198690Y-70476833D01*
X180259166Y-70543357D02*
X180265214Y-70549404D01*
X180259166Y-70555452D01*
X180253119Y-70549404D01*
X180259166Y-70543357D01*
X180259166Y-70555452D01*
X180410357Y-70519166D02*
X180470833Y-70519166D01*
X180398261Y-70555452D02*
X180440595Y-70428452D01*
X180482928Y-70555452D01*
X180543404Y-70555452D02*
X180531309Y-70549404D01*
X180525261Y-70537309D01*
X180525261Y-70428452D01*
X180609928Y-70555452D02*
X180597833Y-70549404D01*
X180591785Y-70537309D01*
X180591785Y-70428452D01*
X180755071Y-70555452D02*
X180755071Y-70470785D01*
X180755071Y-70494976D02*
X180761119Y-70482880D01*
X180767166Y-70476833D01*
X180779261Y-70470785D01*
X180791357Y-70470785D01*
X180833690Y-70555452D02*
X180833690Y-70470785D01*
X180833690Y-70428452D02*
X180827642Y-70434500D01*
X180833690Y-70440547D01*
X180839738Y-70434500D01*
X180833690Y-70428452D01*
X180833690Y-70440547D01*
X180948595Y-70470785D02*
X180948595Y-70573595D01*
X180942547Y-70585690D01*
X180936500Y-70591738D01*
X180924404Y-70597785D01*
X180906261Y-70597785D01*
X180894166Y-70591738D01*
X180948595Y-70549404D02*
X180936500Y-70555452D01*
X180912309Y-70555452D01*
X180900214Y-70549404D01*
X180894166Y-70543357D01*
X180888119Y-70531261D01*
X180888119Y-70494976D01*
X180894166Y-70482880D01*
X180900214Y-70476833D01*
X180912309Y-70470785D01*
X180936500Y-70470785D01*
X180948595Y-70476833D01*
X181009071Y-70555452D02*
X181009071Y-70428452D01*
X181063500Y-70555452D02*
X181063500Y-70488928D01*
X181057452Y-70476833D01*
X181045357Y-70470785D01*
X181027214Y-70470785D01*
X181015119Y-70476833D01*
X181009071Y-70482880D01*
X181105833Y-70470785D02*
X181154214Y-70470785D01*
X181123976Y-70428452D02*
X181123976Y-70537309D01*
X181130023Y-70549404D01*
X181142119Y-70555452D01*
X181154214Y-70555452D01*
X181190500Y-70549404D02*
X181202595Y-70555452D01*
X181226785Y-70555452D01*
X181238880Y-70549404D01*
X181244928Y-70537309D01*
X181244928Y-70531261D01*
X181238880Y-70519166D01*
X181226785Y-70513119D01*
X181208642Y-70513119D01*
X181196547Y-70507071D01*
X181190500Y-70494976D01*
X181190500Y-70488928D01*
X181196547Y-70476833D01*
X181208642Y-70470785D01*
X181226785Y-70470785D01*
X181238880Y-70476833D01*
X181396119Y-70555452D02*
X181396119Y-70470785D01*
X181396119Y-70494976D02*
X181402166Y-70482880D01*
X181408214Y-70476833D01*
X181420309Y-70470785D01*
X181432404Y-70470785D01*
X181523119Y-70549404D02*
X181511023Y-70555452D01*
X181486833Y-70555452D01*
X181474738Y-70549404D01*
X181468690Y-70537309D01*
X181468690Y-70488928D01*
X181474738Y-70476833D01*
X181486833Y-70470785D01*
X181511023Y-70470785D01*
X181523119Y-70476833D01*
X181529166Y-70488928D01*
X181529166Y-70501023D01*
X181468690Y-70513119D01*
X181577547Y-70549404D02*
X181589642Y-70555452D01*
X181613833Y-70555452D01*
X181625928Y-70549404D01*
X181631976Y-70537309D01*
X181631976Y-70531261D01*
X181625928Y-70519166D01*
X181613833Y-70513119D01*
X181595690Y-70513119D01*
X181583595Y-70507071D01*
X181577547Y-70494976D01*
X181577547Y-70488928D01*
X181583595Y-70476833D01*
X181595690Y-70470785D01*
X181613833Y-70470785D01*
X181625928Y-70476833D01*
X181734785Y-70549404D02*
X181722690Y-70555452D01*
X181698500Y-70555452D01*
X181686404Y-70549404D01*
X181680357Y-70537309D01*
X181680357Y-70488928D01*
X181686404Y-70476833D01*
X181698500Y-70470785D01*
X181722690Y-70470785D01*
X181734785Y-70476833D01*
X181740833Y-70488928D01*
X181740833Y-70501023D01*
X181680357Y-70513119D01*
X181795261Y-70555452D02*
X181795261Y-70470785D01*
X181795261Y-70494976D02*
X181801309Y-70482880D01*
X181807357Y-70476833D01*
X181819452Y-70470785D01*
X181831547Y-70470785D01*
X181861785Y-70470785D02*
X181892023Y-70555452D01*
X181922261Y-70470785D01*
X182019023Y-70549404D02*
X182006928Y-70555452D01*
X181982738Y-70555452D01*
X181970642Y-70549404D01*
X181964595Y-70537309D01*
X181964595Y-70488928D01*
X181970642Y-70476833D01*
X181982738Y-70470785D01*
X182006928Y-70470785D01*
X182019023Y-70476833D01*
X182025071Y-70488928D01*
X182025071Y-70501023D01*
X181964595Y-70513119D01*
X182133928Y-70555452D02*
X182133928Y-70428452D01*
X182133928Y-70549404D02*
X182121833Y-70555452D01*
X182097642Y-70555452D01*
X182085547Y-70549404D01*
X182079500Y-70543357D01*
X182073452Y-70531261D01*
X182073452Y-70494976D01*
X182079500Y-70482880D01*
X182085547Y-70476833D01*
X182097642Y-70470785D01*
X182121833Y-70470785D01*
X182133928Y-70476833D01*
X182194404Y-70543357D02*
X182200452Y-70549404D01*
X182194404Y-70555452D01*
X182188357Y-70549404D01*
X182194404Y-70543357D01*
X182194404Y-70555452D01*
%TD*%
M02*
