%TF.GenerationSoftware,KiCad,Pcbnew,5.1.7*%
%TF.CreationDate,2020-10-12T11:44:49-07:00*%
%TF.ProjectId,ErgoDOX_left,4572676f-444f-4585-9f6c-6566742e6b69,2.0.0*%
%TF.SameCoordinates,Original*%
%TF.FileFunction,Soldermask,Bot*%
%TF.FilePolarity,Negative*%
%FSLAX46Y46*%
G04 Gerber Fmt 4.6, Leading zero omitted, Abs format (unit mm)*
G04 Created by KiCad (PCBNEW 5.1.7) date 2020-10-12 11:44:49*
%MOMM*%
%LPD*%
G01*
G04 APERTURE LIST*
%TA.AperFunction,Profile*%
%ADD10C,0.381000*%
%TD*%
%ADD11O,1.001600X1.701600*%
%ADD12O,1.016000X1.701600*%
%ADD13C,0.751600*%
%ADD14C,1.625600*%
%ADD15C,1.001600*%
%ADD16C,2.387600*%
%ADD17C,4.089400*%
%ADD18C,1.803400*%
%ADD19C,2.101600*%
%ADD20O,2.101600X1.401600*%
%ADD21O,1.401600X2.101600*%
%ADD22C,1.301600*%
G04 APERTURE END LIST*
D10*
X164846000Y-93218000D02*
X164941000Y-109166000D01*
X164846000Y-74168000D02*
X164846000Y-88138000D01*
X164846000Y-56388000D02*
X164846000Y-69088000D01*
X168656000Y-56388000D02*
X164846000Y-56388000D01*
X187706000Y-104013000D02*
X188341000Y-117983000D01*
X168656000Y-104013000D02*
X187706000Y-104013000D01*
X168656000Y-93218000D02*
X168656000Y-104013000D01*
X164846000Y-93218000D02*
X168656000Y-93218000D01*
X187706000Y-88138000D02*
X164846000Y-88138000D01*
X187706000Y-84963000D02*
X187706000Y-88138000D01*
X168656000Y-84963000D02*
X187706000Y-84963000D01*
X168656000Y-74168000D02*
X168656000Y-84963000D01*
X164846000Y-74168000D02*
X168656000Y-74168000D01*
X186436000Y-69088000D02*
X164846000Y-69088000D01*
X186436000Y-66548000D02*
X186436000Y-69088000D01*
X168656000Y-66548000D02*
X186436000Y-66548000D01*
X168656000Y-56388000D02*
X168656000Y-66548000D01*
X164846000Y-51308000D02*
X164941000Y-22933000D01*
X168656000Y-51308000D02*
X164846000Y-51308000D01*
X169843200Y-109166000D02*
X188341000Y-117983000D01*
X191516000Y-119253000D02*
X202934320Y-124596500D01*
X191516000Y-51308000D02*
X191516000Y-119253000D01*
X168656000Y-51308000D02*
X191516000Y-51308000D01*
X21634200Y-22933000D02*
X21634200Y-130883000D01*
X137431000Y-19758000D02*
X134031000Y-19758000D01*
X137431000Y-19758000D02*
X149675600Y-19758000D01*
X132505200Y-19758000D02*
X134031000Y-19758000D01*
X24809200Y-19758000D02*
X84143600Y-19758000D01*
X84143600Y-17980000D02*
X95649800Y-17980000D01*
X84143600Y-19758000D02*
X84143600Y-17980000D01*
X95649800Y-17980000D02*
X95649800Y-19758000D01*
X95649800Y-19758000D02*
X132505200Y-19758000D01*
X149675600Y-19758000D02*
X161740600Y-19758000D01*
X161740600Y-19758000D02*
X164941000Y-22933000D01*
X100399600Y-140408000D02*
X31159200Y-140408000D01*
X31159200Y-140408000D02*
X21634200Y-130883000D01*
X21634200Y-22933000D02*
X24809200Y-19758000D01*
X164941000Y-109166000D02*
X169843200Y-109166000D01*
X202934320Y-124596500D02*
X204471020Y-128815440D01*
X204471020Y-128815440D02*
X182787040Y-175317760D01*
X182787040Y-175317760D02*
X178568100Y-176851920D01*
X178568100Y-176851920D02*
X100399600Y-140408000D01*
X164846000Y-93218000D02*
X164941000Y-109166000D01*
X164846000Y-74168000D02*
X164846000Y-88138000D01*
X164846000Y-56388000D02*
X164846000Y-69088000D01*
X168656000Y-56388000D02*
X164846000Y-56388000D01*
X187706000Y-104013000D02*
X188341000Y-117983000D01*
X168656000Y-104013000D02*
X187706000Y-104013000D01*
X168656000Y-93218000D02*
X168656000Y-104013000D01*
X164846000Y-93218000D02*
X168656000Y-93218000D01*
X187706000Y-88138000D02*
X164846000Y-88138000D01*
X187706000Y-84963000D02*
X187706000Y-88138000D01*
X168656000Y-84963000D02*
X187706000Y-84963000D01*
X168656000Y-74168000D02*
X168656000Y-84963000D01*
X164846000Y-74168000D02*
X168656000Y-74168000D01*
X186436000Y-69088000D02*
X164846000Y-69088000D01*
X186436000Y-66548000D02*
X186436000Y-69088000D01*
X168656000Y-66548000D02*
X186436000Y-66548000D01*
X168656000Y-56388000D02*
X168656000Y-66548000D01*
X164846000Y-51308000D02*
X164941000Y-22933000D01*
X168656000Y-51308000D02*
X164846000Y-51308000D01*
X169843200Y-109166000D02*
X188341000Y-117983000D01*
X191516000Y-119253000D02*
X202934320Y-124596500D01*
X191516000Y-51308000D02*
X191516000Y-119253000D01*
X168656000Y-51308000D02*
X191516000Y-51308000D01*
X21634200Y-22933000D02*
X21634200Y-130883000D01*
X137431000Y-19758000D02*
X134031000Y-19758000D01*
X137431000Y-19758000D02*
X149675600Y-19758000D01*
X132505200Y-19758000D02*
X134031000Y-19758000D01*
X24809200Y-19758000D02*
X84143600Y-19758000D01*
X84143600Y-17980000D02*
X95649800Y-17980000D01*
X84143600Y-19758000D02*
X84143600Y-17980000D01*
X95649800Y-17980000D02*
X95649800Y-19758000D01*
X95649800Y-19758000D02*
X132505200Y-19758000D01*
X149675600Y-19758000D02*
X161740600Y-19758000D01*
X161740600Y-19758000D02*
X164941000Y-22933000D01*
X100399600Y-140408000D02*
X31159200Y-140408000D01*
X31159200Y-140408000D02*
X21634200Y-130883000D01*
X21634200Y-22933000D02*
X24809200Y-19758000D01*
X164941000Y-109166000D02*
X169843200Y-109166000D01*
X202934320Y-124596500D02*
X204471020Y-128815440D01*
X204471020Y-128815440D02*
X182787040Y-175317760D01*
X182787040Y-175317760D02*
X178568100Y-176851920D01*
X178568100Y-176851920D02*
X100399600Y-140408000D01*
D11*
%TO.C,J103*%
X176176000Y-70498000D03*
D12*
X182776000Y-70498000D03*
%TD*%
D13*
%TO.C,J101*%
X177436000Y-93998000D03*
X183116000Y-93998000D03*
%TD*%
D14*
%TO.C,J203*%
X188896000Y-72418000D03*
X171116000Y-72418000D03*
X181276000Y-82578000D03*
X178736000Y-82578000D03*
%TD*%
%TO.C,J202*%
X188896000Y-53688000D03*
X171116000Y-53688000D03*
X181276000Y-63848000D03*
X178736000Y-63848000D03*
%TD*%
%TO.C,J201*%
X188896000Y-91148000D03*
X171116000Y-91148000D03*
X181276000Y-101308000D03*
X178736000Y-101308000D03*
%TD*%
%TO.C,J2*%
X99056000Y-21878000D03*
X81276000Y-21878000D03*
X91436000Y-32038000D03*
X88896000Y-32038000D03*
%TD*%
D15*
%TO.C,J102*%
X178063500Y-56338000D03*
X182463500Y-56338000D03*
%TD*%
D16*
%TO.C,SW1:9*%
X114522000Y-132578000D03*
X120872000Y-130038000D03*
D17*
X117062000Y-127498000D03*
D18*
X122142000Y-127498000D03*
X111982000Y-127498000D03*
%TD*%
D16*
%TO.C,SW5:13*%
X33559500Y-59585200D03*
X39909500Y-57045200D03*
D17*
X36099500Y-54505200D03*
D18*
X41179500Y-54505200D03*
X31019500Y-54505200D03*
%TD*%
D16*
%TO.C,SX1:7*%
X163087957Y-143514413D03*
X169916462Y-143896017D03*
D17*
X167536880Y-139983820D03*
D18*
X172140924Y-142130721D03*
X162932836Y-137836919D03*
%TD*%
D16*
%TO.C,SW3:13*%
X33559500Y-97682660D03*
X39909500Y-95142660D03*
D17*
X36099500Y-92602660D03*
D18*
X41179500Y-92602660D03*
X31019500Y-92602660D03*
%TD*%
D16*
%TO.C,SW2:9*%
X114522000Y-113557660D03*
X120872000Y-111017660D03*
D17*
X117062000Y-108477660D03*
D18*
X122142000Y-108477660D03*
X111982000Y-108477660D03*
%TD*%
D16*
%TO.C,SW2:10*%
X95472000Y-111960000D03*
X101822000Y-109420000D03*
D17*
X98012000Y-106880000D03*
D18*
X103092000Y-106880000D03*
X92932000Y-106880000D03*
%TD*%
D16*
%TO.C,SW3:9*%
X114522000Y-94507660D03*
X120872000Y-91967660D03*
D17*
X117062000Y-89427660D03*
D18*
X122142000Y-89427660D03*
X111982000Y-89427660D03*
%TD*%
D16*
%TO.C,SW2:11*%
X76422000Y-113557660D03*
X82772000Y-111017660D03*
D17*
X78962000Y-108477660D03*
D18*
X84042000Y-108477660D03*
X73882000Y-108477660D03*
%TD*%
D16*
%TO.C,SW3:10*%
X95472000Y-92910000D03*
X101822000Y-90370000D03*
D17*
X98012000Y-87830000D03*
D18*
X103092000Y-87830000D03*
X92932000Y-87830000D03*
%TD*%
D16*
%TO.C,SW3:11*%
X76422000Y-94507660D03*
X82772000Y-91967660D03*
D17*
X78962000Y-89427660D03*
D18*
X84042000Y-89427660D03*
X73882000Y-89427660D03*
%TD*%
D16*
%TO.C,SW1:11*%
X76422000Y-132578000D03*
X82772000Y-130038000D03*
D17*
X78962000Y-127498000D03*
D18*
X84042000Y-127498000D03*
X73882000Y-127498000D03*
%TD*%
D16*
%TO.C,SW1:10*%
X95472000Y-131010000D03*
X101822000Y-128470000D03*
D17*
X98012000Y-125930000D03*
D18*
X103092000Y-125930000D03*
X92932000Y-125930000D03*
%TD*%
D16*
%TO.C,SX1:8*%
X145823577Y-135462613D03*
X152652082Y-135844217D03*
D17*
X150272500Y-131932020D03*
D18*
X154876544Y-134078921D03*
X145668456Y-129785119D03*
%TD*%
D16*
%TO.C,SW5:12*%
X57372000Y-59585200D03*
X63722000Y-57045200D03*
D17*
X59912000Y-54505200D03*
D18*
X64992000Y-54505200D03*
X54832000Y-54505200D03*
%TD*%
D16*
%TO.C,SW5:11*%
X76422000Y-56407660D03*
X82772000Y-53867660D03*
D17*
X78962000Y-51327660D03*
D18*
X84042000Y-51327660D03*
X73882000Y-51327660D03*
%TD*%
D16*
%TO.C,SW5:10*%
X95472000Y-54810000D03*
X101822000Y-52270000D03*
D17*
X98012000Y-49730000D03*
D18*
X103092000Y-49730000D03*
X92932000Y-49730000D03*
%TD*%
D16*
%TO.C,SW5:9*%
X114522000Y-56407660D03*
X120872000Y-53867660D03*
D17*
X117062000Y-51327660D03*
D18*
X122142000Y-51327660D03*
X111982000Y-51327660D03*
%TD*%
D16*
%TO.C,SW5:8*%
X133572000Y-57680200D03*
X139922000Y-55140200D03*
D17*
X136112000Y-52600200D03*
D18*
X141192000Y-52600200D03*
X131032000Y-52600200D03*
%TD*%
D16*
%TO.C,SW5:7*%
X152622000Y-57680200D03*
X158972000Y-55140200D03*
D17*
X155162000Y-52600200D03*
D18*
X160242000Y-52600200D03*
X150082000Y-52600200D03*
%TD*%
D16*
%TO.C,SW4:13*%
X33559500Y-78632660D03*
X39909500Y-76092660D03*
D17*
X36099500Y-73552660D03*
D18*
X41179500Y-73552660D03*
X31019500Y-73552660D03*
%TD*%
D16*
%TO.C,SW4:12*%
X57372000Y-78632660D03*
X63722000Y-76092660D03*
D17*
X59912000Y-73552660D03*
D18*
X64992000Y-73552660D03*
X54832000Y-73552660D03*
%TD*%
D16*
%TO.C,SW4:11*%
X76422000Y-75457660D03*
X82772000Y-72917660D03*
D17*
X78962000Y-70377660D03*
D18*
X84042000Y-70377660D03*
X73882000Y-70377660D03*
%TD*%
D16*
%TO.C,SW4:10*%
X95472000Y-73860000D03*
X101822000Y-71320000D03*
D17*
X98012000Y-68780000D03*
D18*
X103092000Y-68780000D03*
X92932000Y-68780000D03*
%TD*%
D16*
%TO.C,SW4:9*%
X114522000Y-75457660D03*
X120872000Y-72917660D03*
D17*
X117062000Y-70377660D03*
D18*
X122142000Y-70377660D03*
X111982000Y-70377660D03*
%TD*%
D16*
%TO.C,SW4:8*%
X133572000Y-76727660D03*
X139922000Y-74187660D03*
D17*
X136112000Y-71647660D03*
D18*
X141192000Y-71647660D03*
X131032000Y-71647660D03*
%TD*%
D16*
%TO.C,SW4:7*%
X160242000Y-78950160D03*
X157702000Y-72600160D03*
D17*
X155162000Y-76410160D03*
D18*
X155162000Y-71330160D03*
X155162000Y-81490160D03*
%TD*%
D16*
%TO.C,SW3:12*%
X57372000Y-97682660D03*
X63722000Y-95142660D03*
D17*
X59912000Y-92602660D03*
D18*
X64992000Y-92602660D03*
X54832000Y-92602660D03*
%TD*%
D16*
%TO.C,SW3:8*%
X133572000Y-95777660D03*
X139922000Y-93237660D03*
D17*
X136112000Y-90697660D03*
D18*
X141192000Y-90697660D03*
X131032000Y-90697660D03*
%TD*%
D16*
%TO.C,SW2:13*%
X33559500Y-116732660D03*
X39909500Y-114192660D03*
D17*
X36099500Y-111652660D03*
D18*
X41179500Y-111652660D03*
X31019500Y-111652660D03*
%TD*%
D16*
%TO.C,SW2:12*%
X57372000Y-116732660D03*
X63722000Y-114192660D03*
D17*
X59912000Y-111652660D03*
D18*
X64992000Y-111652660D03*
X54832000Y-111652660D03*
%TD*%
D16*
%TO.C,SW2:8*%
X133572000Y-114827660D03*
X139922000Y-112287660D03*
D17*
X136112000Y-109747660D03*
D18*
X141192000Y-109747660D03*
X131032000Y-109747660D03*
%TD*%
D16*
%TO.C,SW2:7*%
X160242000Y-107525160D03*
X157702000Y-101175160D03*
D17*
X155162000Y-104985160D03*
D18*
X155162000Y-99905160D03*
X155162000Y-110065160D03*
%TD*%
D16*
%TO.C,SW1:13*%
X38322000Y-135782660D03*
X44672000Y-133242660D03*
D17*
X40862000Y-130702660D03*
D18*
X45942000Y-130702660D03*
X35782000Y-130702660D03*
%TD*%
D16*
%TO.C,SW1:12*%
X57372000Y-135782660D03*
X63722000Y-133242660D03*
D17*
X59912000Y-130702660D03*
D18*
X64992000Y-130702660D03*
X54832000Y-130702660D03*
%TD*%
D16*
%TO.C,SW0:12*%
X172303077Y-168830593D03*
X179131582Y-169212197D03*
D17*
X176752000Y-165300000D03*
D18*
X181356044Y-167446901D03*
X172147956Y-163153099D03*
%TD*%
D16*
%TO.C,SW0:11*%
X155827077Y-160528593D03*
X162655582Y-160910197D03*
D17*
X160276000Y-156998000D03*
D18*
X164880044Y-159144901D03*
X155671956Y-154851099D03*
%TD*%
D16*
%TO.C,SW0:10*%
X137827077Y-152528593D03*
X144655582Y-152910197D03*
D17*
X142276000Y-148998000D03*
D18*
X146880044Y-151144901D03*
X137671956Y-146851099D03*
%TD*%
D16*
%TO.C,SW0:9*%
X180354877Y-151563673D03*
X187183382Y-151945277D03*
D17*
X184803800Y-148033080D03*
D18*
X189407844Y-150179981D03*
X180199756Y-145886179D03*
%TD*%
D16*
%TO.C,SW0:8*%
X171139757Y-126250033D03*
X177968262Y-126631637D03*
D17*
X175588680Y-122719440D03*
D18*
X180192724Y-124866341D03*
X170984636Y-120572539D03*
%TD*%
D16*
%TO.C,SW0:7*%
X188404137Y-134299293D03*
X195232642Y-134680897D03*
D17*
X192853060Y-130768700D03*
D18*
X197457104Y-132915601D03*
X188249016Y-128621799D03*
%TD*%
D19*
%TO.C,SW1*%
X36276000Y-42998000D03*
X36276000Y-38498000D03*
X42776000Y-42998000D03*
X42776000Y-38498000D03*
%TD*%
D20*
%TO.C,J1*%
X135776000Y-32298000D03*
D21*
X138626000Y-31498000D03*
X132926000Y-31498000D03*
X132476000Y-23498000D03*
D22*
X135776000Y-28998000D03*
X135776000Y-21998000D03*
D21*
X139076000Y-23498000D03*
%TD*%
M02*
