%TF.GenerationSoftware,KiCad,Pcbnew,5.1.7*%
%TF.CreationDate,2020-10-12T11:44:49-07:00*%
%TF.ProjectId,ErgoDOX_left,4572676f-444f-4585-9f6c-6566742e6b69,2.0.0*%
%TF.SameCoordinates,Original*%
%TF.FileFunction,Soldermask,Top*%
%TF.FilePolarity,Negative*%
%FSLAX46Y46*%
G04 Gerber Fmt 4.6, Leading zero omitted, Abs format (unit mm)*
G04 Created by KiCad (PCBNEW 5.1.7) date 2020-10-12 11:44:49*
%MOMM*%
%LPD*%
G01*
G04 APERTURE LIST*
%TA.AperFunction,Profile*%
%ADD10C,0.381000*%
%TD*%
%ADD11O,1.001600X1.701600*%
%ADD12O,1.016000X1.701600*%
%ADD13C,0.751600*%
%ADD14C,1.625600*%
%ADD15C,1.001600*%
%ADD16C,2.387600*%
%ADD17C,4.089400*%
%ADD18C,1.803400*%
%ADD19C,2.101600*%
%ADD20O,2.101600X1.401600*%
%ADD21O,1.401600X2.101600*%
%ADD22C,1.301600*%
%ADD23C,0.150000*%
G04 APERTURE END LIST*
D10*
X164846000Y-93218000D02*
X164941000Y-109166000D01*
X164846000Y-74168000D02*
X164846000Y-88138000D01*
X164846000Y-56388000D02*
X164846000Y-69088000D01*
X168656000Y-56388000D02*
X164846000Y-56388000D01*
X187706000Y-104013000D02*
X188341000Y-117983000D01*
X168656000Y-104013000D02*
X187706000Y-104013000D01*
X168656000Y-93218000D02*
X168656000Y-104013000D01*
X164846000Y-93218000D02*
X168656000Y-93218000D01*
X187706000Y-88138000D02*
X164846000Y-88138000D01*
X187706000Y-84963000D02*
X187706000Y-88138000D01*
X168656000Y-84963000D02*
X187706000Y-84963000D01*
X168656000Y-74168000D02*
X168656000Y-84963000D01*
X164846000Y-74168000D02*
X168656000Y-74168000D01*
X186436000Y-69088000D02*
X164846000Y-69088000D01*
X186436000Y-66548000D02*
X186436000Y-69088000D01*
X168656000Y-66548000D02*
X186436000Y-66548000D01*
X168656000Y-56388000D02*
X168656000Y-66548000D01*
X164846000Y-51308000D02*
X164941000Y-22933000D01*
X168656000Y-51308000D02*
X164846000Y-51308000D01*
X169843200Y-109166000D02*
X188341000Y-117983000D01*
X191516000Y-119253000D02*
X202934320Y-124596500D01*
X191516000Y-51308000D02*
X191516000Y-119253000D01*
X168656000Y-51308000D02*
X191516000Y-51308000D01*
X21634200Y-22933000D02*
X21634200Y-130883000D01*
X137431000Y-19758000D02*
X134031000Y-19758000D01*
X137431000Y-19758000D02*
X149675600Y-19758000D01*
X132505200Y-19758000D02*
X134031000Y-19758000D01*
X24809200Y-19758000D02*
X84143600Y-19758000D01*
X84143600Y-17980000D02*
X95649800Y-17980000D01*
X84143600Y-19758000D02*
X84143600Y-17980000D01*
X95649800Y-17980000D02*
X95649800Y-19758000D01*
X95649800Y-19758000D02*
X132505200Y-19758000D01*
X149675600Y-19758000D02*
X161740600Y-19758000D01*
X161740600Y-19758000D02*
X164941000Y-22933000D01*
X100399600Y-140408000D02*
X31159200Y-140408000D01*
X31159200Y-140408000D02*
X21634200Y-130883000D01*
X21634200Y-22933000D02*
X24809200Y-19758000D01*
X164941000Y-109166000D02*
X169843200Y-109166000D01*
X202934320Y-124596500D02*
X204471020Y-128815440D01*
X204471020Y-128815440D02*
X182787040Y-175317760D01*
X182787040Y-175317760D02*
X178568100Y-176851920D01*
X178568100Y-176851920D02*
X100399600Y-140408000D01*
X164846000Y-93218000D02*
X164941000Y-109166000D01*
X164846000Y-74168000D02*
X164846000Y-88138000D01*
X164846000Y-56388000D02*
X164846000Y-69088000D01*
X168656000Y-56388000D02*
X164846000Y-56388000D01*
X187706000Y-104013000D02*
X188341000Y-117983000D01*
X168656000Y-104013000D02*
X187706000Y-104013000D01*
X168656000Y-93218000D02*
X168656000Y-104013000D01*
X164846000Y-93218000D02*
X168656000Y-93218000D01*
X187706000Y-88138000D02*
X164846000Y-88138000D01*
X187706000Y-84963000D02*
X187706000Y-88138000D01*
X168656000Y-84963000D02*
X187706000Y-84963000D01*
X168656000Y-74168000D02*
X168656000Y-84963000D01*
X164846000Y-74168000D02*
X168656000Y-74168000D01*
X186436000Y-69088000D02*
X164846000Y-69088000D01*
X186436000Y-66548000D02*
X186436000Y-69088000D01*
X168656000Y-66548000D02*
X186436000Y-66548000D01*
X168656000Y-56388000D02*
X168656000Y-66548000D01*
X164846000Y-51308000D02*
X164941000Y-22933000D01*
X168656000Y-51308000D02*
X164846000Y-51308000D01*
X169843200Y-109166000D02*
X188341000Y-117983000D01*
X191516000Y-119253000D02*
X202934320Y-124596500D01*
X191516000Y-51308000D02*
X191516000Y-119253000D01*
X168656000Y-51308000D02*
X191516000Y-51308000D01*
X21634200Y-22933000D02*
X21634200Y-130883000D01*
X137431000Y-19758000D02*
X134031000Y-19758000D01*
X137431000Y-19758000D02*
X149675600Y-19758000D01*
X132505200Y-19758000D02*
X134031000Y-19758000D01*
X24809200Y-19758000D02*
X84143600Y-19758000D01*
X84143600Y-17980000D02*
X95649800Y-17980000D01*
X84143600Y-19758000D02*
X84143600Y-17980000D01*
X95649800Y-17980000D02*
X95649800Y-19758000D01*
X95649800Y-19758000D02*
X132505200Y-19758000D01*
X149675600Y-19758000D02*
X161740600Y-19758000D01*
X161740600Y-19758000D02*
X164941000Y-22933000D01*
X100399600Y-140408000D02*
X31159200Y-140408000D01*
X31159200Y-140408000D02*
X21634200Y-130883000D01*
X21634200Y-22933000D02*
X24809200Y-19758000D01*
X164941000Y-109166000D02*
X169843200Y-109166000D01*
X202934320Y-124596500D02*
X204471020Y-128815440D01*
X204471020Y-128815440D02*
X182787040Y-175317760D01*
X182787040Y-175317760D02*
X178568100Y-176851920D01*
X178568100Y-176851920D02*
X100399600Y-140408000D01*
D11*
%TO.C,J103*%
X176176000Y-70498000D03*
D12*
X182776000Y-70498000D03*
G36*
G01*
X179279300Y-69529198D02*
X179279300Y-71434198D01*
G75*
G02*
X179228500Y-71484998I-50800J0D01*
G01*
X177323500Y-71484998D01*
G75*
G02*
X177272700Y-71434198I0J50800D01*
G01*
X177272700Y-69529198D01*
G75*
G02*
X177323500Y-69478398I50800J0D01*
G01*
X179228500Y-69478398D01*
G75*
G02*
X179279300Y-69529198I0J-50800D01*
G01*
G37*
G36*
G01*
X181679300Y-69529198D02*
X181679300Y-71434198D01*
G75*
G02*
X181628500Y-71484998I-50800J0D01*
G01*
X179723500Y-71484998D01*
G75*
G02*
X179672700Y-71434198I0J50800D01*
G01*
X179672700Y-69529198D01*
G75*
G02*
X179723500Y-69478398I50800J0D01*
G01*
X181628500Y-69478398D01*
G75*
G02*
X181679300Y-69529198I0J-50800D01*
G01*
G37*
G36*
G01*
X177126800Y-72231699D02*
X177126800Y-73631699D01*
G75*
G02*
X177076000Y-73682499I-50800J0D01*
G01*
X175476000Y-73682499D01*
G75*
G02*
X175425200Y-73631699I0J50800D01*
G01*
X175425200Y-72231699D01*
G75*
G02*
X175476000Y-72180899I50800J0D01*
G01*
X177076000Y-72180899D01*
G75*
G02*
X177126800Y-72231699I0J-50800D01*
G01*
G37*
G36*
G01*
X183526800Y-72231699D02*
X183526800Y-73631699D01*
G75*
G02*
X183476000Y-73682499I-50800J0D01*
G01*
X181876000Y-73682499D01*
G75*
G02*
X181825200Y-73631699I0J50800D01*
G01*
X181825200Y-72231699D01*
G75*
G02*
X181876000Y-72180899I50800J0D01*
G01*
X183476000Y-72180899D01*
G75*
G02*
X183526800Y-72231699I0J-50800D01*
G01*
G37*
G36*
G01*
X178430000Y-72483599D02*
X178430000Y-73829799D01*
G75*
G02*
X178379200Y-73880599I-50800J0D01*
G01*
X177972800Y-73880599D01*
G75*
G02*
X177922000Y-73829799I0J50800D01*
G01*
X177922000Y-72483599D01*
G75*
G02*
X177972800Y-72432799I50800J0D01*
G01*
X178379200Y-72432799D01*
G75*
G02*
X178430000Y-72483599I0J-50800D01*
G01*
G37*
G36*
G01*
X179080001Y-72483599D02*
X179080001Y-73829799D01*
G75*
G02*
X179029201Y-73880599I-50800J0D01*
G01*
X178622801Y-73880599D01*
G75*
G02*
X178572001Y-73829799I0J50800D01*
G01*
X178572001Y-72483599D01*
G75*
G02*
X178622801Y-72432799I50800J0D01*
G01*
X179029201Y-72432799D01*
G75*
G02*
X179080001Y-72483599I0J-50800D01*
G01*
G37*
G36*
G01*
X179730000Y-72483599D02*
X179730000Y-73829799D01*
G75*
G02*
X179679200Y-73880599I-50800J0D01*
G01*
X179272800Y-73880599D01*
G75*
G02*
X179222000Y-73829799I0J50800D01*
G01*
X179222000Y-72483599D01*
G75*
G02*
X179272800Y-72432799I50800J0D01*
G01*
X179679200Y-72432799D01*
G75*
G02*
X179730000Y-72483599I0J-50800D01*
G01*
G37*
G36*
G01*
X180379999Y-72483599D02*
X180379999Y-73829799D01*
G75*
G02*
X180329199Y-73880599I-50800J0D01*
G01*
X179922799Y-73880599D01*
G75*
G02*
X179871999Y-73829799I0J50800D01*
G01*
X179871999Y-72483599D01*
G75*
G02*
X179922799Y-72432799I50800J0D01*
G01*
X180329199Y-72432799D01*
G75*
G02*
X180379999Y-72483599I0J-50800D01*
G01*
G37*
G36*
G01*
X181030000Y-72483599D02*
X181030000Y-73829799D01*
G75*
G02*
X180979200Y-73880599I-50800J0D01*
G01*
X180572800Y-73880599D01*
G75*
G02*
X180522000Y-73829799I0J50800D01*
G01*
X180522000Y-72483599D01*
G75*
G02*
X180572800Y-72432799I50800J0D01*
G01*
X180979200Y-72432799D01*
G75*
G02*
X181030000Y-72483599I0J-50800D01*
G01*
G37*
%TD*%
D13*
%TO.C,J101*%
X177436000Y-93998000D03*
X183116000Y-93998000D03*
G36*
G01*
X182226800Y-94498000D02*
X182226800Y-95648000D01*
G75*
G02*
X182176000Y-95698800I-50800J0D01*
G01*
X181876000Y-95698800D01*
G75*
G02*
X181825200Y-95648000I0J50800D01*
G01*
X181825200Y-94498000D01*
G75*
G02*
X181876000Y-94447200I50800J0D01*
G01*
X182176000Y-94447200D01*
G75*
G02*
X182226800Y-94498000I0J-50800D01*
G01*
G37*
G36*
G01*
X178726800Y-94498000D02*
X178726800Y-95648000D01*
G75*
G02*
X178676000Y-95698800I-50800J0D01*
G01*
X178376000Y-95698800D01*
G75*
G02*
X178325200Y-95648000I0J50800D01*
G01*
X178325200Y-94498000D01*
G75*
G02*
X178376000Y-94447200I50800J0D01*
G01*
X178676000Y-94447200D01*
G75*
G02*
X178726800Y-94498000I0J-50800D01*
G01*
G37*
G36*
G01*
X177426800Y-94498000D02*
X177426800Y-95648000D01*
G75*
G02*
X177376000Y-95698800I-50800J0D01*
G01*
X176776000Y-95698800D01*
G75*
G02*
X176725200Y-95648000I0J50800D01*
G01*
X176725200Y-94498000D01*
G75*
G02*
X176776000Y-94447200I50800J0D01*
G01*
X177376000Y-94447200D01*
G75*
G02*
X177426800Y-94498000I0J-50800D01*
G01*
G37*
G36*
G01*
X178226800Y-94498000D02*
X178226800Y-95648000D01*
G75*
G02*
X178176000Y-95698800I-50800J0D01*
G01*
X177576000Y-95698800D01*
G75*
G02*
X177525200Y-95648000I0J50800D01*
G01*
X177525200Y-94498000D01*
G75*
G02*
X177576000Y-94447200I50800J0D01*
G01*
X178176000Y-94447200D01*
G75*
G02*
X178226800Y-94498000I0J-50800D01*
G01*
G37*
G36*
G01*
X183826800Y-94498000D02*
X183826800Y-95648000D01*
G75*
G02*
X183776000Y-95698800I-50800J0D01*
G01*
X183176000Y-95698800D01*
G75*
G02*
X183125200Y-95648000I0J50800D01*
G01*
X183125200Y-94498000D01*
G75*
G02*
X183176000Y-94447200I50800J0D01*
G01*
X183776000Y-94447200D01*
G75*
G02*
X183826800Y-94498000I0J-50800D01*
G01*
G37*
G36*
G01*
X183026800Y-94498000D02*
X183026800Y-95648000D01*
G75*
G02*
X182976000Y-95698800I-50800J0D01*
G01*
X182376000Y-95698800D01*
G75*
G02*
X182325200Y-95648000I0J50800D01*
G01*
X182325200Y-94498000D01*
G75*
G02*
X182376000Y-94447200I50800J0D01*
G01*
X182976000Y-94447200D01*
G75*
G02*
X183026800Y-94498000I0J-50800D01*
G01*
G37*
G36*
G01*
X181726800Y-94498000D02*
X181726800Y-95648000D01*
G75*
G02*
X181676000Y-95698800I-50800J0D01*
G01*
X181376000Y-95698800D01*
G75*
G02*
X181325200Y-95648000I0J50800D01*
G01*
X181325200Y-94498000D01*
G75*
G02*
X181376000Y-94447200I50800J0D01*
G01*
X181676000Y-94447200D01*
G75*
G02*
X181726800Y-94498000I0J-50800D01*
G01*
G37*
G36*
G01*
X181226800Y-94498000D02*
X181226800Y-95648000D01*
G75*
G02*
X181176000Y-95698800I-50800J0D01*
G01*
X180876000Y-95698800D01*
G75*
G02*
X180825200Y-95648000I0J50800D01*
G01*
X180825200Y-94498000D01*
G75*
G02*
X180876000Y-94447200I50800J0D01*
G01*
X181176000Y-94447200D01*
G75*
G02*
X181226800Y-94498000I0J-50800D01*
G01*
G37*
G36*
G01*
X180726800Y-94498000D02*
X180726800Y-95648000D01*
G75*
G02*
X180676000Y-95698800I-50800J0D01*
G01*
X180376000Y-95698800D01*
G75*
G02*
X180325200Y-95648000I0J50800D01*
G01*
X180325200Y-94498000D01*
G75*
G02*
X180376000Y-94447200I50800J0D01*
G01*
X180676000Y-94447200D01*
G75*
G02*
X180726800Y-94498000I0J-50800D01*
G01*
G37*
G36*
G01*
X179226800Y-94498000D02*
X179226800Y-95648000D01*
G75*
G02*
X179176000Y-95698800I-50800J0D01*
G01*
X178876000Y-95698800D01*
G75*
G02*
X178825200Y-95648000I0J50800D01*
G01*
X178825200Y-94498000D01*
G75*
G02*
X178876000Y-94447200I50800J0D01*
G01*
X179176000Y-94447200D01*
G75*
G02*
X179226800Y-94498000I0J-50800D01*
G01*
G37*
G36*
G01*
X179726800Y-94498000D02*
X179726800Y-95648000D01*
G75*
G02*
X179676000Y-95698800I-50800J0D01*
G01*
X179376000Y-95698800D01*
G75*
G02*
X179325200Y-95648000I0J50800D01*
G01*
X179325200Y-94498000D01*
G75*
G02*
X179376000Y-94447200I50800J0D01*
G01*
X179676000Y-94447200D01*
G75*
G02*
X179726800Y-94498000I0J-50800D01*
G01*
G37*
G36*
G01*
X180226800Y-94498000D02*
X180226800Y-95648000D01*
G75*
G02*
X180176000Y-95698800I-50800J0D01*
G01*
X179876000Y-95698800D01*
G75*
G02*
X179825200Y-95648000I0J50800D01*
G01*
X179825200Y-94498000D01*
G75*
G02*
X179876000Y-94447200I50800J0D01*
G01*
X180176000Y-94447200D01*
G75*
G02*
X180226800Y-94498000I0J-50800D01*
G01*
G37*
G36*
G01*
X176216800Y-89568000D02*
X176216800Y-91568000D01*
G75*
G02*
X176166000Y-91618800I-50800J0D01*
G01*
X174166000Y-91618800D01*
G75*
G02*
X174115200Y-91568000I0J50800D01*
G01*
X174115200Y-89568000D01*
G75*
G02*
X174166000Y-89517200I50800J0D01*
G01*
X176166000Y-89517200D01*
G75*
G02*
X176216800Y-89568000I0J-50800D01*
G01*
G37*
G36*
G01*
X186436800Y-89568000D02*
X186436800Y-91568000D01*
G75*
G02*
X186386000Y-91618800I-50800J0D01*
G01*
X184386000Y-91618800D01*
G75*
G02*
X184335200Y-91568000I0J50800D01*
G01*
X184335200Y-89568000D01*
G75*
G02*
X184386000Y-89517200I50800J0D01*
G01*
X186386000Y-89517200D01*
G75*
G02*
X186436800Y-89568000I0J-50800D01*
G01*
G37*
G36*
G01*
X186436800Y-93498000D02*
X186436800Y-95498000D01*
G75*
G02*
X186386000Y-95548800I-50800J0D01*
G01*
X184386000Y-95548800D01*
G75*
G02*
X184335200Y-95498000I0J50800D01*
G01*
X184335200Y-93498000D01*
G75*
G02*
X184386000Y-93447200I50800J0D01*
G01*
X186386000Y-93447200D01*
G75*
G02*
X186436800Y-93498000I0J-50800D01*
G01*
G37*
G36*
G01*
X176216800Y-93498000D02*
X176216800Y-95498000D01*
G75*
G02*
X176166000Y-95548800I-50800J0D01*
G01*
X174166000Y-95548800D01*
G75*
G02*
X174115200Y-95498000I0J50800D01*
G01*
X174115200Y-93498000D01*
G75*
G02*
X174166000Y-93447200I50800J0D01*
G01*
X176166000Y-93447200D01*
G75*
G02*
X176216800Y-93498000I0J-50800D01*
G01*
G37*
%TD*%
D14*
%TO.C,J203*%
X188896000Y-72418000D03*
X171116000Y-72418000D03*
X181276000Y-82578000D03*
X178736000Y-82578000D03*
%TD*%
%TO.C,J202*%
X188896000Y-53688000D03*
X171116000Y-53688000D03*
X181276000Y-63848000D03*
X178736000Y-63848000D03*
%TD*%
%TO.C,J201*%
X188896000Y-91148000D03*
X171116000Y-91148000D03*
X181276000Y-101308000D03*
X178736000Y-101308000D03*
%TD*%
%TO.C,J2*%
X99056000Y-21878000D03*
X81276000Y-21878000D03*
X91436000Y-32038000D03*
X88896000Y-32038000D03*
%TD*%
%TO.C,J102*%
G36*
G01*
X176854300Y-52118000D02*
X176854300Y-54618000D01*
G75*
G02*
X176803500Y-54668800I-50800J0D01*
G01*
X174803500Y-54668800D01*
G75*
G02*
X174752700Y-54618000I0J50800D01*
G01*
X174752700Y-52118000D01*
G75*
G02*
X174803500Y-52067200I50800J0D01*
G01*
X176803500Y-52067200D01*
G75*
G02*
X176854300Y-52118000I0J-50800D01*
G01*
G37*
G36*
G01*
X185774300Y-52118000D02*
X185774300Y-54618000D01*
G75*
G02*
X185723500Y-54668800I-50800J0D01*
G01*
X183723500Y-54668800D01*
G75*
G02*
X183672700Y-54618000I0J50800D01*
G01*
X183672700Y-52118000D01*
G75*
G02*
X183723500Y-52067200I50800J0D01*
G01*
X185723500Y-52067200D01*
G75*
G02*
X185774300Y-52118000I0J-50800D01*
G01*
G37*
D15*
X178063500Y-56338000D03*
X182463500Y-56338000D03*
G36*
G01*
X176854300Y-57598000D02*
X176854300Y-60098000D01*
G75*
G02*
X176803500Y-60148800I-50800J0D01*
G01*
X174803500Y-60148800D01*
G75*
G02*
X174752700Y-60098000I0J50800D01*
G01*
X174752700Y-57598000D01*
G75*
G02*
X174803500Y-57547200I50800J0D01*
G01*
X176803500Y-57547200D01*
G75*
G02*
X176854300Y-57598000I0J-50800D01*
G01*
G37*
G36*
G01*
X185774300Y-57598000D02*
X185774300Y-60098000D01*
G75*
G02*
X185723500Y-60148800I-50800J0D01*
G01*
X183723500Y-60148800D01*
G75*
G02*
X183672700Y-60098000I0J50800D01*
G01*
X183672700Y-57598000D01*
G75*
G02*
X183723500Y-57547200I50800J0D01*
G01*
X185723500Y-57547200D01*
G75*
G02*
X185774300Y-57598000I0J-50800D01*
G01*
G37*
G36*
G01*
X178964300Y-57597999D02*
X178964300Y-60098001D01*
G75*
G02*
X178913501Y-60148800I-50799J0D01*
G01*
X178413499Y-60148800D01*
G75*
G02*
X178362700Y-60098001I0J50799D01*
G01*
X178362700Y-57597999D01*
G75*
G02*
X178413499Y-57547200I50799J0D01*
G01*
X178913501Y-57547200D01*
G75*
G02*
X178964300Y-57597999I0J-50799D01*
G01*
G37*
G36*
G01*
X179764300Y-57597999D02*
X179764300Y-60098001D01*
G75*
G02*
X179713501Y-60148800I-50799J0D01*
G01*
X179213499Y-60148800D01*
G75*
G02*
X179162700Y-60098001I0J50799D01*
G01*
X179162700Y-57597999D01*
G75*
G02*
X179213499Y-57547200I50799J0D01*
G01*
X179713501Y-57547200D01*
G75*
G02*
X179764300Y-57597999I0J-50799D01*
G01*
G37*
G36*
G01*
X180564300Y-57597999D02*
X180564300Y-60098001D01*
G75*
G02*
X180513501Y-60148800I-50799J0D01*
G01*
X180013499Y-60148800D01*
G75*
G02*
X179962700Y-60098001I0J50799D01*
G01*
X179962700Y-57597999D01*
G75*
G02*
X180013499Y-57547200I50799J0D01*
G01*
X180513501Y-57547200D01*
G75*
G02*
X180564300Y-57597999I0J-50799D01*
G01*
G37*
G36*
G01*
X181364300Y-57597999D02*
X181364300Y-60098001D01*
G75*
G02*
X181313501Y-60148800I-50799J0D01*
G01*
X180813499Y-60148800D01*
G75*
G02*
X180762700Y-60098001I0J50799D01*
G01*
X180762700Y-57597999D01*
G75*
G02*
X180813499Y-57547200I50799J0D01*
G01*
X181313501Y-57547200D01*
G75*
G02*
X181364300Y-57597999I0J-50799D01*
G01*
G37*
G36*
G01*
X182164300Y-57597999D02*
X182164300Y-60098001D01*
G75*
G02*
X182113501Y-60148800I-50799J0D01*
G01*
X181613499Y-60148800D01*
G75*
G02*
X181562700Y-60098001I0J50799D01*
G01*
X181562700Y-57597999D01*
G75*
G02*
X181613499Y-57547200I50799J0D01*
G01*
X182113501Y-57547200D01*
G75*
G02*
X182164300Y-57597999I0J-50799D01*
G01*
G37*
%TD*%
D16*
%TO.C,SW1:9*%
X114522000Y-132578000D03*
X120872000Y-130038000D03*
D17*
X117062000Y-127498000D03*
D18*
X122142000Y-127498000D03*
X111982000Y-127498000D03*
%TD*%
D16*
%TO.C,SW5:13*%
X33559500Y-59585200D03*
X39909500Y-57045200D03*
D17*
X36099500Y-54505200D03*
D18*
X41179500Y-54505200D03*
X31019500Y-54505200D03*
%TD*%
%TO.C,R8*%
G36*
G01*
X61976001Y-29548800D02*
X61075999Y-29548800D01*
G75*
G02*
X61025200Y-29498001I0J50799D01*
G01*
X61025200Y-28997999D01*
G75*
G02*
X61075999Y-28947200I50799J0D01*
G01*
X61976001Y-28947200D01*
G75*
G02*
X62026800Y-28997999I0J-50799D01*
G01*
X62026800Y-29498001D01*
G75*
G02*
X61976001Y-29548800I-50799J0D01*
G01*
G37*
G36*
G01*
X61976001Y-28048800D02*
X61075999Y-28048800D01*
G75*
G02*
X61025200Y-27998001I0J50799D01*
G01*
X61025200Y-27497999D01*
G75*
G02*
X61075999Y-27447200I50799J0D01*
G01*
X61976001Y-27447200D01*
G75*
G02*
X62026800Y-27497999I0J-50799D01*
G01*
X62026800Y-27998001D01*
G75*
G02*
X61976001Y-28048800I-50799J0D01*
G01*
G37*
%TD*%
%TO.C,R2*%
G36*
G01*
X88725200Y-29448001D02*
X88725200Y-28547999D01*
G75*
G02*
X88775999Y-28497200I50799J0D01*
G01*
X89276001Y-28497200D01*
G75*
G02*
X89326800Y-28547999I0J-50799D01*
G01*
X89326800Y-29448001D01*
G75*
G02*
X89276001Y-29498800I-50799J0D01*
G01*
X88775999Y-29498800D01*
G75*
G02*
X88725200Y-29448001I0J50799D01*
G01*
G37*
G36*
G01*
X90225200Y-29448001D02*
X90225200Y-28547999D01*
G75*
G02*
X90275999Y-28497200I50799J0D01*
G01*
X90776001Y-28497200D01*
G75*
G02*
X90826800Y-28547999I0J-50799D01*
G01*
X90826800Y-29448001D01*
G75*
G02*
X90776001Y-29498800I-50799J0D01*
G01*
X90275999Y-29498800D01*
G75*
G02*
X90225200Y-29448001I0J50799D01*
G01*
G37*
%TD*%
%TO.C,R1*%
G36*
G01*
X87725200Y-27448001D02*
X87725200Y-26547999D01*
G75*
G02*
X87775999Y-26497200I50799J0D01*
G01*
X88276001Y-26497200D01*
G75*
G02*
X88326800Y-26547999I0J-50799D01*
G01*
X88326800Y-27448001D01*
G75*
G02*
X88276001Y-27498800I-50799J0D01*
G01*
X87775999Y-27498800D01*
G75*
G02*
X87725200Y-27448001I0J50799D01*
G01*
G37*
G36*
G01*
X89225200Y-27448001D02*
X89225200Y-26547999D01*
G75*
G02*
X89275999Y-26497200I50799J0D01*
G01*
X89776001Y-26497200D01*
G75*
G02*
X89826800Y-26547999I0J-50799D01*
G01*
X89826800Y-27448001D01*
G75*
G02*
X89776001Y-27498800I-50799J0D01*
G01*
X89275999Y-27498800D01*
G75*
G02*
X89225200Y-27448001I0J50799D01*
G01*
G37*
%TD*%
%TO.C,Y1*%
G36*
G01*
X57526800Y-39198000D02*
X57526800Y-40398000D01*
G75*
G02*
X57476000Y-40448800I-50800J0D01*
G01*
X56076000Y-40448800D01*
G75*
G02*
X56025200Y-40398000I0J50800D01*
G01*
X56025200Y-39198000D01*
G75*
G02*
X56076000Y-39147200I50800J0D01*
G01*
X57476000Y-39147200D01*
G75*
G02*
X57526800Y-39198000I0J-50800D01*
G01*
G37*
G36*
G01*
X55326800Y-39198000D02*
X55326800Y-40398000D01*
G75*
G02*
X55276000Y-40448800I-50800J0D01*
G01*
X53876000Y-40448800D01*
G75*
G02*
X53825200Y-40398000I0J50800D01*
G01*
X53825200Y-39198000D01*
G75*
G02*
X53876000Y-39147200I50800J0D01*
G01*
X55276000Y-39147200D01*
G75*
G02*
X55326800Y-39198000I0J-50800D01*
G01*
G37*
G36*
G01*
X55326800Y-40898000D02*
X55326800Y-42098000D01*
G75*
G02*
X55276000Y-42148800I-50800J0D01*
G01*
X53876000Y-42148800D01*
G75*
G02*
X53825200Y-42098000I0J50800D01*
G01*
X53825200Y-40898000D01*
G75*
G02*
X53876000Y-40847200I50800J0D01*
G01*
X55276000Y-40847200D01*
G75*
G02*
X55326800Y-40898000I0J-50800D01*
G01*
G37*
G36*
G01*
X57526800Y-40898000D02*
X57526800Y-42098000D01*
G75*
G02*
X57476000Y-42148800I-50800J0D01*
G01*
X56076000Y-42148800D01*
G75*
G02*
X56025200Y-42098000I0J50800D01*
G01*
X56025200Y-40898000D01*
G75*
G02*
X56076000Y-40847200I50800J0D01*
G01*
X57476000Y-40847200D01*
G75*
G02*
X57526800Y-40898000I0J-50800D01*
G01*
G37*
%TD*%
%TO.C,R5*%
G36*
G01*
X71625200Y-31648001D02*
X71625200Y-30747999D01*
G75*
G02*
X71675999Y-30697200I50799J0D01*
G01*
X72176001Y-30697200D01*
G75*
G02*
X72226800Y-30747999I0J-50799D01*
G01*
X72226800Y-31648001D01*
G75*
G02*
X72176001Y-31698800I-50799J0D01*
G01*
X71675999Y-31698800D01*
G75*
G02*
X71625200Y-31648001I0J50799D01*
G01*
G37*
G36*
G01*
X73125200Y-31648001D02*
X73125200Y-30747999D01*
G75*
G02*
X73175999Y-30697200I50799J0D01*
G01*
X73676001Y-30697200D01*
G75*
G02*
X73726800Y-30747999I0J-50799D01*
G01*
X73726800Y-31648001D01*
G75*
G02*
X73676001Y-31698800I-50799J0D01*
G01*
X73175999Y-31698800D01*
G75*
G02*
X73125200Y-31648001I0J50799D01*
G01*
G37*
%TD*%
%TO.C,C6*%
G36*
G01*
X50226800Y-29873000D02*
X50226800Y-30623000D01*
G75*
G02*
X50176000Y-30673800I-50800J0D01*
G01*
X49376000Y-30673800D01*
G75*
G02*
X49325200Y-30623000I0J50800D01*
G01*
X49325200Y-29873000D01*
G75*
G02*
X49376000Y-29822200I50800J0D01*
G01*
X50176000Y-29822200D01*
G75*
G02*
X50226800Y-29873000I0J-50800D01*
G01*
G37*
G36*
G01*
X51726800Y-29873000D02*
X51726800Y-30623000D01*
G75*
G02*
X51676000Y-30673800I-50800J0D01*
G01*
X50876000Y-30673800D01*
G75*
G02*
X50825200Y-30623000I0J50800D01*
G01*
X50825200Y-29873000D01*
G75*
G02*
X50876000Y-29822200I50800J0D01*
G01*
X51676000Y-29822200D01*
G75*
G02*
X51726800Y-29873000I0J-50800D01*
G01*
G37*
%TD*%
%TO.C,C5*%
G36*
G01*
X63325200Y-37373000D02*
X63325200Y-36623000D01*
G75*
G02*
X63376000Y-36572200I50800J0D01*
G01*
X64176000Y-36572200D01*
G75*
G02*
X64226800Y-36623000I0J-50800D01*
G01*
X64226800Y-37373000D01*
G75*
G02*
X64176000Y-37423800I-50800J0D01*
G01*
X63376000Y-37423800D01*
G75*
G02*
X63325200Y-37373000I0J50800D01*
G01*
G37*
G36*
G01*
X61825200Y-37373000D02*
X61825200Y-36623000D01*
G75*
G02*
X61876000Y-36572200I50800J0D01*
G01*
X62676000Y-36572200D01*
G75*
G02*
X62726800Y-36623000I0J-50800D01*
G01*
X62726800Y-37373000D01*
G75*
G02*
X62676000Y-37423800I-50800J0D01*
G01*
X61876000Y-37423800D01*
G75*
G02*
X61825200Y-37373000I0J50800D01*
G01*
G37*
%TD*%
%TO.C,C4*%
G36*
G01*
X59151000Y-26448800D02*
X58401000Y-26448800D01*
G75*
G02*
X58350200Y-26398000I0J50800D01*
G01*
X58350200Y-25598000D01*
G75*
G02*
X58401000Y-25547200I50800J0D01*
G01*
X59151000Y-25547200D01*
G75*
G02*
X59201800Y-25598000I0J-50800D01*
G01*
X59201800Y-26398000D01*
G75*
G02*
X59151000Y-26448800I-50800J0D01*
G01*
G37*
G36*
G01*
X59151000Y-27948800D02*
X58401000Y-27948800D01*
G75*
G02*
X58350200Y-27898000I0J50800D01*
G01*
X58350200Y-27098000D01*
G75*
G02*
X58401000Y-27047200I50800J0D01*
G01*
X59151000Y-27047200D01*
G75*
G02*
X59201800Y-27098000I0J-50800D01*
G01*
X59201800Y-27898000D01*
G75*
G02*
X59151000Y-27948800I-50800J0D01*
G01*
G37*
%TD*%
%TO.C,C3*%
G36*
G01*
X49726800Y-32873000D02*
X49726800Y-33623000D01*
G75*
G02*
X49676000Y-33673800I-50800J0D01*
G01*
X48876000Y-33673800D01*
G75*
G02*
X48825200Y-33623000I0J50800D01*
G01*
X48825200Y-32873000D01*
G75*
G02*
X48876000Y-32822200I50800J0D01*
G01*
X49676000Y-32822200D01*
G75*
G02*
X49726800Y-32873000I0J-50800D01*
G01*
G37*
G36*
G01*
X51226800Y-32873000D02*
X51226800Y-33623000D01*
G75*
G02*
X51176000Y-33673800I-50800J0D01*
G01*
X50376000Y-33673800D01*
G75*
G02*
X50325200Y-33623000I0J50800D01*
G01*
X50325200Y-32873000D01*
G75*
G02*
X50376000Y-32822200I50800J0D01*
G01*
X51176000Y-32822200D01*
G75*
G02*
X51226800Y-32873000I0J-50800D01*
G01*
G37*
%TD*%
%TO.C,C2*%
G36*
G01*
X58401000Y-40797200D02*
X59151000Y-40797200D01*
G75*
G02*
X59201800Y-40848000I0J-50800D01*
G01*
X59201800Y-41648000D01*
G75*
G02*
X59151000Y-41698800I-50800J0D01*
G01*
X58401000Y-41698800D01*
G75*
G02*
X58350200Y-41648000I0J50800D01*
G01*
X58350200Y-40848000D01*
G75*
G02*
X58401000Y-40797200I50800J0D01*
G01*
G37*
G36*
G01*
X58401000Y-39297200D02*
X59151000Y-39297200D01*
G75*
G02*
X59201800Y-39348000I0J-50800D01*
G01*
X59201800Y-40148000D01*
G75*
G02*
X59151000Y-40198800I-50800J0D01*
G01*
X58401000Y-40198800D01*
G75*
G02*
X58350200Y-40148000I0J50800D01*
G01*
X58350200Y-39348000D01*
G75*
G02*
X58401000Y-39297200I50800J0D01*
G01*
G37*
%TD*%
%TO.C,C1*%
G36*
G01*
X52651000Y-40448800D02*
X51901000Y-40448800D01*
G75*
G02*
X51850200Y-40398000I0J50800D01*
G01*
X51850200Y-39598000D01*
G75*
G02*
X51901000Y-39547200I50800J0D01*
G01*
X52651000Y-39547200D01*
G75*
G02*
X52701800Y-39598000I0J-50800D01*
G01*
X52701800Y-40398000D01*
G75*
G02*
X52651000Y-40448800I-50800J0D01*
G01*
G37*
G36*
G01*
X52651000Y-41948800D02*
X51901000Y-41948800D01*
G75*
G02*
X51850200Y-41898000I0J50800D01*
G01*
X51850200Y-41098000D01*
G75*
G02*
X51901000Y-41047200I50800J0D01*
G01*
X52651000Y-41047200D01*
G75*
G02*
X52701800Y-41098000I0J-50800D01*
G01*
X52701800Y-41898000D01*
G75*
G02*
X52651000Y-41948800I-50800J0D01*
G01*
G37*
%TD*%
%TO.C,D5:9*%
G36*
G01*
X124426800Y-59898000D02*
X124426800Y-61098000D01*
G75*
G02*
X124376000Y-61148800I-50800J0D01*
G01*
X123476000Y-61148800D01*
G75*
G02*
X123425200Y-61098000I0J50800D01*
G01*
X123425200Y-59898000D01*
G75*
G02*
X123476000Y-59847200I50800J0D01*
G01*
X124376000Y-59847200D01*
G75*
G02*
X124426800Y-59898000I0J-50800D01*
G01*
G37*
G36*
G01*
X121126800Y-59898000D02*
X121126800Y-61098000D01*
G75*
G02*
X121076000Y-61148800I-50800J0D01*
G01*
X120176000Y-61148800D01*
G75*
G02*
X120125200Y-61098000I0J50800D01*
G01*
X120125200Y-59898000D01*
G75*
G02*
X120176000Y-59847200I50800J0D01*
G01*
X121076000Y-59847200D01*
G75*
G02*
X121126800Y-59898000I0J-50800D01*
G01*
G37*
%TD*%
D16*
%TO.C,SX1:7*%
X163087957Y-143514413D03*
X169916462Y-143896017D03*
D17*
X167536880Y-139983820D03*
D18*
X172140924Y-142130721D03*
X162932836Y-137836919D03*
%TD*%
D16*
%TO.C,SW3:13*%
X33559500Y-97682660D03*
X39909500Y-95142660D03*
D17*
X36099500Y-92602660D03*
D18*
X41179500Y-92602660D03*
X31019500Y-92602660D03*
%TD*%
D16*
%TO.C,SW2:9*%
X114522000Y-113557660D03*
X120872000Y-111017660D03*
D17*
X117062000Y-108477660D03*
D18*
X122142000Y-108477660D03*
X111982000Y-108477660D03*
%TD*%
D16*
%TO.C,SW2:10*%
X95472000Y-111960000D03*
X101822000Y-109420000D03*
D17*
X98012000Y-106880000D03*
D18*
X103092000Y-106880000D03*
X92932000Y-106880000D03*
%TD*%
D16*
%TO.C,SW3:9*%
X114522000Y-94507660D03*
X120872000Y-91967660D03*
D17*
X117062000Y-89427660D03*
D18*
X122142000Y-89427660D03*
X111982000Y-89427660D03*
%TD*%
D16*
%TO.C,SW2:11*%
X76422000Y-113557660D03*
X82772000Y-111017660D03*
D17*
X78962000Y-108477660D03*
D18*
X84042000Y-108477660D03*
X73882000Y-108477660D03*
%TD*%
D16*
%TO.C,SW3:10*%
X95472000Y-92910000D03*
X101822000Y-90370000D03*
D17*
X98012000Y-87830000D03*
D18*
X103092000Y-87830000D03*
X92932000Y-87830000D03*
%TD*%
D16*
%TO.C,SW3:11*%
X76422000Y-94507660D03*
X82772000Y-91967660D03*
D17*
X78962000Y-89427660D03*
D18*
X84042000Y-89427660D03*
X73882000Y-89427660D03*
%TD*%
D16*
%TO.C,SW1:11*%
X76422000Y-132578000D03*
X82772000Y-130038000D03*
D17*
X78962000Y-127498000D03*
D18*
X84042000Y-127498000D03*
X73882000Y-127498000D03*
%TD*%
D16*
%TO.C,SW1:10*%
X95472000Y-131010000D03*
X101822000Y-128470000D03*
D17*
X98012000Y-125930000D03*
D18*
X103092000Y-125930000D03*
X92932000Y-125930000D03*
%TD*%
%TO.C,U1*%
G36*
G01*
X52331450Y-31191750D02*
X52331450Y-30941750D01*
G75*
G02*
X52382250Y-30890950I50800J0D01*
G01*
X53082250Y-30890950D01*
G75*
G02*
X53133050Y-30941750I0J-50800D01*
G01*
X53133050Y-31191750D01*
G75*
G02*
X53082250Y-31242550I-50800J0D01*
G01*
X52382250Y-31242550D01*
G75*
G02*
X52331450Y-31191750I0J50800D01*
G01*
G37*
G36*
G01*
X52331450Y-31691750D02*
X52331450Y-31441750D01*
G75*
G02*
X52382250Y-31390950I50800J0D01*
G01*
X53082250Y-31390950D01*
G75*
G02*
X53133050Y-31441750I0J-50800D01*
G01*
X53133050Y-31691750D01*
G75*
G02*
X53082250Y-31742550I-50800J0D01*
G01*
X52382250Y-31742550D01*
G75*
G02*
X52331450Y-31691750I0J50800D01*
G01*
G37*
G36*
G01*
X52331450Y-32191750D02*
X52331450Y-31941750D01*
G75*
G02*
X52382250Y-31890950I50800J0D01*
G01*
X53082250Y-31890950D01*
G75*
G02*
X53133050Y-31941750I0J-50800D01*
G01*
X53133050Y-32191750D01*
G75*
G02*
X53082250Y-32242550I-50800J0D01*
G01*
X52382250Y-32242550D01*
G75*
G02*
X52331450Y-32191750I0J50800D01*
G01*
G37*
G36*
G01*
X52331450Y-32691750D02*
X52331450Y-32441750D01*
G75*
G02*
X52382250Y-32390950I50800J0D01*
G01*
X53082250Y-32390950D01*
G75*
G02*
X53133050Y-32441750I0J-50800D01*
G01*
X53133050Y-32691750D01*
G75*
G02*
X53082250Y-32742550I-50800J0D01*
G01*
X52382250Y-32742550D01*
G75*
G02*
X52331450Y-32691750I0J50800D01*
G01*
G37*
G36*
G01*
X52331450Y-33191750D02*
X52331450Y-32941750D01*
G75*
G02*
X52382250Y-32890950I50800J0D01*
G01*
X53082250Y-32890950D01*
G75*
G02*
X53133050Y-32941750I0J-50800D01*
G01*
X53133050Y-33191750D01*
G75*
G02*
X53082250Y-33242550I-50800J0D01*
G01*
X52382250Y-33242550D01*
G75*
G02*
X52331450Y-33191750I0J50800D01*
G01*
G37*
G36*
G01*
X52331450Y-33691750D02*
X52331450Y-33441750D01*
G75*
G02*
X52382250Y-33390950I50800J0D01*
G01*
X53082250Y-33390950D01*
G75*
G02*
X53133050Y-33441750I0J-50800D01*
G01*
X53133050Y-33691750D01*
G75*
G02*
X53082250Y-33742550I-50800J0D01*
G01*
X52382250Y-33742550D01*
G75*
G02*
X52331450Y-33691750I0J50800D01*
G01*
G37*
G36*
G01*
X52331450Y-34191750D02*
X52331450Y-33941750D01*
G75*
G02*
X52382250Y-33890950I50800J0D01*
G01*
X53082250Y-33890950D01*
G75*
G02*
X53133050Y-33941750I0J-50800D01*
G01*
X53133050Y-34191750D01*
G75*
G02*
X53082250Y-34242550I-50800J0D01*
G01*
X52382250Y-34242550D01*
G75*
G02*
X52331450Y-34191750I0J50800D01*
G01*
G37*
G36*
G01*
X52331450Y-34691750D02*
X52331450Y-34441750D01*
G75*
G02*
X52382250Y-34390950I50800J0D01*
G01*
X53082250Y-34390950D01*
G75*
G02*
X53133050Y-34441750I0J-50800D01*
G01*
X53133050Y-34691750D01*
G75*
G02*
X53082250Y-34742550I-50800J0D01*
G01*
X52382250Y-34742550D01*
G75*
G02*
X52331450Y-34691750I0J50800D01*
G01*
G37*
G36*
G01*
X52331450Y-35191750D02*
X52331450Y-34941750D01*
G75*
G02*
X52382250Y-34890950I50800J0D01*
G01*
X53082250Y-34890950D01*
G75*
G02*
X53133050Y-34941750I0J-50800D01*
G01*
X53133050Y-35191750D01*
G75*
G02*
X53082250Y-35242550I-50800J0D01*
G01*
X52382250Y-35242550D01*
G75*
G02*
X52331450Y-35191750I0J50800D01*
G01*
G37*
G36*
G01*
X52331450Y-35691750D02*
X52331450Y-35441750D01*
G75*
G02*
X52382250Y-35390950I50800J0D01*
G01*
X53082250Y-35390950D01*
G75*
G02*
X53133050Y-35441750I0J-50800D01*
G01*
X53133050Y-35691750D01*
G75*
G02*
X53082250Y-35742550I-50800J0D01*
G01*
X52382250Y-35742550D01*
G75*
G02*
X52331450Y-35691750I0J50800D01*
G01*
G37*
G36*
G01*
X52331450Y-36191750D02*
X52331450Y-35941750D01*
G75*
G02*
X52382250Y-35890950I50800J0D01*
G01*
X53082250Y-35890950D01*
G75*
G02*
X53133050Y-35941750I0J-50800D01*
G01*
X53133050Y-36191750D01*
G75*
G02*
X53082250Y-36242550I-50800J0D01*
G01*
X52382250Y-36242550D01*
G75*
G02*
X52331450Y-36191750I0J50800D01*
G01*
G37*
G36*
G01*
X53757250Y-37367550D02*
X53507250Y-37367550D01*
G75*
G02*
X53456450Y-37316750I0J50800D01*
G01*
X53456450Y-36616750D01*
G75*
G02*
X53507250Y-36565950I50800J0D01*
G01*
X53757250Y-36565950D01*
G75*
G02*
X53808050Y-36616750I0J-50800D01*
G01*
X53808050Y-37316750D01*
G75*
G02*
X53757250Y-37367550I-50800J0D01*
G01*
G37*
G36*
G01*
X54257250Y-37367550D02*
X54007250Y-37367550D01*
G75*
G02*
X53956450Y-37316750I0J50800D01*
G01*
X53956450Y-36616750D01*
G75*
G02*
X54007250Y-36565950I50800J0D01*
G01*
X54257250Y-36565950D01*
G75*
G02*
X54308050Y-36616750I0J-50800D01*
G01*
X54308050Y-37316750D01*
G75*
G02*
X54257250Y-37367550I-50800J0D01*
G01*
G37*
G36*
G01*
X54757250Y-37367550D02*
X54507250Y-37367550D01*
G75*
G02*
X54456450Y-37316750I0J50800D01*
G01*
X54456450Y-36616750D01*
G75*
G02*
X54507250Y-36565950I50800J0D01*
G01*
X54757250Y-36565950D01*
G75*
G02*
X54808050Y-36616750I0J-50800D01*
G01*
X54808050Y-37316750D01*
G75*
G02*
X54757250Y-37367550I-50800J0D01*
G01*
G37*
G36*
G01*
X55257250Y-37367550D02*
X55007250Y-37367550D01*
G75*
G02*
X54956450Y-37316750I0J50800D01*
G01*
X54956450Y-36616750D01*
G75*
G02*
X55007250Y-36565950I50800J0D01*
G01*
X55257250Y-36565950D01*
G75*
G02*
X55308050Y-36616750I0J-50800D01*
G01*
X55308050Y-37316750D01*
G75*
G02*
X55257250Y-37367550I-50800J0D01*
G01*
G37*
G36*
G01*
X55757250Y-37367550D02*
X55507250Y-37367550D01*
G75*
G02*
X55456450Y-37316750I0J50800D01*
G01*
X55456450Y-36616750D01*
G75*
G02*
X55507250Y-36565950I50800J0D01*
G01*
X55757250Y-36565950D01*
G75*
G02*
X55808050Y-36616750I0J-50800D01*
G01*
X55808050Y-37316750D01*
G75*
G02*
X55757250Y-37367550I-50800J0D01*
G01*
G37*
G36*
G01*
X56257250Y-37367550D02*
X56007250Y-37367550D01*
G75*
G02*
X55956450Y-37316750I0J50800D01*
G01*
X55956450Y-36616750D01*
G75*
G02*
X56007250Y-36565950I50800J0D01*
G01*
X56257250Y-36565950D01*
G75*
G02*
X56308050Y-36616750I0J-50800D01*
G01*
X56308050Y-37316750D01*
G75*
G02*
X56257250Y-37367550I-50800J0D01*
G01*
G37*
G36*
G01*
X56757250Y-37367550D02*
X56507250Y-37367550D01*
G75*
G02*
X56456450Y-37316750I0J50800D01*
G01*
X56456450Y-36616750D01*
G75*
G02*
X56507250Y-36565950I50800J0D01*
G01*
X56757250Y-36565950D01*
G75*
G02*
X56808050Y-36616750I0J-50800D01*
G01*
X56808050Y-37316750D01*
G75*
G02*
X56757250Y-37367550I-50800J0D01*
G01*
G37*
G36*
G01*
X57257250Y-37367550D02*
X57007250Y-37367550D01*
G75*
G02*
X56956450Y-37316750I0J50800D01*
G01*
X56956450Y-36616750D01*
G75*
G02*
X57007250Y-36565950I50800J0D01*
G01*
X57257250Y-36565950D01*
G75*
G02*
X57308050Y-36616750I0J-50800D01*
G01*
X57308050Y-37316750D01*
G75*
G02*
X57257250Y-37367550I-50800J0D01*
G01*
G37*
G36*
G01*
X57757250Y-37367550D02*
X57507250Y-37367550D01*
G75*
G02*
X57456450Y-37316750I0J50800D01*
G01*
X57456450Y-36616750D01*
G75*
G02*
X57507250Y-36565950I50800J0D01*
G01*
X57757250Y-36565950D01*
G75*
G02*
X57808050Y-36616750I0J-50800D01*
G01*
X57808050Y-37316750D01*
G75*
G02*
X57757250Y-37367550I-50800J0D01*
G01*
G37*
G36*
G01*
X58257250Y-37367550D02*
X58007250Y-37367550D01*
G75*
G02*
X57956450Y-37316750I0J50800D01*
G01*
X57956450Y-36616750D01*
G75*
G02*
X58007250Y-36565950I50800J0D01*
G01*
X58257250Y-36565950D01*
G75*
G02*
X58308050Y-36616750I0J-50800D01*
G01*
X58308050Y-37316750D01*
G75*
G02*
X58257250Y-37367550I-50800J0D01*
G01*
G37*
G36*
G01*
X58757250Y-37367550D02*
X58507250Y-37367550D01*
G75*
G02*
X58456450Y-37316750I0J50800D01*
G01*
X58456450Y-36616750D01*
G75*
G02*
X58507250Y-36565950I50800J0D01*
G01*
X58757250Y-36565950D01*
G75*
G02*
X58808050Y-36616750I0J-50800D01*
G01*
X58808050Y-37316750D01*
G75*
G02*
X58757250Y-37367550I-50800J0D01*
G01*
G37*
G36*
G01*
X59131450Y-36191750D02*
X59131450Y-35941750D01*
G75*
G02*
X59182250Y-35890950I50800J0D01*
G01*
X59882250Y-35890950D01*
G75*
G02*
X59933050Y-35941750I0J-50800D01*
G01*
X59933050Y-36191750D01*
G75*
G02*
X59882250Y-36242550I-50800J0D01*
G01*
X59182250Y-36242550D01*
G75*
G02*
X59131450Y-36191750I0J50800D01*
G01*
G37*
G36*
G01*
X59131450Y-35691750D02*
X59131450Y-35441750D01*
G75*
G02*
X59182250Y-35390950I50800J0D01*
G01*
X59882250Y-35390950D01*
G75*
G02*
X59933050Y-35441750I0J-50800D01*
G01*
X59933050Y-35691750D01*
G75*
G02*
X59882250Y-35742550I-50800J0D01*
G01*
X59182250Y-35742550D01*
G75*
G02*
X59131450Y-35691750I0J50800D01*
G01*
G37*
G36*
G01*
X59131450Y-35191750D02*
X59131450Y-34941750D01*
G75*
G02*
X59182250Y-34890950I50800J0D01*
G01*
X59882250Y-34890950D01*
G75*
G02*
X59933050Y-34941750I0J-50800D01*
G01*
X59933050Y-35191750D01*
G75*
G02*
X59882250Y-35242550I-50800J0D01*
G01*
X59182250Y-35242550D01*
G75*
G02*
X59131450Y-35191750I0J50800D01*
G01*
G37*
G36*
G01*
X59131450Y-34691750D02*
X59131450Y-34441750D01*
G75*
G02*
X59182250Y-34390950I50800J0D01*
G01*
X59882250Y-34390950D01*
G75*
G02*
X59933050Y-34441750I0J-50800D01*
G01*
X59933050Y-34691750D01*
G75*
G02*
X59882250Y-34742550I-50800J0D01*
G01*
X59182250Y-34742550D01*
G75*
G02*
X59131450Y-34691750I0J50800D01*
G01*
G37*
G36*
G01*
X59131450Y-34191750D02*
X59131450Y-33941750D01*
G75*
G02*
X59182250Y-33890950I50800J0D01*
G01*
X59882250Y-33890950D01*
G75*
G02*
X59933050Y-33941750I0J-50800D01*
G01*
X59933050Y-34191750D01*
G75*
G02*
X59882250Y-34242550I-50800J0D01*
G01*
X59182250Y-34242550D01*
G75*
G02*
X59131450Y-34191750I0J50800D01*
G01*
G37*
G36*
G01*
X59131450Y-33691750D02*
X59131450Y-33441750D01*
G75*
G02*
X59182250Y-33390950I50800J0D01*
G01*
X59882250Y-33390950D01*
G75*
G02*
X59933050Y-33441750I0J-50800D01*
G01*
X59933050Y-33691750D01*
G75*
G02*
X59882250Y-33742550I-50800J0D01*
G01*
X59182250Y-33742550D01*
G75*
G02*
X59131450Y-33691750I0J50800D01*
G01*
G37*
G36*
G01*
X59131450Y-33191750D02*
X59131450Y-32941750D01*
G75*
G02*
X59182250Y-32890950I50800J0D01*
G01*
X59882250Y-32890950D01*
G75*
G02*
X59933050Y-32941750I0J-50800D01*
G01*
X59933050Y-33191750D01*
G75*
G02*
X59882250Y-33242550I-50800J0D01*
G01*
X59182250Y-33242550D01*
G75*
G02*
X59131450Y-33191750I0J50800D01*
G01*
G37*
G36*
G01*
X59131450Y-32691750D02*
X59131450Y-32441750D01*
G75*
G02*
X59182250Y-32390950I50800J0D01*
G01*
X59882250Y-32390950D01*
G75*
G02*
X59933050Y-32441750I0J-50800D01*
G01*
X59933050Y-32691750D01*
G75*
G02*
X59882250Y-32742550I-50800J0D01*
G01*
X59182250Y-32742550D01*
G75*
G02*
X59131450Y-32691750I0J50800D01*
G01*
G37*
G36*
G01*
X59131450Y-32191750D02*
X59131450Y-31941750D01*
G75*
G02*
X59182250Y-31890950I50800J0D01*
G01*
X59882250Y-31890950D01*
G75*
G02*
X59933050Y-31941750I0J-50800D01*
G01*
X59933050Y-32191750D01*
G75*
G02*
X59882250Y-32242550I-50800J0D01*
G01*
X59182250Y-32242550D01*
G75*
G02*
X59131450Y-32191750I0J50800D01*
G01*
G37*
G36*
G01*
X59131450Y-31691750D02*
X59131450Y-31441750D01*
G75*
G02*
X59182250Y-31390950I50800J0D01*
G01*
X59882250Y-31390950D01*
G75*
G02*
X59933050Y-31441750I0J-50800D01*
G01*
X59933050Y-31691750D01*
G75*
G02*
X59882250Y-31742550I-50800J0D01*
G01*
X59182250Y-31742550D01*
G75*
G02*
X59131450Y-31691750I0J50800D01*
G01*
G37*
G36*
G01*
X59131450Y-31191750D02*
X59131450Y-30941750D01*
G75*
G02*
X59182250Y-30890950I50800J0D01*
G01*
X59882250Y-30890950D01*
G75*
G02*
X59933050Y-30941750I0J-50800D01*
G01*
X59933050Y-31191750D01*
G75*
G02*
X59882250Y-31242550I-50800J0D01*
G01*
X59182250Y-31242550D01*
G75*
G02*
X59131450Y-31191750I0J50800D01*
G01*
G37*
G36*
G01*
X58757250Y-30567550D02*
X58507250Y-30567550D01*
G75*
G02*
X58456450Y-30516750I0J50800D01*
G01*
X58456450Y-29816750D01*
G75*
G02*
X58507250Y-29765950I50800J0D01*
G01*
X58757250Y-29765950D01*
G75*
G02*
X58808050Y-29816750I0J-50800D01*
G01*
X58808050Y-30516750D01*
G75*
G02*
X58757250Y-30567550I-50800J0D01*
G01*
G37*
G36*
G01*
X58257250Y-30567550D02*
X58007250Y-30567550D01*
G75*
G02*
X57956450Y-30516750I0J50800D01*
G01*
X57956450Y-29816750D01*
G75*
G02*
X58007250Y-29765950I50800J0D01*
G01*
X58257250Y-29765950D01*
G75*
G02*
X58308050Y-29816750I0J-50800D01*
G01*
X58308050Y-30516750D01*
G75*
G02*
X58257250Y-30567550I-50800J0D01*
G01*
G37*
G36*
G01*
X57757250Y-30567550D02*
X57507250Y-30567550D01*
G75*
G02*
X57456450Y-30516750I0J50800D01*
G01*
X57456450Y-29816750D01*
G75*
G02*
X57507250Y-29765950I50800J0D01*
G01*
X57757250Y-29765950D01*
G75*
G02*
X57808050Y-29816750I0J-50800D01*
G01*
X57808050Y-30516750D01*
G75*
G02*
X57757250Y-30567550I-50800J0D01*
G01*
G37*
G36*
G01*
X57257250Y-30567550D02*
X57007250Y-30567550D01*
G75*
G02*
X56956450Y-30516750I0J50800D01*
G01*
X56956450Y-29816750D01*
G75*
G02*
X57007250Y-29765950I50800J0D01*
G01*
X57257250Y-29765950D01*
G75*
G02*
X57308050Y-29816750I0J-50800D01*
G01*
X57308050Y-30516750D01*
G75*
G02*
X57257250Y-30567550I-50800J0D01*
G01*
G37*
G36*
G01*
X56757250Y-30567550D02*
X56507250Y-30567550D01*
G75*
G02*
X56456450Y-30516750I0J50800D01*
G01*
X56456450Y-29816750D01*
G75*
G02*
X56507250Y-29765950I50800J0D01*
G01*
X56757250Y-29765950D01*
G75*
G02*
X56808050Y-29816750I0J-50800D01*
G01*
X56808050Y-30516750D01*
G75*
G02*
X56757250Y-30567550I-50800J0D01*
G01*
G37*
G36*
G01*
X56257250Y-30567550D02*
X56007250Y-30567550D01*
G75*
G02*
X55956450Y-30516750I0J50800D01*
G01*
X55956450Y-29816750D01*
G75*
G02*
X56007250Y-29765950I50800J0D01*
G01*
X56257250Y-29765950D01*
G75*
G02*
X56308050Y-29816750I0J-50800D01*
G01*
X56308050Y-30516750D01*
G75*
G02*
X56257250Y-30567550I-50800J0D01*
G01*
G37*
G36*
G01*
X55757250Y-30567550D02*
X55507250Y-30567550D01*
G75*
G02*
X55456450Y-30516750I0J50800D01*
G01*
X55456450Y-29816750D01*
G75*
G02*
X55507250Y-29765950I50800J0D01*
G01*
X55757250Y-29765950D01*
G75*
G02*
X55808050Y-29816750I0J-50800D01*
G01*
X55808050Y-30516750D01*
G75*
G02*
X55757250Y-30567550I-50800J0D01*
G01*
G37*
G36*
G01*
X55257250Y-30567550D02*
X55007250Y-30567550D01*
G75*
G02*
X54956450Y-30516750I0J50800D01*
G01*
X54956450Y-29816750D01*
G75*
G02*
X55007250Y-29765950I50800J0D01*
G01*
X55257250Y-29765950D01*
G75*
G02*
X55308050Y-29816750I0J-50800D01*
G01*
X55308050Y-30516750D01*
G75*
G02*
X55257250Y-30567550I-50800J0D01*
G01*
G37*
G36*
G01*
X54757250Y-30567550D02*
X54507250Y-30567550D01*
G75*
G02*
X54456450Y-30516750I0J50800D01*
G01*
X54456450Y-29816750D01*
G75*
G02*
X54507250Y-29765950I50800J0D01*
G01*
X54757250Y-29765950D01*
G75*
G02*
X54808050Y-29816750I0J-50800D01*
G01*
X54808050Y-30516750D01*
G75*
G02*
X54757250Y-30567550I-50800J0D01*
G01*
G37*
G36*
G01*
X54257250Y-30567550D02*
X54007250Y-30567550D01*
G75*
G02*
X53956450Y-30516750I0J50800D01*
G01*
X53956450Y-29816750D01*
G75*
G02*
X54007250Y-29765950I50800J0D01*
G01*
X54257250Y-29765950D01*
G75*
G02*
X54308050Y-29816750I0J-50800D01*
G01*
X54308050Y-30516750D01*
G75*
G02*
X54257250Y-30567550I-50800J0D01*
G01*
G37*
G36*
G01*
X53757250Y-30567550D02*
X53507250Y-30567550D01*
G75*
G02*
X53456450Y-30516750I0J50800D01*
G01*
X53456450Y-29816750D01*
G75*
G02*
X53507250Y-29765950I50800J0D01*
G01*
X53757250Y-29765950D01*
G75*
G02*
X53808050Y-29816750I0J-50800D01*
G01*
X53808050Y-30516750D01*
G75*
G02*
X53757250Y-30567550I-50800J0D01*
G01*
G37*
G36*
G01*
X57368950Y-36141751D02*
X57368950Y-34854249D01*
G75*
G02*
X57419749Y-34803450I50799J0D01*
G01*
X58707251Y-34803450D01*
G75*
G02*
X58758050Y-34854249I0J-50799D01*
G01*
X58758050Y-36141751D01*
G75*
G02*
X58707251Y-36192550I-50799J0D01*
G01*
X57419749Y-36192550D01*
G75*
G02*
X57368950Y-36141751I0J50799D01*
G01*
G37*
G36*
G01*
X57368950Y-34854251D02*
X57368950Y-33566749D01*
G75*
G02*
X57419749Y-33515950I50799J0D01*
G01*
X58707251Y-33515950D01*
G75*
G02*
X58758050Y-33566749I0J-50799D01*
G01*
X58758050Y-34854251D01*
G75*
G02*
X58707251Y-34905050I-50799J0D01*
G01*
X57419749Y-34905050D01*
G75*
G02*
X57368950Y-34854251I0J50799D01*
G01*
G37*
G36*
G01*
X57368950Y-33566751D02*
X57368950Y-32279249D01*
G75*
G02*
X57419749Y-32228450I50799J0D01*
G01*
X58707251Y-32228450D01*
G75*
G02*
X58758050Y-32279249I0J-50799D01*
G01*
X58758050Y-33566751D01*
G75*
G02*
X58707251Y-33617550I-50799J0D01*
G01*
X57419749Y-33617550D01*
G75*
G02*
X57368950Y-33566751I0J50799D01*
G01*
G37*
G36*
G01*
X57368950Y-32279251D02*
X57368950Y-30991749D01*
G75*
G02*
X57419749Y-30940950I50799J0D01*
G01*
X58707251Y-30940950D01*
G75*
G02*
X58758050Y-30991749I0J-50799D01*
G01*
X58758050Y-32279251D01*
G75*
G02*
X58707251Y-32330050I-50799J0D01*
G01*
X57419749Y-32330050D01*
G75*
G02*
X57368950Y-32279251I0J50799D01*
G01*
G37*
G36*
G01*
X56081450Y-36141751D02*
X56081450Y-34854249D01*
G75*
G02*
X56132249Y-34803450I50799J0D01*
G01*
X57419751Y-34803450D01*
G75*
G02*
X57470550Y-34854249I0J-50799D01*
G01*
X57470550Y-36141751D01*
G75*
G02*
X57419751Y-36192550I-50799J0D01*
G01*
X56132249Y-36192550D01*
G75*
G02*
X56081450Y-36141751I0J50799D01*
G01*
G37*
G36*
G01*
X56081450Y-34854251D02*
X56081450Y-33566749D01*
G75*
G02*
X56132249Y-33515950I50799J0D01*
G01*
X57419751Y-33515950D01*
G75*
G02*
X57470550Y-33566749I0J-50799D01*
G01*
X57470550Y-34854251D01*
G75*
G02*
X57419751Y-34905050I-50799J0D01*
G01*
X56132249Y-34905050D01*
G75*
G02*
X56081450Y-34854251I0J50799D01*
G01*
G37*
G36*
G01*
X56081450Y-33566751D02*
X56081450Y-32279249D01*
G75*
G02*
X56132249Y-32228450I50799J0D01*
G01*
X57419751Y-32228450D01*
G75*
G02*
X57470550Y-32279249I0J-50799D01*
G01*
X57470550Y-33566751D01*
G75*
G02*
X57419751Y-33617550I-50799J0D01*
G01*
X56132249Y-33617550D01*
G75*
G02*
X56081450Y-33566751I0J50799D01*
G01*
G37*
G36*
G01*
X56081450Y-32279251D02*
X56081450Y-30991749D01*
G75*
G02*
X56132249Y-30940950I50799J0D01*
G01*
X57419751Y-30940950D01*
G75*
G02*
X57470550Y-30991749I0J-50799D01*
G01*
X57470550Y-32279251D01*
G75*
G02*
X57419751Y-32330050I-50799J0D01*
G01*
X56132249Y-32330050D01*
G75*
G02*
X56081450Y-32279251I0J50799D01*
G01*
G37*
G36*
G01*
X54793950Y-36141751D02*
X54793950Y-34854249D01*
G75*
G02*
X54844749Y-34803450I50799J0D01*
G01*
X56132251Y-34803450D01*
G75*
G02*
X56183050Y-34854249I0J-50799D01*
G01*
X56183050Y-36141751D01*
G75*
G02*
X56132251Y-36192550I-50799J0D01*
G01*
X54844749Y-36192550D01*
G75*
G02*
X54793950Y-36141751I0J50799D01*
G01*
G37*
G36*
G01*
X54793950Y-34854251D02*
X54793950Y-33566749D01*
G75*
G02*
X54844749Y-33515950I50799J0D01*
G01*
X56132251Y-33515950D01*
G75*
G02*
X56183050Y-33566749I0J-50799D01*
G01*
X56183050Y-34854251D01*
G75*
G02*
X56132251Y-34905050I-50799J0D01*
G01*
X54844749Y-34905050D01*
G75*
G02*
X54793950Y-34854251I0J50799D01*
G01*
G37*
G36*
G01*
X54793950Y-33566751D02*
X54793950Y-32279249D01*
G75*
G02*
X54844749Y-32228450I50799J0D01*
G01*
X56132251Y-32228450D01*
G75*
G02*
X56183050Y-32279249I0J-50799D01*
G01*
X56183050Y-33566751D01*
G75*
G02*
X56132251Y-33617550I-50799J0D01*
G01*
X54844749Y-33617550D01*
G75*
G02*
X54793950Y-33566751I0J50799D01*
G01*
G37*
G36*
G01*
X54793950Y-32279251D02*
X54793950Y-30991749D01*
G75*
G02*
X54844749Y-30940950I50799J0D01*
G01*
X56132251Y-30940950D01*
G75*
G02*
X56183050Y-30991749I0J-50799D01*
G01*
X56183050Y-32279251D01*
G75*
G02*
X56132251Y-32330050I-50799J0D01*
G01*
X54844749Y-32330050D01*
G75*
G02*
X54793950Y-32279251I0J50799D01*
G01*
G37*
G36*
G01*
X53506450Y-36141751D02*
X53506450Y-34854249D01*
G75*
G02*
X53557249Y-34803450I50799J0D01*
G01*
X54844751Y-34803450D01*
G75*
G02*
X54895550Y-34854249I0J-50799D01*
G01*
X54895550Y-36141751D01*
G75*
G02*
X54844751Y-36192550I-50799J0D01*
G01*
X53557249Y-36192550D01*
G75*
G02*
X53506450Y-36141751I0J50799D01*
G01*
G37*
G36*
G01*
X53506450Y-34854251D02*
X53506450Y-33566749D01*
G75*
G02*
X53557249Y-33515950I50799J0D01*
G01*
X54844751Y-33515950D01*
G75*
G02*
X54895550Y-33566749I0J-50799D01*
G01*
X54895550Y-34854251D01*
G75*
G02*
X54844751Y-34905050I-50799J0D01*
G01*
X53557249Y-34905050D01*
G75*
G02*
X53506450Y-34854251I0J50799D01*
G01*
G37*
G36*
G01*
X53506450Y-33566751D02*
X53506450Y-32279249D01*
G75*
G02*
X53557249Y-32228450I50799J0D01*
G01*
X54844751Y-32228450D01*
G75*
G02*
X54895550Y-32279249I0J-50799D01*
G01*
X54895550Y-33566751D01*
G75*
G02*
X54844751Y-33617550I-50799J0D01*
G01*
X53557249Y-33617550D01*
G75*
G02*
X53506450Y-33566751I0J50799D01*
G01*
G37*
G36*
G01*
X53506450Y-32279251D02*
X53506450Y-30991749D01*
G75*
G02*
X53557249Y-30940950I50799J0D01*
G01*
X54844751Y-30940950D01*
G75*
G02*
X54895550Y-30991749I0J-50799D01*
G01*
X54895550Y-32279251D01*
G75*
G02*
X54844751Y-32330050I-50799J0D01*
G01*
X53557249Y-32330050D01*
G75*
G02*
X53506450Y-32279251I0J50799D01*
G01*
G37*
%TD*%
D16*
%TO.C,SX1:8*%
X145823577Y-135462613D03*
X152652082Y-135844217D03*
D17*
X150272500Y-131932020D03*
D18*
X154876544Y-134078921D03*
X145668456Y-129785119D03*
%TD*%
D16*
%TO.C,SW5:12*%
X57372000Y-59585200D03*
X63722000Y-57045200D03*
D17*
X59912000Y-54505200D03*
D18*
X64992000Y-54505200D03*
X54832000Y-54505200D03*
%TD*%
D16*
%TO.C,SW5:11*%
X76422000Y-56407660D03*
X82772000Y-53867660D03*
D17*
X78962000Y-51327660D03*
D18*
X84042000Y-51327660D03*
X73882000Y-51327660D03*
%TD*%
D16*
%TO.C,SW5:10*%
X95472000Y-54810000D03*
X101822000Y-52270000D03*
D17*
X98012000Y-49730000D03*
D18*
X103092000Y-49730000D03*
X92932000Y-49730000D03*
%TD*%
D16*
%TO.C,SW5:9*%
X114522000Y-56407660D03*
X120872000Y-53867660D03*
D17*
X117062000Y-51327660D03*
D18*
X122142000Y-51327660D03*
X111982000Y-51327660D03*
%TD*%
D16*
%TO.C,SW5:8*%
X133572000Y-57680200D03*
X139922000Y-55140200D03*
D17*
X136112000Y-52600200D03*
D18*
X141192000Y-52600200D03*
X131032000Y-52600200D03*
%TD*%
D16*
%TO.C,SW5:7*%
X152622000Y-57680200D03*
X158972000Y-55140200D03*
D17*
X155162000Y-52600200D03*
D18*
X160242000Y-52600200D03*
X150082000Y-52600200D03*
%TD*%
D16*
%TO.C,SW4:13*%
X33559500Y-78632660D03*
X39909500Y-76092660D03*
D17*
X36099500Y-73552660D03*
D18*
X41179500Y-73552660D03*
X31019500Y-73552660D03*
%TD*%
D16*
%TO.C,SW4:12*%
X57372000Y-78632660D03*
X63722000Y-76092660D03*
D17*
X59912000Y-73552660D03*
D18*
X64992000Y-73552660D03*
X54832000Y-73552660D03*
%TD*%
D16*
%TO.C,SW4:11*%
X76422000Y-75457660D03*
X82772000Y-72917660D03*
D17*
X78962000Y-70377660D03*
D18*
X84042000Y-70377660D03*
X73882000Y-70377660D03*
%TD*%
D16*
%TO.C,SW4:10*%
X95472000Y-73860000D03*
X101822000Y-71320000D03*
D17*
X98012000Y-68780000D03*
D18*
X103092000Y-68780000D03*
X92932000Y-68780000D03*
%TD*%
D16*
%TO.C,SW4:9*%
X114522000Y-75457660D03*
X120872000Y-72917660D03*
D17*
X117062000Y-70377660D03*
D18*
X122142000Y-70377660D03*
X111982000Y-70377660D03*
%TD*%
D16*
%TO.C,SW4:8*%
X133572000Y-76727660D03*
X139922000Y-74187660D03*
D17*
X136112000Y-71647660D03*
D18*
X141192000Y-71647660D03*
X131032000Y-71647660D03*
%TD*%
D16*
%TO.C,SW4:7*%
X160242000Y-78950160D03*
X157702000Y-72600160D03*
D17*
X155162000Y-76410160D03*
D18*
X155162000Y-71330160D03*
X155162000Y-81490160D03*
%TD*%
D16*
%TO.C,SW3:12*%
X57372000Y-97682660D03*
X63722000Y-95142660D03*
D17*
X59912000Y-92602660D03*
D18*
X64992000Y-92602660D03*
X54832000Y-92602660D03*
%TD*%
D16*
%TO.C,SW3:8*%
X133572000Y-95777660D03*
X139922000Y-93237660D03*
D17*
X136112000Y-90697660D03*
D18*
X141192000Y-90697660D03*
X131032000Y-90697660D03*
%TD*%
D16*
%TO.C,SW2:13*%
X33559500Y-116732660D03*
X39909500Y-114192660D03*
D17*
X36099500Y-111652660D03*
D18*
X41179500Y-111652660D03*
X31019500Y-111652660D03*
%TD*%
D16*
%TO.C,SW2:12*%
X57372000Y-116732660D03*
X63722000Y-114192660D03*
D17*
X59912000Y-111652660D03*
D18*
X64992000Y-111652660D03*
X54832000Y-111652660D03*
%TD*%
D16*
%TO.C,SW2:8*%
X133572000Y-114827660D03*
X139922000Y-112287660D03*
D17*
X136112000Y-109747660D03*
D18*
X141192000Y-109747660D03*
X131032000Y-109747660D03*
%TD*%
D16*
%TO.C,SW2:7*%
X160242000Y-107525160D03*
X157702000Y-101175160D03*
D17*
X155162000Y-104985160D03*
D18*
X155162000Y-99905160D03*
X155162000Y-110065160D03*
%TD*%
D16*
%TO.C,SW1:13*%
X38322000Y-135782660D03*
X44672000Y-133242660D03*
D17*
X40862000Y-130702660D03*
D18*
X45942000Y-130702660D03*
X35782000Y-130702660D03*
%TD*%
D16*
%TO.C,SW1:12*%
X57372000Y-135782660D03*
X63722000Y-133242660D03*
D17*
X59912000Y-130702660D03*
D18*
X64992000Y-130702660D03*
X54832000Y-130702660D03*
%TD*%
D16*
%TO.C,SW0:12*%
X172303077Y-168830593D03*
X179131582Y-169212197D03*
D17*
X176752000Y-165300000D03*
D18*
X181356044Y-167446901D03*
X172147956Y-163153099D03*
%TD*%
D16*
%TO.C,SW0:11*%
X155827077Y-160528593D03*
X162655582Y-160910197D03*
D17*
X160276000Y-156998000D03*
D18*
X164880044Y-159144901D03*
X155671956Y-154851099D03*
%TD*%
D16*
%TO.C,SW0:10*%
X137827077Y-152528593D03*
X144655582Y-152910197D03*
D17*
X142276000Y-148998000D03*
D18*
X146880044Y-151144901D03*
X137671956Y-146851099D03*
%TD*%
D16*
%TO.C,SW0:9*%
X180354877Y-151563673D03*
X187183382Y-151945277D03*
D17*
X184803800Y-148033080D03*
D18*
X189407844Y-150179981D03*
X180199756Y-145886179D03*
%TD*%
D16*
%TO.C,SW0:8*%
X171139757Y-126250033D03*
X177968262Y-126631637D03*
D17*
X175588680Y-122719440D03*
D18*
X180192724Y-124866341D03*
X170984636Y-120572539D03*
%TD*%
D16*
%TO.C,SW0:7*%
X188404137Y-134299293D03*
X195232642Y-134680897D03*
D17*
X192853060Y-130768700D03*
D18*
X197457104Y-132915601D03*
X188249016Y-128621799D03*
%TD*%
D19*
%TO.C,SW1*%
X36276000Y-42998000D03*
X36276000Y-38498000D03*
X42776000Y-42998000D03*
X42776000Y-38498000D03*
%TD*%
%TO.C,R10*%
G36*
G01*
X63826800Y-32547999D02*
X63826800Y-33448001D01*
G75*
G02*
X63776001Y-33498800I-50799J0D01*
G01*
X63275999Y-33498800D01*
G75*
G02*
X63225200Y-33448001I0J50799D01*
G01*
X63225200Y-32547999D01*
G75*
G02*
X63275999Y-32497200I50799J0D01*
G01*
X63776001Y-32497200D01*
G75*
G02*
X63826800Y-32547999I0J-50799D01*
G01*
G37*
G36*
G01*
X62326800Y-32547999D02*
X62326800Y-33448001D01*
G75*
G02*
X62276001Y-33498800I-50799J0D01*
G01*
X61775999Y-33498800D01*
G75*
G02*
X61725200Y-33448001I0J50799D01*
G01*
X61725200Y-32547999D01*
G75*
G02*
X61775999Y-32497200I50799J0D01*
G01*
X62276001Y-32497200D01*
G75*
G02*
X62326800Y-32547999I0J-50799D01*
G01*
G37*
%TD*%
%TO.C,R9*%
G36*
G01*
X63826800Y-34547999D02*
X63826800Y-35448001D01*
G75*
G02*
X63776001Y-35498800I-50799J0D01*
G01*
X63275999Y-35498800D01*
G75*
G02*
X63225200Y-35448001I0J50799D01*
G01*
X63225200Y-34547999D01*
G75*
G02*
X63275999Y-34497200I50799J0D01*
G01*
X63776001Y-34497200D01*
G75*
G02*
X63826800Y-34547999I0J-50799D01*
G01*
G37*
G36*
G01*
X62326800Y-34547999D02*
X62326800Y-35448001D01*
G75*
G02*
X62276001Y-35498800I-50799J0D01*
G01*
X61775999Y-35498800D01*
G75*
G02*
X61725200Y-35448001I0J50799D01*
G01*
X61725200Y-34547999D01*
G75*
G02*
X61775999Y-34497200I50799J0D01*
G01*
X62276001Y-34497200D01*
G75*
G02*
X62326800Y-34547999I0J-50799D01*
G01*
G37*
%TD*%
D20*
%TO.C,J1*%
X135776000Y-32298000D03*
D21*
X138626000Y-31498000D03*
X132926000Y-31498000D03*
X132476000Y-23498000D03*
D22*
X135776000Y-28998000D03*
X135776000Y-21998000D03*
D21*
X139076000Y-23498000D03*
%TD*%
%TO.C,D5:13*%
G36*
G01*
X44426800Y-62898000D02*
X44426800Y-64098000D01*
G75*
G02*
X44376000Y-64148800I-50800J0D01*
G01*
X43476000Y-64148800D01*
G75*
G02*
X43425200Y-64098000I0J50800D01*
G01*
X43425200Y-62898000D01*
G75*
G02*
X43476000Y-62847200I50800J0D01*
G01*
X44376000Y-62847200D01*
G75*
G02*
X44426800Y-62898000I0J-50800D01*
G01*
G37*
G36*
G01*
X41126800Y-62898000D02*
X41126800Y-64098000D01*
G75*
G02*
X41076000Y-64148800I-50800J0D01*
G01*
X40176000Y-64148800D01*
G75*
G02*
X40125200Y-64098000I0J50800D01*
G01*
X40125200Y-62898000D01*
G75*
G02*
X40176000Y-62847200I50800J0D01*
G01*
X41076000Y-62847200D01*
G75*
G02*
X41126800Y-62898000I0J-50800D01*
G01*
G37*
%TD*%
%TO.C,D5:12*%
G36*
G01*
X68426800Y-62898000D02*
X68426800Y-64098000D01*
G75*
G02*
X68376000Y-64148800I-50800J0D01*
G01*
X67476000Y-64148800D01*
G75*
G02*
X67425200Y-64098000I0J50800D01*
G01*
X67425200Y-62898000D01*
G75*
G02*
X67476000Y-62847200I50800J0D01*
G01*
X68376000Y-62847200D01*
G75*
G02*
X68426800Y-62898000I0J-50800D01*
G01*
G37*
G36*
G01*
X65126800Y-62898000D02*
X65126800Y-64098000D01*
G75*
G02*
X65076000Y-64148800I-50800J0D01*
G01*
X64176000Y-64148800D01*
G75*
G02*
X64125200Y-64098000I0J50800D01*
G01*
X64125200Y-62898000D01*
G75*
G02*
X64176000Y-62847200I50800J0D01*
G01*
X65076000Y-62847200D01*
G75*
G02*
X65126800Y-62898000I0J-50800D01*
G01*
G37*
%TD*%
%TO.C,D5:11*%
G36*
G01*
X86426800Y-59898000D02*
X86426800Y-61098000D01*
G75*
G02*
X86376000Y-61148800I-50800J0D01*
G01*
X85476000Y-61148800D01*
G75*
G02*
X85425200Y-61098000I0J50800D01*
G01*
X85425200Y-59898000D01*
G75*
G02*
X85476000Y-59847200I50800J0D01*
G01*
X86376000Y-59847200D01*
G75*
G02*
X86426800Y-59898000I0J-50800D01*
G01*
G37*
G36*
G01*
X83126800Y-59898000D02*
X83126800Y-61098000D01*
G75*
G02*
X83076000Y-61148800I-50800J0D01*
G01*
X82176000Y-61148800D01*
G75*
G02*
X82125200Y-61098000I0J50800D01*
G01*
X82125200Y-59898000D01*
G75*
G02*
X82176000Y-59847200I50800J0D01*
G01*
X83076000Y-59847200D01*
G75*
G02*
X83126800Y-59898000I0J-50800D01*
G01*
G37*
%TD*%
%TO.C,D5:10*%
G36*
G01*
X105426800Y-57898000D02*
X105426800Y-59098000D01*
G75*
G02*
X105376000Y-59148800I-50800J0D01*
G01*
X104476000Y-59148800D01*
G75*
G02*
X104425200Y-59098000I0J50800D01*
G01*
X104425200Y-57898000D01*
G75*
G02*
X104476000Y-57847200I50800J0D01*
G01*
X105376000Y-57847200D01*
G75*
G02*
X105426800Y-57898000I0J-50800D01*
G01*
G37*
G36*
G01*
X102126800Y-57898000D02*
X102126800Y-59098000D01*
G75*
G02*
X102076000Y-59148800I-50800J0D01*
G01*
X101176000Y-59148800D01*
G75*
G02*
X101125200Y-59098000I0J50800D01*
G01*
X101125200Y-57898000D01*
G75*
G02*
X101176000Y-57847200I50800J0D01*
G01*
X102076000Y-57847200D01*
G75*
G02*
X102126800Y-57898000I0J-50800D01*
G01*
G37*
%TD*%
%TO.C,D5:8*%
G36*
G01*
X144426800Y-60898000D02*
X144426800Y-62098000D01*
G75*
G02*
X144376000Y-62148800I-50800J0D01*
G01*
X143476000Y-62148800D01*
G75*
G02*
X143425200Y-62098000I0J50800D01*
G01*
X143425200Y-60898000D01*
G75*
G02*
X143476000Y-60847200I50800J0D01*
G01*
X144376000Y-60847200D01*
G75*
G02*
X144426800Y-60898000I0J-50800D01*
G01*
G37*
G36*
G01*
X141126800Y-60898000D02*
X141126800Y-62098000D01*
G75*
G02*
X141076000Y-62148800I-50800J0D01*
G01*
X140176000Y-62148800D01*
G75*
G02*
X140125200Y-62098000I0J50800D01*
G01*
X140125200Y-60898000D01*
G75*
G02*
X140176000Y-60847200I50800J0D01*
G01*
X141076000Y-60847200D01*
G75*
G02*
X141126800Y-60898000I0J-50800D01*
G01*
G37*
%TD*%
%TO.C,D5:7*%
G36*
G01*
X161426800Y-60898000D02*
X161426800Y-62098000D01*
G75*
G02*
X161376000Y-62148800I-50800J0D01*
G01*
X160476000Y-62148800D01*
G75*
G02*
X160425200Y-62098000I0J50800D01*
G01*
X160425200Y-60898000D01*
G75*
G02*
X160476000Y-60847200I50800J0D01*
G01*
X161376000Y-60847200D01*
G75*
G02*
X161426800Y-60898000I0J-50800D01*
G01*
G37*
G36*
G01*
X158126800Y-60898000D02*
X158126800Y-62098000D01*
G75*
G02*
X158076000Y-62148800I-50800J0D01*
G01*
X157176000Y-62148800D01*
G75*
G02*
X157125200Y-62098000I0J50800D01*
G01*
X157125200Y-60898000D01*
G75*
G02*
X157176000Y-60847200I50800J0D01*
G01*
X158076000Y-60847200D01*
G75*
G02*
X158126800Y-60898000I0J-50800D01*
G01*
G37*
%TD*%
%TO.C,D4:13*%
G36*
G01*
X44076800Y-81898000D02*
X44076800Y-83098000D01*
G75*
G02*
X44026000Y-83148800I-50800J0D01*
G01*
X43126000Y-83148800D01*
G75*
G02*
X43075200Y-83098000I0J50800D01*
G01*
X43075200Y-81898000D01*
G75*
G02*
X43126000Y-81847200I50800J0D01*
G01*
X44026000Y-81847200D01*
G75*
G02*
X44076800Y-81898000I0J-50800D01*
G01*
G37*
G36*
G01*
X40776800Y-81898000D02*
X40776800Y-83098000D01*
G75*
G02*
X40726000Y-83148800I-50800J0D01*
G01*
X39826000Y-83148800D01*
G75*
G02*
X39775200Y-83098000I0J50800D01*
G01*
X39775200Y-81898000D01*
G75*
G02*
X39826000Y-81847200I50800J0D01*
G01*
X40726000Y-81847200D01*
G75*
G02*
X40776800Y-81898000I0J-50800D01*
G01*
G37*
%TD*%
%TO.C,D4:12*%
G36*
G01*
X68426800Y-81898000D02*
X68426800Y-83098000D01*
G75*
G02*
X68376000Y-83148800I-50800J0D01*
G01*
X67476000Y-83148800D01*
G75*
G02*
X67425200Y-83098000I0J50800D01*
G01*
X67425200Y-81898000D01*
G75*
G02*
X67476000Y-81847200I50800J0D01*
G01*
X68376000Y-81847200D01*
G75*
G02*
X68426800Y-81898000I0J-50800D01*
G01*
G37*
G36*
G01*
X65126800Y-81898000D02*
X65126800Y-83098000D01*
G75*
G02*
X65076000Y-83148800I-50800J0D01*
G01*
X64176000Y-83148800D01*
G75*
G02*
X64125200Y-83098000I0J50800D01*
G01*
X64125200Y-81898000D01*
G75*
G02*
X64176000Y-81847200I50800J0D01*
G01*
X65076000Y-81847200D01*
G75*
G02*
X65126800Y-81898000I0J-50800D01*
G01*
G37*
%TD*%
%TO.C,D4:11*%
G36*
G01*
X86426800Y-78898000D02*
X86426800Y-80098000D01*
G75*
G02*
X86376000Y-80148800I-50800J0D01*
G01*
X85476000Y-80148800D01*
G75*
G02*
X85425200Y-80098000I0J50800D01*
G01*
X85425200Y-78898000D01*
G75*
G02*
X85476000Y-78847200I50800J0D01*
G01*
X86376000Y-78847200D01*
G75*
G02*
X86426800Y-78898000I0J-50800D01*
G01*
G37*
G36*
G01*
X83126800Y-78898000D02*
X83126800Y-80098000D01*
G75*
G02*
X83076000Y-80148800I-50800J0D01*
G01*
X82176000Y-80148800D01*
G75*
G02*
X82125200Y-80098000I0J50800D01*
G01*
X82125200Y-78898000D01*
G75*
G02*
X82176000Y-78847200I50800J0D01*
G01*
X83076000Y-78847200D01*
G75*
G02*
X83126800Y-78898000I0J-50800D01*
G01*
G37*
%TD*%
%TO.C,D4:10*%
G36*
G01*
X106076800Y-76898000D02*
X106076800Y-78098000D01*
G75*
G02*
X106026000Y-78148800I-50800J0D01*
G01*
X105126000Y-78148800D01*
G75*
G02*
X105075200Y-78098000I0J50800D01*
G01*
X105075200Y-76898000D01*
G75*
G02*
X105126000Y-76847200I50800J0D01*
G01*
X106026000Y-76847200D01*
G75*
G02*
X106076800Y-76898000I0J-50800D01*
G01*
G37*
G36*
G01*
X102776800Y-76898000D02*
X102776800Y-78098000D01*
G75*
G02*
X102726000Y-78148800I-50800J0D01*
G01*
X101826000Y-78148800D01*
G75*
G02*
X101775200Y-78098000I0J50800D01*
G01*
X101775200Y-76898000D01*
G75*
G02*
X101826000Y-76847200I50800J0D01*
G01*
X102726000Y-76847200D01*
G75*
G02*
X102776800Y-76898000I0J-50800D01*
G01*
G37*
%TD*%
%TO.C,D4:9*%
G36*
G01*
X124426800Y-78898000D02*
X124426800Y-80098000D01*
G75*
G02*
X124376000Y-80148800I-50800J0D01*
G01*
X123476000Y-80148800D01*
G75*
G02*
X123425200Y-80098000I0J50800D01*
G01*
X123425200Y-78898000D01*
G75*
G02*
X123476000Y-78847200I50800J0D01*
G01*
X124376000Y-78847200D01*
G75*
G02*
X124426800Y-78898000I0J-50800D01*
G01*
G37*
G36*
G01*
X121126800Y-78898000D02*
X121126800Y-80098000D01*
G75*
G02*
X121076000Y-80148800I-50800J0D01*
G01*
X120176000Y-80148800D01*
G75*
G02*
X120125200Y-80098000I0J50800D01*
G01*
X120125200Y-78898000D01*
G75*
G02*
X120176000Y-78847200I50800J0D01*
G01*
X121076000Y-78847200D01*
G75*
G02*
X121126800Y-78898000I0J-50800D01*
G01*
G37*
%TD*%
%TO.C,D4:8*%
G36*
G01*
X144426800Y-79898000D02*
X144426800Y-81098000D01*
G75*
G02*
X144376000Y-81148800I-50800J0D01*
G01*
X143476000Y-81148800D01*
G75*
G02*
X143425200Y-81098000I0J50800D01*
G01*
X143425200Y-79898000D01*
G75*
G02*
X143476000Y-79847200I50800J0D01*
G01*
X144376000Y-79847200D01*
G75*
G02*
X144426800Y-79898000I0J-50800D01*
G01*
G37*
G36*
G01*
X141126800Y-79898000D02*
X141126800Y-81098000D01*
G75*
G02*
X141076000Y-81148800I-50800J0D01*
G01*
X140176000Y-81148800D01*
G75*
G02*
X140125200Y-81098000I0J50800D01*
G01*
X140125200Y-79898000D01*
G75*
G02*
X140176000Y-79847200I50800J0D01*
G01*
X141076000Y-79847200D01*
G75*
G02*
X141126800Y-79898000I0J-50800D01*
G01*
G37*
%TD*%
%TO.C,D4:7*%
G36*
G01*
X161426800Y-64898000D02*
X161426800Y-66098000D01*
G75*
G02*
X161376000Y-66148800I-50800J0D01*
G01*
X160476000Y-66148800D01*
G75*
G02*
X160425200Y-66098000I0J50800D01*
G01*
X160425200Y-64898000D01*
G75*
G02*
X160476000Y-64847200I50800J0D01*
G01*
X161376000Y-64847200D01*
G75*
G02*
X161426800Y-64898000I0J-50800D01*
G01*
G37*
G36*
G01*
X158126800Y-64898000D02*
X158126800Y-66098000D01*
G75*
G02*
X158076000Y-66148800I-50800J0D01*
G01*
X157176000Y-66148800D01*
G75*
G02*
X157125200Y-66098000I0J50800D01*
G01*
X157125200Y-64898000D01*
G75*
G02*
X157176000Y-64847200I50800J0D01*
G01*
X158076000Y-64847200D01*
G75*
G02*
X158126800Y-64898000I0J-50800D01*
G01*
G37*
%TD*%
%TO.C,D3:13*%
G36*
G01*
X44076800Y-100898000D02*
X44076800Y-102098000D01*
G75*
G02*
X44026000Y-102148800I-50800J0D01*
G01*
X43126000Y-102148800D01*
G75*
G02*
X43075200Y-102098000I0J50800D01*
G01*
X43075200Y-100898000D01*
G75*
G02*
X43126000Y-100847200I50800J0D01*
G01*
X44026000Y-100847200D01*
G75*
G02*
X44076800Y-100898000I0J-50800D01*
G01*
G37*
G36*
G01*
X40776800Y-100898000D02*
X40776800Y-102098000D01*
G75*
G02*
X40726000Y-102148800I-50800J0D01*
G01*
X39826000Y-102148800D01*
G75*
G02*
X39775200Y-102098000I0J50800D01*
G01*
X39775200Y-100898000D01*
G75*
G02*
X39826000Y-100847200I50800J0D01*
G01*
X40726000Y-100847200D01*
G75*
G02*
X40776800Y-100898000I0J-50800D01*
G01*
G37*
%TD*%
%TO.C,D3:12*%
G36*
G01*
X68426800Y-101398000D02*
X68426800Y-102598000D01*
G75*
G02*
X68376000Y-102648800I-50800J0D01*
G01*
X67476000Y-102648800D01*
G75*
G02*
X67425200Y-102598000I0J50800D01*
G01*
X67425200Y-101398000D01*
G75*
G02*
X67476000Y-101347200I50800J0D01*
G01*
X68376000Y-101347200D01*
G75*
G02*
X68426800Y-101398000I0J-50800D01*
G01*
G37*
G36*
G01*
X65126800Y-101398000D02*
X65126800Y-102598000D01*
G75*
G02*
X65076000Y-102648800I-50800J0D01*
G01*
X64176000Y-102648800D01*
G75*
G02*
X64125200Y-102598000I0J50800D01*
G01*
X64125200Y-101398000D01*
G75*
G02*
X64176000Y-101347200I50800J0D01*
G01*
X65076000Y-101347200D01*
G75*
G02*
X65126800Y-101398000I0J-50800D01*
G01*
G37*
%TD*%
%TO.C,D3:11*%
G36*
G01*
X86426800Y-96898000D02*
X86426800Y-98098000D01*
G75*
G02*
X86376000Y-98148800I-50800J0D01*
G01*
X85476000Y-98148800D01*
G75*
G02*
X85425200Y-98098000I0J50800D01*
G01*
X85425200Y-96898000D01*
G75*
G02*
X85476000Y-96847200I50800J0D01*
G01*
X86376000Y-96847200D01*
G75*
G02*
X86426800Y-96898000I0J-50800D01*
G01*
G37*
G36*
G01*
X83126800Y-96898000D02*
X83126800Y-98098000D01*
G75*
G02*
X83076000Y-98148800I-50800J0D01*
G01*
X82176000Y-98148800D01*
G75*
G02*
X82125200Y-98098000I0J50800D01*
G01*
X82125200Y-96898000D01*
G75*
G02*
X82176000Y-96847200I50800J0D01*
G01*
X83076000Y-96847200D01*
G75*
G02*
X83126800Y-96898000I0J-50800D01*
G01*
G37*
%TD*%
%TO.C,D3:10*%
G36*
G01*
X105426800Y-95898000D02*
X105426800Y-97098000D01*
G75*
G02*
X105376000Y-97148800I-50800J0D01*
G01*
X104476000Y-97148800D01*
G75*
G02*
X104425200Y-97098000I0J50800D01*
G01*
X104425200Y-95898000D01*
G75*
G02*
X104476000Y-95847200I50800J0D01*
G01*
X105376000Y-95847200D01*
G75*
G02*
X105426800Y-95898000I0J-50800D01*
G01*
G37*
G36*
G01*
X102126800Y-95898000D02*
X102126800Y-97098000D01*
G75*
G02*
X102076000Y-97148800I-50800J0D01*
G01*
X101176000Y-97148800D01*
G75*
G02*
X101125200Y-97098000I0J50800D01*
G01*
X101125200Y-95898000D01*
G75*
G02*
X101176000Y-95847200I50800J0D01*
G01*
X102076000Y-95847200D01*
G75*
G02*
X102126800Y-95898000I0J-50800D01*
G01*
G37*
%TD*%
%TO.C,D3:9*%
G36*
G01*
X124776800Y-97898000D02*
X124776800Y-99098000D01*
G75*
G02*
X124726000Y-99148800I-50800J0D01*
G01*
X123826000Y-99148800D01*
G75*
G02*
X123775200Y-99098000I0J50800D01*
G01*
X123775200Y-97898000D01*
G75*
G02*
X123826000Y-97847200I50800J0D01*
G01*
X124726000Y-97847200D01*
G75*
G02*
X124776800Y-97898000I0J-50800D01*
G01*
G37*
G36*
G01*
X121476800Y-97898000D02*
X121476800Y-99098000D01*
G75*
G02*
X121426000Y-99148800I-50800J0D01*
G01*
X120526000Y-99148800D01*
G75*
G02*
X120475200Y-99098000I0J50800D01*
G01*
X120475200Y-97898000D01*
G75*
G02*
X120526000Y-97847200I50800J0D01*
G01*
X121426000Y-97847200D01*
G75*
G02*
X121476800Y-97898000I0J-50800D01*
G01*
G37*
%TD*%
%TO.C,D3:8*%
G36*
G01*
X141426800Y-99898000D02*
X141426800Y-101098000D01*
G75*
G02*
X141376000Y-101148800I-50800J0D01*
G01*
X140476000Y-101148800D01*
G75*
G02*
X140425200Y-101098000I0J50800D01*
G01*
X140425200Y-99898000D01*
G75*
G02*
X140476000Y-99847200I50800J0D01*
G01*
X141376000Y-99847200D01*
G75*
G02*
X141426800Y-99898000I0J-50800D01*
G01*
G37*
G36*
G01*
X138126800Y-99898000D02*
X138126800Y-101098000D01*
G75*
G02*
X138076000Y-101148800I-50800J0D01*
G01*
X137176000Y-101148800D01*
G75*
G02*
X137125200Y-101098000I0J50800D01*
G01*
X137125200Y-99898000D01*
G75*
G02*
X137176000Y-99847200I50800J0D01*
G01*
X138076000Y-99847200D01*
G75*
G02*
X138126800Y-99898000I0J-50800D01*
G01*
G37*
%TD*%
%TO.C,D2:13*%
G36*
G01*
X42426800Y-119898000D02*
X42426800Y-121098000D01*
G75*
G02*
X42376000Y-121148800I-50800J0D01*
G01*
X41476000Y-121148800D01*
G75*
G02*
X41425200Y-121098000I0J50800D01*
G01*
X41425200Y-119898000D01*
G75*
G02*
X41476000Y-119847200I50800J0D01*
G01*
X42376000Y-119847200D01*
G75*
G02*
X42426800Y-119898000I0J-50800D01*
G01*
G37*
G36*
G01*
X39126800Y-119898000D02*
X39126800Y-121098000D01*
G75*
G02*
X39076000Y-121148800I-50800J0D01*
G01*
X38176000Y-121148800D01*
G75*
G02*
X38125200Y-121098000I0J50800D01*
G01*
X38125200Y-119898000D01*
G75*
G02*
X38176000Y-119847200I50800J0D01*
G01*
X39076000Y-119847200D01*
G75*
G02*
X39126800Y-119898000I0J-50800D01*
G01*
G37*
%TD*%
%TO.C,D2:12*%
G36*
G01*
X64426800Y-120898000D02*
X64426800Y-122098000D01*
G75*
G02*
X64376000Y-122148800I-50800J0D01*
G01*
X63476000Y-122148800D01*
G75*
G02*
X63425200Y-122098000I0J50800D01*
G01*
X63425200Y-120898000D01*
G75*
G02*
X63476000Y-120847200I50800J0D01*
G01*
X64376000Y-120847200D01*
G75*
G02*
X64426800Y-120898000I0J-50800D01*
G01*
G37*
G36*
G01*
X61126800Y-120898000D02*
X61126800Y-122098000D01*
G75*
G02*
X61076000Y-122148800I-50800J0D01*
G01*
X60176000Y-122148800D01*
G75*
G02*
X60125200Y-122098000I0J50800D01*
G01*
X60125200Y-120898000D01*
G75*
G02*
X60176000Y-120847200I50800J0D01*
G01*
X61076000Y-120847200D01*
G75*
G02*
X61126800Y-120898000I0J-50800D01*
G01*
G37*
%TD*%
%TO.C,D2:11*%
G36*
G01*
X83776800Y-116898000D02*
X83776800Y-118098000D01*
G75*
G02*
X83726000Y-118148800I-50800J0D01*
G01*
X82826000Y-118148800D01*
G75*
G02*
X82775200Y-118098000I0J50800D01*
G01*
X82775200Y-116898000D01*
G75*
G02*
X82826000Y-116847200I50800J0D01*
G01*
X83726000Y-116847200D01*
G75*
G02*
X83776800Y-116898000I0J-50800D01*
G01*
G37*
G36*
G01*
X80476800Y-116898000D02*
X80476800Y-118098000D01*
G75*
G02*
X80426000Y-118148800I-50800J0D01*
G01*
X79526000Y-118148800D01*
G75*
G02*
X79475200Y-118098000I0J50800D01*
G01*
X79475200Y-116898000D01*
G75*
G02*
X79526000Y-116847200I50800J0D01*
G01*
X80426000Y-116847200D01*
G75*
G02*
X80476800Y-116898000I0J-50800D01*
G01*
G37*
%TD*%
%TO.C,D2:10*%
G36*
G01*
X104076800Y-115898000D02*
X104076800Y-117098000D01*
G75*
G02*
X104026000Y-117148800I-50800J0D01*
G01*
X103126000Y-117148800D01*
G75*
G02*
X103075200Y-117098000I0J50800D01*
G01*
X103075200Y-115898000D01*
G75*
G02*
X103126000Y-115847200I50800J0D01*
G01*
X104026000Y-115847200D01*
G75*
G02*
X104076800Y-115898000I0J-50800D01*
G01*
G37*
G36*
G01*
X100776800Y-115898000D02*
X100776800Y-117098000D01*
G75*
G02*
X100726000Y-117148800I-50800J0D01*
G01*
X99826000Y-117148800D01*
G75*
G02*
X99775200Y-117098000I0J50800D01*
G01*
X99775200Y-115898000D01*
G75*
G02*
X99826000Y-115847200I50800J0D01*
G01*
X100726000Y-115847200D01*
G75*
G02*
X100776800Y-115898000I0J-50800D01*
G01*
G37*
%TD*%
%TO.C,D2:9*%
G36*
G01*
X122426800Y-116898000D02*
X122426800Y-118098000D01*
G75*
G02*
X122376000Y-118148800I-50800J0D01*
G01*
X121476000Y-118148800D01*
G75*
G02*
X121425200Y-118098000I0J50800D01*
G01*
X121425200Y-116898000D01*
G75*
G02*
X121476000Y-116847200I50800J0D01*
G01*
X122376000Y-116847200D01*
G75*
G02*
X122426800Y-116898000I0J-50800D01*
G01*
G37*
G36*
G01*
X119126800Y-116898000D02*
X119126800Y-118098000D01*
G75*
G02*
X119076000Y-118148800I-50800J0D01*
G01*
X118176000Y-118148800D01*
G75*
G02*
X118125200Y-118098000I0J50800D01*
G01*
X118125200Y-116898000D01*
G75*
G02*
X118176000Y-116847200I50800J0D01*
G01*
X119076000Y-116847200D01*
G75*
G02*
X119126800Y-116898000I0J-50800D01*
G01*
G37*
%TD*%
%TO.C,D2:8*%
G36*
G01*
X144676000Y-100347200D02*
X145876000Y-100347200D01*
G75*
G02*
X145926800Y-100398000I0J-50800D01*
G01*
X145926800Y-101298000D01*
G75*
G02*
X145876000Y-101348800I-50800J0D01*
G01*
X144676000Y-101348800D01*
G75*
G02*
X144625200Y-101298000I0J50800D01*
G01*
X144625200Y-100398000D01*
G75*
G02*
X144676000Y-100347200I50800J0D01*
G01*
G37*
G36*
G01*
X144676000Y-103647200D02*
X145876000Y-103647200D01*
G75*
G02*
X145926800Y-103698000I0J-50800D01*
G01*
X145926800Y-104598000D01*
G75*
G02*
X145876000Y-104648800I-50800J0D01*
G01*
X144676000Y-104648800D01*
G75*
G02*
X144625200Y-104598000I0J50800D01*
G01*
X144625200Y-103698000D01*
G75*
G02*
X144676000Y-103647200I50800J0D01*
G01*
G37*
%TD*%
%TO.C,D2:7*%
G36*
G01*
X161426800Y-92898000D02*
X161426800Y-94098000D01*
G75*
G02*
X161376000Y-94148800I-50800J0D01*
G01*
X160476000Y-94148800D01*
G75*
G02*
X160425200Y-94098000I0J50800D01*
G01*
X160425200Y-92898000D01*
G75*
G02*
X160476000Y-92847200I50800J0D01*
G01*
X161376000Y-92847200D01*
G75*
G02*
X161426800Y-92898000I0J-50800D01*
G01*
G37*
G36*
G01*
X158126800Y-92898000D02*
X158126800Y-94098000D01*
G75*
G02*
X158076000Y-94148800I-50800J0D01*
G01*
X157176000Y-94148800D01*
G75*
G02*
X157125200Y-94098000I0J50800D01*
G01*
X157125200Y-92898000D01*
G75*
G02*
X157176000Y-92847200I50800J0D01*
G01*
X158076000Y-92847200D01*
G75*
G02*
X158126800Y-92898000I0J-50800D01*
G01*
G37*
%TD*%
%TO.C,D1:13*%
G36*
G01*
X49676000Y-128697200D02*
X50876000Y-128697200D01*
G75*
G02*
X50926800Y-128748000I0J-50800D01*
G01*
X50926800Y-129648000D01*
G75*
G02*
X50876000Y-129698800I-50800J0D01*
G01*
X49676000Y-129698800D01*
G75*
G02*
X49625200Y-129648000I0J50800D01*
G01*
X49625200Y-128748000D01*
G75*
G02*
X49676000Y-128697200I50800J0D01*
G01*
G37*
G36*
G01*
X49676000Y-131997200D02*
X50876000Y-131997200D01*
G75*
G02*
X50926800Y-132048000I0J-50800D01*
G01*
X50926800Y-132948000D01*
G75*
G02*
X50876000Y-132998800I-50800J0D01*
G01*
X49676000Y-132998800D01*
G75*
G02*
X49625200Y-132948000I0J50800D01*
G01*
X49625200Y-132048000D01*
G75*
G02*
X49676000Y-131997200I50800J0D01*
G01*
G37*
%TD*%
%TO.C,D1:12*%
G36*
G01*
X67676000Y-130347200D02*
X68876000Y-130347200D01*
G75*
G02*
X68926800Y-130398000I0J-50800D01*
G01*
X68926800Y-131298000D01*
G75*
G02*
X68876000Y-131348800I-50800J0D01*
G01*
X67676000Y-131348800D01*
G75*
G02*
X67625200Y-131298000I0J50800D01*
G01*
X67625200Y-130398000D01*
G75*
G02*
X67676000Y-130347200I50800J0D01*
G01*
G37*
G36*
G01*
X67676000Y-133647200D02*
X68876000Y-133647200D01*
G75*
G02*
X68926800Y-133698000I0J-50800D01*
G01*
X68926800Y-134598000D01*
G75*
G02*
X68876000Y-134648800I-50800J0D01*
G01*
X67676000Y-134648800D01*
G75*
G02*
X67625200Y-134598000I0J50800D01*
G01*
X67625200Y-133698000D01*
G75*
G02*
X67676000Y-133647200I50800J0D01*
G01*
G37*
%TD*%
%TO.C,D1:11*%
G36*
G01*
X87676000Y-127847200D02*
X88876000Y-127847200D01*
G75*
G02*
X88926800Y-127898000I0J-50800D01*
G01*
X88926800Y-128798000D01*
G75*
G02*
X88876000Y-128848800I-50800J0D01*
G01*
X87676000Y-128848800D01*
G75*
G02*
X87625200Y-128798000I0J50800D01*
G01*
X87625200Y-127898000D01*
G75*
G02*
X87676000Y-127847200I50800J0D01*
G01*
G37*
G36*
G01*
X87676000Y-131147200D02*
X88876000Y-131147200D01*
G75*
G02*
X88926800Y-131198000I0J-50800D01*
G01*
X88926800Y-132098000D01*
G75*
G02*
X88876000Y-132148800I-50800J0D01*
G01*
X87676000Y-132148800D01*
G75*
G02*
X87625200Y-132098000I0J50800D01*
G01*
X87625200Y-131198000D01*
G75*
G02*
X87676000Y-131147200I50800J0D01*
G01*
G37*
%TD*%
%TO.C,D1:10*%
G36*
G01*
X106676000Y-126197200D02*
X107876000Y-126197200D01*
G75*
G02*
X107926800Y-126248000I0J-50800D01*
G01*
X107926800Y-127148000D01*
G75*
G02*
X107876000Y-127198800I-50800J0D01*
G01*
X106676000Y-127198800D01*
G75*
G02*
X106625200Y-127148000I0J50800D01*
G01*
X106625200Y-126248000D01*
G75*
G02*
X106676000Y-126197200I50800J0D01*
G01*
G37*
G36*
G01*
X106676000Y-129497200D02*
X107876000Y-129497200D01*
G75*
G02*
X107926800Y-129548000I0J-50800D01*
G01*
X107926800Y-130448000D01*
G75*
G02*
X107876000Y-130498800I-50800J0D01*
G01*
X106676000Y-130498800D01*
G75*
G02*
X106625200Y-130448000I0J50800D01*
G01*
X106625200Y-129548000D01*
G75*
G02*
X106676000Y-129497200I50800J0D01*
G01*
G37*
%TD*%
%TO.C,D1:9*%
G36*
G01*
X125676000Y-125347200D02*
X126876000Y-125347200D01*
G75*
G02*
X126926800Y-125398000I0J-50800D01*
G01*
X126926800Y-126298000D01*
G75*
G02*
X126876000Y-126348800I-50800J0D01*
G01*
X125676000Y-126348800D01*
G75*
G02*
X125625200Y-126298000I0J50800D01*
G01*
X125625200Y-125398000D01*
G75*
G02*
X125676000Y-125347200I50800J0D01*
G01*
G37*
G36*
G01*
X125676000Y-128647200D02*
X126876000Y-128647200D01*
G75*
G02*
X126926800Y-128698000I0J-50800D01*
G01*
X126926800Y-129598000D01*
G75*
G02*
X126876000Y-129648800I-50800J0D01*
G01*
X125676000Y-129648800D01*
G75*
G02*
X125625200Y-129598000I0J50800D01*
G01*
X125625200Y-128698000D01*
G75*
G02*
X125676000Y-128647200I50800J0D01*
G01*
G37*
%TD*%
%TO.C,D1:8*%
G36*
G01*
X161943863Y-126790551D02*
X163031432Y-127297692D01*
G75*
G02*
X163056003Y-127365201I-21469J-46040D01*
G01*
X162675646Y-128180878D01*
G75*
G02*
X162608137Y-128205449I-46040J21469D01*
G01*
X161520568Y-127698308D01*
G75*
G02*
X161495997Y-127630799I21469J46040D01*
G01*
X161876354Y-126815122D01*
G75*
G02*
X161943863Y-126790551I46040J-21469D01*
G01*
G37*
G36*
G01*
X160549223Y-129781367D02*
X161636792Y-130288508D01*
G75*
G02*
X161661363Y-130356017I-21469J-46040D01*
G01*
X161281006Y-131171694D01*
G75*
G02*
X161213497Y-131196265I-46040J21469D01*
G01*
X160125928Y-130689124D01*
G75*
G02*
X160101357Y-130621615I21469J46040D01*
G01*
X160481714Y-129805938D01*
G75*
G02*
X160549223Y-129781367I46040J-21469D01*
G01*
G37*
%TD*%
%TO.C,D1:7*%
G36*
G01*
X178641183Y-135295143D02*
X179728752Y-135802284D01*
G75*
G02*
X179753323Y-135869793I-21469J-46040D01*
G01*
X179372966Y-136685470D01*
G75*
G02*
X179305457Y-136710041I-46040J21469D01*
G01*
X178217888Y-136202900D01*
G75*
G02*
X178193317Y-136135391I21469J46040D01*
G01*
X178573674Y-135319714D01*
G75*
G02*
X178641183Y-135295143I46040J-21469D01*
G01*
G37*
G36*
G01*
X177246543Y-138285959D02*
X178334112Y-138793100D01*
G75*
G02*
X178358683Y-138860609I-21469J-46040D01*
G01*
X177978326Y-139676286D01*
G75*
G02*
X177910817Y-139700857I-46040J21469D01*
G01*
X176823248Y-139193716D01*
G75*
G02*
X176798677Y-139126207I21469J46040D01*
G01*
X177179034Y-138310530D01*
G75*
G02*
X177246543Y-138285959I46040J-21469D01*
G01*
G37*
%TD*%
%TO.C,D0:12*%
G36*
G01*
X120676000Y-137347200D02*
X121876000Y-137347200D01*
G75*
G02*
X121926800Y-137398000I0J-50800D01*
G01*
X121926800Y-138298000D01*
G75*
G02*
X121876000Y-138348800I-50800J0D01*
G01*
X120676000Y-138348800D01*
G75*
G02*
X120625200Y-138298000I0J50800D01*
G01*
X120625200Y-137398000D01*
G75*
G02*
X120676000Y-137347200I50800J0D01*
G01*
G37*
G36*
G01*
X120676000Y-140647200D02*
X121876000Y-140647200D01*
G75*
G02*
X121926800Y-140698000I0J-50800D01*
G01*
X121926800Y-141598000D01*
G75*
G02*
X121876000Y-141648800I-50800J0D01*
G01*
X120676000Y-141648800D01*
G75*
G02*
X120625200Y-141598000I0J50800D01*
G01*
X120625200Y-140698000D01*
G75*
G02*
X120676000Y-140647200I50800J0D01*
G01*
G37*
%TD*%
%TO.C,D0:11*%
G36*
G01*
X125676000Y-137347200D02*
X126876000Y-137347200D01*
G75*
G02*
X126926800Y-137398000I0J-50800D01*
G01*
X126926800Y-138298000D01*
G75*
G02*
X126876000Y-138348800I-50800J0D01*
G01*
X125676000Y-138348800D01*
G75*
G02*
X125625200Y-138298000I0J50800D01*
G01*
X125625200Y-137398000D01*
G75*
G02*
X125676000Y-137347200I50800J0D01*
G01*
G37*
G36*
G01*
X125676000Y-140647200D02*
X126876000Y-140647200D01*
G75*
G02*
X126926800Y-140698000I0J-50800D01*
G01*
X126926800Y-141598000D01*
G75*
G02*
X126876000Y-141648800I-50800J0D01*
G01*
X125676000Y-141648800D01*
G75*
G02*
X125625200Y-141598000I0J50800D01*
G01*
X125625200Y-140698000D01*
G75*
G02*
X125676000Y-140647200I50800J0D01*
G01*
G37*
%TD*%
%TO.C,D0:10*%
G36*
G01*
X130676000Y-137347200D02*
X131876000Y-137347200D01*
G75*
G02*
X131926800Y-137398000I0J-50800D01*
G01*
X131926800Y-138298000D01*
G75*
G02*
X131876000Y-138348800I-50800J0D01*
G01*
X130676000Y-138348800D01*
G75*
G02*
X130625200Y-138298000I0J50800D01*
G01*
X130625200Y-137398000D01*
G75*
G02*
X130676000Y-137347200I50800J0D01*
G01*
G37*
G36*
G01*
X130676000Y-140647200D02*
X131876000Y-140647200D01*
G75*
G02*
X131926800Y-140698000I0J-50800D01*
G01*
X131926800Y-141598000D01*
G75*
G02*
X131876000Y-141648800I-50800J0D01*
G01*
X130676000Y-141648800D01*
G75*
G02*
X130625200Y-141598000I0J50800D01*
G01*
X130625200Y-140698000D01*
G75*
G02*
X130676000Y-140647200I50800J0D01*
G01*
G37*
%TD*%
%TO.C,D0:9*%
G36*
G01*
X176073143Y-155132817D02*
X176580284Y-154045248D01*
G75*
G02*
X176647793Y-154020677I46040J-21469D01*
G01*
X177463470Y-154401034D01*
G75*
G02*
X177488041Y-154468543I-21469J-46040D01*
G01*
X176980900Y-155556112D01*
G75*
G02*
X176913391Y-155580683I-46040J21469D01*
G01*
X176097714Y-155200326D01*
G75*
G02*
X176073143Y-155132817I21469J46040D01*
G01*
G37*
G36*
G01*
X179063959Y-156527457D02*
X179571100Y-155439888D01*
G75*
G02*
X179638609Y-155415317I46040J-21469D01*
G01*
X180454286Y-155795674D01*
G75*
G02*
X180478857Y-155863183I-21469J-46040D01*
G01*
X179971716Y-156950752D01*
G75*
G02*
X179904207Y-156975323I-46040J21469D01*
G01*
X179088530Y-156594966D01*
G75*
G02*
X179063959Y-156527457I21469J46040D01*
G01*
G37*
%TD*%
%TO.C,D0:8*%
G36*
G01*
X163910817Y-125700857D02*
X162823248Y-125193716D01*
G75*
G02*
X162798677Y-125126207I21469J46040D01*
G01*
X163179034Y-124310530D01*
G75*
G02*
X163246543Y-124285959I46040J-21469D01*
G01*
X164334112Y-124793100D01*
G75*
G02*
X164358683Y-124860609I-21469J-46040D01*
G01*
X163978326Y-125676286D01*
G75*
G02*
X163910817Y-125700857I-46040J21469D01*
G01*
G37*
G36*
G01*
X165305457Y-122710041D02*
X164217888Y-122202900D01*
G75*
G02*
X164193317Y-122135391I21469J46040D01*
G01*
X164573674Y-121319714D01*
G75*
G02*
X164641183Y-121295143I46040J-21469D01*
G01*
X165728752Y-121802284D01*
G75*
G02*
X165753323Y-121869793I-21469J-46040D01*
G01*
X165372966Y-122685470D01*
G75*
G02*
X165305457Y-122710041I-46040J21469D01*
G01*
G37*
%TD*%
%TO.C,D0:7*%
G36*
G01*
X186577735Y-139435497D02*
X187084876Y-138347928D01*
G75*
G02*
X187152385Y-138323357I46040J-21469D01*
G01*
X187968062Y-138703714D01*
G75*
G02*
X187992633Y-138771223I-21469J-46040D01*
G01*
X187485492Y-139858792D01*
G75*
G02*
X187417983Y-139883363I-46040J21469D01*
G01*
X186602306Y-139503006D01*
G75*
G02*
X186577735Y-139435497I21469J46040D01*
G01*
G37*
G36*
G01*
X189568551Y-140830137D02*
X190075692Y-139742568D01*
G75*
G02*
X190143201Y-139717997I46040J-21469D01*
G01*
X190958878Y-140098354D01*
G75*
G02*
X190983449Y-140165863I-21469J-46040D01*
G01*
X190476308Y-141253432D01*
G75*
G02*
X190408799Y-141278003I-46040J21469D01*
G01*
X189593122Y-140897646D01*
G75*
G02*
X189568551Y-140830137I21469J46040D01*
G01*
G37*
%TD*%
%TO.C,R3*%
G36*
G01*
X71875200Y-37148001D02*
X71875200Y-36247999D01*
G75*
G02*
X71925999Y-36197200I50799J0D01*
G01*
X72426001Y-36197200D01*
G75*
G02*
X72476800Y-36247999I0J-50799D01*
G01*
X72476800Y-37148001D01*
G75*
G02*
X72426001Y-37198800I-50799J0D01*
G01*
X71925999Y-37198800D01*
G75*
G02*
X71875200Y-37148001I0J50799D01*
G01*
G37*
G36*
G01*
X73375200Y-37148001D02*
X73375200Y-36247999D01*
G75*
G02*
X73425999Y-36197200I50799J0D01*
G01*
X73926001Y-36197200D01*
G75*
G02*
X73976800Y-36247999I0J-50799D01*
G01*
X73976800Y-37148001D01*
G75*
G02*
X73926001Y-37198800I-50799J0D01*
G01*
X73425999Y-37198800D01*
G75*
G02*
X73375200Y-37148001I0J50799D01*
G01*
G37*
%TD*%
%TO.C,R4*%
G36*
G01*
X71875200Y-34648001D02*
X71875200Y-33747999D01*
G75*
G02*
X71925999Y-33697200I50799J0D01*
G01*
X72426001Y-33697200D01*
G75*
G02*
X72476800Y-33747999I0J-50799D01*
G01*
X72476800Y-34648001D01*
G75*
G02*
X72426001Y-34698800I-50799J0D01*
G01*
X71925999Y-34698800D01*
G75*
G02*
X71875200Y-34648001I0J50799D01*
G01*
G37*
G36*
G01*
X73375200Y-34648001D02*
X73375200Y-33747999D01*
G75*
G02*
X73425999Y-33697200I50799J0D01*
G01*
X73926001Y-33697200D01*
G75*
G02*
X73976800Y-33747999I0J-50799D01*
G01*
X73976800Y-34648001D01*
G75*
G02*
X73926001Y-34698800I-50799J0D01*
G01*
X73425999Y-34698800D01*
G75*
G02*
X73375200Y-34648001I0J50799D01*
G01*
G37*
%TD*%
%TO.C,LED_C1*%
G36*
G01*
X75225200Y-31598000D02*
X75225200Y-30798000D01*
G75*
G02*
X75276000Y-30747200I50800J0D01*
G01*
X76076000Y-30747200D01*
G75*
G02*
X76126800Y-30798000I0J-50800D01*
G01*
X76126800Y-31598000D01*
G75*
G02*
X76076000Y-31648800I-50800J0D01*
G01*
X75276000Y-31648800D01*
G75*
G02*
X75225200Y-31598000I0J50800D01*
G01*
G37*
G36*
G01*
X76825200Y-31598000D02*
X76825200Y-30798000D01*
G75*
G02*
X76876000Y-30747200I50800J0D01*
G01*
X77676000Y-30747200D01*
G75*
G02*
X77726800Y-30798000I0J-50800D01*
G01*
X77726800Y-31598000D01*
G75*
G02*
X77676000Y-31648800I-50800J0D01*
G01*
X76876000Y-31648800D01*
G75*
G02*
X76825200Y-31598000I0J50800D01*
G01*
G37*
%TD*%
%TO.C,LED_B1*%
G36*
G01*
X75425200Y-34598000D02*
X75425200Y-33798000D01*
G75*
G02*
X75476000Y-33747200I50800J0D01*
G01*
X76276000Y-33747200D01*
G75*
G02*
X76326800Y-33798000I0J-50800D01*
G01*
X76326800Y-34598000D01*
G75*
G02*
X76276000Y-34648800I-50800J0D01*
G01*
X75476000Y-34648800D01*
G75*
G02*
X75425200Y-34598000I0J50800D01*
G01*
G37*
G36*
G01*
X77025200Y-34598000D02*
X77025200Y-33798000D01*
G75*
G02*
X77076000Y-33747200I50800J0D01*
G01*
X77876000Y-33747200D01*
G75*
G02*
X77926800Y-33798000I0J-50800D01*
G01*
X77926800Y-34598000D01*
G75*
G02*
X77876000Y-34648800I-50800J0D01*
G01*
X77076000Y-34648800D01*
G75*
G02*
X77025200Y-34598000I0J50800D01*
G01*
G37*
%TD*%
%TO.C,LED_A1*%
G36*
G01*
X75425200Y-37098000D02*
X75425200Y-36298000D01*
G75*
G02*
X75476000Y-36247200I50800J0D01*
G01*
X76276000Y-36247200D01*
G75*
G02*
X76326800Y-36298000I0J-50800D01*
G01*
X76326800Y-37098000D01*
G75*
G02*
X76276000Y-37148800I-50800J0D01*
G01*
X75476000Y-37148800D01*
G75*
G02*
X75425200Y-37098000I0J50800D01*
G01*
G37*
G36*
G01*
X77025200Y-37098000D02*
X77025200Y-36298000D01*
G75*
G02*
X77076000Y-36247200I50800J0D01*
G01*
X77876000Y-36247200D01*
G75*
G02*
X77926800Y-36298000I0J-50800D01*
G01*
X77926800Y-37098000D01*
G75*
G02*
X77876000Y-37148800I-50800J0D01*
G01*
X77076000Y-37148800D01*
G75*
G02*
X77025200Y-37098000I0J50800D01*
G01*
G37*
%TD*%
D23*
G36*
X178326932Y-94446200D02*
G01*
X178327200Y-94447200D01*
X178327200Y-95698800D01*
X178326200Y-95700532D01*
X178325200Y-95700800D01*
X178226800Y-95700800D01*
X178225068Y-95699800D01*
X178224800Y-95698800D01*
X178224800Y-94447200D01*
X178225800Y-94445468D01*
X178226800Y-94445200D01*
X178325200Y-94445200D01*
X178326932Y-94446200D01*
G37*
G36*
X178826932Y-94446200D02*
G01*
X178827200Y-94447200D01*
X178827200Y-95698800D01*
X178826200Y-95700532D01*
X178825200Y-95700800D01*
X178726800Y-95700800D01*
X178725068Y-95699800D01*
X178724800Y-95698800D01*
X178724800Y-94447200D01*
X178725800Y-94445468D01*
X178726800Y-94445200D01*
X178825200Y-94445200D01*
X178826932Y-94446200D01*
G37*
G36*
X179326932Y-94446200D02*
G01*
X179327200Y-94447200D01*
X179327200Y-95698800D01*
X179326200Y-95700532D01*
X179325200Y-95700800D01*
X179226800Y-95700800D01*
X179225068Y-95699800D01*
X179224800Y-95698800D01*
X179224800Y-94447200D01*
X179225800Y-94445468D01*
X179226800Y-94445200D01*
X179325200Y-94445200D01*
X179326932Y-94446200D01*
G37*
G36*
X179826932Y-94446200D02*
G01*
X179827200Y-94447200D01*
X179827200Y-95698800D01*
X179826200Y-95700532D01*
X179825200Y-95700800D01*
X179726800Y-95700800D01*
X179725068Y-95699800D01*
X179724800Y-95698800D01*
X179724800Y-94447200D01*
X179725800Y-94445468D01*
X179726800Y-94445200D01*
X179825200Y-94445200D01*
X179826932Y-94446200D01*
G37*
G36*
X180326932Y-94446200D02*
G01*
X180327200Y-94447200D01*
X180327200Y-95698800D01*
X180326200Y-95700532D01*
X180325200Y-95700800D01*
X180226800Y-95700800D01*
X180225068Y-95699800D01*
X180224800Y-95698800D01*
X180224800Y-94447200D01*
X180225800Y-94445468D01*
X180226800Y-94445200D01*
X180325200Y-94445200D01*
X180326932Y-94446200D01*
G37*
G36*
X180826932Y-94446200D02*
G01*
X180827200Y-94447200D01*
X180827200Y-95698800D01*
X180826200Y-95700532D01*
X180825200Y-95700800D01*
X180726800Y-95700800D01*
X180725068Y-95699800D01*
X180724800Y-95698800D01*
X180724800Y-94447200D01*
X180725800Y-94445468D01*
X180726800Y-94445200D01*
X180825200Y-94445200D01*
X180826932Y-94446200D01*
G37*
G36*
X181326932Y-94446200D02*
G01*
X181327200Y-94447200D01*
X181327200Y-95698800D01*
X181326200Y-95700532D01*
X181325200Y-95700800D01*
X181226800Y-95700800D01*
X181225068Y-95699800D01*
X181224800Y-95698800D01*
X181224800Y-94447200D01*
X181225800Y-94445468D01*
X181226800Y-94445200D01*
X181325200Y-94445200D01*
X181326932Y-94446200D01*
G37*
G36*
X181826932Y-94446200D02*
G01*
X181827200Y-94447200D01*
X181827200Y-95698800D01*
X181826200Y-95700532D01*
X181825200Y-95700800D01*
X181726800Y-95700800D01*
X181725068Y-95699800D01*
X181724800Y-95698800D01*
X181724800Y-94447200D01*
X181725800Y-94445468D01*
X181726800Y-94445200D01*
X181825200Y-94445200D01*
X181826932Y-94446200D01*
G37*
G36*
X182326932Y-94446200D02*
G01*
X182327200Y-94447200D01*
X182327200Y-95698800D01*
X182326200Y-95700532D01*
X182325200Y-95700800D01*
X182226800Y-95700800D01*
X182225068Y-95699800D01*
X182224800Y-95698800D01*
X182224800Y-94447200D01*
X182225800Y-94445468D01*
X182226800Y-94445200D01*
X182325200Y-94445200D01*
X182326932Y-94446200D01*
G37*
G36*
X183241769Y-94349627D02*
G01*
X183242534Y-94351475D01*
X183241494Y-94352978D01*
X183235120Y-94356384D01*
X183227773Y-94362414D01*
X183221742Y-94369761D01*
X183217262Y-94378145D01*
X183214501Y-94387244D01*
X183213570Y-94396701D01*
X183214501Y-94406158D01*
X183217262Y-94415257D01*
X183221743Y-94423641D01*
X183227773Y-94430988D01*
X183235120Y-94437019D01*
X183243504Y-94441499D01*
X183252603Y-94444260D01*
X183262256Y-94445210D01*
X183263882Y-94446375D01*
X183263686Y-94448365D01*
X183262060Y-94449200D01*
X183127200Y-94449200D01*
X183127200Y-95698800D01*
X183126200Y-95700532D01*
X183125200Y-95700800D01*
X183026800Y-95700800D01*
X183025068Y-95699800D01*
X183024800Y-95698800D01*
X183024800Y-94449200D01*
X182969940Y-94449200D01*
X182968208Y-94448200D01*
X182968208Y-94446200D01*
X182969744Y-94445210D01*
X182979397Y-94444260D01*
X182988496Y-94441499D01*
X182996880Y-94437018D01*
X183004227Y-94430988D01*
X183010257Y-94423641D01*
X183014738Y-94415257D01*
X183017499Y-94406158D01*
X183018430Y-94396701D01*
X183017499Y-94387244D01*
X183014738Y-94378145D01*
X183010257Y-94369761D01*
X183004227Y-94362414D01*
X182996880Y-94356384D01*
X182990506Y-94352978D01*
X182989450Y-94351280D01*
X182990393Y-94349516D01*
X182992214Y-94349366D01*
X183007493Y-94355694D01*
X183079364Y-94369990D01*
X183152636Y-94369990D01*
X183224507Y-94355694D01*
X183239786Y-94349366D01*
X183241769Y-94349627D01*
G37*
G36*
X177561769Y-94349627D02*
G01*
X177562534Y-94351475D01*
X177561494Y-94352978D01*
X177555120Y-94356384D01*
X177547773Y-94362414D01*
X177541742Y-94369761D01*
X177537262Y-94378145D01*
X177534501Y-94387244D01*
X177533570Y-94396701D01*
X177534501Y-94406158D01*
X177537262Y-94415257D01*
X177541743Y-94423641D01*
X177547773Y-94430988D01*
X177555120Y-94437019D01*
X177563504Y-94441499D01*
X177572603Y-94444260D01*
X177582256Y-94445210D01*
X177583882Y-94446375D01*
X177583686Y-94448365D01*
X177582060Y-94449200D01*
X177527200Y-94449200D01*
X177527200Y-95698800D01*
X177526200Y-95700532D01*
X177525200Y-95700800D01*
X177426800Y-95700800D01*
X177425068Y-95699800D01*
X177424800Y-95698800D01*
X177424800Y-94449200D01*
X177289940Y-94449200D01*
X177288208Y-94448200D01*
X177288208Y-94446200D01*
X177289744Y-94445210D01*
X177299397Y-94444260D01*
X177308496Y-94441499D01*
X177316880Y-94437018D01*
X177324227Y-94430988D01*
X177330257Y-94423641D01*
X177334738Y-94415257D01*
X177337499Y-94406158D01*
X177338430Y-94396701D01*
X177337499Y-94387244D01*
X177334738Y-94378145D01*
X177330257Y-94369761D01*
X177324227Y-94362414D01*
X177316880Y-94356384D01*
X177310506Y-94352978D01*
X177309450Y-94351280D01*
X177310393Y-94349516D01*
X177312214Y-94349366D01*
X177327493Y-94355694D01*
X177399364Y-94369990D01*
X177472636Y-94369990D01*
X177544507Y-94355694D01*
X177559786Y-94349366D01*
X177561769Y-94349627D01*
G37*
M02*
