M48
; DRILL file {KiCad 5.1.7} date Thu Oct 15 21:30:42 2020
; FORMAT={-:-/ absolute / inch / decimal}
; #@! TF.CreationDate,2020-10-15T21:30:42-07:00
; #@! TF.GenerationSoftware,Kicad,Pcbnew,5.1.7
; #@! TF.FileFunction,Plated,1,2,PTH
FMAT,2
INCH
T1C0.0197
T2C0.0200
T3C0.0300
T4C0.0315
T5C0.0433
T6C0.0590
%
G90
G05
T2
X1.0345Y-0.9842
X1.0345Y-1.2794
X1.2313Y-1.6731
X1.2313Y-1.9684
X1.2313Y-4.9212
X1.3298Y-0.9842
X1.4282Y-1.87
X1.5266Y-1.3779
X1.7235Y-1.181
X1.7235Y-1.3779
X1.7235Y-1.87
X1.7628Y-2.185
X1.7727Y-1.5452
X1.8613Y-2.5787
X1.8613Y-2.6574
X1.9064Y-1.5397
X1.9105Y-2.0669
X1.9203Y-1.7716
X1.9203Y-2.8543
X1.9203Y-3.4448
X1.9203Y-4.2322
X1.94Y-1.5157
X1.94Y-2.4999
X1.9794Y-2.4212
X1.9969Y-1.2619
X2.0187Y-2.1653
X2.0187Y-4.8228
X2.0209Y-1.238
X2.0581Y-1.6338
X2.0855Y-0.8935
X2.1094Y-0.9174
X2.1172Y-1.7716
X2.1339Y-1.2455
X2.1339Y-1.2962
X2.1369Y-1.1417
X2.1369Y-1.3582
X2.1369Y-1.3976
X2.1861Y-1.2499
X2.1861Y-1.2991
X2.1861Y-1.3582
X2.1861Y-1.3976
X2.2353Y-1.2499
X2.2353Y-1.2991
X2.2353Y-1.3582
X2.2353Y-1.3976
X2.2353Y-1.5058
X2.2451Y-1.7224
X2.2808Y-1.5495
X2.2845Y-1.2991
X2.2845Y-1.3582
X2.2845Y-1.3976
X2.286Y-1.2455
X2.3084Y-1.1375
X2.314Y-1.6239
X2.3534Y-1.6633
X2.3829Y-1.0728
X2.4321Y-1.6436
X2.4518Y-1.5692
X2.501Y-1.181
X2.501Y-1.2991
X2.5109Y-1.3779
X2.5404Y-1.6436
X2.629Y-1.5944
X2.6585Y-1.2106
X2.6683Y-1.309
X2.7077Y-1.4763
X2.7176Y-1.181
X2.7176Y-1.5747
X2.7766Y-1.5447
X2.8061Y-2.8543
X2.8061Y-3.4448
X2.8061Y-4.2322
X2.8652Y-0.9842
X3.003Y-4.6259
X3.1998Y-1.3779
X3.3967Y-1.3779
X3.3967Y-5.0196
X3.4951Y-4.1338
X3.5935Y-2.3621
X3.5935Y-3.1495
X3.692Y-4.6259
X3.8888Y-1.2794
X3.9479Y-2.4212
X4.1841Y-5.0196
X4.2825Y-2.3621
X4.2825Y-3.1495
X4.2825Y-4.1338
X4.3809Y-5.6102
X4.4794Y-4.6259
X4.7353Y-2.4999
X4.8534Y-5.6102
X4.9715Y-5.6889
X5.0502Y-5.1771
X5.0699Y-2.4606
X5.0699Y-3.1495
X5.0699Y-3.9369
X5.2668Y-5.0196
X5.3652Y-5.4527
X5.562Y-4.8228
X5.6605Y-2.559
X5.7589Y-0.9842
X5.7589Y-2.4606
X5.7589Y-2.8543
X5.8573Y-3.5432
X6.1132Y-2.4999
X6.251Y-0.9842
X6.251Y-3.5432
X6.251Y-4.6259
X6.49Y-2.07
X6.49Y-2.12
X6.49Y-2.17
X6.49Y-2.77
X6.49Y-2.82
X6.49Y-2.87
X6.49Y-3.52
X6.49Y-3.57
X6.49Y-3.62
X6.64Y-2.07
X6.64Y-2.12
X6.64Y-2.17
X6.64Y-2.77
X6.64Y-2.82
X6.64Y-2.87
X6.64Y-3.52
X6.64Y-3.57
X6.64Y-3.62
X6.7431Y-2.3153
X6.7431Y-2.5121
X6.7431Y-3.0527
X6.7431Y-3.2495
X6.7431Y-3.7901
X6.7431Y-3.9869
X6.94Y-2.5121
X6.94Y-3.0527
X6.94Y-3.2495
X7.1369Y-2.1184
X7.2353Y-2.5121
X7.2353Y-3.9869
X7.3337Y-2.2169
X7.3337Y-3.0527
X7.3337Y-3.2495
X7.39Y-2.62
X7.39Y-2.72
X7.4321Y-2.5121
X7.4321Y-3.9869
X7.4321Y-4.9212
X7.44Y-2.62
X7.44Y-2.72
X7.44Y-3.47
X7.44Y-4.12
X7.44Y-4.62
X7.49Y-2.62
X7.49Y-2.72
X7.49Y-3.47
X7.49Y-4.12
X7.49Y-4.62
X7.49Y-4.67
T3
X3.1998Y-0.8613
X3.4998Y-1.2613
X3.5998Y-1.2613
X3.8998Y-0.8613
X6.7369Y-2.1137
X7.0369Y-2.5137
X7.1369Y-2.5137
X7.4369Y-2.1137
X6.7369Y-2.8511
X7.0369Y-3.2511
X7.1369Y-3.2511
X7.4369Y-2.8511
X6.7369Y-3.5885
X7.0369Y-3.9885
X7.1369Y-3.9885
X7.4369Y-3.5885
T5
X1.4282Y-1.5157
X1.4282Y-1.6928
X1.6841Y-1.5157
X1.6841Y-1.6928
T6
X5.2587Y-2.2709
X5.5087Y-2.1709
X2.2587Y-3.8458
X2.5087Y-3.7458
X6.0087Y-2.2709
X6.2587Y-2.1709
X5.2587Y-4.5208
X5.5087Y-4.4208
X3.0087Y-4.4708
X3.2587Y-4.3708
X3.0087Y-3.7208
X3.2587Y-3.6208
X4.5087Y-2.2208
X4.7587Y-2.1208
X7.1006Y-5.9671
X7.3694Y-5.9821
X3.7587Y-3.6579
X4.0087Y-3.5579
X3.7587Y-4.4079
X4.0087Y-4.3079
X6.7836Y-6.6469
X7.0524Y-6.6619
X5.2587Y-3.7708
X5.5087Y-3.6708
X3.0087Y-2.9708
X3.2587Y-2.8708
X3.0087Y-5.2196
X3.2587Y-5.1196
X6.2087Y-3.9833
X6.3087Y-4.2333
X1.3212Y-4.5958
X1.5712Y-4.4958
X6.7378Y-4.9705
X7.0066Y-4.9855
X3.7587Y-5.1579
X4.0087Y-5.0579
X1.3212Y-3.8458
X1.5712Y-3.7458
X1.3212Y-2.3459
X1.5712Y-2.2459
X3.7587Y-2.9079
X4.0087Y-2.8079
X5.2587Y-3.0208
X5.5087Y-2.9208
X6.1349Y-6.32
X6.4038Y-6.335
X4.5087Y-2.9708
X4.7587Y-2.8708
X4.5087Y-5.2196
X4.7587Y-5.1196
X1.5087Y-5.3458
X1.7587Y-5.2458
X3.7587Y-2.1579
X4.0087Y-2.0579
X1.3212Y-3.0958
X1.5712Y-2.9958
X7.4175Y-5.2874
X7.6863Y-5.3024
X4.5087Y-4.4708
X4.7587Y-4.3708
X6.2087Y-2.8583
X6.3087Y-3.1083
X5.4263Y-6.0051
X5.6951Y-6.0201
X2.2587Y-4.5958
X2.5087Y-4.4958
X3.0087Y-2.2208
X3.2587Y-2.1208
X2.2587Y-2.3459
X2.5087Y-2.2459
X2.2587Y-5.3458
X2.5087Y-5.2458
X5.7411Y-5.3332
X6.0099Y-5.3482
X2.2587Y-3.0958
X2.5087Y-2.9958
X6.4208Y-5.6502
X6.6896Y-5.6652
X4.5087Y-3.7208
X4.7587Y-3.6208
T1
G00X6.9361Y-2.7617
M15
G01X6.9361Y-2.7893
M16
G05
G00X7.1959Y-2.7617
M15
G01X7.1959Y-2.7893
M16
G05
T4
G00X5.2156Y-0.9113
M15
G01X5.2156Y-0.9389
M16
G05
G00X5.2333Y-1.2263
M15
G01X5.2333Y-1.2539
M16
G05
G00X5.3317Y-1.2716
M15
G01X5.3593Y-1.2716
M16
G05
G00X5.4577Y-1.2263
M15
G01X5.4577Y-1.2539
M16
G05
G00X5.4754Y-0.9113
M15
G01X5.4754Y-0.9389
M16
G05
T0
M30
