%TF.GenerationSoftware,KiCad,Pcbnew,5.1.7*%
%TF.CreationDate,2020-10-15T21:30:19-07:00*%
%TF.ProjectId,ErgoDOX_left,4572676f-444f-4585-9f6c-6566742e6b69,2.0.0*%
%TF.SameCoordinates,Original*%
%TF.FileFunction,Other,Comment*%
%FSLAX46Y46*%
G04 Gerber Fmt 4.6, Leading zero omitted, Abs format (unit mm)*
G04 Created by KiCad (PCBNEW 5.1.7) date 2020-10-15 21:30:19*
%MOMM*%
%LPD*%
G01*
G04 APERTURE LIST*
%ADD10C,0.150000*%
%ADD11C,0.120000*%
%TA.AperFunction,Profile*%
%ADD12C,0.381000*%
%TD*%
%ADD13C,0.381000*%
%ADD14C,0.002000*%
G04 APERTURE END LIST*
D10*
X225059778Y-93942332D02*
X225053137Y-93370942D01*
X225056457Y-93656637D02*
X226056390Y-93645015D01*
X225912436Y-93551444D01*
X225816097Y-93457319D01*
X225767374Y-93362641D01*
X226070226Y-94835411D02*
X226064691Y-94359253D01*
X225587980Y-94317171D01*
X225636149Y-94364234D01*
X225684871Y-94458912D01*
X225687639Y-94696991D01*
X225641130Y-94792776D01*
X225594067Y-94840945D01*
X225499389Y-94889668D01*
X225261310Y-94892435D01*
X225165525Y-94845926D01*
X225117355Y-94798864D01*
X225068633Y-94704186D01*
X225065866Y-94466107D01*
X225112375Y-94370321D01*
X225159437Y-94322152D01*
X226074653Y-95216338D02*
X226082401Y-95882960D01*
X225077488Y-95466039D01*
X225182127Y-96274401D02*
X225135065Y-96322571D01*
X225086896Y-96275508D01*
X225133958Y-96227339D01*
X225182127Y-96274401D01*
X225086896Y-96275508D01*
X225092983Y-96799282D02*
X225095197Y-96989746D01*
X225143920Y-97084424D01*
X225192089Y-97131486D01*
X225336043Y-97225058D01*
X225527060Y-97270460D01*
X225907987Y-97266032D01*
X226002665Y-97217310D01*
X226049728Y-97169140D01*
X226096236Y-97073355D01*
X226094023Y-96882892D01*
X226045300Y-96788214D01*
X225997131Y-96741151D01*
X225901346Y-96694642D01*
X225663267Y-96697409D01*
X225568588Y-96746132D01*
X225521526Y-96794301D01*
X225475017Y-96890087D01*
X225477231Y-97080550D01*
X225525953Y-97175228D01*
X225574123Y-97222290D01*
X225669908Y-97268799D01*
X226007646Y-97645852D02*
X226055815Y-97692915D01*
X226104538Y-97787593D01*
X226107305Y-98025672D01*
X226060796Y-98121457D01*
X226013734Y-98169626D01*
X225919055Y-98218349D01*
X225823824Y-98219456D01*
X225680423Y-98173500D01*
X225102392Y-97608751D01*
X225109586Y-98227757D01*
X226119480Y-99073220D02*
X226117267Y-98882757D01*
X226068544Y-98788079D01*
X226020375Y-98741016D01*
X225876420Y-98647445D01*
X225685404Y-98602043D01*
X225304477Y-98606470D01*
X225209799Y-98655193D01*
X225162736Y-98703362D01*
X225116227Y-98799147D01*
X225118441Y-98989611D01*
X225167164Y-99084289D01*
X225215333Y-99131351D01*
X225311118Y-99177860D01*
X225549197Y-99175093D01*
X225643875Y-99126370D01*
X225690938Y-99078201D01*
X225737447Y-98982416D01*
X225735233Y-98791953D01*
X225686510Y-98697274D01*
X225638341Y-98650212D01*
X225542556Y-98603703D01*
X225134490Y-100370470D02*
X225801112Y-100362722D01*
X225705880Y-100363829D02*
X225754050Y-100410891D01*
X225802772Y-100505569D01*
X225804433Y-100648417D01*
X225757924Y-100744202D01*
X225663245Y-100792924D01*
X225139471Y-100799012D01*
X225663245Y-100792924D02*
X225759030Y-100839433D01*
X225807753Y-100934112D01*
X225809413Y-101076959D01*
X225762904Y-101172744D01*
X225668226Y-101221467D01*
X225144452Y-101227555D01*
X225149986Y-101703713D02*
X225816608Y-101695965D01*
X225721376Y-101697072D02*
X225769545Y-101744134D01*
X225818268Y-101838812D01*
X225819928Y-101981660D01*
X225773419Y-102077445D01*
X225678741Y-102126168D01*
X225154967Y-102132255D01*
X225678741Y-102126168D02*
X225774526Y-102172677D01*
X225823249Y-102267355D01*
X225824909Y-102410202D01*
X225778400Y-102505988D01*
X225683722Y-102554710D01*
X225159948Y-102560798D01*
D11*
X223371556Y-19041681D02*
X225206956Y-176956681D01*
X161740600Y-19758000D02*
X223957937Y-19034866D01*
X163576000Y-177673000D02*
X225793337Y-176949866D01*
X225206956Y-176956681D02*
X224607483Y-175837069D01*
X225206956Y-176956681D02*
X225780245Y-175823438D01*
X223371556Y-19041681D02*
X222798267Y-20174924D01*
X223371556Y-19041681D02*
X223971029Y-20161293D01*
D10*
X108404481Y-181942091D02*
X107833109Y-181934021D01*
X108118795Y-181938056D02*
X108132916Y-180938156D01*
X108035671Y-181079654D01*
X107939097Y-181173537D01*
X107843196Y-181219807D01*
X108983922Y-181378789D02*
X108889366Y-181329829D01*
X108842424Y-181281543D01*
X108796154Y-181185642D01*
X108796827Y-181138027D01*
X108845786Y-181043471D01*
X108894073Y-180996529D01*
X108989974Y-180950260D01*
X109180431Y-180952950D01*
X109274987Y-181001909D01*
X109321929Y-181050196D01*
X109368198Y-181146097D01*
X109367526Y-181193711D01*
X109318567Y-181288267D01*
X109270280Y-181335209D01*
X109174379Y-181381478D01*
X108983922Y-181378789D01*
X108888021Y-181425058D01*
X108839734Y-181472000D01*
X108790775Y-181566556D01*
X108788085Y-181757013D01*
X108834354Y-181852914D01*
X108881296Y-181901201D01*
X108975852Y-181950160D01*
X109166310Y-181952850D01*
X109262211Y-181906581D01*
X109310497Y-181859639D01*
X109359457Y-181765083D01*
X109362146Y-181574625D01*
X109315877Y-181478724D01*
X109268935Y-181430438D01*
X109174379Y-181381478D01*
X109750458Y-181056248D02*
X109798745Y-181009306D01*
X109894646Y-180963037D01*
X110132717Y-180966399D01*
X110227273Y-181015358D01*
X110274215Y-181063645D01*
X110320484Y-181159546D01*
X110319140Y-181254774D01*
X110269508Y-181396945D01*
X109690067Y-181960247D01*
X110309053Y-181968989D01*
X110738926Y-181879812D02*
X110785868Y-181928099D01*
X110737581Y-181975041D01*
X110690640Y-181926754D01*
X110738926Y-181879812D01*
X110737581Y-181975041D01*
X111703989Y-180988590D02*
X111227846Y-180981865D01*
X111173507Y-181457336D01*
X111221794Y-181410394D01*
X111317695Y-181364125D01*
X111555766Y-181367487D01*
X111650323Y-181416446D01*
X111697264Y-181464733D01*
X111743534Y-181560634D01*
X111740172Y-181798705D01*
X111691212Y-181893261D01*
X111642926Y-181940203D01*
X111547024Y-181986473D01*
X111308953Y-181983110D01*
X111214397Y-181934151D01*
X111167455Y-181885864D01*
X112689768Y-182002612D02*
X112118396Y-181994542D01*
X112404082Y-181998577D02*
X112418203Y-180998677D01*
X112320957Y-181140175D01*
X112224384Y-181234058D01*
X112128483Y-181280328D01*
X113269209Y-181439309D02*
X113174653Y-181390350D01*
X113127711Y-181342064D01*
X113081441Y-181246162D01*
X113082114Y-181198548D01*
X113131073Y-181103992D01*
X113179360Y-181057050D01*
X113275261Y-181010781D01*
X113465718Y-181013471D01*
X113560274Y-181062430D01*
X113607216Y-181110717D01*
X113653485Y-181206618D01*
X113652813Y-181254232D01*
X113603854Y-181348788D01*
X113555567Y-181395730D01*
X113459666Y-181441999D01*
X113269209Y-181439309D01*
X113173308Y-181485579D01*
X113125021Y-181532521D01*
X113076062Y-181627077D01*
X113073372Y-181817534D01*
X113119641Y-181913435D01*
X113166583Y-181961722D01*
X113261139Y-182010681D01*
X113451596Y-182013371D01*
X113547498Y-181967102D01*
X113595784Y-181920160D01*
X113644743Y-181825604D01*
X113647433Y-181635146D01*
X113601164Y-181539245D01*
X113554222Y-181490959D01*
X113459666Y-181441999D01*
X114832411Y-182032872D02*
X114841826Y-181366272D01*
X114840481Y-181461500D02*
X114888767Y-181414559D01*
X114984668Y-181368289D01*
X115127511Y-181370307D01*
X115222067Y-181419266D01*
X115268337Y-181515167D01*
X115260940Y-182038924D01*
X115268337Y-181515167D02*
X115317296Y-181420611D01*
X115413197Y-181374341D01*
X115556040Y-181376359D01*
X115650596Y-181425318D01*
X115696866Y-181521219D01*
X115689469Y-182044976D01*
X116165612Y-182051701D02*
X116175026Y-181385101D01*
X116173681Y-181480329D02*
X116221968Y-181433387D01*
X116317869Y-181387118D01*
X116460712Y-181389135D01*
X116555268Y-181438095D01*
X116601537Y-181533996D01*
X116594140Y-182057753D01*
X116601537Y-181533996D02*
X116650496Y-181439439D01*
X116746397Y-181393170D01*
X116889240Y-181395187D01*
X116983797Y-181444147D01*
X117030066Y-181540048D01*
X117022669Y-182063805D01*
D11*
X21226009Y-178988321D02*
X203726029Y-181565761D01*
X21971000Y-126238000D02*
X21217728Y-179574683D01*
X204471020Y-128815440D02*
X203717748Y-182152123D01*
X203726029Y-181565761D02*
X202591356Y-182136215D01*
X203726029Y-181565761D02*
X202607919Y-180963491D01*
X21226009Y-178988321D02*
X22344119Y-179590591D01*
X21226009Y-178988321D02*
X22360682Y-178417867D01*
D12*
X164846000Y-93218000D02*
X164941000Y-109166000D01*
X164846000Y-74168000D02*
X164846000Y-88138000D01*
X164846000Y-56388000D02*
X164846000Y-69088000D01*
X168656000Y-56388000D02*
X164846000Y-56388000D01*
X187706000Y-104013000D02*
X188341000Y-117983000D01*
X168656000Y-104013000D02*
X187706000Y-104013000D01*
X168656000Y-93218000D02*
X168656000Y-104013000D01*
X164846000Y-93218000D02*
X168656000Y-93218000D01*
X187706000Y-88138000D02*
X164846000Y-88138000D01*
X187706000Y-84963000D02*
X187706000Y-88138000D01*
X168656000Y-84963000D02*
X187706000Y-84963000D01*
X168656000Y-74168000D02*
X168656000Y-84963000D01*
X164846000Y-74168000D02*
X168656000Y-74168000D01*
X186436000Y-69088000D02*
X164846000Y-69088000D01*
X186436000Y-66548000D02*
X186436000Y-69088000D01*
X168656000Y-66548000D02*
X186436000Y-66548000D01*
X168656000Y-56388000D02*
X168656000Y-66548000D01*
X164846000Y-51308000D02*
X164941000Y-22933000D01*
X168656000Y-51308000D02*
X164846000Y-51308000D01*
X169843200Y-109166000D02*
X188341000Y-117983000D01*
X191516000Y-119253000D02*
X202934320Y-124596500D01*
X191516000Y-51308000D02*
X191516000Y-119253000D01*
X168656000Y-51308000D02*
X191516000Y-51308000D01*
X21634200Y-22933000D02*
X21634200Y-130883000D01*
X137431000Y-19758000D02*
X134031000Y-19758000D01*
X137431000Y-19758000D02*
X149675600Y-19758000D01*
X132505200Y-19758000D02*
X134031000Y-19758000D01*
X24809200Y-19758000D02*
X84143600Y-19758000D01*
X84143600Y-17980000D02*
X95649800Y-17980000D01*
X84143600Y-19758000D02*
X84143600Y-17980000D01*
X95649800Y-17980000D02*
X95649800Y-19758000D01*
X95649800Y-19758000D02*
X132505200Y-19758000D01*
X149675600Y-19758000D02*
X161740600Y-19758000D01*
X161740600Y-19758000D02*
X164941000Y-22933000D01*
X100399600Y-140408000D02*
X31159200Y-140408000D01*
X31159200Y-140408000D02*
X21634200Y-130883000D01*
X21634200Y-22933000D02*
X24809200Y-19758000D01*
X164941000Y-109166000D02*
X169843200Y-109166000D01*
X202934320Y-124596500D02*
X204471020Y-128815440D01*
X204471020Y-128815440D02*
X182787040Y-175317760D01*
X182787040Y-175317760D02*
X178568100Y-176851920D01*
X178568100Y-176851920D02*
X100399600Y-140408000D01*
D13*
%TO.C,SW1:9*%
X123412000Y-133848000D02*
X110712000Y-133848000D01*
X110712000Y-133848000D02*
X110712000Y-121148000D01*
X110712000Y-121148000D02*
X123412000Y-121148000D01*
X123412000Y-121148000D02*
X123412000Y-133848000D01*
%TO.C,SW5:13*%
X42449500Y-60855200D02*
X29749500Y-60855200D01*
X29749500Y-60855200D02*
X29749500Y-48155200D01*
X29749500Y-48155200D02*
X42449500Y-48155200D01*
X42449500Y-48155200D02*
X42449500Y-60855200D01*
%TO.C,SX1:7*%
X170608308Y-148422500D02*
X159098200Y-143055248D01*
X159098200Y-143055248D02*
X164465452Y-131545140D01*
X164465452Y-131545140D02*
X175975560Y-136912392D01*
X175975560Y-136912392D02*
X170608308Y-148422500D01*
%TO.C,SW3:13*%
X42449500Y-98952660D02*
X29749500Y-98952660D01*
X29749500Y-98952660D02*
X29749500Y-86252660D01*
X29749500Y-86252660D02*
X42449500Y-86252660D01*
X42449500Y-86252660D02*
X42449500Y-98952660D01*
%TO.C,SW2:9*%
X123412000Y-114827660D02*
X110712000Y-114827660D01*
X110712000Y-114827660D02*
X110712000Y-102127660D01*
X110712000Y-102127660D02*
X123412000Y-102127660D01*
X123412000Y-102127660D02*
X123412000Y-114827660D01*
%TO.C,SW2:10*%
X104362000Y-113230000D02*
X91662000Y-113230000D01*
X91662000Y-113230000D02*
X91662000Y-100530000D01*
X91662000Y-100530000D02*
X104362000Y-100530000D01*
X104362000Y-100530000D02*
X104362000Y-113230000D01*
%TO.C,SW3:9*%
X123412000Y-95777660D02*
X110712000Y-95777660D01*
X110712000Y-95777660D02*
X110712000Y-83077660D01*
X110712000Y-83077660D02*
X123412000Y-83077660D01*
X123412000Y-83077660D02*
X123412000Y-95777660D01*
%TO.C,SW2:11*%
X85312000Y-114827660D02*
X72612000Y-114827660D01*
X72612000Y-114827660D02*
X72612000Y-102127660D01*
X72612000Y-102127660D02*
X85312000Y-102127660D01*
X85312000Y-102127660D02*
X85312000Y-114827660D01*
%TO.C,SW3:10*%
X104362000Y-94180000D02*
X91662000Y-94180000D01*
X91662000Y-94180000D02*
X91662000Y-81480000D01*
X91662000Y-81480000D02*
X104362000Y-81480000D01*
X104362000Y-81480000D02*
X104362000Y-94180000D01*
%TO.C,SW3:11*%
X85312000Y-95777660D02*
X72612000Y-95777660D01*
X72612000Y-95777660D02*
X72612000Y-83077660D01*
X72612000Y-83077660D02*
X85312000Y-83077660D01*
X85312000Y-83077660D02*
X85312000Y-95777660D01*
%TO.C,SW1:11*%
X85312000Y-133848000D02*
X72612000Y-133848000D01*
X72612000Y-133848000D02*
X72612000Y-121148000D01*
X72612000Y-121148000D02*
X85312000Y-121148000D01*
X85312000Y-121148000D02*
X85312000Y-133848000D01*
%TO.C,SW1:10*%
X104362000Y-132280000D02*
X91662000Y-132280000D01*
X91662000Y-132280000D02*
X91662000Y-119580000D01*
X91662000Y-119580000D02*
X104362000Y-119580000D01*
X104362000Y-119580000D02*
X104362000Y-132280000D01*
%TO.C,SX1:8*%
X153343928Y-140370700D02*
X141833820Y-135003448D01*
X141833820Y-135003448D02*
X147201072Y-123493340D01*
X147201072Y-123493340D02*
X158711180Y-128860592D01*
X158711180Y-128860592D02*
X153343928Y-140370700D01*
%TO.C,SW5:12*%
X66262000Y-60855200D02*
X53562000Y-60855200D01*
X53562000Y-60855200D02*
X53562000Y-48155200D01*
X53562000Y-48155200D02*
X66262000Y-48155200D01*
X66262000Y-48155200D02*
X66262000Y-60855200D01*
%TO.C,SW5:11*%
X85312000Y-57677660D02*
X72612000Y-57677660D01*
X72612000Y-57677660D02*
X72612000Y-44977660D01*
X72612000Y-44977660D02*
X85312000Y-44977660D01*
X85312000Y-44977660D02*
X85312000Y-57677660D01*
%TO.C,SW5:10*%
X104362000Y-56080000D02*
X91662000Y-56080000D01*
X91662000Y-56080000D02*
X91662000Y-43380000D01*
X91662000Y-43380000D02*
X104362000Y-43380000D01*
X104362000Y-43380000D02*
X104362000Y-56080000D01*
%TO.C,SW5:9*%
X123412000Y-57677660D02*
X110712000Y-57677660D01*
X110712000Y-57677660D02*
X110712000Y-44977660D01*
X110712000Y-44977660D02*
X123412000Y-44977660D01*
X123412000Y-44977660D02*
X123412000Y-57677660D01*
%TO.C,SW5:8*%
X142462000Y-58950200D02*
X129762000Y-58950200D01*
X129762000Y-58950200D02*
X129762000Y-46250200D01*
X129762000Y-46250200D02*
X142462000Y-46250200D01*
X142462000Y-46250200D02*
X142462000Y-58950200D01*
%TO.C,SW5:7*%
X161512000Y-58950200D02*
X148812000Y-58950200D01*
X148812000Y-58950200D02*
X148812000Y-46250200D01*
X148812000Y-46250200D02*
X161512000Y-46250200D01*
X161512000Y-46250200D02*
X161512000Y-58950200D01*
%TO.C,SW4:13*%
X42449500Y-79902660D02*
X29749500Y-79902660D01*
X29749500Y-79902660D02*
X29749500Y-67202660D01*
X29749500Y-67202660D02*
X42449500Y-67202660D01*
X42449500Y-67202660D02*
X42449500Y-79902660D01*
%TO.C,SW4:12*%
X66262000Y-79902660D02*
X53562000Y-79902660D01*
X53562000Y-79902660D02*
X53562000Y-67202660D01*
X53562000Y-67202660D02*
X66262000Y-67202660D01*
X66262000Y-67202660D02*
X66262000Y-79902660D01*
%TO.C,SW4:11*%
X85312000Y-76727660D02*
X72612000Y-76727660D01*
X72612000Y-76727660D02*
X72612000Y-64027660D01*
X72612000Y-64027660D02*
X85312000Y-64027660D01*
X85312000Y-64027660D02*
X85312000Y-76727660D01*
%TO.C,SW4:10*%
X104362000Y-75130000D02*
X91662000Y-75130000D01*
X91662000Y-75130000D02*
X91662000Y-62430000D01*
X91662000Y-62430000D02*
X104362000Y-62430000D01*
X104362000Y-62430000D02*
X104362000Y-75130000D01*
%TO.C,SW4:9*%
X123412000Y-76727660D02*
X110712000Y-76727660D01*
X110712000Y-76727660D02*
X110712000Y-64027660D01*
X110712000Y-64027660D02*
X123412000Y-64027660D01*
X123412000Y-64027660D02*
X123412000Y-76727660D01*
%TO.C,SW4:8*%
X142462000Y-77997660D02*
X129762000Y-77997660D01*
X129762000Y-77997660D02*
X129762000Y-65297660D01*
X129762000Y-65297660D02*
X142462000Y-65297660D01*
X142462000Y-65297660D02*
X142462000Y-77997660D01*
%TO.C,SW4:7*%
X161512000Y-70060160D02*
X161512000Y-82760160D01*
X161512000Y-82760160D02*
X148812000Y-82760160D01*
X148812000Y-82760160D02*
X148812000Y-70060160D01*
X148812000Y-70060160D02*
X161512000Y-70060160D01*
%TO.C,SW3:12*%
X66262000Y-98952660D02*
X53562000Y-98952660D01*
X53562000Y-98952660D02*
X53562000Y-86252660D01*
X53562000Y-86252660D02*
X66262000Y-86252660D01*
X66262000Y-86252660D02*
X66262000Y-98952660D01*
%TO.C,SW3:8*%
X142462000Y-97047660D02*
X129762000Y-97047660D01*
X129762000Y-97047660D02*
X129762000Y-84347660D01*
X129762000Y-84347660D02*
X142462000Y-84347660D01*
X142462000Y-84347660D02*
X142462000Y-97047660D01*
%TO.C,SW2:13*%
X42449500Y-118002660D02*
X29749500Y-118002660D01*
X29749500Y-118002660D02*
X29749500Y-105302660D01*
X29749500Y-105302660D02*
X42449500Y-105302660D01*
X42449500Y-105302660D02*
X42449500Y-118002660D01*
%TO.C,SW2:12*%
X66262000Y-118002660D02*
X53562000Y-118002660D01*
X53562000Y-118002660D02*
X53562000Y-105302660D01*
X53562000Y-105302660D02*
X66262000Y-105302660D01*
X66262000Y-105302660D02*
X66262000Y-118002660D01*
%TO.C,SW2:8*%
X142462000Y-116097660D02*
X129762000Y-116097660D01*
X129762000Y-116097660D02*
X129762000Y-103397660D01*
X129762000Y-103397660D02*
X142462000Y-103397660D01*
X142462000Y-103397660D02*
X142462000Y-116097660D01*
%TO.C,SW2:7*%
X161512000Y-98635160D02*
X161512000Y-111335160D01*
X161512000Y-111335160D02*
X148812000Y-111335160D01*
X148812000Y-111335160D02*
X148812000Y-98635160D01*
X148812000Y-98635160D02*
X161512000Y-98635160D01*
%TO.C,SW1:13*%
X47212000Y-137052660D02*
X34512000Y-137052660D01*
X34512000Y-137052660D02*
X34512000Y-124352660D01*
X34512000Y-124352660D02*
X47212000Y-124352660D01*
X47212000Y-124352660D02*
X47212000Y-137052660D01*
%TO.C,SW1:12*%
X66262000Y-137052660D02*
X53562000Y-137052660D01*
X53562000Y-137052660D02*
X53562000Y-124352660D01*
X53562000Y-124352660D02*
X66262000Y-124352660D01*
X66262000Y-124352660D02*
X66262000Y-137052660D01*
%TO.C,SW0:12*%
X179823428Y-173738680D02*
X168313320Y-168371428D01*
X168313320Y-168371428D02*
X173680572Y-156861320D01*
X173680572Y-156861320D02*
X185190680Y-162228572D01*
X185190680Y-162228572D02*
X179823428Y-173738680D01*
%TO.C,SW0:11*%
X163347428Y-165436680D02*
X151837320Y-160069428D01*
X151837320Y-160069428D02*
X157204572Y-148559320D01*
X157204572Y-148559320D02*
X168714680Y-153926572D01*
X168714680Y-153926572D02*
X163347428Y-165436680D01*
%TO.C,SW0:10*%
X145347428Y-157436680D02*
X133837320Y-152069428D01*
X133837320Y-152069428D02*
X139204572Y-140559320D01*
X139204572Y-140559320D02*
X150714680Y-145926572D01*
X150714680Y-145926572D02*
X145347428Y-157436680D01*
%TO.C,SW0:9*%
X187875228Y-156471760D02*
X176365120Y-151104508D01*
X176365120Y-151104508D02*
X181732372Y-139594400D01*
X181732372Y-139594400D02*
X193242480Y-144961652D01*
X193242480Y-144961652D02*
X187875228Y-156471760D01*
%TO.C,SW0:8*%
X178660108Y-131158120D02*
X167150000Y-125790868D01*
X167150000Y-125790868D02*
X172517252Y-114280760D01*
X172517252Y-114280760D02*
X184027360Y-119648012D01*
X184027360Y-119648012D02*
X178660108Y-131158120D01*
%TO.C,SW0:7*%
X195924488Y-139207380D02*
X184414380Y-133840128D01*
X184414380Y-133840128D02*
X189781632Y-122330020D01*
X189781632Y-122330020D02*
X201291740Y-127697272D01*
X201291740Y-127697272D02*
X195924488Y-139207380D01*
%TD*%
%TO.C,J103*%
D14*
X176830166Y-70543357D02*
X176824119Y-70549404D01*
X176805976Y-70555452D01*
X176793880Y-70555452D01*
X176775738Y-70549404D01*
X176763642Y-70537309D01*
X176757595Y-70525214D01*
X176751547Y-70501023D01*
X176751547Y-70482880D01*
X176757595Y-70458690D01*
X176763642Y-70446595D01*
X176775738Y-70434500D01*
X176793880Y-70428452D01*
X176805976Y-70428452D01*
X176824119Y-70434500D01*
X176830166Y-70440547D01*
X176902738Y-70555452D02*
X176890642Y-70549404D01*
X176884595Y-70543357D01*
X176878547Y-70531261D01*
X176878547Y-70494976D01*
X176884595Y-70482880D01*
X176890642Y-70476833D01*
X176902738Y-70470785D01*
X176920880Y-70470785D01*
X176932976Y-70476833D01*
X176939023Y-70482880D01*
X176945071Y-70494976D01*
X176945071Y-70531261D01*
X176939023Y-70543357D01*
X176932976Y-70549404D01*
X176920880Y-70555452D01*
X176902738Y-70555452D01*
X176999500Y-70470785D02*
X176999500Y-70597785D01*
X176999500Y-70476833D02*
X177011595Y-70470785D01*
X177035785Y-70470785D01*
X177047880Y-70476833D01*
X177053928Y-70482880D01*
X177059976Y-70494976D01*
X177059976Y-70531261D01*
X177053928Y-70543357D01*
X177047880Y-70549404D01*
X177035785Y-70555452D01*
X177011595Y-70555452D01*
X176999500Y-70549404D01*
X177102309Y-70470785D02*
X177132547Y-70555452D01*
X177162785Y-70470785D02*
X177132547Y-70555452D01*
X177120452Y-70585690D01*
X177114404Y-70591738D01*
X177102309Y-70597785D01*
X177211166Y-70555452D02*
X177211166Y-70470785D01*
X177211166Y-70494976D02*
X177217214Y-70482880D01*
X177223261Y-70476833D01*
X177235357Y-70470785D01*
X177247452Y-70470785D01*
X177289785Y-70555452D02*
X177289785Y-70470785D01*
X177289785Y-70428452D02*
X177283738Y-70434500D01*
X177289785Y-70440547D01*
X177295833Y-70434500D01*
X177289785Y-70428452D01*
X177289785Y-70440547D01*
X177404690Y-70470785D02*
X177404690Y-70573595D01*
X177398642Y-70585690D01*
X177392595Y-70591738D01*
X177380500Y-70597785D01*
X177362357Y-70597785D01*
X177350261Y-70591738D01*
X177404690Y-70549404D02*
X177392595Y-70555452D01*
X177368404Y-70555452D01*
X177356309Y-70549404D01*
X177350261Y-70543357D01*
X177344214Y-70531261D01*
X177344214Y-70494976D01*
X177350261Y-70482880D01*
X177356309Y-70476833D01*
X177368404Y-70470785D01*
X177392595Y-70470785D01*
X177404690Y-70476833D01*
X177465166Y-70555452D02*
X177465166Y-70428452D01*
X177519595Y-70555452D02*
X177519595Y-70488928D01*
X177513547Y-70476833D01*
X177501452Y-70470785D01*
X177483309Y-70470785D01*
X177471214Y-70476833D01*
X177465166Y-70482880D01*
X177561928Y-70470785D02*
X177610309Y-70470785D01*
X177580071Y-70428452D02*
X177580071Y-70537309D01*
X177586119Y-70549404D01*
X177598214Y-70555452D01*
X177610309Y-70555452D01*
X177743357Y-70440547D02*
X177749404Y-70434500D01*
X177761500Y-70428452D01*
X177791738Y-70428452D01*
X177803833Y-70434500D01*
X177809880Y-70440547D01*
X177815928Y-70452642D01*
X177815928Y-70464738D01*
X177809880Y-70482880D01*
X177737309Y-70555452D01*
X177815928Y-70555452D01*
X177894547Y-70428452D02*
X177906642Y-70428452D01*
X177918738Y-70434500D01*
X177924785Y-70440547D01*
X177930833Y-70452642D01*
X177936880Y-70476833D01*
X177936880Y-70507071D01*
X177930833Y-70531261D01*
X177924785Y-70543357D01*
X177918738Y-70549404D01*
X177906642Y-70555452D01*
X177894547Y-70555452D01*
X177882452Y-70549404D01*
X177876404Y-70543357D01*
X177870357Y-70531261D01*
X177864309Y-70507071D01*
X177864309Y-70476833D01*
X177870357Y-70452642D01*
X177876404Y-70440547D01*
X177882452Y-70434500D01*
X177894547Y-70428452D01*
X178057833Y-70555452D02*
X177985261Y-70555452D01*
X178021547Y-70555452D02*
X178021547Y-70428452D01*
X178009452Y-70446595D01*
X177997357Y-70458690D01*
X177985261Y-70464738D01*
X178166690Y-70428452D02*
X178142500Y-70428452D01*
X178130404Y-70434500D01*
X178124357Y-70440547D01*
X178112261Y-70458690D01*
X178106214Y-70482880D01*
X178106214Y-70531261D01*
X178112261Y-70543357D01*
X178118309Y-70549404D01*
X178130404Y-70555452D01*
X178154595Y-70555452D01*
X178166690Y-70549404D01*
X178172738Y-70543357D01*
X178178785Y-70531261D01*
X178178785Y-70501023D01*
X178172738Y-70488928D01*
X178166690Y-70482880D01*
X178154595Y-70476833D01*
X178130404Y-70476833D01*
X178118309Y-70482880D01*
X178112261Y-70488928D01*
X178106214Y-70501023D01*
X178323928Y-70519166D02*
X178384404Y-70519166D01*
X178311833Y-70555452D02*
X178354166Y-70428452D01*
X178396500Y-70555452D01*
X178493261Y-70549404D02*
X178481166Y-70555452D01*
X178456976Y-70555452D01*
X178444880Y-70549404D01*
X178438833Y-70543357D01*
X178432785Y-70531261D01*
X178432785Y-70494976D01*
X178438833Y-70482880D01*
X178444880Y-70476833D01*
X178456976Y-70470785D01*
X178481166Y-70470785D01*
X178493261Y-70476833D01*
X178602119Y-70549404D02*
X178590023Y-70555452D01*
X178565833Y-70555452D01*
X178553738Y-70549404D01*
X178547690Y-70543357D01*
X178541642Y-70531261D01*
X178541642Y-70494976D01*
X178547690Y-70482880D01*
X178553738Y-70476833D01*
X178565833Y-70470785D01*
X178590023Y-70470785D01*
X178602119Y-70476833D01*
X178704928Y-70549404D02*
X178692833Y-70555452D01*
X178668642Y-70555452D01*
X178656547Y-70549404D01*
X178650500Y-70537309D01*
X178650500Y-70488928D01*
X178656547Y-70476833D01*
X178668642Y-70470785D01*
X178692833Y-70470785D01*
X178704928Y-70476833D01*
X178710976Y-70488928D01*
X178710976Y-70501023D01*
X178650500Y-70513119D01*
X178783547Y-70555452D02*
X178771452Y-70549404D01*
X178765404Y-70537309D01*
X178765404Y-70428452D01*
X178880309Y-70549404D02*
X178868214Y-70555452D01*
X178844023Y-70555452D01*
X178831928Y-70549404D01*
X178825880Y-70537309D01*
X178825880Y-70488928D01*
X178831928Y-70476833D01*
X178844023Y-70470785D01*
X178868214Y-70470785D01*
X178880309Y-70476833D01*
X178886357Y-70488928D01*
X178886357Y-70501023D01*
X178825880Y-70513119D01*
X178940785Y-70555452D02*
X178940785Y-70470785D01*
X178940785Y-70494976D02*
X178946833Y-70482880D01*
X178952880Y-70476833D01*
X178964976Y-70470785D01*
X178977071Y-70470785D01*
X179073833Y-70555452D02*
X179073833Y-70488928D01*
X179067785Y-70476833D01*
X179055690Y-70470785D01*
X179031500Y-70470785D01*
X179019404Y-70476833D01*
X179073833Y-70549404D02*
X179061738Y-70555452D01*
X179031500Y-70555452D01*
X179019404Y-70549404D01*
X179013357Y-70537309D01*
X179013357Y-70525214D01*
X179019404Y-70513119D01*
X179031500Y-70507071D01*
X179061738Y-70507071D01*
X179073833Y-70501023D01*
X179116166Y-70470785D02*
X179164547Y-70470785D01*
X179134309Y-70428452D02*
X179134309Y-70537309D01*
X179140357Y-70549404D01*
X179152452Y-70555452D01*
X179164547Y-70555452D01*
X179255261Y-70549404D02*
X179243166Y-70555452D01*
X179218976Y-70555452D01*
X179206880Y-70549404D01*
X179200833Y-70537309D01*
X179200833Y-70488928D01*
X179206880Y-70476833D01*
X179218976Y-70470785D01*
X179243166Y-70470785D01*
X179255261Y-70476833D01*
X179261309Y-70488928D01*
X179261309Y-70501023D01*
X179200833Y-70513119D01*
X179370166Y-70555452D02*
X179370166Y-70428452D01*
X179370166Y-70549404D02*
X179358071Y-70555452D01*
X179333880Y-70555452D01*
X179321785Y-70549404D01*
X179315738Y-70543357D01*
X179309690Y-70531261D01*
X179309690Y-70494976D01*
X179315738Y-70482880D01*
X179321785Y-70476833D01*
X179333880Y-70470785D01*
X179358071Y-70470785D01*
X179370166Y-70476833D01*
X179527404Y-70555452D02*
X179527404Y-70428452D01*
X179557642Y-70428452D01*
X179575785Y-70434500D01*
X179587880Y-70446595D01*
X179593928Y-70458690D01*
X179599976Y-70482880D01*
X179599976Y-70501023D01*
X179593928Y-70525214D01*
X179587880Y-70537309D01*
X179575785Y-70549404D01*
X179557642Y-70555452D01*
X179527404Y-70555452D01*
X179702785Y-70549404D02*
X179690690Y-70555452D01*
X179666500Y-70555452D01*
X179654404Y-70549404D01*
X179648357Y-70537309D01*
X179648357Y-70488928D01*
X179654404Y-70476833D01*
X179666500Y-70470785D01*
X179690690Y-70470785D01*
X179702785Y-70476833D01*
X179708833Y-70488928D01*
X179708833Y-70501023D01*
X179648357Y-70513119D01*
X179757214Y-70549404D02*
X179769309Y-70555452D01*
X179793500Y-70555452D01*
X179805595Y-70549404D01*
X179811642Y-70537309D01*
X179811642Y-70531261D01*
X179805595Y-70519166D01*
X179793500Y-70513119D01*
X179775357Y-70513119D01*
X179763261Y-70507071D01*
X179757214Y-70494976D01*
X179757214Y-70488928D01*
X179763261Y-70476833D01*
X179775357Y-70470785D01*
X179793500Y-70470785D01*
X179805595Y-70476833D01*
X179866071Y-70555452D02*
X179866071Y-70470785D01*
X179866071Y-70428452D02*
X179860023Y-70434500D01*
X179866071Y-70440547D01*
X179872119Y-70434500D01*
X179866071Y-70428452D01*
X179866071Y-70440547D01*
X179980976Y-70470785D02*
X179980976Y-70573595D01*
X179974928Y-70585690D01*
X179968880Y-70591738D01*
X179956785Y-70597785D01*
X179938642Y-70597785D01*
X179926547Y-70591738D01*
X179980976Y-70549404D02*
X179968880Y-70555452D01*
X179944690Y-70555452D01*
X179932595Y-70549404D01*
X179926547Y-70543357D01*
X179920500Y-70531261D01*
X179920500Y-70494976D01*
X179926547Y-70482880D01*
X179932595Y-70476833D01*
X179944690Y-70470785D01*
X179968880Y-70470785D01*
X179980976Y-70476833D01*
X180041452Y-70470785D02*
X180041452Y-70555452D01*
X180041452Y-70482880D02*
X180047500Y-70476833D01*
X180059595Y-70470785D01*
X180077738Y-70470785D01*
X180089833Y-70476833D01*
X180095880Y-70488928D01*
X180095880Y-70555452D01*
X180150309Y-70549404D02*
X180162404Y-70555452D01*
X180186595Y-70555452D01*
X180198690Y-70549404D01*
X180204738Y-70537309D01*
X180204738Y-70531261D01*
X180198690Y-70519166D01*
X180186595Y-70513119D01*
X180168452Y-70513119D01*
X180156357Y-70507071D01*
X180150309Y-70494976D01*
X180150309Y-70488928D01*
X180156357Y-70476833D01*
X180168452Y-70470785D01*
X180186595Y-70470785D01*
X180198690Y-70476833D01*
X180259166Y-70543357D02*
X180265214Y-70549404D01*
X180259166Y-70555452D01*
X180253119Y-70549404D01*
X180259166Y-70543357D01*
X180259166Y-70555452D01*
X180410357Y-70519166D02*
X180470833Y-70519166D01*
X180398261Y-70555452D02*
X180440595Y-70428452D01*
X180482928Y-70555452D01*
X180543404Y-70555452D02*
X180531309Y-70549404D01*
X180525261Y-70537309D01*
X180525261Y-70428452D01*
X180609928Y-70555452D02*
X180597833Y-70549404D01*
X180591785Y-70537309D01*
X180591785Y-70428452D01*
X180755071Y-70555452D02*
X180755071Y-70470785D01*
X180755071Y-70494976D02*
X180761119Y-70482880D01*
X180767166Y-70476833D01*
X180779261Y-70470785D01*
X180791357Y-70470785D01*
X180833690Y-70555452D02*
X180833690Y-70470785D01*
X180833690Y-70428452D02*
X180827642Y-70434500D01*
X180833690Y-70440547D01*
X180839738Y-70434500D01*
X180833690Y-70428452D01*
X180833690Y-70440547D01*
X180948595Y-70470785D02*
X180948595Y-70573595D01*
X180942547Y-70585690D01*
X180936500Y-70591738D01*
X180924404Y-70597785D01*
X180906261Y-70597785D01*
X180894166Y-70591738D01*
X180948595Y-70549404D02*
X180936500Y-70555452D01*
X180912309Y-70555452D01*
X180900214Y-70549404D01*
X180894166Y-70543357D01*
X180888119Y-70531261D01*
X180888119Y-70494976D01*
X180894166Y-70482880D01*
X180900214Y-70476833D01*
X180912309Y-70470785D01*
X180936500Y-70470785D01*
X180948595Y-70476833D01*
X181009071Y-70555452D02*
X181009071Y-70428452D01*
X181063500Y-70555452D02*
X181063500Y-70488928D01*
X181057452Y-70476833D01*
X181045357Y-70470785D01*
X181027214Y-70470785D01*
X181015119Y-70476833D01*
X181009071Y-70482880D01*
X181105833Y-70470785D02*
X181154214Y-70470785D01*
X181123976Y-70428452D02*
X181123976Y-70537309D01*
X181130023Y-70549404D01*
X181142119Y-70555452D01*
X181154214Y-70555452D01*
X181190500Y-70549404D02*
X181202595Y-70555452D01*
X181226785Y-70555452D01*
X181238880Y-70549404D01*
X181244928Y-70537309D01*
X181244928Y-70531261D01*
X181238880Y-70519166D01*
X181226785Y-70513119D01*
X181208642Y-70513119D01*
X181196547Y-70507071D01*
X181190500Y-70494976D01*
X181190500Y-70488928D01*
X181196547Y-70476833D01*
X181208642Y-70470785D01*
X181226785Y-70470785D01*
X181238880Y-70476833D01*
X181396119Y-70555452D02*
X181396119Y-70470785D01*
X181396119Y-70494976D02*
X181402166Y-70482880D01*
X181408214Y-70476833D01*
X181420309Y-70470785D01*
X181432404Y-70470785D01*
X181523119Y-70549404D02*
X181511023Y-70555452D01*
X181486833Y-70555452D01*
X181474738Y-70549404D01*
X181468690Y-70537309D01*
X181468690Y-70488928D01*
X181474738Y-70476833D01*
X181486833Y-70470785D01*
X181511023Y-70470785D01*
X181523119Y-70476833D01*
X181529166Y-70488928D01*
X181529166Y-70501023D01*
X181468690Y-70513119D01*
X181577547Y-70549404D02*
X181589642Y-70555452D01*
X181613833Y-70555452D01*
X181625928Y-70549404D01*
X181631976Y-70537309D01*
X181631976Y-70531261D01*
X181625928Y-70519166D01*
X181613833Y-70513119D01*
X181595690Y-70513119D01*
X181583595Y-70507071D01*
X181577547Y-70494976D01*
X181577547Y-70488928D01*
X181583595Y-70476833D01*
X181595690Y-70470785D01*
X181613833Y-70470785D01*
X181625928Y-70476833D01*
X181734785Y-70549404D02*
X181722690Y-70555452D01*
X181698500Y-70555452D01*
X181686404Y-70549404D01*
X181680357Y-70537309D01*
X181680357Y-70488928D01*
X181686404Y-70476833D01*
X181698500Y-70470785D01*
X181722690Y-70470785D01*
X181734785Y-70476833D01*
X181740833Y-70488928D01*
X181740833Y-70501023D01*
X181680357Y-70513119D01*
X181795261Y-70555452D02*
X181795261Y-70470785D01*
X181795261Y-70494976D02*
X181801309Y-70482880D01*
X181807357Y-70476833D01*
X181819452Y-70470785D01*
X181831547Y-70470785D01*
X181861785Y-70470785D02*
X181892023Y-70555452D01*
X181922261Y-70470785D01*
X182019023Y-70549404D02*
X182006928Y-70555452D01*
X181982738Y-70555452D01*
X181970642Y-70549404D01*
X181964595Y-70537309D01*
X181964595Y-70488928D01*
X181970642Y-70476833D01*
X181982738Y-70470785D01*
X182006928Y-70470785D01*
X182019023Y-70476833D01*
X182025071Y-70488928D01*
X182025071Y-70501023D01*
X181964595Y-70513119D01*
X182133928Y-70555452D02*
X182133928Y-70428452D01*
X182133928Y-70549404D02*
X182121833Y-70555452D01*
X182097642Y-70555452D01*
X182085547Y-70549404D01*
X182079500Y-70543357D01*
X182073452Y-70531261D01*
X182073452Y-70494976D01*
X182079500Y-70482880D01*
X182085547Y-70476833D01*
X182097642Y-70470785D01*
X182121833Y-70470785D01*
X182133928Y-70476833D01*
X182194404Y-70543357D02*
X182200452Y-70549404D01*
X182194404Y-70555452D01*
X182188357Y-70549404D01*
X182194404Y-70543357D01*
X182194404Y-70555452D01*
%TD*%
M02*
